<?xml version="1.0" encoding="UTF-8" standalone="no"?>
<!DOCTYPE svg PUBLIC "-//W3C//DTD SVG 1.1//EN" "http://www.w3.org/Graphics/SVG/1.1/DTD/svg11.dtd">
<svg xmlns="http://www.w3.org/2000/svg" version="1.1" viewBox="0.00 0.00 512.00 512.00">
<g fill="#000000">
<path d="
  M 141.80 0.00
  L 169.01 0.00
  C 179.05 3.05 176.87 14.92 166.36 14.98
  C 148.75 15.07 126.22 9.83 126.24 36.26
  Q 126.26 58.53 126.25 80.17
  A 2.58 2.58 0.0 0 0 128.83 82.75
  L 383.01 82.75
  A 2.74 2.73 0.0 0 0 385.75 80.02
  Q 385.76 57.77 385.74 35.38
  C 385.73 26.61 383.14 19.72 374.87 16.40
  Q 371.35 14.99 363.93 14.99
  Q 283.12 15.02 202.31 14.99
  C 194.44 14.99 192.69 2.93 202.05 0.00
  L 370.05 0.00
  C 387.14 1.49 400.73 15.07 400.75 32.00
  Q 400.76 54.41 400.74 76.82
  C 400.72 96.45 388.25 98.68 371.56 97.55
  A 0.36 0.35 -22.3 0 0 371.30 98.17
  Q 383.61 109.12 395.87 120.09
  C 408.53 131.43 415.75 137.71 415.75 153.75
  Q 415.76 291.38 415.74 429.00
  C 415.74 443.29 414.05 451.91 403.78 461.03
  Q 366.59 494.07 354.91 504.16
  Q 346.88 511.11 335.43 512.00
  L 176.19 512.00
  C 163.89 510.77 158.67 505.54 148.08 496.22
  Q 127.85 478.43 107.71 460.53
  C 97.76 451.69 96.26 442.80 96.26 428.83
  Q 96.24 291.16 96.30 153.50
  C 96.31 137.66 103.40 131.53 115.90 120.33
  Q 128.25 109.27 140.60 98.29
  A 0.42 0.42 0.0 0 0 140.29 97.55
  C 124.11 98.57 111.26 96.61 111.25 77.09
  Q 111.25 54.17 111.25 31.25
  C 111.25 14.20 125.69 1.86 141.80 0.00
  Z
  M 171.14 211.30
  C 214.38 153.37 297.28 153.98 340.77 211.28
  Q 341.13 211.75 341.72 211.75
  L 400.24 211.75
  A 0.50 0.50 0.0 0 0 400.74 211.25
  Q 400.77 183.21 400.73 155.15
  C 400.72 149.27 399.65 143.56 395.58 139.92
  Q 372.10 118.96 348.75 98.14
  A 1.50 1.50 0.0 0 0 347.74 97.75
  L 164.25 97.75
  Q 163.74 97.75 163.36 98.09
  Q 141.31 117.71 119.31 137.38
  C 114.23 141.92 111.25 146.01 111.25 152.50
  Q 111.25 181.99 111.25 211.24
  A 0.51 0.51 0.0 0 0 111.76 211.75
  L 170.25 211.75
  Q 170.81 211.75 171.14 211.30
  Z
  M 395.31 448.31
  C 401.49 442.73 401.05 434.67 400.71 426.04
  Q 400.69 425.47 400.12 425.47
  Q 371.01 425.54 341.92 425.48
  Q 336.83 425.47 334.84 424.59
  C 326.78 421.03 330.37 410.51 339.48 410.50
  Q 369.82 410.50 400.00 410.50
  A 0.75 0.75 0.0 0 0 400.75 409.75
  L 400.75 227.25
  A 0.50 0.50 0.0 0 0 400.25 226.75
  L 351.00 226.75
  Q 350.29 226.75 350.58 227.40
  Q 366.79 263.09 357.35 299.63
  C 343.36 353.77 288.43 387.05 234.19 375.50
  C 192.31 366.58 157.82 331.23 152.25 288.50
  C 150.98 278.71 164.91 275.64 167.07 287.00
  Q 175.27 330.06 211.90 351.13
  C 270.09 384.61 341.94 343.55 345.59 277.49
  C 349.50 206.43 271.76 159.15 210.64 195.40
  Q 178.06 214.73 168.31 253.02
  C 165.62 263.56 151.42 260.53 153.80 249.76
  Q 156.41 238.00 161.53 227.58
  Q 161.94 226.73 161.00 226.74
  L 111.75 226.76
  A 0.50 0.49 -0.0 0 0 111.25 227.25
  L 111.25 409.99
  A 0.51 0.51 0.0 0 0 111.76 410.50
  Q 206.98 410.49 302.23 410.51
  C 310.50 410.51 313.56 420.27 306.88 424.18
  C 304.45 425.61 300.64 425.49 298.00 425.50
  Q 259.60 425.54 111.91 425.48
  Q 111.37 425.48 111.35 426.01
  C 110.70 437.83 110.86 443.31 119.92 451.34
  Q 143.05 471.84 166.26 492.25
  Q 171.69 497.02 179.00 497.02
  Q 256.12 497.00 333.25 496.94
  Q 340.19 496.93 344.52 493.27
  Q 360.29 479.93 395.31 448.31
  Z"
/>
<path d="
  M 256.0000 334.4500
  A 61.52 51.97 90.0 0 1 204.0300 272.9300
  A 61.52 51.97 90.0 0 1 256.0000 211.4100
  A 61.52 51.97 90.0 0 1 307.9700 272.9300
  A 61.52 51.97 90.0 0 1 256.0000 334.4500
  Z
  M 249.76 226.99
  C 210.55 237.26 208.86 302.30 244.69 317.29
  A 0.42 0.42 0.0 0 0 245.25 316.78
  C 240.60 301.16 235.75 288.05 246.44 273.84
  C 250.97 267.81 256.65 265.34 257.31 257.14
  Q 257.55 254.17 256.24 248.92
  Q 253.58 238.19 250.45 227.38
  A 0.56 0.56 0.0 0 0 249.76 226.99
  Z
  M 255.94 287.44
  C 253.05 296.15 258.74 309.58 261.27 318.30
  Q 261.41 318.78 261.91 318.74
  Q 264.07 318.58 265.72 317.94
  C 302.08 303.75 301.82 243.87 266.83 228.28
  A 0.35 0.35 0.0 0 0 266.35 228.70
  C 270.87 244.94 276.93 259.36 266.23 274.41
  C 263.28 278.56 257.73 282.03 255.94 287.44
  Z"
/>
</g>
</svg>
