<?xml version="1.0" encoding="UTF-8" standalone="no"?>
<!DOCTYPE svg PUBLIC "-//W3C//DTD SVG 1.1//EN" "http://www.w3.org/Graphics/SVG/1.1/DTD/svg11.dtd">
<svg xmlns="http://www.w3.org/2000/svg" version="1.1" viewBox="0.00 0.00 512.00 512.00">
<g fill="#000000">
<path d="
  M 134.57 0.00
  L 169.07 0.00
  Q 181.01 2.06 180.85 14.33
  Q 180.84 15.27 181.78 15.27
  Q 209.63 15.21 237.89 15.29
  C 252.36 15.33 259.54 19.94 270.08 30.47
  Q 291.33 51.70 312.58 72.94
  C 320.26 80.62 327.36 80.16 339.55 80.23
  Q 350.65 80.29 361.73 80.24
  C 369.36 80.21 374.21 79.43 374.24 70.72
  Q 374.26 64.50 374.24 61.59
  A 0.61 0.60 1.5 0 0 373.66 60.99
  Q 366.76 60.67 363.67 55.57
  Q 359.75 49.10 347.96 27.28
  C 341.35 15.06 347.26 1.90 361.31 0.00
  L 402.05 0.00
  Q 413.30 1.51 417.18 11.58
  C 419.39 17.35 418.06 22.23 414.95 27.90
  Q 408.98 38.76 402.80 49.50
  C 398.91 56.26 397.14 60.15 389.81 61.11
  Q 389.30 61.17 389.28 61.69
  C 389.15 66.37 389.62 71.88 388.86 75.90
  C 386.33 89.43 376.50 95.02 363.59 95.12
  Q 353.31 95.20 330.93 95.13
  C 317.12 95.08 309.22 90.61 299.25 80.76
  Q 276.99 58.76 254.96 36.53
  C 249.90 31.43 244.19 30.24 236.53 30.25
  Q 209.09 30.29 181.60 30.20
  Q 181.06 30.19 181.05 30.74
  L 180.89 37.46
  Q 180.88 37.98 181.40 37.98
  C 199.76 38.11 197.61 49.21 197.77 63.42
  Q 197.78 63.98 198.34 63.99
  C 215.13 64.06 238.78 59.36 238.77 84.30
  Q 238.75 106.39 238.73 128.47
  C 238.72 140.70 227.72 147.61 219.91 155.03
  A 1.32 1.30 -22.1 0 0 219.50 155.98
  L 219.50 296.75
  Q 219.50 297.22 219.75 297.62
  Q 228.26 311.28 236.66 325.01
  C 237.89 327.03 238.75 330.46 238.75 332.81
  Q 238.73 364.25 238.78 395.50
  A 0.52 0.51 66.7 0 0 239.67 395.86
  C 248.86 386.14 258.49 375.66 271.01 370.38
  C 287.61 363.38 306.68 364.70 322.14 373.95
  Q 327.60 377.21 336.16 385.49
  Q 352.76 401.54 369.16 417.81
  Q 372.08 420.71 372.72 422.62
  C 374.39 427.57 369.34 433.10 364.33 432.11
  Q 361.92 431.63 358.92 428.70
  Q 344.33 414.46 329.78 400.18
  Q 320.43 391.00 318.54 389.53
  C 305.51 379.44 286.82 378.23 272.75 386.24
  Q 267.80 389.06 259.49 397.20
  Q 208.82 446.79 158.29 496.50
  A 0.29 0.29 0.0 0 0 158.50 497.00
  L 427.51 497.00
  A 0.41 0.41 0.0 0 0 427.79 496.30
  Q 407.01 476.01 386.29 455.56
  Q 383.67 452.97 383.16 450.82
  C 381.94 445.64 387.60 440.34 392.43 442.02
  Q 394.55 442.77 398.32 446.44
  Q 419.92 467.50 441.36 488.72
  Q 445.43 492.76 446.41 495.68
  C 448.94 503.22 443.52 510.77 435.68 512.00
  L 81.44 512.00
  C 68.51 509.87 64.99 501.47 64.99 489.56
  Q 65.01 411.16 65.00 332.75
  Q 64.99 328.05 68.33 322.98
  C 73.75 314.76 78.77 306.23 83.98 297.87
  A 1.75 1.68 62.3 0 0 84.25 296.94
  Q 84.25 263.84 84.25 230.76
  C 84.25 220.18 99.22 219.39 99.23 231.10
  Q 99.27 261.32 99.24 291.49
  A 0.52 0.51 0.0 0 0 99.76 292.00
  L 203.78 292.00
  A 0.72 0.72 0.0 0 0 204.50 291.28
  L 204.50 159.81
  A 0.31 0.31 0.0 0 0 204.19 159.50
  L 99.76 159.50
  A 0.51 0.50 -0.0 0 0 99.25 160.00
  Q 99.24 176.30 99.25 192.77
  Q 99.25 197.12 98.06 199.00
  C 94.87 204.07 87.18 203.29 84.97 197.83
  Q 84.27 196.11 84.26 191.93
  Q 84.24 173.86 84.25 155.77
  Q 84.25 155.26 83.89 154.92
  Q 76.36 147.88 69.06 140.70
  C 66.03 137.73 65.02 132.13 65.02 127.43
  Q 65.00 106.83 64.99 86.24
  C 64.97 59.50 85.83 63.99 105.03 64.03
  Q 105.96 64.03 105.97 63.10
  C 106.10 49.47 104.16 38.10 122.40 37.99
  Q 122.97 37.98 122.97 37.41
  Q 123.06 28.25 123.00 19.12
  C 122.93 8.97 123.80 2.06 134.57 0.00
  Z
  M 165.9809 15.5456
  A 0.57 0.57 0.0 0 0 165.4099 14.9766
  L 138.5499 15.0235
  A 0.57 0.57 0.0 0 0 137.9809 15.5945
  L 138.0191 37.4744
  A 0.57 0.57 0.0 0 0 138.5901 38.0434
  L 165.4501 37.9965
  A 0.57 0.57 0.0 0 0 166.0191 37.4255
  L 165.9809 15.5456
  Z
  M 360.22 16.73
  C 359.83 18.33 360.66 19.37 361.40 20.71
  Q 368.30 33.20 375.31 45.77
  A 0.86 0.84 -14.0 0 0 376.06 46.21
  L 386.87 46.26
  A 0.92 0.92 0.0 0 0 387.69 45.79
  L 402.97 18.75
  A 2.51 2.51 0.0 0 0 400.79 15.00
  L 362.44 15.00
  A 2.29 2.28 6.9 0 0 360.22 16.73
  Z
  M 182.78 53.53
  A 0.53 0.53 0.0 0 0 182.25 53.00
  L 121.53 53.00
  A 0.53 0.53 0.0 0 0 121.00 53.53
  L 121.00 63.47
  A 0.53 0.53 0.0 0 0 121.53 64.00
  L 182.25 64.00
  A 0.53 0.53 0.0 0 0 182.78 63.47
  L 182.78 53.53
  Z
  M 222.41 79.49
  Q 221.27 79.15 220.50 79.15
  Q 151.70 78.99 83.24 78.98
  A 3.24 3.24 0.0 0 0 80.00 82.22
  L 80.00 129.40
  A 2.61 2.60 -68.5 0 0 80.82 131.30
  L 94.18 144.00
  A 1.79 1.79 0.0 0 0 95.42 144.50
  L 208.68 144.51
  A 1.19 1.18 23.2 0 0 209.49 144.19
  L 222.92 131.51
  A 2.64 2.61 -21.8 0 0 223.75 129.60
  L 223.75 81.28
  A 1.87 1.86 -81.9 0 0 222.41 79.49
  Z
  M 96.17 307.00
  A 0.33 0.33 0.0 0 0 95.89 307.16
  L 86.33 322.50
  A 0.33 0.33 0.0 0 0 86.61 323.00
  L 217.28 323.00
  A 0.33 0.33 0.0 0 0 217.56 322.50
  L 207.99 307.16
  A 0.33 0.33 0.0 0 0 207.71 307.00
  L 96.17 307.00
  Z
  M 117.13 360.40
  C 122.66 362.78 122.96 370.73 117.45 373.61
  Q 115.75 374.50 111.91 374.50
  Q 96.31 374.49 80.96 374.50
  A 0.97 0.96 -90.0 0 0 80.00 375.47
  L 80.00 494.00
  A 3.00 3.00 0.0 0 0 83.00 497.00
  L 135.85 497.00
  A 1.24 1.23 -67.0 0 0 136.71 496.65
  L 223.44 411.52
  A 1.10 1.09 68.3 0 0 223.76 410.77
  L 223.84 375.16
  A 0.67 0.67 0.0 0 0 223.17 374.49
  Q 186.59 374.51 149.77 374.49
  C 138.58 374.48 138.68 359.50 150.75 359.50
  Q 186.50 359.51 223.09 359.51
  A 0.78 0.77 -89.6 0 0 223.86 358.74
  L 224.05 339.03
  A 1.02 1.02 0.0 0 0 223.03 338.00
  L 80.75 338.00
  Q 80.00 338.00 80.00 338.75
  L 80.00 358.98
  Q 80.00 359.56 80.58 359.56
  Q 95.39 359.43 110.11 359.53
  Q 115.19 359.57 117.13 360.40
  Z"
/>
<path d="
  M 124.21 203.25
  C 124.13 171.68 167.60 163.57 178.02 193.22
  Q 179.44 197.28 179.47 205.60
  Q 179.52 221.15 179.51 236.70
  Q 179.51 245.28 178.10 249.62
  C 169.95 274.70 133.62 274.52 125.68 249.19
  Q 124.23 244.56 124.24 234.15
  Q 124.26 218.71 124.21 203.25
  Z
  M 164.45 201.91
  A 12.06 12.06 0.0 0 0 152.39 189.85
  L 151.39 189.85
  A 12.06 12.06 0.0 0 0 139.33 201.91
  L 139.33 241.29
  A 12.06 12.06 0.0 0 0 151.39 253.35
  L 152.39 253.35
  A 12.06 12.06 0.0 0 0 164.45 241.29
  L 164.45 201.91
  Z"
/>
<ellipse cx="0.00" cy="0.00" transform="translate(268.21,433.35) rotate(0.5)" rx="8.49" ry="7.60"/>
<ellipse cx="0.00" cy="0.00" transform="translate(317.97,433.35) rotate(-0.1)" rx="8.49" ry="7.60"/>
<ellipse cx="0.00" cy="0.00" transform="translate(243.34,463.62) rotate(0.8)" rx="8.46" ry="7.59"/>
<ellipse cx="0.00" cy="0.00" transform="translate(293.09,463.62) rotate(-0.7)" rx="8.48" ry="7.59"/>
<ellipse cx="0.00" cy="0.00" transform="translate(343.21,463.62) rotate(0.4)" rx="8.47" ry="7.59"/>
</g>
</svg>
