<?xml version="1.0" encoding="UTF-8" standalone="no"?>
<!DOCTYPE svg PUBLIC "-//W3C//DTD SVG 1.1//EN" "http://www.w3.org/Graphics/SVG/1.1/DTD/svg11.dtd">
<svg xmlns="http://www.w3.org/2000/svg" version="1.1" viewBox="0.00 0.00 512.00 512.00">
<g fill="#000000">
<path d="
  M 512.00 100.04
  L 512.00 102.55
  Q 510.34 120.68 494.94 129.19
  Q 427.39 166.52 360.09 203.69
  A 1.33 1.33 0.0 0 0 359.49 205.33
  C 378.45 254.96 359.08 309.10 313.54 335.65
  C 304.69 340.81 294.33 344.38 283.92 348.14
  Q 236.97 365.11 190.02 382.05
  C 179.89 385.70 174.45 371.66 185.49 367.73
  Q 208.42 359.57 277.83 334.39
  Q 295.17 328.10 296.60 327.49
  C 336.59 310.37 358.55 267.63 349.76 225.18
  C 346.71 210.46 339.42 193.57 334.01 178.63
  A 2.06 2.05 -19.5 0 0 331.40 177.39
  Q 319.36 181.62 307.06 186.31
  Q 255.72 205.92 213.20 240.69
  Q 124.72 313.05 36.29 385.48
  Q 25.07 394.67 21.87 399.22
  Q 14.76 409.34 15.09 422.73
  C 15.21 427.61 18.81 427.87 22.66 426.48
  Q 83.84 404.37 145.05 382.34
  C 154.95 378.77 160.29 391.31 152.21 395.48
  Q 149.95 396.65 141.56 399.66
  Q 84.11 420.26 26.68 440.92
  C 12.06 446.18 0.69 436.41 0.00 421.93
  L 0.00 418.45
  Q 2.02 393.61 21.21 378.20
  Q 32.51 369.13 43.58 360.15
  A 0.49 0.49 0.0 0 0 43.43 359.30
  C 20.34 351.51 9.34 328.64 29.71 309.76
  C 49.26 291.65 89.28 284.91 109.98 304.90
  Q 110.41 305.31 110.89 304.97
  L 112.42 303.90
  A 0.76 0.75 -49.3 0 0 112.33 302.60
  C 99.69 296.37 87.99 286.36 82.21 273.33
  C 72.62 251.69 90.25 236.83 109.99 235.09
  C 130.99 233.23 154.74 240.19 168.60 257.00
  A 0.68 0.68 0.0 0 0 169.56 257.10
  L 177.56 250.53
  A 0.61 0.61 0.0 0 0 177.53 249.57
  C 174.75 247.48 171.36 245.38 169.08 243.16
  C 157.22 231.68 156.72 215.34 169.36 204.06
  C 189.01 186.53 224.37 182.74 246.34 197.98
  A 1.70 1.70 0.0 0 0 248.17 198.05
  C 272.97 183.44 301.57 171.26 327.26 163.01
  Q 330.93 161.83 336.04 162.82
  A 1.23 1.23 0.0 0 0 336.99 162.61
  Q 366.77 141.80 396.55 121.06
  C 403.21 116.42 412.02 122.62 408.16 129.83
  Q 406.96 132.07 402.99 134.84
  Q 375.69 153.90 348.49 172.87
  A 0.80 0.79 -27.7 0 0 348.20 173.78
  L 353.80 189.28
  Q 354.03 189.91 354.61 189.58
  Q 421.31 152.76 487.93 115.94
  C 508.27 104.69 490.27 74.35 470.73 87.74
  Q 453.98 99.22 437.36 110.88
  C 432.35 114.40 425.93 112.87 424.77 106.65
  C 424.01 102.52 426.41 100.29 429.78 97.91
  Q 441.13 89.91 452.55 82.02
  C 466.31 72.50 476.13 65.64 491.78 71.89
  Q 509.79 79.08 512.00 100.04
  Z
  M 232.61 207.05
  C 215.55 200.25 189.04 203.16 177.06 217.80
  A 0.44 0.44 0.0 0 0 177.32 218.52
  C 191.15 221.13 201.16 218.57 214.48 214.59
  C 217.15 213.79 219.98 213.57 222.75 213.10
  C 226.63 212.45 229.52 209.86 232.69 207.74
  A 0.39 0.39 0.0 0 0 232.61 207.05
  Z
  M 196.24 234.27
  C 191.52 234.93 187.44 234.47 182.75 234.27
  A 0.45 0.45 0.0 0 0 182.52 235.11
  L 190.29 239.36
  A 0.86 0.84 39.5 0 0 191.24 239.28
  L 196.57 235.05
  A 0.44 0.44 0.0 0 0 196.24 234.27
  Z
  M 156.96 266.45
  C 144.35 251.85 116.91 244.30 99.41 253.79
  A 0.51 0.51 0.0 0 0 99.38 254.67
  Q 112.22 262.76 127.30 263.82
  C 137.84 264.57 144.68 265.69 153.49 269.46
  Q 154.06 269.71 154.53 269.31
  L 156.89 267.33
  A 0.62 0.62 0.0 0 0 156.96 266.45
  Z
  M 98.69 272.31
  Q 109.19 286.41 126.02 292.09
  Q 126.52 292.26 126.92 291.92
  L 139.73 281.48
  Q 140.91 280.52 139.41 280.26
  C 130.69 278.76 120.61 278.73 113.08 276.80
  Q 105.56 274.87 98.67 271.39
  A 0.33 0.33 0.0 0 0 98.21 271.77
  Q 98.35 272.31 98.69 272.31
  Z
  M 35.87 326.84
  Q 43.44 327.14 49.98 326.33
  C 60.12 325.09 68.91 319.30 79.04 316.99
  Q 88.40 314.85 97.83 314.98
  A 0.44 0.43 -27.9 0 0 98.08 314.18
  Q 89.74 308.77 80.33 307.91
  C 65.13 306.52 44.32 312.62 35.46 326.05
  Q 34.96 326.81 35.87 326.84
  Z
  M 43.15 342.88
  Q 50.26 346.32 58.12 347.67
  Q 58.65 347.76 59.07 347.42
  L 74.83 334.55
  A 0.33 0.33 0.0 0 0 74.47 334.01
  Q 59.65 341.86 42.81 341.99
  A 0.38 0.37 49.0 0 0 42.77 342.73
  Q 42.89 342.75 43.15 342.88
  Z"
/>
<path d="
  M 152.41 138.21
  C 151.81 131.59 149.27 127.06 145.99 121.46
  Q 144.10 118.24 144.20 116.08
  C 144.41 111.26 150.33 107.61 154.52 109.80
  Q 156.58 110.88 159.14 114.50
  C 166.73 125.26 170.04 139.67 164.57 151.88
  C 159.13 164.02 147.38 169.94 134.17 169.49
  C 109.61 168.64 88.11 145.10 80.72 123.73
  C 78.32 116.80 77.72 107.13 80.26 100.24
  C 86.18 84.18 105.46 81.83 120.13 86.41
  Q 124.46 87.77 126.30 89.60
  C 131.93 95.24 125.52 103.43 117.90 101.30
  C 112.14 99.69 107.33 98.98 101.35 99.83
  A 0.44 0.43 -23.4 0 0 101.07 100.53
  Q 105.65 106.36 111.33 111.06
  C 119.40 117.72 130.08 120.39 138.79 126.65
  Q 145.96 131.80 151.82 138.46
  A 0.34 0.34 0.0 0 0 152.41 138.21
  Z
  M 95.07 116.60
  L 94.93 116.35
  A 0.43 0.43 0.0 0 0 94.15 116.71
  Q 101.09 137.85 119.18 149.18
  C 126.32 153.66 135.53 156.35 143.73 153.14
  A 0.43 0.43 0.0 0 0 143.92 152.49
  C 137.21 143.47 129.55 137.55 119.27 133.10
  Q 105.91 127.31 95.42 117.04
  Q 95.22 116.84 95.07 116.60
  Z"
/>
<path d="
  M 241.32 96.93
  C 256.32 111.03 268.10 134.92 263.05 155.62
  C 259.40 170.58 247.39 181.48 231.42 180.63
  C 217.49 179.89 205.44 169.27 198.47 157.53
  C 188.92 141.45 184.20 118.93 191.26 101.25
  C 201.01 76.84 225.71 82.25 241.32 96.93
  Z
  M 247.45 155.48
  C 253.76 135.18 237.69 105.38 217.05 99.57
  Q 216.40 99.38 216.55 100.04
  Q 218.56 108.89 222.91 116.77
  C 227.50 125.09 235.30 131.68 239.84 139.57
  Q 244.17 147.11 246.63 155.47
  A 0.43 0.43 0.0 0 0 247.45 155.48
  Z
  M 203.62 111.75
  C 200.37 130.18 210.34 163.71 233.22 165.77
  Q 233.82 165.82 233.69 165.23
  C 231.58 155.19 227.32 146.42 220.75 138.59
  Q 218.16 135.52 215.62 132.40
  Q 208.04 123.10 204.30 111.70
  A 0.35 0.35 0.0 0 0 203.62 111.75
  Z"
/>
<path d="
  M 87.72 164.56
  C 105.31 169.80 121.24 184.21 118.31 203.83
  C 115.14 225.05 92.92 233.80 74.06 232.53
  Q 50.76 230.96 32.94 217.04
  C 20.58 207.39 13.70 191.14 24.35 177.33
  C 37.73 160.00 68.80 158.93 87.72 164.56
  Z
  M 100.22 189.98
  C 86.83 173.62 52.84 171.45 37.18 185.47
  A 0.45 0.44 -55.9 0 0 37.32 186.22
  C 51.54 191.32 62.62 189.76 77.25 187.80
  Q 81.75 187.19 92.64 188.97
  C 94.30 189.24 97.48 190.38 99.88 190.62
  Q 100.83 190.71 100.22 189.98
  Z
  M 100.33 206.60
  Q 88.56 202.37 78.49 202.80
  C 72.11 203.06 63.36 205.20 56.38 205.01
  Q 48.36 204.80 40.55 202.83
  A 0.43 0.43 0.0 0 0 40.16 203.58
  C 55.32 216.42 85.41 225.35 101.27 208.23
  A 1.00 1.00 0.0 0 0 101.28 206.88
  Q 101.14 206.72 100.81 206.69
  Q 100.51 206.67 100.33 206.60
  Z"
/>
</g>
</svg>
