<?xml version="1.0" encoding="UTF-8" standalone="no"?>
<!DOCTYPE svg PUBLIC "-//W3C//DTD SVG 1.1//EN" "http://www.w3.org/Graphics/SVG/1.1/DTD/svg11.dtd">
<svg xmlns="http://www.w3.org/2000/svg" version="1.1" viewBox="0.00 0.00 512.00 512.00">
<g fill="#000000">
<path d="
  M 176.57 0.00
  L 179.04 0.00
  Q 184.56 1.04 186.68 4.81
  Q 189.53 9.88 198.54 27.96
  Q 202.96 36.83 203.58 41.12
  C 206.95 64.45 179.03 79.56 161.21 64.43
  C 153.64 58.00 150.19 48.13 152.57 38.47
  Q 153.24 35.73 160.49 21.18
  C 165.08 11.96 168.49 1.58 176.57 0.00
  Z
  M 170.69 52.81
  C 180.23 60.86 193.05 50.02 187.43 39.07
  Q 182.74 29.92 178.33 21.40
  Q 177.80 20.39 177.28 21.40
  Q 172.92 29.79 169.02 37.62
  C 166.13 43.41 165.61 48.54 170.69 52.81
  Z"
/>
<path d="
  M 307.31 0.00
  L 309.80 0.00
  Q 315.13 0.98 316.97 4.04
  Q 321.17 11.07 330.79 30.96
  C 336.26 42.26 336.14 53.67 326.81 62.94
  C 312.46 77.17 288.29 70.28 283.32 50.70
  C 280.89 41.16 284.20 35.38 289.17 25.37
  Q 297.37 8.82 300.05 4.31
  Q 302.02 1.00 307.31 0.00
  Z
  M 308.20 20.95
  Q 304.07 29.27 299.96 37.22
  C 296.73 43.44 296.33 50.07 302.93 53.89
  C 312.67 59.52 323.39 49.29 318.36 39.42
  Q 313.59 30.06 308.89 20.95
  A 0.39 0.39 0.0 0 0 308.20 20.95
  Z"
/>
<path d="
  M 237.64 42.30
  C 242.08 39.33 249.40 40.53 252.25 45.97
  Q 257.44 55.88 262.52 65.83
  Q 268.28 77.12 268.99 81.79
  C 270.76 93.41 263.17 105.87 251.95 109.69
  C 238.92 114.12 225.09 108.20 219.32 95.44
  C 214.99 85.88 217.59 78.30 222.51 68.53
  Q 227.34 58.95 232.28 49.43
  Q 235.09 44.01 237.64 42.30
  Z
  M 232.15 85.79
  C 232.30 94.96 244.13 99.37 250.50 93.35
  C 253.81 90.23 255.46 85.20 253.42 81.08
  Q 248.84 71.84 243.68 61.89
  Q 243.23 61.02 242.77 61.89
  Q 238.66 69.72 234.51 78.03
  Q 232.10 82.86 232.15 85.79
  Z"
/>
<path d="
  M 388.43 512.00
  L 97.69 512.00
  C 74.85 509.62 58.99 495.94 55.15 473.69
  C 52.91 460.74 57.99 454.48 70.86 454.49
  Q 105.19 454.51 139.38 454.50
  Q 140.09 454.50 139.90 453.82
  L 107.63 339.12
  A 0.96 0.96 0.0 0 0 106.69 338.42
  Q 98.03 338.50 89.94 338.50
  C 77.71 338.50 71.48 336.15 71.49 323.13
  Q 71.51 300.50 71.50 277.88
  Q 71.50 273.74 72.73 271.88
  C 76.01 266.89 83.48 267.73 85.73 273.08
  Q 86.48 274.86 86.48 279.16
  Q 86.51 301.06 86.50 322.98
  Q 86.50 323.50 87.02 323.50
  L 101.60 323.50
  A 0.41 0.40 90.0 0 0 102.00 323.09
  L 102.01 215.47
  Q 102.01 215.00 101.53 215.00
  L 87.03 215.00
  A 0.61 0.60 90.0 0 0 86.43 215.61
  Q 86.53 227.99 86.51 239.50
  C 86.48 251.14 71.54 251.57 71.52 239.94
  Q 71.49 227.70 71.50 215.44
  C 71.51 204.03 76.39 200.05 87.45 200.01
  Q 98.22 199.97 109.00 199.99
  C 111.72 199.99 113.45 200.83 115.47 202.85
  Q 133.32 220.70 151.09 238.46
  A 0.40 0.40 0.0 0 0 151.77 238.18
  Q 151.74 191.94 151.74 145.57
  C 151.74 131.54 155.48 127.29 169.29 127.27
  Q 196.51 127.22 223.74 127.28
  C 236.08 127.30 236.02 142.23 225.05 142.24
  Q 196.38 142.26 167.51 142.25
  A 0.76 0.75 0.0 0 0 166.75 143.00
  L 166.75 189.50
  A 0.50 0.50 0.0 0 0 167.25 190.00
  Q 184.33 190.01 201.56 190.00
  C 213.95 189.99 218.47 193.95 218.48 206.25
  Q 218.52 231.15 218.49 255.98
  A 0.53 0.53 0.0 0 0 219.02 256.51
  L 267.67 256.49
  A 0.33 0.32 -90.0 0 0 267.99 256.16
  Q 268.02 231.62 267.99 207.01
  C 267.98 195.36 271.36 190.03 283.28 190.01
  Q 301.04 189.98 318.97 190.01
  A 0.77 0.76 90.0 0 0 319.73 189.24
  L 319.76 143.25
  A 1.00 1.00 0.0 0 0 318.76 142.25
  Q 290.76 142.26 262.47 142.24
  Q 258.33 142.24 256.45 140.94
  C 251.55 137.56 252.57 130.19 257.90 127.99
  Q 259.64 127.27 263.83 127.27
  Q 292.28 127.24 320.75 127.25
  C 333.53 127.25 334.72 136.38 334.74 147.31
  Q 334.80 192.98 334.70 238.30
  Q 334.70 238.97 335.17 238.50
  Q 353.66 219.84 371.61 202.15
  C 375.26 198.55 391.10 200.00 396.44 199.99
  Q 404.86 199.99 407.86 201.35
  C 413.89 204.10 414.99 209.41 415.00 216.03
  Q 415.00 251.35 415.00 286.37
  A 0.85 0.83 -83.5 0 0 415.64 287.19
  C 456.61 297.27 471.10 347.67 442.96 378.50
  Q 438.83 383.04 429.62 389.41
  Q 389.70 417.08 349.48 444.76
  A 1.74 1.72 -9.7 0 0 348.81 445.69
  L 346.49 453.96
  Q 346.34 454.49 346.89 454.49
  Q 382.72 454.53 418.50 454.48
  C 439.46 454.46 430.76 482.44 424.35 491.84
  Q 411.65 510.50 388.43 512.00
  Z
  M 203.49 205.69
  A 0.69 0.69 0.0 0 0 202.80 205.00
  L 167.44 205.00
  A 0.69 0.69 0.0 0 0 166.75 205.69
  L 166.75 255.81
  A 0.69 0.69 0.0 0 0 167.44 256.50
  L 202.80 256.50
  A 0.69 0.69 0.0 0 0 203.49 255.81
  L 203.49 205.69
  Z
  M 319.74 205.69
  A 0.69 0.69 0.0 0 0 319.05 205.00
  L 283.69 205.00
  A 0.69 0.69 0.0 0 0 283.00 205.69
  L 283.00 255.81
  A 0.69 0.69 0.0 0 0 283.69 256.50
  L 319.05 256.50
  A 0.69 0.69 0.0 0 0 319.74 255.81
  L 319.74 205.69
  Z
  M 400.01 215.61
  A 0.61 0.61 0.0 0 0 399.40 215.00
  L 384.86 215.00
  A 0.61 0.61 0.0 0 0 384.25 215.61
  L 384.25 322.89
  A 0.61 0.61 0.0 0 0 384.86 323.50
  L 399.40 323.50
  A 0.61 0.61 0.0 0 0 400.01 322.89
  L 400.01 215.61
  Z
  M 146.96 256.56
  A 0.44 0.44 0.0 0 0 147.27 255.81
  L 117.68 226.22
  A 0.44 0.44 0.0 0 0 116.93 226.53
  L 117.12 255.93
  A 0.44 0.44 0.0 0 0 117.56 256.37
  L 146.96 256.56
  Z
  M 339.00 255.88
  A 0.35 0.35 0.0 0 0 339.24 256.48
  L 368.89 256.51
  A 0.35 0.35 0.0 0 0 369.24 256.16
  L 369.28 226.44
  A 0.35 0.35 0.0 0 0 368.68 226.19
  L 339.00 255.88
  Z
  M 220.44 469.50
  C 207.21 469.49 207.54 454.50 219.32 454.50
  Q 274.87 454.50 330.08 454.50
  Q 330.73 454.50 330.91 453.87
  Q 349.59 387.51 368.25 321.11
  Q 369.26 317.50 369.27 313.77
  Q 369.34 292.92 369.20 272.16
  Q 369.20 271.50 368.53 271.50
  L 119.25 271.50
  A 1.19 0.11 18.5 0 1 118.44 271.31
  Q 118.14 271.21 117.82 271.24
  A 0.68 0.67 -2.8 0 0 117.21 271.91
  Q 117.30 293.00 117.22 314.14
  Q 117.21 317.77 118.19 321.25
  Q 136.83 387.57 155.51 453.92
  Q 155.66 454.44 156.20 454.45
  Q 168.74 454.61 181.28 454.50
  C 193.57 454.39 192.78 469.50 182.75 469.50
  Q 126.28 469.50 69.92 469.50
  A 0.39 0.39 0.0 0 0 69.54 469.95
  C 72.82 489.12 85.61 497.02 103.81 497.01
  Q 243.01 496.98 382.22 497.01
  Q 390.56 497.01 395.15 495.67
  Q 413.10 490.42 416.80 470.38
  A 0.75 0.74 -84.8 0 0 416.07 469.50
  Q 318.22 469.51 220.44 469.50
  Z
  M 415.27 319.80
  C 427.01 327.97 430.81 343.64 422.14 355.47
  Q 419.41 359.20 410.69 365.21
  Q 386.53 381.86 362.39 398.57
  Q 361.98 398.85 361.85 399.33
  L 355.49 421.77
  A 0.31 0.31 0.0 0 0 355.96 422.11
  Q 386.89 400.74 417.92 379.30
  Q 429.07 371.59 432.61 367.56
  C 451.72 345.77 442.36 313.33 415.84 302.71
  A 0.62 0.61 10.8 0 0 415.00 303.28
  L 415.00 319.29
  A 0.64 0.61 18.2 0 0 415.27 319.80
  Z
  M 379.60 338.40
  A 0.80 0.79 7.6 0 0 378.83 338.98
  L 368.55 375.48
  A 0.29 0.29 0.0 0 0 368.99 375.79
  Q 386.91 363.43 404.85 351.01
  C 410.74 346.93 413.66 343.09 410.72 336.08
  A 0.21 0.21 0.0 0 0 410.44 335.97
  Q 405.27 338.47 401.75 338.49
  Q 391.32 338.56 379.60 338.40
  Z"
/>
<ellipse cx="0.00" cy="0.00" transform="translate(185.88,163.09) rotate(-0.5)" rx="8.50" ry="7.60"/>
<ellipse cx="0.00" cy="0.00" transform="translate(214.53,163.09) rotate(0.5)" rx="8.51" ry="7.60"/>
<ellipse cx="0.00" cy="0.00" transform="translate(243.17,163.09) rotate(0.5)" rx="8.49" ry="7.59"/>
<ellipse cx="0.00" cy="0.00" transform="translate(271.85,163.10) rotate(-0.1)" rx="8.50" ry="7.58"/>
<ellipse cx="0.00" cy="0.00" transform="translate(300.51,163.09) rotate(0.4)" rx="8.52" ry="7.60"/>
</g>
</svg>
