<?xml version="1.0" encoding="UTF-8" standalone="no"?>
<!DOCTYPE svg PUBLIC "-//W3C//DTD SVG 1.1//EN" "http://www.w3.org/Graphics/SVG/1.1/DTD/svg11.dtd">
<svg xmlns="http://www.w3.org/2000/svg" version="1.1" viewBox="0.00 0.00 512.00 512.00">
<g fill="#000000">
<path d="
  M 251.83 0.00
  L 262.06 0.00
  Q 354.13 3.30 423.49 62.46
  Q 425.77 64.41 426.52 65.93
  C 429.45 71.92 423.81 78.47 417.55 76.24
  Q 415.90 75.65 412.91 73.13
  C 321.37 -4.25 190.11 -4.32 98.91 73.30
  C -2.17 159.34 -12.96 312.30 73.32 413.10
  C 75.88 416.09 77.65 419.00 76.20 422.61
  C 73.94 428.19 67.11 428.90 63.15 424.32
  Q 3.28 355.03 0.00 261.94
  L 0.00 251.20
  C 4.19 112.88 112.32 3.02 251.83 0.00
  Z"
/>
<path d="
  M 512.00 250.06
  L 512.00 261.53
  C 507.72 399.34 399.42 508.57 260.92 512.00
  L 252.18 512.00
  Q 159.78 509.56 89.87 450.69
  C 85.76 447.23 82.54 443.27 86.02 438.32
  C 89.35 433.59 94.31 435.00 98.33 438.32
  Q 108.77 446.95 115.19 451.54
  C 194.86 508.49 300.00 512.06 383.09 460.85
  C 459.96 413.47 504.60 324.38 495.95 234.09
  Q 488.65 157.86 439.35 99.66
  C 437.30 97.25 435.46 95.34 435.30 92.19
  C 435.03 87.16 440.57 83.28 445.08 85.00
  Q 447.29 85.84 450.26 89.35
  Q 508.76 158.49 512.00 250.06
  Z"
/>
<path d="
  M 132.03 209.07
  C 155.08 186.79 190.23 186.82 212.56 209.88
  C 218.62 216.15 213.20 225.83 204.68 222.57
  Q 203.04 221.95 199.19 218.24
  C 184.03 203.62 159.83 204.35 144.48 218.15
  C 142.11 220.29 139.54 222.91 136.32 223.22
  C 131.13 223.72 126.87 218.16 128.87 213.22
  Q 129.58 211.44 132.03 209.07
  Z"
/>
<path d="
  M 298.57 211.31
  C 321.38 186.58 358.54 185.86 381.34 210.64
  C 386.40 216.15 381.91 224.71 375.12 223.20
  C 370.70 222.22 366.54 216.58 362.32 213.99
  C 344.18 202.84 323.64 206.52 309.00 221.50
  C 303.25 227.39 292.11 218.31 298.57 211.31
  Z"
/>
<path d="
  M 353.66 311.62
  C 364.25 309.20 374.08 319.32 369.45 329.58
  Q 367.76 333.32 361.98 338.09
  C 301.39 388.09 209.68 388.66 149.09 337.17
  C 145.79 334.37 142.84 331.75 141.85 327.55
  C 139.64 318.20 147.78 309.75 157.46 311.67
  C 167.63 313.68 178.40 316.24 187.92 317.71
  Q 255.11 328.06 322.35 317.98
  C 332.62 316.44 343.26 314.00 353.66 311.62
  Z
  M 349.74 327.97
  C 341.09 329.78 332.14 331.73 323.75 332.97
  C 270.92 340.78 215.21 339.96 162.95 328.07
  Q 160.91 327.60 162.54 328.92
  C 198.86 358.34 248.70 366.87 293.66 356.08
  C 313.10 351.42 334.33 342.04 350.03 328.58
  Q 351.07 327.69 349.74 327.97
  Z"
/>
</g>
</svg>
