<?xml version="1.0" encoding="UTF-8" standalone="no"?>
<!DOCTYPE svg PUBLIC "-//W3C//DTD SVG 1.1//EN" "http://www.w3.org/Graphics/SVG/1.1/DTD/svg11.dtd">
<svg xmlns="http://www.w3.org/2000/svg" version="1.1" viewBox="0.00 0.00 512.00 512.00">
<g fill="#000000">
<path d="
  M 251.83 0.00
  L 262.06 0.00
  Q 354.13 3.30 423.49 62.47
  Q 425.77 64.41 426.52 65.93
  C 429.45 71.92 423.81 78.47 417.55 76.24
  Q 415.90 75.65 412.91 73.13
  C 321.41 -4.21 190.26 -4.32 99.04 73.19
  C -2.69 159.62 -12.54 312.59 73.32 413.12
  C 75.87 416.10 77.61 418.88 76.24 422.49
  C 73.99 428.44 66.99 428.80 62.92 424.06
  Q 3.26 354.61 0.00 261.93
  L 0.00 251.20
  C 4.19 112.88 112.32 3.02 251.83 0.00
  Z"
/>
<path d="
  M 512.00 250.06
  L 512.00 261.55
  C 507.52 400.10 399.51 508.00 260.92 512.00
  L 252.18 512.00
  Q 159.71 509.56 89.79 450.62
  Q 86.08 447.48 85.14 445.50
  C 82.93 440.81 87.52 434.47 92.74 435.25
  Q 95.00 435.58 98.22 438.24
  Q 108.78 446.95 115.19 451.54
  C 194.86 508.49 300.00 512.06 383.09 460.85
  C 459.96 413.47 504.60 324.38 495.95 234.09
  Q 488.65 157.85 439.35 99.66
  C 437.26 97.20 435.38 95.24 435.28 91.99
  C 435.12 86.72 441.38 82.97 445.77 85.27
  Q 447.69 86.27 451.12 90.37
  Q 508.80 159.23 512.00 250.06
  Z"
/>
<rect x="-49.15" y="-7.50" transform="translate(159.81,187.84) rotate(-16.8)" width="98.30" height="15.00" rx="7.38"/>
<rect x="-49.17" y="-7.49" transform="translate(352.23,187.83) rotate(16.8)" width="98.34" height="14.98" rx="7.38"/>
<path d="
  M 198.55 232.64
  C 203.56 231.62 208.48 236.76 207.10 241.50
  Q 206.39 243.98 203.12 247.50
  C 182.38 269.89 151.01 267.85 131.24 246.02
  C 128.05 242.50 127.14 238.12 130.75 234.61
  C 137.83 227.73 144.58 239.32 149.77 242.61
  Q 167.80 254.03 185.81 242.65
  C 189.80 240.14 194.25 233.51 198.55 232.64
  Z"
/>
<path d="
  M 371.98 254.31
  C 350.90 268.95 323.54 265.54 307.04 245.23
  Q 302.02 239.04 307.43 234.22
  C 314.18 228.19 320.84 239.05 325.77 242.30
  Q 343.57 254.01 361.60 243.04
  C 365.23 240.83 368.53 237.15 371.85 234.10
  C 377.77 228.69 387.27 237.16 382.19 244.45
  Q 378.45 249.82 371.98 254.31
  Z"
/>
<path d="
  M 315.31 336.78
  C 323.80 335.46 330.22 343.75 326.34 351.80
  C 315.62 374.02 293.49 387.22 269.57 390.64
  C 236.99 395.31 198.98 382.28 185.46 350.30
  C 183.07 344.66 186.72 338.73 192.23 337.19
  Q 194.82 336.47 200.78 337.36
  Q 257.38 345.84 315.31 336.78
  Z
  M 204.41 353.59
  C 214.81 367.88 235.14 375.91 252.26 376.69
  C 273.01 377.64 294.80 370.11 308.01 353.52
  A 0.34 0.33 15.4 0 0 307.70 352.98
  Q 256.23 359.82 204.76 353.00
  A 0.37 0.37 0.0 0 0 204.41 353.59
  Z"
/>
</g>
</svg>
