<?xml version="1.0" encoding="UTF-8" standalone="no"?>
<!DOCTYPE svg PUBLIC "-//W3C//DTD SVG 1.1//EN" "http://www.w3.org/Graphics/SVG/1.1/DTD/svg11.dtd">
<svg xmlns="http://www.w3.org/2000/svg" version="1.1" viewBox="0.00 0.00 512.00 512.00">
<g fill="#000000">
<path d="
  M 250.58 0.00
  L 262.06 0.00
  Q 354.75 3.31 424.34 63.17
  C 430.33 68.33 426.17 78.37 418.41 76.39
  Q 416.03 75.78 412.24 72.60
  C 347.14 17.89 259.74 0.42 178.73 27.69
  C 83.52 59.74 17.21 149.43 15.25 250.07
  Q 14.02 313.27 43.42 369.57
  C 47.47 377.30 39.26 385.44 32.72 379.90
  Q 31.41 378.78 29.81 375.72
  C -24.97 271.19 -2.07 142.39 86.19 64.43
  Q 155.63 3.10 250.58 0.00
  Z"
/>
<path d="
  M 512.00 251.06
  L 512.00 259.05
  C 509.49 393.51 405.42 504.18 270.24 511.27
  Q 264.08 511.59 257.93 512.00
  L 253.19 512.00
  Q 226.48 511.39 200.32 505.85
  Q 199.79 505.74 199.37 506.08
  Q 192.91 511.31 184.69 512.00
  L 101.93 512.00
  C 76.15 510.35 54.23 493.14 49.17 467.43
  C 46.76 455.22 47.94 437.67 47.99 423.75
  C 48.06 401.97 56.36 386.99 69.59 370.58
  C 78.35 359.71 79.96 351.57 80.00 336.74
  Q 80.02 325.26 79.99 313.79
  Q 79.96 301.62 81.46 296.88
  C 88.24 275.43 118.87 275.34 125.75 296.80
  Q 127.27 301.51 127.26 312.87
  Q 127.24 330.97 127.25 349.08
  C 127.26 357.50 129.48 364.13 137.38 367.33
  Q 140.87 368.75 148.96 368.75
  Q 215.76 368.76 282.57 368.74
  Q 291.02 368.73 295.28 370.13
  C 316.88 377.20 316.63 407.42 295.13 414.44
  Q 291.05 415.77 283.61 415.76
  Q 252.91 415.73 222.44 415.76
  A 0.41 0.41 0.0 0 0 222.04 416.28
  Q 226.66 433.63 212.58 444.05
  Q 212.15 444.37 212.36 444.86
  Q 220.61 464.00 204.49 476.20
  A 0.78 0.77 -32.6 0 0 204.27 477.18
  Q 207.77 483.77 207.10 491.27
  A 0.74 0.74 0.0 0 0 207.69 492.06
  C 341.99 518.61 470.28 430.74 493.53 296.75
  C 505.72 226.49 485.49 153.70 438.95 99.31
  C 436.50 96.44 434.26 93.32 435.73 89.43
  C 438.48 82.21 445.90 84.25 449.86 88.91
  Q 509.07 158.60 512.00 251.06
  Z
  M 285.63 400.74
  C 300.32 400.73 298.59 383.75 288.44 383.75
  Q 220.03 383.76 151.62 383.74
  Q 139.73 383.73 134.66 382.22
  C 120.96 378.12 112.33 365.80 112.31 351.51
  Q 112.28 329.01 112.22 306.52
  C 112.18 291.89 95.02 292.66 95.02 305.26
  Q 95.03 325.22 94.94 345.19
  C 94.87 361.72 86.18 374.00 76.02 386.77
  Q 62.93 403.20 62.86 424.75
  Q 62.79 448.65 63.10 456.93
  C 63.95 479.85 81.58 496.78 104.49 496.88
  Q 142.85 497.04 181.21 496.97
  Q 185.19 496.97 187.04 496.19
  C 193.83 493.32 193.87 483.65 187.23 480.76
  C 185.07 479.83 181.60 479.92 179.36 478.36
  C 175.12 475.39 175.71 468.53 180.04 466.10
  C 184.33 463.68 190.33 465.91 194.75 464.18
  C 199.93 462.15 202.35 455.38 198.13 450.76
  C 194.94 447.28 190.60 448.80 187.29 446.17
  C 182.42 442.31 184.24 433.97 190.57 433.08
  C 196.52 432.24 205.43 434.79 207.85 426.78
  C 209.45 421.48 205.83 416.70 200.56 415.82
  Q 197.05 415.23 196.09 414.64
  C 189.22 410.41 192.82 400.75 200.51 400.75
  Q 243.07 400.76 285.63 400.74
  Z"
/>
<path d="
  M 196.06 121.69
  C 202.52 126.70 197.97 136.64 190.08 134.83
  Q 188.52 134.47 185.72 132.58
  C 166.25 119.40 141.83 114.48 119.07 121.60
  C 115.72 122.65 106.40 127.64 102.17 126.89
  C 97.04 125.98 94.21 119.06 97.81 115.05
  Q 99.05 113.66 102.58 112.01
  Q 137.87 95.51 174.78 109.88
  Q 186.97 114.62 196.06 121.69
  Z"
/>
<rect x="-48.21" y="-7.49" transform="translate(344.13,135.71) rotate(-11.4)" width="96.42" height="14.98" rx="7.37"/>
<path d="
  M 159.60 161.51
  C 151.55 161.70 147.04 167.05 146.22 174.72
  C 145.60 180.51 143.73 189.36 145.70 194.44
  C 149.92 205.34 164.68 204.98 168.81 194.37
  C 170.96 188.86 169.17 179.70 172.82 175.30
  C 177.92 169.14 186.37 174.24 185.76 181.75
  C 184.85 192.93 184.11 203.58 175.03 211.03
  C 155.61 226.94 127.99 211.83 130.05 186.99
  C 131.16 173.52 130.94 161.15 141.74 152.74
  Q 150.94 145.58 161.51 146.80
  C 170.73 147.87 170.67 161.25 159.60 161.51
  Z"
/>
<path d="
  M 327.00 178.06
  C 319.98 178.27 314.91 182.83 313.92 189.91
  Q 312.82 197.85 312.54 205.70
  C 311.97 222.21 335.07 223.74 337.18 207.73
  C 337.76 203.33 337.67 194.95 340.33 191.80
  C 345.74 185.38 354.19 191.08 353.33 198.77
  Q 352.74 204.08 351.99 209.39
  C 348.43 234.54 317.47 243.39 302.41 222.34
  C 295.00 211.99 297.70 199.32 299.20 187.42
  C 301.05 172.73 314.37 161.65 329.00 163.29
  C 338.33 164.33 338.22 177.73 327.00 178.06
  Z"
/>
<path d="
  M 292.73 334.79
  C 255.66 318.71 219.26 308.12 178.72 305.63
  Q 173.55 305.31 171.93 304.58
  C 167.25 302.48 166.85 294.61 171.32 291.92
  C 175.79 289.22 190.55 291.37 196.00 292.00
  Q 251.12 298.39 298.77 321.19
  C 307.97 325.59 302.06 338.84 292.73 334.79
  Z"
/>
</g>
</svg>
