<?xml version="1.0" encoding="UTF-8" standalone="no"?>
<!DOCTYPE svg PUBLIC "-//W3C//DTD SVG 1.1//EN" "http://www.w3.org/Graphics/SVG/1.1/DTD/svg11.dtd">
<svg xmlns="http://www.w3.org/2000/svg" version="1.1" viewBox="0.00 0.00 512.00 512.00">
<g fill="#000000">
<path d="
  M 75.00 213.04
  C 88.11 213.07 99.76 221.57 103.32 234.16
  C 104.70 239.05 106.04 262.71 103.18 267.44
  C 100.61 271.67 94.69 272.20 91.31 268.30
  C 88.27 264.80 89.49 252.34 89.50 247.53
  C 89.53 233.69 85.52 228.02 71.39 228.01
  Q 62.57 227.99 53.75 227.98
  C 9.35 227.91 -11.85 174.25 21.05 144.30
  Q 34.44 132.12 53.75 132.07
  Q 85.00 131.99 116.25 132.01
  Q 125.77 132.01 130.09 130.56
  C 152.00 123.21 151.65 91.75 129.69 84.38
  Q 125.63 83.02 118.03 83.01
  Q 94.74 82.98 71.45 83.01
  Q 67.12 83.01 64.97 81.70
  C 58.07 77.45 62.09 67.98 69.96 68.00
  Q 90.36 68.04 110.74 67.97
  Q 125.15 67.92 130.67 69.12
  C 170.52 77.76 171.99 135.40 131.53 145.65
  Q 126.07 147.03 115.38 147.02
  Q 88.32 146.99 61.27 146.99
  Q 48.48 146.99 43.37 148.55
  C 11.54 158.23 12.77 203.83 45.29 212.02
  C 53.84 214.18 65.87 213.02 75.00 213.04
  Z"
/>
<path d="
  M 512.00 203.82
  L 512.00 324.33
  Q 509.15 351.01 485.54 361.35
  C 474.45 366.21 460.58 364.47 449.11 364.51
  A 0.65 0.65 0.0 0 0 448.46 365.16
  Q 448.30 394.96 443.20 424.40
  C 441.73 432.86 439.79 439.18 432.01 442.42
  Q 428.21 444.01 417.76 444.01
  Q 226.60 443.99 35.44 444.01
  Q 26.45 444.02 21.71 442.65
  Q 3.01 437.29 0.00 415.96
  L 0.00 409.19
  C 1.52 400.08 7.36 397.78 16.07 397.76
  Q 31.88 397.73 47.46 397.76
  A 0.80 0.80 0.0 0 0 48.26 396.96
  Q 48.23 377.99 48.27 358.83
  Q 48.28 354.55 49.67 352.62
  C 53.14 347.83 60.41 348.88 62.58 354.24
  Q 63.26 355.91 63.25 359.85
  Q 63.21 378.55 63.27 397.26
  Q 63.27 397.75 63.76 397.75
  L 242.50 397.75
  A 0.50 0.50 0.0 0 0 243.00 397.25
  L 243.00 309.25
  A 0.50 0.50 0.0 0 0 242.50 308.75
  L 63.76 308.75
  A 0.48 0.48 0.0 0 0 63.28 309.23
  C 63.24 314.91 65.15 325.96 58.70 328.72
  C 52.28 331.46 48.24 326.39 48.25 320.38
  C 48.28 306.14 45.52 293.78 64.54 293.76
  Q 91.90 293.73 118.99 293.76
  A 0.74 0.73 5.8 0 0 119.71 293.18
  Q 127.40 256.16 144.03 222.24
  A 2.50 2.49 26.2 0 0 142.89 218.91
  Q 129.80 212.47 116.31 205.76
  C 110.66 202.94 107.80 199.67 107.77 193.38
  Q 107.74 185.74 107.74 178.12
  C 107.73 166.26 113.07 162.74 124.30 162.75
  Q 151.27 162.75 178.34 162.75
  Q 178.76 162.75 178.91 162.35
  C 183.18 151.03 185.94 137.14 198.60 132.47
  Q 202.52 131.03 210.73 131.01
  Q 221.49 130.99 232.25 131.00
  C 239.77 131.01 242.21 141.75 235.31 145.04
  Q 233.31 145.99 228.92 145.99
  Q 218.16 145.99 207.39 146.02
  C 198.65 146.04 197.47 155.86 195.02 162.15
  A 0.44 0.44 0.0 0 0 195.43 162.75
  L 350.52 162.75
  A 0.39 0.38 80.6 0 0 350.88 162.24
  C 348.86 156.41 346.99 146.02 339.05 146.01
  Q 304.56 145.99 270.07 146.00
  Q 265.45 146.00 263.59 145.05
  C 258.41 142.38 258.21 134.94 263.21 132.04
  Q 265.00 131.01 268.62 131.01
  Q 301.39 131.00 334.17 130.99
  C 343.58 130.99 349.92 131.69 355.96 138.15
  C 361.09 143.64 364.18 154.65 366.90 162.24
  Q 367.08 162.74 367.61 162.74
  Q 417.84 162.77 467.99 162.71
  C 491.94 162.68 510.60 179.86 512.00 203.82
  Z
  M 495.64 196.90
  C 491.89 185.34 481.19 177.76 468.99 177.76
  Q 428.75 177.75 388.77 177.74
  A 0.26 0.25 71.6 0 0 388.57 178.15
  L 402.76 197.48
  A 0.66 0.63 -17.0 0 0 403.29 197.75
  Q 431.41 197.76 459.52 197.74
  C 473.71 197.73 477.01 202.35 477.01 216.59
  Q 477.00 264.88 476.99 313.18
  C 476.99 333.30 462.40 329.42 448.29 329.51
  Q 446.91 329.52 447.00 330.90
  L 448.18 348.98
  A 0.67 0.67 0.0 0 0 448.86 349.61
  Q 459.42 349.40 470.26 349.34
  C 485.88 349.25 496.85 336.56 496.89 321.25
  Q 497.01 265.81 496.98 210.37
  Q 496.97 200.98 495.64 196.90
  Z
  M 123.63 192.71
  Q 135.16 198.33 146.69 204.11
  C 156.85 209.20 162.69 217.44 157.26 229.03
  Q 150.06 244.37 144.17 260.47
  A 0.59 0.59 0.0 0 0 144.73 261.26
  Q 229.27 261.23 314.09 261.26
  Q 319.15 261.26 321.15 262.14
  C 326.51 264.51 326.92 272.15 321.77 275.23
  Q 320.07 276.25 316.52 276.25
  Q 228.14 276.25 139.73 276.25
  Q 139.16 276.25 139.02 276.80
  L 134.93 293.20
  Q 134.79 293.77 135.38 293.77
  Q 188.63 293.72 241.89 293.77
  C 254.55 293.78 258.37 299.03 257.98 311.37
  Q 257.97 311.97 258.56 311.97
  C 267.47 312.06 278.18 311.11 286.13 313.12
  C 323.03 322.44 323.65 374.50 287.10 384.26
  C 279.01 386.42 268.03 385.47 258.95 385.51
  A 0.95 0.95 0.0 0 0 258.00 386.46
  L 258.00 397.25
  A 0.50 0.50 0.0 0 0 258.50 397.75
  L 431.25 397.75
  Q 431.75 397.75 431.80 397.25
  Q 437.83 336.15 421.82 277.01
  A 1.05 1.04 -7.6 0 0 420.81 276.25
  Q 387.51 276.26 353.82 276.24
  C 342.54 276.23 342.88 261.31 354.26 261.28
  Q 385.28 261.21 416.25 261.29
  A 0.39 0.38 80.6 0 0 416.61 260.78
  C 406.37 230.38 390.28 201.56 368.22 178.07
  Q 367.92 177.75 367.49 177.75
  L 123.59 177.75
  A 0.89 0.89 0.0 0 0 122.70 178.65
  L 122.78 191.35
  A 1.51 1.50 -77.2 0 0 123.63 192.71
  Z
  M 461.46 314.53
  A 0.55 0.54 -90.0 0 0 462.00 313.98
  L 462.00 213.25
  A 0.50 0.50 0.0 0 0 461.50 212.75
  L 412.74 212.75
  A 0.52 0.52 0.0 0 0 412.28 213.52
  Q 437.36 260.68 444.69 313.69
  A 0.98 0.98 0.0 0 0 445.66 314.53
  L 461.46 314.53
  Z
  M 257.96 327.70
  L 258.04 369.94
  A 0.70 0.70 0.0 0 0 258.74 370.63
  L 277.33 370.60
  A 21.99 21.73 -0.1 0 0 299.28 348.83
  L 299.28 348.65
  A 21.99 21.73 -0.1 0 0 277.25 326.96
  L 258.66 326.99
  A 0.70 0.70 0.0 0 0 257.96 327.70
  Z
  M 306.21 413.54
  Q 306.38 421.32 302.65 428.07
  A 0.63 0.62 14.5 0 0 303.20 429.00
  L 424.84 429.00
  Q 427.20 429.00 427.59 426.68
  L 429.89 413.07
  Q 429.95 412.74 429.61 412.74
  L 306.98 412.75
  A 0.77 0.77 0.0 0 0 306.21 413.54
  Z
  M 15.09 413.36
  C 14.72 421.08 21.10 429.00 29.00 429.00
  Q 150.89 429.00 272.77 429.00
  C 283.13 429.00 290.43 425.35 291.35 413.93
  A 1.09 1.08 -87.6 0 0 290.27 412.75
  L 15.73 412.75
  Q 15.12 412.75 15.09 413.36
  Z"
/>
</g>
</svg>
