<?xml version="1.0" encoding="UTF-8" standalone="no"?>
<!DOCTYPE svg PUBLIC "-//W3C//DTD SVG 1.1//EN" "http://www.w3.org/Graphics/SVG/1.1/DTD/svg11.dtd">
<svg xmlns="http://www.w3.org/2000/svg" version="1.1" viewBox="0.00 0.00 512.00 512.00">
<g fill="#000000">
<path d="
  M 195.32 0.00
  L 266.81 0.00
  C 312.77 4.47 309.68 70.48 263.00 70.49
  Q 171.19 70.51 79.39 70.50
  Q 71.72 70.50 68.28 71.82
  C 51.40 78.30 53.05 102.82 70.24 107.68
  Q 73.07 108.48 79.48 108.48
  Q 117.08 108.52 154.68 108.49
  Q 168.65 108.49 173.68 109.90
  C 184.89 113.06 194.21 122.34 197.54 133.59
  C 199.95 141.74 199.04 153.74 198.99 163.26
  Q 198.97 167.64 197.83 169.50
  C 194.68 174.61 186.90 173.76 184.72 168.33
  Q 184.04 166.63 184.02 162.44
  C 183.97 148.85 187.39 130.92 170.83 124.83
  Q 167.15 123.48 159.98 123.49
  Q 118.24 123.52 76.51 123.35
  C 35.90 123.19 27.98 67.53 66.64 56.76
  Q 71.26 55.48 79.01 55.48
  Q 168.03 55.51 257.06 55.50
  Q 267.99 55.50 272.25 53.94
  C 289.34 47.67 289.08 22.13 271.20 16.11
  Q 267.89 15.00 260.67 15.00
  Q 229.41 15.01 198.16 14.99
  C 186.89 14.98 185.22 2.15 195.32 0.00
  Z"
/>
<path d="
  M 265.44 168.25
  C 262.63 176.06 251.10 173.58 251.03 164.76
  Q 250.95 154.01 250.95 143.25
  C 250.96 128.19 260.48 114.26 275.11 109.95
  Q 279.91 108.53 289.67 108.52
  Q 337.83 108.47 385.99 108.51
  Q 397.16 108.52 401.31 106.94
  C 416.64 101.11 417.00 76.97 400.24 71.51
  Q 397.13 70.50 389.63 70.50
  Q 371.49 70.50 353.35 70.50
  Q 349.46 70.50 347.75 69.83
  C 339.52 66.57 342.53 55.53 351.55 55.52
  Q 369.27 55.49 386.98 55.49
  Q 398.82 55.49 403.87 57.01
  C 437.19 67.00 435.10 115.13 401.18 122.59
  Q 397.21 123.47 387.64 123.48
  Q 338.08 123.53 288.52 123.49
  C 262.21 123.46 265.99 144.16 265.99 162.71
  Q 265.99 166.70 265.44 168.25
  Z"
/>
<path d="
  M 245.86 195.63
  C 251.49 199.67 248.96 207.88 242.50 209.07
  Q 241.80 209.20 235.10 209.21
  Q 170.84 209.29 107.02 209.24
  A 2.26 2.26 0.0 0 0 104.75 211.50
  Q 104.75 295.03 104.75 378.98
  Q 104.75 384.18 103.74 386.36
  C 100.48 393.36 89.75 390.84 89.75 382.64
  Q 89.75 298.97 89.75 215.30
  C 89.75 201.17 95.78 194.25 110.23 194.25
  Q 176.58 194.25 242.94 194.26
  Q 243.95 194.26 245.86 195.63
  Z"
/>
<path d="
  M 308.18 512.00
  L 144.70 512.00
  Q 132.83 510.99 124.23 503.04
  C 106.49 486.65 93.89 470.21 90.47 445.48
  C 89.73 440.20 88.21 418.45 90.89 414.04
  C 93.99 408.95 101.55 409.66 103.92 414.93
  Q 104.72 416.72 104.74 420.81
  C 104.77 428.07 104.41 436.23 105.22 442.70
  C 107.33 459.60 114.64 472.03 126.34 483.99
  C 134.72 492.54 137.76 497.00 149.54 497.00
  Q 228.39 497.00 307.25 497.00
  C 316.05 497.00 324.42 486.75 329.78 481.01
  Q 343.82 465.99 347.37 446.36
  Q 348.48 440.23 348.48 426.44
  Q 348.52 319.09 348.49 211.64
  A 2.39 2.39 0.0 0 0 346.09 209.25
  Q 312.09 209.26 277.50 209.24
  C 266.54 209.23 265.86 194.27 277.61 194.26
  Q 310.45 194.25 343.30 194.24
  Q 349.25 194.24 352.51 195.56
  C 365.84 200.97 363.51 214.73 363.50 226.48
  A 0.39 0.38 89.3 0 0 363.89 226.87
  Q 383.57 226.61 401.75 226.84
  Q 415.20 227.01 421.63 228.44
  C 446.38 233.94 465.30 254.62 469.64 279.13
  Q 470.73 285.31 470.75 299.05
  Q 470.79 335.40 470.78 371.75
  C 470.77 401.99 450.29 428.83 420.35 434.89
  Q 413.81 436.21 400.44 436.24
  Q 382.13 436.28 363.92 436.24
  A 0.54 0.54 0.0 0 0 363.38 436.76
  C 362.29 465.09 349.61 483.54 329.76 502.26
  Q 320.43 511.05 308.18 512.00
  Z
  M 416.04 265.38
  C 427.56 269.21 433.74 279.67 433.75 291.75
  Q 433.76 305.50 433.73 319.24
  Q 433.72 323.27 432.97 325.01
  C 430.63 330.34 423.13 330.99 419.96 325.98
  Q 418.77 324.09 418.76 319.77
  Q 418.74 307.47 418.75 295.17
  C 418.76 286.21 416.95 278.77 406.75 278.76
  Q 385.27 278.74 364.00 278.76
  A 0.50 0.50 0.0 0 0 363.50 279.26
  L 363.50 383.74
  A 0.51 0.50 90.0 0 0 364.00 384.25
  Q 384.29 384.26 404.60 384.24
  C 421.90 384.22 418.72 370.88 418.76 358.39
  C 418.79 348.80 430.27 346.00 433.22 354.61
  C 434.79 359.18 434.07 374.04 432.98 378.62
  C 429.43 393.48 418.23 399.30 403.80 399.26
  Q 383.91 399.21 364.00 399.27
  Q 363.50 399.27 363.50 399.76
  L 363.50 420.73
  Q 363.50 421.24 364.00 421.24
  Q 385.25 421.28 406.50 421.22
  C 434.76 421.15 455.74 399.51 455.76 371.75
  Q 455.80 335.65 455.73 299.55
  Q 455.71 285.35 454.47 279.64
  C 450.72 262.32 436.94 247.70 419.48 243.38
  Q 414.11 242.06 402.40 241.98
  Q 383.32 241.86 364.34 241.68
  A 0.82 0.82 0.0 0 0 363.51 242.50
  L 363.48 263.33
  A 0.43 0.42 89.3 0 0 363.91 263.76
  Q 382.01 263.71 400.16 263.78
  Q 411.34 263.82 416.04 265.38
  Z"
/>
<path d="
  M 226.5700 380.9400
  A 49.41 45.15 90.0 0 1 181.4200 331.5300
  A 49.41 45.15 90.0 0 1 226.5700 282.1200
  A 49.41 45.15 90.0 0 1 271.7200 331.5300
  A 49.41 45.15 90.0 0 1 226.5700 380.9400
  Z
  M 217.77 331.29
  C 220.37 327.74 224.59 325.65 225.63 320.17
  C 226.68 314.59 222.72 304.28 221.13 298.19
  A 0.60 0.59 75.2 0 0 220.40 297.76
  C 190.21 306.07 188.70 349.34 215.08 363.54
  A 0.51 0.51 0.0 0 0 215.81 362.93
  C 211.96 351.42 210.26 341.54 217.77 331.29
  Z
  M 232.57 365.35
  Q 242.40 362.80 248.70 354.71
  C 262.87 336.55 258.08 310.49 237.78 299.33
  A 0.50 0.50 0.0 0 0 237.06 299.90
  C 240.51 312.10 243.75 322.03 236.19 333.16
  C 230.90 340.94 225.27 341.24 228.34 352.39
  Q 230.09 358.73 231.98 365.02
  A 0.49 0.49 0.0 0 0 232.57 365.35
  Z"
/>
<path d="
  M 287.31 393.55
  C 294.05 387.13 305.38 397.17 296.00 405.93
  C 256.71 442.62 197.21 443.40 157.59 406.39
  Q 154.38 403.39 153.62 401.12
  C 151.97 396.17 157.09 390.57 162.21 391.76
  Q 164.41 392.27 167.61 395.26
  C 202.31 427.73 253.14 426.16 287.31 393.55
  Z"
/>
</g>
</svg>
