<?xml version="1.0" encoding="UTF-8" standalone="no"?>
<!DOCTYPE svg PUBLIC "-//W3C//DTD SVG 1.1//EN" "http://www.w3.org/Graphics/SVG/1.1/DTD/svg11.dtd">
<svg xmlns="http://www.w3.org/2000/svg" version="1.1" viewBox="0.00 0.00 512.00 512.00">
<g fill="#000000">
<path d="
  M 136.31 0.00
  L 375.81 0.00
  Q 389.58 1.46 395.41 13.08
  Q 404.00 30.24 412.56 47.37
  Q 412.88 48.02 413.60 48.00
  C 425.36 47.72 431.85 54.52 431.77 65.72
  C 431.72 71.76 432.74 80.32 430.51 85.58
  Q 426.77 94.44 415.96 95.26
  Q 415.49 95.29 415.47 95.77
  L 412.14 175.75
  A 0.61 0.60 5.1 0 0 412.67 176.38
  C 425.09 177.88 427.76 186.22 427.29 197.37
  Q 423.84 279.60 420.45 361.82
  Q 420.04 371.67 418.32 375.25
  Q 414.53 383.15 403.97 383.85
  Q 403.49 383.89 403.47 384.37
  Q 402.06 416.78 400.74 449.21
  Q 400.26 461.13 398.51 465.43
  Q 394.77 474.66 384.31 478.75
  A 0.88 0.87 -10.9 0 0 383.76 479.56
  C 383.71 492.63 387.01 508.75 369.69 512.00
  L 142.19 512.00
  C 124.77 508.65 128.38 492.12 128.22 479.48
  Q 128.21 478.95 127.73 478.76
  Q 117.27 474.72 113.51 465.46
  Q 111.75 461.13 111.26 449.19
  Q 109.91 416.78 108.55 384.36
  Q 108.53 383.88 108.05 383.85
  Q 97.50 383.12 93.72 375.35
  Q 91.96 371.74 91.53 361.24
  Q 88.17 279.84 84.73 198.44
  Q 84.37 189.85 85.72 186.18
  Q 88.88 177.59 99.55 176.34
  Q 99.88 176.30 99.87 175.96
  L 96.55 96.25
  Q 96.52 95.42 95.69 95.32
  C 85.03 94.03 80.24 87.64 80.25 77.53
  C 80.26 66.56 77.65 53.22 91.34 48.79
  C 93.57 48.08 96.20 48.06 98.67 47.97
  Q 99.18 47.95 99.41 47.50
  Q 107.32 31.44 115.44 15.50
  C 120.19 6.19 125.87 1.02 136.31 0.00
  Z
  M 95.63 80.25
  L 415.74 80.25
  Q 416.73 80.25 416.73 79.26
  L 416.79 63.79
  A 0.79 0.79 0.0 0 0 416.00 63.00
  Q 396.59 63.01 377.01 62.98
  C 368.12 62.97 365.48 51.76 373.54 48.69
  C 378.42 46.84 389.87 47.97 395.38 48.10
  A 0.48 0.48 0.0 0 0 395.82 47.41
  Q 389.47 34.62 382.96 21.73
  C 381.08 18.00 378.87 15.00 374.75 15.00
  Q 256.68 14.99 138.61 15.01
  C 135.57 15.01 131.79 16.22 130.51 18.78
  Q 123.30 33.16 116.14 47.42
  A 0.40 0.40 0.0 0 0 116.50 48.00
  Q 228.37 48.00 340.24 48.00
  Q 345.39 48.00 347.48 48.99
  C 352.80 51.48 353.00 59.48 347.55 62.20
  Q 345.95 63.00 342.32 63.00
  Q 219.05 63.00 96.01 63.00
  A 0.76 0.76 0.0 0 0 95.25 63.76
  L 95.25 79.88
  A 0.38 0.37 -0.0 0 0 95.63 80.25
  Z
  M 396.68 176.25
  A 0.45 0.45 0.0 0 0 397.13 175.82
  L 400.47 95.72
  A 0.45 0.45 0.0 0 0 400.02 95.25
  L 111.98 95.25
  A 0.45 0.45 0.0 0 0 111.53 95.72
  L 114.86 175.82
  A 0.45 0.45 0.0 0 0 115.31 176.25
  L 396.68 176.25
  Z
  M 138.73 369.47
  C 144.87 372.10 144.50 380.76 138.38 383.15
  C 134.85 384.53 128.25 383.64 124.13 383.81
  Q 123.54 383.83 123.57 384.42
  Q 124.98 418.61 126.41 452.80
  C 126.70 459.82 128.12 465.00 136.00 465.00
  Q 254.46 465.01 372.92 465.00
  C 380.51 465.00 385.12 463.50 385.47 455.25
  Q 386.97 419.65 388.43 384.24
  A 0.47 0.47 0.0 0 0 387.96 383.75
  Q 279.16 383.75 170.33 383.75
  Q 166.00 383.75 164.02 382.60
  C 159.13 379.79 159.22 372.67 164.16 369.79
  Q 165.93 368.76 169.66 368.76
  Q 287.14 368.75 404.15 368.75
  Q 405.13 368.75 405.17 367.77
  L 412.48 192.26
  A 0.97 0.96 1.4 0 0 411.51 191.25
  L 100.11 191.25
  Q 99.47 191.25 99.50 191.89
  L 106.83 367.99
  A 0.82 0.81 -1.1 0 0 107.65 368.77
  Q 120.78 368.70 134.05 368.79
  Q 137.19 368.82 138.73 369.47
  Z
  M 368.75 480.58
  A 0.58 0.58 0.0 0 0 368.17 480.00
  L 143.83 480.00
  A 0.58 0.58 0.0 0 0 143.25 480.58
  L 143.25 496.42
  A 0.58 0.58 0.0 0 0 143.83 497.00
  L 368.17 497.00
  A 0.58 0.58 0.0 0 0 368.75 496.42
  L 368.75 480.58
  Z"
/>
<path d="
  M 268.88 313.93
  A 0.18 0.18 0.0 0 0 269.16 313.98
  Q 281.25 303.05 295.37 294.89
  C 309.27 286.87 317.32 281.93 327.03 272.63
  A 0.75 0.75 0.0 0 0 326.96 271.49
  Q 318.41 265.11 308.20 265.29
  Q 302.55 265.39 301.36 264.99
  C 296.32 263.31 295.02 255.41 299.26 252.23
  Q 301.33 250.69 305.52 250.47
  C 343.69 248.52 362.58 286.74 344.97 318.48
  C 334.14 338.01 312.67 351.75 289.94 348.74
  C 273.80 346.61 261.27 336.89 255.34 321.46
  A 0.76 0.76 0.0 0 0 254.26 321.07
  C 236.03 331.28 213.85 329.41 196.02 319.19
  C 170.64 304.66 154.57 275.12 162.02 245.99
  C 167.15 225.89 183.52 211.67 204.24 208.97
  C 254.72 202.40 300.40 263.02 269.56 307.41
  C 267.88 309.83 267.56 311.31 268.88 313.93
  Z
  M 261.65 260.16
  C 252.61 235.34 225.44 217.56 198.80 225.44
  A 0.42 0.42 0.0 0 0 198.62 226.13
  Q 212.03 240.02 221.74 256.92
  C 232.16 275.05 240.44 288.55 253.84 301.94
  Q 254.23 302.33 254.62 301.93
  C 265.24 290.75 266.77 274.23 261.65 260.16
  Z
  M 194.44 299.81
  C 207.29 310.89 223.87 315.74 240.33 311.02
  A 0.67 0.67 0.0 0 0 240.63 309.92
  C 227.21 295.95 218.21 280.50 208.49 263.93
  Q 198.97 247.69 185.83 234.45
  A 0.83 0.83 0.0 0 0 184.61 234.50
  C 167.18 255.20 175.41 283.41 194.44 299.81
  Z
  M 277.35 327.98
  C 298.43 343.06 325.19 328.45 333.97 306.69
  C 336.71 299.90 337.14 292.87 335.90 285.77
  A 0.41 0.40 -25.7 0 0 335.23 285.54
  Q 323.30 296.25 309.51 304.29
  C 295.00 312.75 287.15 317.42 277.28 327.02
  A 0.63 0.62 -49.6 0 0 277.35 327.98
  Z"
/>
</g>
</svg>
