<?xml version="1.0" encoding="utf-8"?>
<!DOCTYPE svg PUBLIC "-//W3C//DTD SVG 1.0//EN" "http://www.w3.org/TR/2001/REC-SVG-20010904/DTD/svg10.dtd">
<svg version="1.0" xmlns="http://www.w3.org/2000/svg" width="480px" height="512px" viewBox="0 0 480 512" preserveAspectRatio="xMidYMid meet">
 <g fill="#ffffff">
  <path d="M131.4 429.8 c-44.6 -44.7 -83.3 -84.2 -86.1 -87.8 -17.6 -22.7 -30.6 -49.3 -37.8 -77.5 -18.1 -70.7 1.7 -146 52 -198.4 28.5 -29.7 62.7 -49.5 102.4 -59.6 32.1 -8.1 69.1 -8.1 101.2 0 19.2 4.9 41.2 13.7 55 22.1 l6.1 3.7 -11.1 11.1 -11.1 11.1 -9.8 -4.7 c-12.4 -6 -30.6 -12 -45.2 -15 -10.1 -2 -14.3 -2.3 -35 -2.3 -21.6 0.1 -24.5 0.3 -36.1 2.8 -37.7 8 -69 25.3 -95.4 52.8 -10.5 10.9 -16.5 18.5 -23.7 30.1 -39.7 63.8 -35.9 145.9 9.4 207 8.3 11.3 143.4 146.8 146.3 146.8 1.4 0 24.8 -22.8 72.1 -70.2 56.2 -56.5 71.3 -72.2 76.7 -79.8 20.9 -29.9 31.7 -60.4 34.2 -97.2 l0.7 -9.8 14 0 14.1 0 -0.6 11.3 c-2.5 42.2 -18.9 84.2 -46.7 119.2 -5.7 7.1 -162.6 165.5 -164 165.5 -0.3 0 -37 -36.6 -81.6 -81.2z"/>
  <path d="M150.9 381.3 c-33.9 -34 -63.7 -64.6 -66.2 -67.9 -11.5 -15.2 -21.4 -35.5 -26.2 -53.5 -2.8 -10.8 -5.5 -27.2 -5.5 -34.3 0 -4.2 0.2 -4.7 1.8 -4.1 0.9 0.4 7.7 2.2 15 4.1 26.1 6.6 55.5 9.4 79.7 7.5 25.1 -2 37.4 -4.7 67 -14.6 28.9 -9.6 46.8 -12.7 75 -12.7 25.3 0 51.1 3.6 71.2 10 l8.8 2.8 0.3 5.3 c0.4 6.5 -2.1 24 -4.9 34.7 -4.8 18.4 -14 37.4 -26.4 54.6 -4.1 5.6 -25.6 28 -66.4 69.1 -33.3 33.4 -60.7 60.7 -61 60.7 -0.4 0 -28.3 -27.8 -62.2 -61.7z"/>
  <path d="M370.5 359.9 c4.5 -4.6 11.1 -12.5 14.9 -17.4 7 -9.4 8.2 -10.3 13 -10.4 5.8 -0.2 16.2 -3.3 25.3 -7.7 14.4 -6.9 22.7 -16.3 24 -27.4 1.7 -14.8 -5.7 -25.3 -19.9 -28.1 -3.2 -0.6 -5.8 -1.4 -5.8 -1.6 0 -0.2 0.7 -3.6 1.6 -7.5 0.9 -4 2.2 -10.8 2.8 -15.2 l1.2 -8.1 4.4 0.3 c17.9 1.2 34.8 11.1 41.4 24 10.2 20.2 6.6 45 -9.3 64 -18.1 21.5 -57.3 39.3 -94.1 42.8 l-7.5 0.7 8 -8.4z"/>
  <path d="M196.6 173.2 c-2.7 -1 -5.1 -2.2 -5.3 -2.8 -0.2 -0.5 1.4 -1.6 3.4 -2.3 5.2 -1.9 14.5 -11.5 18 -18.7 1.7 -3.2 4.5 -10.2 6.2 -15.5 3.3 -9.9 8.3 -19.4 12.7 -24 2.8 -3 10.5 -7.3 14.6 -8.3 2.3 -0.5 3 0 5.7 4.1 15 22.6 0.3 56.6 -28.7 66.9 -8.3 2.9 -19.3 3.2 -26.6 0.6z"/>
  <path d="M181.1 162.2 c-11.6 -16.3 -8.1 -39.1 8.5 -55.8 13.8 -13.8 33.2 -18.5 49 -11.9 l3.9 1.6 -5.5 3 c-10.8 5.9 -17.2 14.6 -22.6 30.8 -5.5 16.7 -10.6 24.9 -18.9 30.6 -2.8 2 -6.7 3.8 -8.7 4.1 -3.1 0.5 -3.8 0.3 -5.7 -2.4z"/>
 </g>
</svg>