<?xml version="1.0" encoding="utf-8"?>
<svg version="1.1" viewBox="0.00 0.00 512.00 512.00" xmlns="http://www.w3.org/2000/svg">
  <g stroke-width="2.00" fill="none" stroke-linecap="butt">
    <path stroke="#fd9101" vector-effect="non-scaling-stroke" d=" M 478.55 129.42 Q 477.90 129.70 477.46 130.45 Q 453.09 172.06 415.46 202.21 Q 415.03 202.56 413.20 203.00"/>
    <path stroke="#9f5607" vector-effect="non-scaling-stroke" d=" M 413.20 203.00 L 412.81 196.52"/>
    <path stroke="#aa5d0f" vector-effect="non-scaling-stroke" d=" M 412.81 196.52 L 424.41 133.08 Q 424.51 132.53 423.95 132.53 L 255.91 132.52"/>
    <path stroke="#b16418" vector-effect="non-scaling-stroke" d=" M 255.91 132.52 L 171.71 132.51"/>
    <path stroke="#b86c20" vector-effect="non-scaling-stroke" d=" M 171.71 132.51 L 88.04 132.53 Q 87.47 132.53 87.57 133.09 L 99.15 196.43"/>
    <path stroke="#b16418" vector-effect="non-scaling-stroke" d=" M 99.15 196.43 L 98.78 203.25"/>
    <path stroke="#fd9101" vector-effect="non-scaling-stroke" d=" M 98.78 203.25 Q 97.49 202.91 96.71 202.29 Q 58.34 171.61 33.70 129.03"/>
    <path stroke="#af5b18" vector-effect="non-scaling-stroke" d=" M 98.78 203.25 C 94.72 284.55 90.38 365.82 87.41 447.17 A 0.86 0.84 -15.2 0 1 87.01 447.85 L 86.77 448.00"/>
    <path stroke="#9d4d07" vector-effect="non-scaling-stroke" d=" M 424.63 448.59 L 413.20 203.00"/>
    <path stroke="#6b3636" vector-effect="non-scaling-stroke" d=" M 171.71 132.51 Q 174.52 163.55 177.41 194.56 Q 177.53 195.87 178.04 196.54"/>
    <path stroke="#642f2d" vector-effect="non-scaling-stroke" d=" M 178.04 196.54 Q 178.08 197.06 177.62 197.05"/>
    <path stroke="#6b3636" vector-effect="non-scaling-stroke" d=" M 177.62 197.05 Q 176.95 196.50 176.50 196.50 Q 137.95 196.55 99.15 196.43"/>
    <path stroke="#5d2725" vector-effect="non-scaling-stroke" d=" M 255.91 132.52 L 256.03 196.56"/>
    <path stroke="#5d2725" vector-effect="non-scaling-stroke" d=" M 256.03 196.56 L 178.04 196.54"/>
    <path stroke="#4b1914" vector-effect="non-scaling-stroke" d=" M 412.81 196.52 L 256.03 196.56"/>
    <path stroke="#5d2725" vector-effect="non-scaling-stroke" d=" M 177.62 197.05 Q 176.21 241.77 176.00 263.50 Q 175.99 264.68 177.02 264.59"/>
    <path stroke="#ad7d6f" vector-effect="non-scaling-stroke" d=" M 177.02 264.59 L 174.23 267.66"/>
    <path stroke="#ae857c" vector-effect="non-scaling-stroke" d=" M 174.23 267.66 C 136.93 309.63 136.62 369.84 172.42 413.05"/>
    <path stroke="#ad7d6f" vector-effect="non-scaling-stroke" d=" M 172.42 413.05 L 173.73 414.65"/>
    <path stroke="#5d2725" vector-effect="non-scaling-stroke" d=" M 173.73 414.65 Q 173.29 416.04 173.19 420.44 Q 172.27 459.03 171.77 497.76"/>
    <path stroke="#4b1914" vector-effect="non-scaling-stroke" d=" M 256.03 196.56 C 255.98 201.26 255.08 229.33 256.75 231.25"/>
    <path stroke="#9e6452" vector-effect="non-scaling-stroke" d=" M 256.75 231.25 Q 256.16 231.33 255.96 231.17"/>
    <path stroke="#a67666" vector-effect="non-scaling-stroke" d=" M 255.96 231.17 Q 209.63 232.06 177.02 264.59"/>
    <path stroke="#4b1914" vector-effect="non-scaling-stroke" d=" M 256.02 512.00 L 256.00 451.53"/>
    <path stroke="#925d4a" vector-effect="non-scaling-stroke" d=" M 256.00 451.53 C 305.77 450.94 348.42 418.89 361.93 371.23 C 381.90 300.81 329.06 232.38 256.75 231.25"/>
    <path stroke="#eeb99c" vector-effect="non-scaling-stroke" d=" M 255.96 231.17 Q 256.03 257.73 256.00 284.00 Q 256.00 284.67 254.97 284.94"/>
    <path stroke="#a67666" vector-effect="non-scaling-stroke" d=" M 254.97 284.94 L 247.65 285.78"/>
    <path stroke="#b97f68" vector-effect="non-scaling-stroke" d=" M 247.65 285.78 C 232.66 289.68 220.85 301.18 214.86 315.33 Q 203.34 342.49 213.41 370.64 C 219.07 386.47 230.94 399.94 247.58 404.00"/>
    <path stroke="#a67666" vector-effect="non-scaling-stroke" d=" M 247.58 404.00 L 255.47 405.03"/>
    <path stroke="#eeb99c" vector-effect="non-scaling-stroke" d=" M 255.47 405.03 Q 255.51 405.17 255.70 405.25 Q 255.94 405.35 255.94 405.61 L 256.00 451.53"/>
    <path stroke="#a67666" vector-effect="non-scaling-stroke" d=" M 256.00 451.53 Q 206.98 450.54 173.73 414.65"/>
    <path stroke="#f8d4bc" vector-effect="non-scaling-stroke" d=" M 172.42 413.05 Q 172.98 401.88 173.39 379.19 Q 174.35 325.59 175.33 272.00 C 175.36 270.18 175.89 269.09 174.23 267.66"/>
    <path stroke="#925d4a" vector-effect="non-scaling-stroke" d=" M 255.47 405.03 L 264.17 404.18"/>
    <path stroke="#a96752" vector-effect="non-scaling-stroke" d=" M 264.17 404.18 C 316.01 390.85 316.19 298.55 264.14 285.69"/>
    <path stroke="#925d4a" vector-effect="non-scaling-stroke" d=" M 264.14 285.69 L 255.96 285.03"/>
    <path stroke="#9e6452" vector-effect="non-scaling-stroke" d=" M 255.96 285.03 L 254.97 284.94"/>
    <path stroke="#4b1914" vector-effect="non-scaling-stroke" d=" M 255.96 285.03 Q 256.03 344.18 256.00 403.29 C 256.00 404.09 255.78 404.33 255.47 405.03"/>
    <path stroke="#69291f" vector-effect="non-scaling-stroke" d=" M 247.58 404.00 C 247.32 364.59 247.01 325.21 247.65 285.78"/>
    <path stroke="#561c14" vector-effect="non-scaling-stroke" d=" M 264.14 285.69 C 264.10 288.23 264.75 290.81 264.75 293.11 Q 264.75 343.52 264.74 393.93 C 264.74 397.09 264.23 400.70 264.17 404.18"/>
  </g>
  <path d=" M 250.31 0.00 L 261.79 0.00 C 352.62 2.57 433.17 50.95 478.55 129.42 Q 477.90 129.70 477.46 130.45 Q 453.09 172.06 415.46 202.21 Q 415.03 202.56 413.20 203.00 L 412.81 196.52 L 424.41 133.08 Q 424.51 132.53 423.95 132.53 L 255.91 132.52 L 171.71 132.51 L 88.04 132.53 Q 87.47 132.53 87.57 133.09 L 99.15 196.43 L 98.78 203.25 Q 97.49 202.91 96.71 202.29 Q 58.34 171.61 33.70 129.03 C 79.08 50.41 159.39 3.10 250.31 0.00 Z" style="fill: rgb(255, 230, 90);"/>
  <g fill="#632e2e">
    <path d=" M 171.71 132.51 L 255.91 132.52 L 256.03 196.56 L 178.04 196.54 Q 177.53 195.87 177.41 194.56 Q 174.52 163.55 171.71 132.51 Z"/>
    <path d=" M 177.62 197.05 Q 176.21 241.77 176.00 263.50 Q 175.99 264.68 177.02 264.59 L 174.23 267.66 C 136.93 309.63 136.62 369.84 172.42 413.05 L 173.73 414.65 Q 173.29 416.04 173.19 420.44 Q 172.27 459.03 171.77 497.76 Q 124.45 481.01 86.77 448.00 L 87.01 447.85 A 0.86 0.84 -15.2 0 0 87.41 447.17 C 90.38 365.82 94.72 284.55 98.78 203.25 L 99.15 196.43 Q 137.95 196.55 176.50 196.50 Q 176.95 196.50 177.62 197.05 Z"/>
  </g>
  <path fill="#e5a788" d=" M 255.96 231.17 Q 256.16 231.33 256.75 231.25 C 329.06 232.38 381.90 300.81 361.93 371.23 C 348.42 418.89 305.77 450.94 256.00 451.53 L 255.94 405.61 Q 255.94 405.35 255.70 405.25 Q 255.51 405.17 255.47 405.03 L 264.17 404.18 C 316.01 390.85 316.19 298.55 264.14 285.69 L 255.96 285.03 L 254.97 284.94 Q 256.00 284.67 256.00 284.00 Q 256.03 257.73 255.96 231.17 Z"/>
  <g fill="#3f120c">
    <path d=" M 412.81 196.52 L 413.20 203.00 L 424.63 448.59 Q 354.46 509.03 261.19 512.00 L 256.02 512.00 L 256.00 451.53 C 305.77 450.94 348.42 418.89 361.93 371.23 C 381.90 300.81 329.06 232.38 256.75 231.25 C 255.08 229.33 255.98 201.26 256.03 196.56 L 412.81 196.52 Z"/>
    <path d=" M 255.96 285.03 L 264.14 285.69 C 264.10 288.23 264.75 290.81 264.75 293.11 Q 264.75 343.52 264.74 393.93 C 264.74 397.09 264.23 400.70 264.17 404.18 L 255.47 405.03 C 255.78 404.33 256.00 404.09 256.00 403.29 Q 256.03 344.18 255.96 285.03 Z"/>
  </g>
  <path fill="#f6cbaf" d=" M 255.96 231.17 Q 256.03 257.73 256.00 284.00 Q 256.00 284.67 254.97 284.94 L 247.65 285.78 C 232.66 289.68 220.85 301.18 214.86 315.33 Q 203.34 342.49 213.41 370.64 C 219.07 386.47 230.94 399.94 247.58 404.00 L 255.47 405.03 Q 255.51 405.17 255.70 405.25 Q 255.94 405.35 255.94 405.61 L 256.00 451.53 Q 206.98 450.54 173.73 414.65 L 172.42 413.05 Q 172.98 401.88 173.39 379.19 Q 174.35 325.59 175.33 272.00 C 175.36 270.18 175.89 269.09 174.23 267.66 L 177.02 264.59 Q 209.63 232.06 255.96 231.17 Z"/>
  <g fill="#fb8801">
    <path d=" M 33.70 129.03 Q 58.34 171.61 96.71 202.29 Q 97.49 202.91 98.78 203.25 C 94.72 284.55 90.38 365.82 87.41 447.17 A 0.86 0.84 -15.2 0 1 87.01 447.85 L 86.77 448.00 C 32.86 400.16 1.86 333.57 0.00 261.43 L 0.00 250.71 Q 1.74 185.38 33.70 129.03 Z" style="fill: rgb(255, 210, 60);"/>
    <path d=" M 478.55 129.42 Q 510.44 186.02 512.00 251.33 L 512.00 261.54 C 510.06 333.93 478.85 400.73 424.63 448.59 L 413.20 203.00 Q 415.03 202.56 415.46 202.21 Q 453.09 172.06 477.46 130.45 Q 477.90 129.70 478.55 129.42 Z" style="fill: rgb(255, 210, 60);"/>
  </g>
  <path fill="#7c3221" d=" M 247.65 285.78 C 247.01 325.21 247.32 364.59 247.58 404.00 C 230.94 399.94 219.07 386.47 213.41 370.64 Q 203.34 342.49 214.86 315.33 C 220.85 301.18 232.66 289.68 247.65 285.78 Z"/>
  <g fill="#56201c">
    <path d=" M 255.91 132.52 L 423.95 132.53 Q 424.51 132.53 424.41 133.08 L 412.81 196.52 L 256.03 196.56 L 255.91 132.52 Z"/>
    <path d=" M 256.03 196.56 C 255.98 201.26 255.08 229.33 256.75 231.25 Q 256.16 231.33 255.96 231.17 Q 209.63 232.06 177.02 264.59 Q 175.99 264.68 176.00 263.50 Q 176.21 241.77 177.62 197.05 Q 178.08 197.06 178.04 196.54 L 256.03 196.56 Z"/>
    <path d=" M 254.97 284.94 L 255.96 285.03 Q 256.03 344.18 256.00 403.29 C 256.00 404.09 255.78 404.33 255.47 405.03 L 247.58 404.00 C 247.32 364.59 247.01 325.21 247.65 285.78 L 254.97 284.94 Z"/>
    <path d=" M 173.73 414.65 Q 206.98 450.54 256.00 451.53 L 256.02 512.00 L 251.95 512.00 Q 210.65 511.13 171.77 497.76 Q 172.27 459.03 173.19 420.44 Q 173.29 416.04 173.73 414.65 Z"/>
  </g>
  <path fill="#723e3e" d=" M 171.71 132.51 Q 174.52 163.55 177.41 194.56 Q 177.53 195.87 178.04 196.54 Q 178.08 197.06 177.62 197.05 Q 176.95 196.50 176.50 196.50 Q 137.95 196.55 99.15 196.43 L 87.57 133.09 Q 87.47 132.53 88.04 132.53 L 171.71 132.51 Z"/>
  <path fill="#f9dcc9" d=" M 174.23 267.66 C 175.89 269.09 175.36 270.18 175.33 272.00 Q 174.35 325.59 173.39 379.19 Q 172.98 401.88 172.42 413.05 C 136.62 369.84 136.93 309.63 174.23 267.66 Z"/>
  <path fill="#6d261b" d=" M 264.14 285.69 C 316.19 298.55 316.01 390.85 264.17 404.18 C 264.23 400.70 264.74 397.09 264.74 393.93 Q 264.75 343.52 264.75 293.11 C 264.75 290.81 264.10 288.23 264.14 285.69 Z"/>
</svg>