<?xml version="1.0" encoding="UTF-8" standalone="no"?>
<!DOCTYPE svg PUBLIC "-//W3C//DTD SVG 1.1//EN" "http://www.w3.org/Graphics/SVG/1.1/DTD/svg11.dtd">
<svg xmlns="http://www.w3.org/2000/svg" version="1.1" viewBox="0.00 0.00 512.00 512.00">
<g stroke-width="2.00" fill="none" stroke-linecap="butt">
<path stroke="#fd9101" vector-effect="non-scaling-stroke" d="
  M 478.55 129.42
  Q 477.74 129.94 476.35 132.33
  Q 454.31 170.21 418.10 200.03"
/>
<path stroke="#d26b08" vector-effect="non-scaling-stroke" d="
  M 418.10 200.03
  L 418.03 171.60
  A 0.62 0.62 0.0 0 0 417.41 170.99
  L 354.21 170.95"
/>
<path stroke="#9f5607" vector-effect="non-scaling-stroke" d="
  M 354.21 170.95
  Q 342.79 159.30 324.50 141.25
  Q 295.94 113.05 255.49 112.54"
/>
<path stroke="#aa5d0f" vector-effect="non-scaling-stroke" d="
  M 255.49 112.54
  C 228.65 113.08 207.12 122.75 188.02 140.92
  Q 172.77 155.44 157.86 170.96"
/>
<path stroke="#e57c12" vector-effect="non-scaling-stroke" d="
  M 157.86 170.96
  L 94.59 171.02
  Q 94.02 171.02 94.02 171.59
  L 93.85 199.89"
/>
<path stroke="#fd9101" vector-effect="non-scaling-stroke" d="
  M 93.85 199.89
  Q 56.96 169.62 33.74 128.96"
/>
<path stroke="#4b1914" vector-effect="non-scaling-stroke" d="
  M 255.49 112.54
  Q 255.97 114.62 255.97 116.75
  Q 255.90 143.88 256.13 171.00"
/>
<path stroke="#8b391b" vector-effect="non-scaling-stroke" d="
  M 256.13 171.00
  L 177.49 171.00"
/>
<path stroke="#914020" vector-effect="non-scaling-stroke" d="
  M 177.49 171.00
  L 157.86 170.96"
/>
<path stroke="#72280e" vector-effect="non-scaling-stroke" d="
  M 354.21 170.95
  Q 353.68 170.74 353.25 171.00
  Q 304.53 171.00 256.13 171.00"
/>
<path stroke="#e47412" vector-effect="non-scaling-stroke" d="
  M 93.85 199.89
  L 93.97 215.36
  A 0.66 0.65 0.0 0 0 94.63 216.01
  L 116.90 216.05"
/>
<path stroke="#fd9101" vector-effect="non-scaling-stroke" d="
  M 116.90 216.05
  Q 119.17 219.34 123.47 220.57"
/>
<path stroke="#ec7d19" vector-effect="non-scaling-stroke" d="
  M 123.47 220.57
  C 118.28 242.59 109.46 261.91 97.29 280.40
  Q 87.77 294.87 86.42 297.18
  Q 53.93 353.02 60.70 418.79
  A 2.15 2.14 26.4 0 0 61.01 419.70
  Q 61.89 421.10 60.65 421.38"
/>
<path stroke="#dd6d0d" vector-effect="non-scaling-stroke" d="
  M 451.41 421.32
  Q 451.25 421.14 451.11 421.05
  Q 450.87 420.88 450.90 420.58
  C 456.66 375.58 446.43 329.87 422.05 291.65
  Q 416.66 283.20 411.28 274.75
  Q 395.46 249.91 388.64 220.96"
/>
<path stroke="#fd9101" vector-effect="non-scaling-stroke" d="
  M 388.64 220.96
  Q 392.61 218.97 395.39 216.05"
/>
<path stroke="#d06308" vector-effect="non-scaling-stroke" d="
  M 395.39 216.05
  L 417.37 216.01
  A 0.65 0.64 -0.0 0 0 418.02 215.37
  L 418.10 200.03"
/>
<path stroke="#c6581e" vector-effect="non-scaling-stroke" d="
  M 177.49 171.00
  L 177.51 215.97"
/>
<path stroke="#d4692a" vector-effect="non-scaling-stroke" d="
  M 177.51 215.97
  L 124.52 216.02"
/>
<path stroke="#e57c12" vector-effect="non-scaling-stroke" d="
  M 124.52 216.02
  L 116.90 216.05"
/>
<path stroke="#d26b08" vector-effect="non-scaling-stroke" d="
  M 395.39 216.05
  L 387.66 215.94"
/>
<path stroke="#b24714" vector-effect="non-scaling-stroke" d="
  M 387.66 215.94
  L 256.94 215.92
  Q 256.34 215.92 256.34 215.32
  L 256.13 171.00"
/>
<path stroke="#df750d" vector-effect="non-scaling-stroke" d="
  M 387.66 215.94
  L 388.64 220.96"
/>
<path stroke="#c6581e" vector-effect="non-scaling-stroke" d="
  M 256.15 512.00
  L 256.44 434.03"
/>
<path stroke="#db8e64" vector-effect="non-scaling-stroke" d="
  M 256.44 434.03
  C 282.46 433.21 304.77 421.01 318.38 399.44
  C 349.19 350.61 314.35 287.15 256.16 286.47"
/>
<path stroke="#dc9771" vector-effect="non-scaling-stroke" d="
  M 256.16 286.47
  Q 256.23 286.43 256.30 286.39"
/>
<path stroke="#c6581e" vector-effect="non-scaling-stroke" d="
  M 256.30 286.39
  L 256.33 216.55
  A 0.53 0.53 0.0 0 0 255.80 216.02
  L 188.05 216.03"
/>
<path stroke="#ce6225" vector-effect="non-scaling-stroke" d="
  M 188.05 216.03
  L 177.51 215.97"
/>
<path stroke="#d4692a" vector-effect="non-scaling-stroke" d="
  M 188.05 216.03
  Q 187.61 217.23 187.50 218.25
  Q 184.90 242.27 178.09 266.32
  C 174.87 277.69 168.47 294.47 165.07 307.64
  C 156.08 342.47 152.62 378.60 154.46 414.56
  C 156.20 448.63 163.79 488.54 198.96 504.02
  Q 200.28 504.60 200.99 505.16
  Q 201.49 505.56 200.89 505.78
  L 200.46 505.94"
/>
<path stroke="#ed8619" vector-effect="non-scaling-stroke" d="
  M 123.47 220.57
  L 124.52 216.02"
/>
<path stroke="#e39e76" vector-effect="non-scaling-stroke" d="
  M 256.30 286.39
  Q 224.78 287.03 203.82 308.09
  C 157.42 354.70 190.50 433.42 256.11 434.00"
/>
<path stroke="#e19569" vector-effect="non-scaling-stroke" d="
  M 256.11 434.00
  Q 256.27 434.02 256.44 434.03"
/>
<path stroke="#f8d4bc" vector-effect="non-scaling-stroke" d="
  M 256.16 286.47
  L 256.16 312.96"
/>
<path stroke="#9c776b" vector-effect="non-scaling-stroke" d="
  M 256.16 312.96
  L 255.18 313.00"
/>
<path stroke="#a87e73" vector-effect="non-scaling-stroke" d="
  M 255.18 313.00
  L 249.34 313.80"
/>
<path stroke="#bb8775" vector-effect="non-scaling-stroke" d="
  M 249.34 313.80
  Q 244.15 314.97 239.91 317.66
  C 209.34 337.09 212.21 395.87 249.26 406.43"
/>
<path stroke="#a87e73" vector-effect="non-scaling-stroke" d="
  M 249.26 406.43
  L 256.01 407.26"
/>
<path stroke="#f8d4bc" vector-effect="non-scaling-stroke" d="
  M 256.01 407.26
  L 256.11 434.00"
/>
<path stroke="#a67666" vector-effect="non-scaling-stroke" d="
  M 256.01 407.26
  Q 255.42 407.21 256.00 406.97"
/>
<path stroke="#9b6f5e" vector-effect="non-scaling-stroke" d="
  M 256.00 406.97
  L 262.59 406.55"
/>
<path stroke="#b97f68" vector-effect="non-scaling-stroke" d="
  M 262.59 406.55
  C 290.68 398.35 298.29 364.28 289.22 339.52
  C 284.73 327.27 275.37 316.88 262.58 313.72"
/>
<path stroke="#9b6f5e" vector-effect="non-scaling-stroke" d="
  M 262.58 313.72
  L 256.16 312.96"
/>
<path stroke="#4b1914" vector-effect="non-scaling-stroke" d="
  M 255.18 313.00
  C 255.60 314.21 256.00 315.06 256.00 316.37
  Q 256.00 361.65 256.00 406.97"
/>
<path stroke="#69291f" vector-effect="non-scaling-stroke" d="
  M 249.26 406.43
  L 249.34 313.80"
/>
<path stroke="#5e2217" vector-effect="non-scaling-stroke" d="
  M 262.58 313.72
  L 262.59 406.55"
/>
</g>
<path fill="#bf5119" d="
  M 177.49 171.00
  L 256.13 171.00
  L 256.34 215.32
  Q 256.34 215.92 256.94 215.92
  L 387.66 215.94
  L 388.64 220.96
  Q 395.46 249.91 411.28 274.75
  Q 416.66 283.20 422.05 291.65
  C 446.43 329.87 456.66 375.58 450.90 420.58
  Q 450.87 420.88 451.11 421.05
  Q 451.25 421.14 451.41 421.32
  C 403.12 477.84 334.70 510.44 260.43 512.00
  L 256.15 512.00
  L 256.44 434.03
  C 282.46 433.21 304.77 421.01 318.38 399.44
  C 349.19 350.61 314.35 287.15 256.16 286.47
  Q 256.23 286.43 256.30 286.39
  L 256.33 216.55
  A 0.53 0.53 0.0 0 0 255.80 216.02
  L 188.05 216.03
  L 177.51 215.97
  L 177.49 171.00
  Z"
/>
<g fill="#fe9901">
<path d="
  M 250.31 0.00
  L 261.79 0.00
  C 352.62 2.57 433.17 50.95 478.55 129.42
  Q 477.74 129.94 476.35 132.33
  Q 454.31 170.21 418.10 200.03
  L 418.03 171.60
  A 0.62 0.62 0.0 0 0 417.41 170.99
  L 354.21 170.95
  Q 342.79 159.30 324.50 141.25
  Q 295.94 113.05 255.49 112.54
  C 228.65 113.08 207.12 122.75 188.02 140.92
  Q 172.77 155.44 157.86 170.96
  L 94.59 171.02
  Q 94.02 171.02 94.02 171.59
  L 93.85 199.89
  Q 56.96 169.62 33.74 128.96
  C 79.10 50.39 159.44 3.10 250.31 0.00
  Z"
/>
<path d="
  M 116.90 216.05
  L 124.52 216.02
  L 123.47 220.57
  Q 119.17 219.34 116.90 216.05
  Z"
/>
<path d="
  M 387.66 215.94
  L 395.39 216.05
  Q 392.61 218.97 388.64 220.96
  L 387.66 215.94
  Z"
/>
</g>
<g fill="#3f120c">
<path d="
  M 255.49 112.54
  Q 295.94 113.05 324.50 141.25
  Q 342.79 159.30 354.21 170.95
  Q 353.68 170.74 353.25 171.00
  Q 304.53 171.00 256.13 171.00
  Q 255.90 143.88 255.97 116.75
  Q 255.97 114.62 255.49 112.54
  Z"
/>
<path d="
  M 255.18 313.00
  L 256.16 312.96
  L 262.58 313.72
  L 262.59 406.55
  L 256.00 406.97
  Q 256.00 361.65 256.00 316.37
  C 256.00 315.06 255.60 314.21 255.18 313.00
  Z"
/>
</g>
<path fill="#f9dcc9" d="
  M 256.30 286.39
  Q 256.23 286.43 256.16 286.47
  L 256.16 312.96
  L 255.18 313.00
  L 249.34 313.80
  Q 244.15 314.97 239.91 317.66
  C 209.34 337.09 212.21 395.87 249.26 406.43
  L 256.01 407.26
  L 256.11 434.00
  C 190.50 433.42 157.42 354.70 203.82 308.09
  Q 224.78 287.03 256.30 286.39
  Z"
/>
<path fill="#dc7230" d="
  M 177.51 215.97
  L 188.05 216.03
  Q 187.61 217.23 187.50 218.25
  Q 184.90 242.27 178.09 266.32
  C 174.87 277.69 168.47 294.47 165.07 307.64
  C 156.08 342.47 152.62 378.60 154.46 414.56
  C 156.20 448.63 163.79 488.54 198.96 504.02
  Q 200.28 504.60 200.99 505.16
  Q 201.49 505.56 200.89 505.78
  L 200.46 505.94
  Q 116.60 486.42 60.65 421.38
  Q 61.89 421.10 61.01 419.70
  A 2.15 2.14 26.4 0 1 60.70 418.79
  Q 53.93 353.02 86.42 297.18
  Q 87.77 294.87 97.29 280.40
  C 109.46 261.91 118.28 242.59 123.47 220.57
  L 124.52 216.02
  L 177.51 215.97
  Z"
/>
<g fill="#7c3221">
<path d="
  M 249.34 313.80
  L 249.26 406.43
  C 212.21 395.87 209.34 337.09 239.91 317.66
  Q 244.15 314.97 249.34 313.80
  Z"
/>
<path d="
  M 262.58 313.72
  C 275.37 316.88 284.73 327.27 289.22 339.52
  C 298.29 364.28 290.68 398.35 262.59 406.55
  L 262.58 313.72
  Z"
/>
</g>
<g fill="#fb8801">
<path d="
  M 33.74 128.96
  Q 56.96 169.62 93.85 199.89
  L 93.97 215.36
  A 0.66 0.65 0.0 0 0 94.63 216.01
  L 116.90 216.05
  Q 119.17 219.34 123.47 220.57
  C 118.28 242.59 109.46 261.91 97.29 280.40
  Q 87.77 294.87 86.42 297.18
  Q 53.93 353.02 60.70 418.79
  A 2.15 2.14 26.4 0 0 61.01 419.70
  Q 61.89 421.10 60.65 421.38
  Q 2.23 351.33 0.00 259.43
  L 0.00 251.20
  Q 1.56 185.66 33.74 128.96
  Z"
/>
<path d="
  M 478.55 129.42
  Q 510.46 186.03 512.00 251.32
  L 512.00 259.55
  Q 509.70 351.38 451.41 421.32
  Q 451.25 421.14 451.11 421.05
  Q 450.87 420.88 450.90 420.58
  C 456.66 375.58 446.43 329.87 422.05 291.65
  Q 416.66 283.20 411.28 274.75
  Q 395.46 249.91 388.64 220.96
  Q 392.61 218.97 395.39 216.05
  L 417.37 216.01
  A 0.65 0.64 -0.0 0 0 418.02 215.37
  L 418.10 200.03
  Q 454.31 170.21 476.35 132.33
  Q 477.74 129.94 478.55 129.42
  Z"
/>
</g>
<path fill="#a53d0f" d="
  M 354.21 170.95
  L 417.41 170.99
  A 0.62 0.62 0.0 0 1 418.03 171.60
  L 418.10 200.03
  L 418.02 215.37
  A 0.65 0.64 0.0 0 1 417.37 216.01
  L 395.39 216.05
  L 387.66 215.94
  L 256.94 215.92
  Q 256.34 215.92 256.34 215.32
  L 256.13 171.00
  Q 304.53 171.00 353.25 171.00
  Q 353.68 170.74 354.21 170.95
  Z"
/>
<g fill="#cc5f23">
<path d="
  M 157.86 170.96
  L 177.49 171.00
  L 177.51 215.97
  L 124.52 216.02
  L 116.90 216.05
  L 94.63 216.01
  A 0.66 0.65 0.0 0 1 93.97 215.36
  L 93.85 199.89
  L 94.02 171.59
  Q 94.02 171.02 94.59 171.02
  L 157.86 170.96
  Z"
/>
<path d="
  M 256.30 286.39
  Q 224.78 287.03 203.82 308.09
  C 157.42 354.70 190.50 433.42 256.11 434.00
  Q 256.27 434.02 256.44 434.03
  L 256.15 512.00
  L 251.70 512.00
  Q 225.77 511.29 200.46 505.94
  L 200.89 505.78
  Q 201.49 505.56 200.99 505.16
  Q 200.28 504.60 198.96 504.02
  C 163.79 488.54 156.20 448.63 154.46 414.56
  C 152.62 378.60 156.08 342.47 165.07 307.64
  C 168.47 294.47 174.87 277.69 178.09 266.32
  Q 184.90 242.27 187.50 218.25
  Q 187.61 217.23 188.05 216.03
  L 255.80 216.02
  A 0.53 0.53 0.0 0 1 256.33 216.55
  L 256.30 286.39
  Z"
/>
</g>
<path fill="#f6cbaf" d="
  M 256.16 286.47
  C 314.35 287.15 349.19 350.61 318.38 399.44
  C 304.77 421.01 282.46 433.21 256.44 434.03
  Q 256.27 434.02 256.11 434.00
  L 256.01 407.26
  Q 255.42 407.21 256.00 406.97
  L 262.59 406.55
  C 290.68 398.35 298.29 364.28 289.22 339.52
  C 284.73 327.27 275.37 316.88 262.58 313.72
  L 256.16 312.96
  L 256.16 286.47
  Z"
/>
<g fill="#56201c">
<path d="
  M 255.49 112.54
  Q 255.97 114.62 255.97 116.75
  Q 255.90 143.88 256.13 171.00
  L 177.49 171.00
  L 157.86 170.96
  Q 172.77 155.44 188.02 140.92
  C 207.12 122.75 228.65 113.08 255.49 112.54
  Z"
/>
<path d="
  M 255.18 313.00
  C 255.60 314.21 256.00 315.06 256.00 316.37
  Q 256.00 361.65 256.00 406.97
  Q 255.42 407.21 256.01 407.26
  L 249.26 406.43
  L 249.34 313.80
  L 255.18 313.00
  Z"
/>
</g>
</svg>
