<?xml version="1.0" encoding="UTF-8" standalone="no"?>
<!DOCTYPE svg PUBLIC "-//W3C//DTD SVG 1.1//EN" "http://www.w3.org/Graphics/SVG/1.1/DTD/svg11.dtd">
<svg xmlns="http://www.w3.org/2000/svg" version="1.1" viewBox="0.00 0.00 512.00 512.00">
<g stroke-width="2.00" fill="none" stroke-linecap="butt">
<path stroke="#9a442c" vector-effect="non-scaling-stroke" d="
  M 478.57 129.69
  L 478.12 129.95
  A 1.53 1.49 -88.8 0 0 477.55 130.51
  Q 434.91 202.58 358.17 237.00"
/>
<path stroke="#c09284" vector-effect="non-scaling-stroke" d="
  M 358.17 237.00
  L 358.17 195.94
  Q 358.17 195.32 357.56 195.32
  L 348.57 195.29"
/>
<path stroke="#ca8367" vector-effect="non-scaling-stroke" d="
  M 348.57 195.29
  L 377.17 111.75
  A 0.37 0.37 0.0 0 0 376.82 111.26
  L 256.07 111.26"
/>
<path stroke="#cf8b70" vector-effect="non-scaling-stroke" d="
  M 256.07 111.26
  L 160.49 111.31"
/>
<path stroke="#d0947d" vector-effect="non-scaling-stroke" d="
  M 160.49 111.31
  L 135.44 111.33
  Q 134.80 111.33 135.00 111.94
  L 163.52 195.32"
/>
<path stroke="#d0a295" vector-effect="non-scaling-stroke" d="
  M 163.52 195.32
  L 99.52 195.37
  Q 98.78 195.37 99.30 195.89
  L 122.51 219.19"
/>
<path stroke="#9a442c" vector-effect="non-scaling-stroke" d="
  M 122.51 219.19
  L 121.46 219.52
  Q 121.04 219.65 120.67 219.42
  Q 66.62 185.47 34.28 130.41
  Q 34.06 130.03 33.41 129.73"
/>
<path stroke="#f8d4bc" vector-effect="non-scaling-stroke" d="
  M 160.49 111.31
  L 188.29 111.44
  A 2.37 2.37 0.0 0 1 190.61 113.37
  L 205.82 195.25"
/>
<path stroke="#f2e3da" vector-effect="non-scaling-stroke" d="
  M 205.82 195.25
  L 177.33 195.27"
/>
<path stroke="#f9ebe1" vector-effect="non-scaling-stroke" d="
  M 177.33 195.27
  L 163.52 195.32"
/>
<path stroke="#f2c3a6" vector-effect="non-scaling-stroke" d="
  M 256.07 111.26
  L 256.02 195.24"
/>
<path stroke="#f0dbcd" vector-effect="non-scaling-stroke" d="
  M 256.02 195.24
  L 205.82 195.25"
/>
<path stroke="#e3c9bb" vector-effect="non-scaling-stroke" d="
  M 348.57 195.29
  L 255.95 195.26"
/>
<path stroke="#ecd2c4" vector-effect="non-scaling-stroke" d="
  M 255.95 195.26
  Q 255.98 195.25 256.02 195.24"
/>
<path stroke="#c39b90" vector-effect="non-scaling-stroke" d="
  M 122.51 219.19
  L 145.78 242.50"
/>
<path stroke="#78362b" vector-effect="non-scaling-stroke" d="
  M 145.78 242.50
  L 145.78 294.19
  Q 145.78 294.72 146.30 294.72
  L 153.82 294.77"
/>
<path stroke="#c39b90" vector-effect="non-scaling-stroke" d="
  M 153.82 294.77
  Q 152.97 324.57 138.22 350.32
  Q 134.87 356.17 131.46 361.99
  C 112.80 393.78 104.50 432.12 114.39 468.30
  A 0.71 0.67 55.0 0 1 114.31 468.85
  Q 114.20 469.02 114.20 469.26"
/>
<path stroke="#b28b80" vector-effect="non-scaling-stroke" d="
  M 397.80 469.28
  L 397.72 468.70
  Q 397.67 468.29 397.77 467.90
  C 405.97 436.67 400.92 402.50 387.02 373.74
  C 381.68 362.71 373.94 352.17 369.15 341.84
  Q 358.93 319.78 358.18 294.78"
/>
<path stroke="#66281a" vector-effect="non-scaling-stroke" d="
  M 358.18 294.78
  L 412.10 294.82
  Q 412.75 294.82 412.75 295.47
  L 412.75 408.88
  Q 412.75 409.52 413.38 409.51
  L 443.89 409.47
  A 0.71 0.70 -86.8 0 0 444.59 408.84
  L 465.03 243.03
  Q 465.09 242.52 464.58 242.52
  L 357.98 242.51"
/>
<path stroke="#b28b80" vector-effect="non-scaling-stroke" d="
  M 357.98 242.51
  L 358.17 237.00"
/>
<path stroke="#f2f2f2" vector-effect="non-scaling-stroke" d="
  M 177.33 195.27
  Q 188.92 217.72 200.60 240.17
  Q 201.17 241.26 201.27 242.51"
/>
<path stroke="#ae9494" vector-effect="non-scaling-stroke" d="
  M 201.27 242.51
  L 145.78 242.50"
/>
<path stroke="#e1e1e1" vector-effect="non-scaling-stroke" d="
  M 255.95 195.26
  L 255.95 242.50"
/>
<path stroke="#a08583" vector-effect="non-scaling-stroke" d="
  M 255.95 242.50
  L 201.72 242.51"
/>
<path stroke="#a78c8c" vector-effect="non-scaling-stroke" d="
  M 201.72 242.51
  L 201.27 242.51"
/>
<path stroke="#8c7572" vector-effect="non-scaling-stroke" d="
  M 357.98 242.51
  L 255.95 242.51"
/>
<path stroke="#977c7a" vector-effect="non-scaling-stroke" d="
  M 255.95 242.51
  Q 255.95 242.50 255.95 242.50"
/>
<path stroke="#5d2725" vector-effect="non-scaling-stroke" d="
  M 201.72 242.51
  Q 204.08 266.53 205.95 290.50
  Q 206.12 292.59 205.73 294.75"
/>
<path stroke="#a78c8c" vector-effect="non-scaling-stroke" d="
  M 205.73 294.75
  L 205.24 294.76"
/>
<path stroke="#ae9494" vector-effect="non-scaling-stroke" d="
  M 205.24 294.76
  L 153.82 294.77"
/>
<path stroke="#4b1914" vector-effect="non-scaling-stroke" d="
  M 255.95 242.51
  L 255.91 294.76"
/>
<path stroke="#a08583" vector-effect="non-scaling-stroke" d="
  M 255.91 294.76
  L 205.73 294.75"
/>
<path stroke="#8c7572" vector-effect="non-scaling-stroke" d="
  M 358.18 294.78
  L 255.91 294.76"
/>
<path stroke="#f2f2f2" vector-effect="non-scaling-stroke" d="
  M 205.24 294.76
  C 205.71 295.10 205.92 295.29 205.90 295.91
  Q 205.24 322.00 198.53 347.19
  Q 195.78 357.52 192.83 367.77
  Q 185.19 394.32 183.92 421.99"
/>
<path stroke="#d0a295" vector-effect="non-scaling-stroke" d="
  M 183.92 421.99
  L 150.87 421.99
  A 0.65 0.64 90.0 0 0 150.23 422.64
  C 150.31 430.07 149.88 438.48 150.62 445.13
  C 153.17 468.05 164.81 487.13 184.24 499.75
  Q 186.80 501.41 189.31 503.28"
/>
<path stroke="#e1e1e1" vector-effect="non-scaling-stroke" d="
  M 255.91 294.76
  L 256.03 325.14"
/>
<path stroke="#b38e86" vector-effect="non-scaling-stroke" d="
  M 256.03 325.14
  L 254.44 327.74"
/>
<path stroke="#bb9489" vector-effect="non-scaling-stroke" d="
  M 254.44 327.74
  Q 250.12 335.22 245.72 342.65
  C 240.86 350.87 247.07 359.61 256.01 360.27"
/>
<path stroke="#e1e1e1" vector-effect="non-scaling-stroke" d="
  M 256.01 360.27
  L 256.04 378.61"
/>
<path stroke="#b38e86" vector-effect="non-scaling-stroke" d="
  M 256.04 378.61
  L 254.63 381.02"
/>
<path stroke="#bb9489" vector-effect="non-scaling-stroke" d="
  M 254.63 381.02
  C 251.52 386.48 244.72 395.38 244.14 401.02
  C 243.46 407.57 248.91 413.85 255.84 413.76"
/>
<path stroke="#b38e86" vector-effect="non-scaling-stroke" d="
  M 255.84 413.76
  Q 256.17 413.66 256.29 414.00"
/>
<path stroke="#e1e1e1" vector-effect="non-scaling-stroke" d="
  M 256.29 414.00
  L 256.25 422.00"
/>
<path stroke="#bb9489" vector-effect="non-scaling-stroke" d="
  M 256.25 422.00
  L 184.22 422.00"
/>
<path stroke="#c99b8d" vector-effect="non-scaling-stroke" d="
  M 184.22 422.00
  Q 184.07 421.99 183.92 421.99"
/>
<path stroke="#aa857d" vector-effect="non-scaling-stroke" d="
  M 321.05 503.78
  Q 355.64 485.14 361.16 447.09
  C 362.23 439.71 361.68 430.66 361.77 422.59
  A 0.58 0.57 0.5 0 0 361.19 422.01
  L 256.46 422.00"
/>
<path stroke="#b28b80" vector-effect="non-scaling-stroke" d="
  M 256.46 422.00
  Q 256.36 422.00 256.25 422.00"
/>
<path stroke="#aa857d" vector-effect="non-scaling-stroke" d="
  M 256.29 414.00
  C 264.48 412.90 271.55 404.32 266.59 396.43
  Q 261.12 387.73 256.04 378.61"
/>
<path stroke="#aa857d" vector-effect="non-scaling-stroke" d="
  M 256.01 360.27
  C 266.22 359.71 270.78 350.00 265.65 341.37
  Q 260.84 333.30 256.03 325.14"
/>
<path stroke="#843824" vector-effect="non-scaling-stroke" d="
  M 256.01 360.27
  Q 255.99 345.36 256.00 330.50
  Q 256.00 328.56 254.44 327.74"
/>
<path stroke="#843824" vector-effect="non-scaling-stroke" d="
  M 255.84 413.76
  Q 256.16 398.73 255.94 383.81
  Q 255.93 383.10 254.63 381.02"
/>
<path stroke="#9a442c" vector-effect="non-scaling-stroke" d="
  M 184.22 422.00
  Q 183.66 424.83 183.50 429.25
  Q 182.06 468.26 194.30 504.47"
/>
<path stroke="#843824" vector-effect="non-scaling-stroke" d="
  M 256.46 422.00
  C 255.70 427.81 256.11 434.56 256.08 439.15
  Q 255.84 473.42 256.18 507.69
  Q 256.21 510.45 256.59 511.78"
/>
</g>
<g fill="#8c3d27">
<path d="
  M 33.41 129.73
  Q 34.06 130.03 34.28 130.41
  Q 66.62 185.47 120.67 219.42
  Q 121.04 219.65 121.46 219.52
  L 122.51 219.19
  L 145.78 242.50
  L 145.78 294.19
  Q 145.78 294.72 146.30 294.72
  L 153.82 294.77
  Q 152.97 324.57 138.22 350.32
  Q 134.87 356.17 131.46 361.99
  C 112.80 393.78 104.50 432.12 114.39 468.30
  A 0.71 0.67 55.0 0 1 114.31 468.85
  Q 114.20 469.02 114.20 469.26
  C 44.34 422.20 2.32 346.27 0.00 261.93
  L 0.00 251.71
  Q 1.48 186.34 33.41 129.73
  Z"
/>
<path d="
  M 478.57 129.69
  Q 510.60 186.47 512.00 252.07
  L 512.00 260.54
  C 510.18 345.22 467.99 422.13 397.80 469.28
  L 397.72 468.70
  Q 397.67 468.29 397.77 467.90
  C 405.97 436.67 400.92 402.50 387.02 373.74
  C 381.68 362.71 373.94 352.17 369.15 341.84
  Q 358.93 319.78 358.18 294.78
  L 412.10 294.82
  Q 412.75 294.82 412.75 295.47
  L 412.75 408.88
  Q 412.75 409.52 413.38 409.51
  L 443.89 409.47
  A 0.71 0.70 -86.8 0 0 444.59 408.84
  L 465.03 243.03
  Q 465.09 242.52 464.58 242.52
  L 357.98 242.51
  L 358.17 237.00
  Q 434.91 202.58 477.55 130.51
  A 1.53 1.49 -88.8 0 1 478.12 129.95
  L 478.57 129.69
  Z"
/>
<path d="
  M 254.44 327.74
  Q 256.00 328.56 256.00 330.50
  Q 255.99 345.36 256.01 360.27
  C 247.07 359.61 240.86 350.87 245.72 342.65
  Q 250.12 335.22 254.44 327.74
  Z"
/>
<path d="
  M 254.63 381.02
  Q 255.93 383.10 255.94 383.81
  Q 256.16 398.73 255.84 413.76
  C 248.91 413.85 243.46 407.57 244.14 401.02
  C 244.72 395.38 251.52 386.48 254.63 381.02
  Z"
/>
<path d="
  M 184.22 422.00
  L 256.25 422.00
  Q 256.36 422.00 256.46 422.00
  C 255.70 427.81 256.11 434.56 256.08 439.15
  Q 255.84 473.42 256.18 507.69
  Q 256.21 510.45 256.59 511.78
  Q 224.78 512.43 194.30 504.47
  Q 182.06 468.26 183.50 429.25
  Q 183.66 424.83 184.22 422.00
  Z"
/>
</g>
<g fill="#f9f9f9">
<path d="
  M 163.52 195.32
  L 177.33 195.27
  Q 188.92 217.72 200.60 240.17
  Q 201.17 241.26 201.27 242.51
  L 145.78 242.50
  L 122.51 219.19
  L 99.30 195.89
  Q 98.78 195.37 99.52 195.37
  L 163.52 195.32
  Z"
/>
<path d="
  M 153.82 294.77
  L 205.24 294.76
  C 205.71 295.10 205.92 295.29 205.90 295.91
  Q 205.24 322.00 198.53 347.19
  Q 195.78 357.52 192.83 367.77
  Q 185.19 394.32 183.92 421.99
  L 150.87 421.99
  A 0.65 0.64 90.0 0 0 150.23 422.64
  C 150.31 430.07 149.88 438.48 150.62 445.13
  C 153.17 468.05 164.81 487.13 184.24 499.75
  Q 186.80 501.41 189.31 503.28
  Q 148.88 492.36 114.20 469.26
  Q 114.20 469.02 114.31 468.85
  A 0.71 0.67 55.0 0 0 114.39 468.30
  C 104.50 432.12 112.80 393.78 131.46 361.99
  Q 134.87 356.17 138.22 350.32
  Q 152.97 324.57 153.82 294.77
  Z"
/>
</g>
<path fill="#edba9d" d="
  M 256.07 111.26
  L 376.82 111.26
  A 0.37 0.37 0.0 0 1 377.17 111.75
  L 348.57 195.29
  L 255.95 195.26
  Q 255.98 195.25 256.02 195.24
  L 256.07 111.26
  Z"
/>
<path fill="#3f120c" d="
  M 255.95 242.51
  L 357.98 242.51
  L 464.58 242.52
  Q 465.09 242.52 465.03 243.03
  L 444.59 408.84
  A 0.71 0.70 -86.8 0 1 443.89 409.47
  L 413.38 409.51
  Q 412.75 409.52 412.75 408.88
  L 412.75 295.47
  Q 412.75 294.82 412.10 294.82
  L 358.18 294.78
  L 255.91 294.76
  L 255.95 242.51
  Z"
/>
<g fill="#a74b30">
<path d="
  M 478.57 129.69
  L 478.12 129.95
  A 1.53 1.49 -88.8 0 0 477.55 130.51
  Q 434.91 202.58 358.17 237.00
  L 358.17 195.94
  Q 358.17 195.32 357.56 195.32
  L 348.57 195.29
  L 377.17 111.75
  A 0.37 0.37 0.0 0 0 376.82 111.26
  L 256.07 111.26
  L 160.49 111.31
  L 135.44 111.33
  Q 134.80 111.33 135.00 111.94
  L 163.52 195.32
  L 99.52 195.37
  Q 98.78 195.37 99.30 195.89
  L 122.51 219.19
  L 121.46 219.52
  Q 121.04 219.65 120.67 219.42
  Q 66.62 185.47 34.28 130.41
  Q 34.06 130.03 33.41 129.73
  C 132.49 -42.46 379.72 -42.64 478.57 129.69
  Z"
/>
<path d="
  M 183.92 421.99
  Q 184.07 421.99 184.22 422.00
  Q 183.66 424.83 183.50 429.25
  Q 182.06 468.26 194.30 504.47
  L 189.31 503.28
  Q 186.80 501.41 184.24 499.75
  C 164.81 487.13 153.17 468.05 150.62 445.13
  C 149.88 438.48 150.31 430.07 150.23 422.64
  A 0.65 0.64 90.0 0 1 150.87 421.99
  L 183.92 421.99
  Z"
/>
</g>
<g fill="#d8d8d8">
<path d="
  M 255.95 195.26
  L 348.57 195.29
  L 357.56 195.32
  Q 358.17 195.32 358.17 195.94
  L 358.17 237.00
  L 357.98 242.51
  L 255.95 242.51
  Q 255.95 242.50 255.95 242.50
  L 255.95 195.26
  Z"
/>
<path d="
  M 255.91 294.76
  L 358.18 294.78
  Q 358.93 319.78 369.15 341.84
  C 373.94 352.17 381.68 362.71 387.02 373.74
  C 400.92 402.50 405.97 436.67 397.77 467.90
  Q 397.67 468.29 397.72 468.70
  L 397.80 469.28
  Q 362.26 492.89 321.05 503.78
  Q 355.64 485.14 361.16 447.09
  C 362.23 439.71 361.68 430.66 361.77 422.59
  A 0.58 0.57 0.5 0 0 361.19 422.01
  L 256.46 422.00
  Q 256.36 422.00 256.25 422.00
  L 256.29 414.00
  C 264.48 412.90 271.55 404.32 266.59 396.43
  Q 261.12 387.73 256.04 378.61
  L 256.01 360.27
  C 266.22 359.71 270.78 350.00 265.65 341.37
  Q 260.84 333.30 256.03 325.14
  L 255.91 294.76
  Z"
/>
</g>
<path fill="#632e2e" d="
  M 145.78 242.50
  L 201.27 242.51
  L 201.72 242.51
  Q 204.08 266.53 205.95 290.50
  Q 206.12 292.59 205.73 294.75
  L 205.24 294.76
  L 153.82 294.77
  L 146.30 294.72
  Q 145.78 294.72 145.78 294.19
  L 145.78 242.50
  Z"
/>
<path fill="#f9dcc9" d="
  M 160.49 111.31
  L 188.29 111.44
  A 2.37 2.37 0.0 0 1 190.61 113.37
  L 205.82 195.25
  L 177.33 195.27
  L 163.52 195.32
  L 135.00 111.94
  Q 134.80 111.33 135.44 111.33
  L 160.49 111.31
  Z"
/>
<g fill="#7c3221">
<path d="
  M 256.03 325.14
  Q 260.84 333.30 265.65 341.37
  C 270.78 350.00 266.22 359.71 256.01 360.27
  Q 255.99 345.36 256.00 330.50
  Q 256.00 328.56 254.44 327.74
  L 256.03 325.14
  Z"
/>
<path d="
  M 256.04 378.61
  Q 261.12 387.73 266.59 396.43
  C 271.55 404.32 264.48 412.90 256.29 414.00
  Q 256.17 413.66 255.84 413.76
  Q 256.16 398.73 255.94 383.81
  Q 255.93 383.10 254.63 381.02
  L 256.04 378.61
  Z"
/>
<path d="
  M 256.46 422.00
  L 361.19 422.01
  A 0.58 0.57 0.5 0 1 361.77 422.59
  C 361.68 430.66 362.23 439.71 361.16 447.09
  Q 355.64 485.14 321.05 503.78
  Q 289.20 512.32 256.59 511.78
  Q 256.21 510.45 256.18 507.69
  Q 255.84 473.42 256.08 439.15
  C 256.11 434.56 255.70 427.81 256.46 422.00
  Z"
/>
</g>
<path fill="#f6cbaf" d="
  M 160.49 111.31
  L 256.07 111.26
  L 256.02 195.24
  L 205.82 195.25
  L 190.61 113.37
  A 2.37 2.37 0.0 0 0 188.29 111.44
  L 160.49 111.31
  Z"
/>
<g fill="#eaeaea">
<path d="
  M 177.33 195.27
  L 205.82 195.25
  L 256.02 195.24
  Q 255.98 195.25 255.95 195.26
  L 255.95 242.50
  L 201.72 242.51
  L 201.27 242.51
  Q 201.17 241.26 200.60 240.17
  Q 188.92 217.72 177.33 195.27
  Z"
/>
<path d="
  M 205.24 294.76
  L 205.73 294.75
  L 255.91 294.76
  L 256.03 325.14
  L 254.44 327.74
  Q 250.12 335.22 245.72 342.65
  C 240.86 350.87 247.07 359.61 256.01 360.27
  L 256.04 378.61
  L 254.63 381.02
  C 251.52 386.48 244.72 395.38 244.14 401.02
  C 243.46 407.57 248.91 413.85 255.84 413.76
  Q 256.17 413.66 256.29 414.00
  L 256.25 422.00
  L 184.22 422.00
  Q 184.07 421.99 183.92 421.99
  Q 185.19 394.32 192.83 367.77
  Q 195.78 357.52 198.53 347.19
  Q 205.24 322.00 205.90 295.91
  C 205.92 295.29 205.71 295.10 205.24 294.76
  Z"
/>
</g>
<path fill="#56201c" d="
  M 201.72 242.51
  L 255.95 242.50
  Q 255.95 242.50 255.95 242.51
  L 255.91 294.76
  L 205.73 294.75
  Q 206.12 292.59 205.95 290.50
  Q 204.08 266.53 201.72 242.51
  Z"
/>
</svg>
