<?xml version="1.0" encoding="UTF-8" standalone="no"?>
<!DOCTYPE svg PUBLIC "-//W3C//DTD SVG 1.1//EN" "http://www.w3.org/Graphics/SVG/1.1/DTD/svg11.dtd">
<svg xmlns="http://www.w3.org/2000/svg" version="1.1" viewBox="0.00 0.00 512.00 512.00">
<g stroke-width="2.00" fill="none" stroke-linecap="butt">
<path stroke="#e13b3b" vector-effect="non-scaling-stroke" d="
  M 478.82 129.94
  C 478.06 130.13 477.66 130.14 477.23 130.86
  C 425.40 218.02 330.23 266.92 229.00 256.49
  Q 199.01 253.40 168.39 242.74"
/>
<path stroke="#ab3530" vector-effect="non-scaling-stroke" d="
  M 168.39 242.74
  L 163.98 238.40"
/>
<path stroke="#942b28" vector-effect="non-scaling-stroke" d="
  M 163.98 238.40
  Q 160.69 234.96 154.98 231.59"
/>
<path stroke="#a03230" vector-effect="non-scaling-stroke" d="
  M 154.98 231.59
  Q 150.63 228.93 144.25 227.21"
/>
<path stroke="#bb4136" vector-effect="non-scaling-stroke" d="
  M 144.25 227.21
  L 129.15 224.53"
/>
<path stroke="#e13b3b" vector-effect="non-scaling-stroke" d="
  M 129.15 224.53
  Q 68.86 189.15 34.16 129.82
  Q 33.96 129.48 33.44 129.45"
/>
<path stroke="#942b28" vector-effect="non-scaling-stroke" d="
  M 285.08 58.64
  L 273.50 63.04"
/>
<path stroke="#a03230" vector-effect="non-scaling-stroke" d="
  M 273.50 63.04
  Q 267.36 65.90 262.16 70.67"
/>
<path stroke="#bb4136" vector-effect="non-scaling-stroke" d="
  M 262.16 70.67
  C 243.24 87.22 236.93 113.45 240.16 137.72
  Q 245.76 179.74 277.29 207.70
  C 295.00 223.40 318.76 232.44 342.50 226.96"
/>
<path stroke="#a03230" vector-effect="non-scaling-stroke" d="
  M 342.50 226.96
  Q 349.51 225.53 355.23 222.45"
/>
<path stroke="#942b28" vector-effect="non-scaling-stroke" d="
  M 355.23 222.45
  L 365.90 215.26"
/>
<path stroke="#ab3530" vector-effect="non-scaling-stroke" d="
  M 365.90 215.26
  Q 375.18 207.21 380.46 196.68
  C 406.57 144.61 369.78 71.85 314.04 58.45
  Q 299.96 55.07 285.08 58.64"
/>
<path stroke="#561c14" vector-effect="non-scaling-stroke" d="
  M 365.90 215.26
  L 285.08 58.64"
/>
<path stroke="#4b1914" vector-effect="non-scaling-stroke" d="
  M 355.23 222.45
  Q 316.45 147.36 277.70 72.30
  Q 274.69 66.46 273.50 63.04"
/>
<path stroke="#712f22" vector-effect="non-scaling-stroke" d="
  M 342.50 226.96
  Q 342.62 224.85 341.39 223.79"
/>
<path stroke="#69291f" vector-effect="non-scaling-stroke" d="
  M 341.39 223.79
  L 264.04 74.00"
/>
<path stroke="#712f22" vector-effect="non-scaling-stroke" d="
  M 264.04 74.00
  L 262.16 70.67"
/>
<path stroke="#843824" vector-effect="non-scaling-stroke" d="
  M 264.04 74.00
  Q 264.00 74.47 263.69 74.68
  Q 263.30 74.95 263.17 75.40
  C 258.44 91.30 261.56 110.06 266.34 125.93
  Q 278.51 166.31 306.21 198.56
  C 315.58 209.47 327.08 219.52 341.39 223.79"
/>
<path stroke="#b2372c" vector-effect="non-scaling-stroke" d="
  M 129.15 224.53
  Q 100.67 227.00 80.85 245.60
  C 57.61 267.41 44.41 299.81 51.12 331.55
  Q 54.78 348.88 67.46 361.00"
/>
<path stroke="#972927" vector-effect="non-scaling-stroke" d="
  M 67.46 361.00
  L 76.54 367.97"
/>
<path stroke="#8c221f" vector-effect="non-scaling-stroke" d="
  M 76.54 367.97
  Q 81.20 370.77 86.93 372.40"
/>
<path stroke="#a32c26" vector-effect="non-scaling-stroke" d="
  M 86.93 372.40
  Q 99.39 375.90 112.26 373.55
  C 166.78 363.57 202.73 289.58 168.39 242.74"
/>
<path stroke="#a32c26" vector-effect="non-scaling-stroke" d="
  M 455.25 416.54
  Q 454.87 416.39 454.78 415.99
  C 445.60 371.79 409.01 331.50 363.51 324.29
  Q 341.16 320.75 322.05 329.36"
/>
<path stroke="#8c221f" vector-effect="non-scaling-stroke" d="
  M 322.05 329.36
  L 310.79 336.25"
/>
<path stroke="#972927" vector-effect="non-scaling-stroke" d="
  M 310.79 336.25
  Q 304.73 340.86 299.83 347.15"
/>
<path stroke="#b2372c" vector-effect="non-scaling-stroke" d="
  M 299.83 347.15
  C 275.93 378.10 283.89 422.25 303.86 452.62
  Q 321.15 478.91 349.71 494.22"
/>
<path stroke="#712f22" vector-effect="non-scaling-stroke" d="
  M 144.25 227.21
  L 142.59 230.23"
/>
<path stroke="#843824" vector-effect="non-scaling-stroke" d="
  M 142.59 230.23
  C 131.41 231.72 119.60 241.43 112.00 249.34
  C 87.50 274.82 60.18 321.49 68.79 358.50"
/>
<path stroke="#712f22" vector-effect="non-scaling-stroke" d="
  M 68.79 358.50
  L 67.46 361.00"
/>
<path stroke="#4b1914" vector-effect="non-scaling-stroke" d="
  M 154.98 231.59
  L 76.54 367.97"
/>
<path stroke="#69291f" vector-effect="non-scaling-stroke" d="
  M 68.79 358.50
  L 142.59 230.23"
/>
<path stroke="#561c14" vector-effect="non-scaling-stroke" d="
  M 163.98 238.40
  L 86.93 372.40"
/>
<path stroke="#561c14" vector-effect="non-scaling-stroke" d="
  M 419.75 452.54
  L 322.05 329.36"
/>
<path stroke="#4b1914" vector-effect="non-scaling-stroke" d="
  M 408.54 461.44
  Q 339.06 373.69 313.41 341.08
  Q 311.88 339.13 310.79 336.25"
/>
<path stroke="#69291f" vector-effect="non-scaling-stroke" d="
  M 397.02 469.55
  L 302.50 350.04"
/>
<path stroke="#712f22" vector-effect="non-scaling-stroke" d="
  M 302.50 350.04
  L 299.83 347.15"
/>
<path stroke="#843824" vector-effect="non-scaling-stroke" d="
  M 302.50 350.04
  C 300.19 367.74 306.34 386.38 314.45 402.27
  Q 338.17 448.72 379.98 479.91"
/>
</g>
<path fill="#d83131" d="
  M 33.44 129.45
  Q 33.96 129.48 34.16 129.82
  Q 68.86 189.15 129.15 224.53
  Q 100.67 227.00 80.85 245.60
  C 57.61 267.41 44.41 299.81 51.12 331.55
  Q 54.78 348.88 67.46 361.00
  L 76.54 367.97
  Q 81.20 370.77 86.93 372.40
  Q 99.39 375.90 112.26 373.55
  C 166.78 363.57 202.73 289.58 168.39 242.74
  Q 199.01 253.40 229.00 256.49
  C 330.23 266.92 425.40 218.02 477.23 130.86
  C 477.66 130.14 478.06 130.13 478.82 129.94
  Q 510.57 186.53 512.00 251.83
  L 512.00 260.06
  Q 509.75 348.17 455.25 416.54
  Q 454.87 416.39 454.78 415.99
  C 445.60 371.79 409.01 331.50 363.51 324.29
  Q 341.16 320.75 322.05 329.36
  L 310.79 336.25
  Q 304.73 340.86 299.83 347.15
  C 275.93 378.10 283.89 422.25 303.86 452.62
  Q 321.15 478.91 349.71 494.22
  Q 305.68 511.28 259.19 512.00
  L 249.71 512.00
  C 112.83 507.52 3.66 399.28 0.00 261.68
  L 0.00 251.20
  Q 1.58 185.97 33.44 129.45
  Z"
/>
<g fill="#6d261b">
<path d="
  M 365.90 215.26
  L 285.08 58.64
  Q 299.96 55.07 314.04 58.45
  C 369.78 71.85 406.57 144.61 380.46 196.68
  Q 375.18 207.21 365.90 215.26
  Z"
/>
<path d="
  M 163.98 238.40
  L 168.39 242.74
  C 202.73 289.58 166.78 363.57 112.26 373.55
  Q 99.39 375.90 86.93 372.40
  L 163.98 238.40
  Z"
/>
<path d="
  M 455.25 416.54
  Q 439.42 436.44 419.75 452.54
  L 322.05 329.36
  Q 341.16 320.75 363.51 324.29
  C 409.01 331.50 445.60 371.79 454.78 415.99
  Q 454.87 416.39 455.25 416.54
  Z"
/>
</g>
<path fill="#e94444" d="
  M 250.56 0.00
  L 261.28 0.00
  C 352.39 2.49 433.62 50.98 478.82 129.94
  C 478.06 130.13 477.66 130.14 477.23 130.86
  C 425.40 218.02 330.23 266.92 229.00 256.49
  Q 199.01 253.40 168.39 242.74
  L 163.98 238.40
  Q 160.69 234.96 154.98 231.59
  Q 150.63 228.93 144.25 227.21
  L 129.15 224.53
  Q 68.86 189.15 34.16 129.82
  Q 33.96 129.48 33.44 129.45
  C 79.25 50.74 159.52 2.47 250.56 0.00
  Z
  M 285.08 58.64
  L 273.50 63.04
  Q 267.36 65.90 262.16 70.67
  C 243.24 87.22 236.93 113.45 240.16 137.72
  Q 245.76 179.74 277.29 207.70
  C 295.00 223.40 318.76 232.44 342.50 226.96
  Q 349.51 225.53 355.23 222.45
  L 365.90 215.26
  Q 375.18 207.21 380.46 196.68
  C 406.57 144.61 369.78 71.85 314.04 58.45
  Q 299.96 55.07 285.08 58.64
  Z"
/>
<g fill="#3f120c">
<path d="
  M 285.08 58.64
  L 365.90 215.26
  L 355.23 222.45
  Q 316.45 147.36 277.70 72.30
  Q 274.69 66.46 273.50 63.04
  L 285.08 58.64
  Z"
/>
<path d="
  M 154.98 231.59
  Q 160.69 234.96 163.98 238.40
  L 86.93 372.40
  Q 81.20 370.77 76.54 367.97
  L 154.98 231.59
  Z"
/>
<path d="
  M 322.05 329.36
  L 419.75 452.54
  L 408.54 461.44
  Q 339.06 373.69 313.41 341.08
  Q 311.88 339.13 310.79 336.25
  L 322.05 329.36
  Z"
/>
</g>
<g fill="#8c3d27">
<path d="
  M 262.16 70.67
  L 264.04 74.00
  Q 264.00 74.47 263.69 74.68
  Q 263.30 74.95 263.17 75.40
  C 258.44 91.30 261.56 110.06 266.34 125.93
  Q 278.51 166.31 306.21 198.56
  C 315.58 209.47 327.08 219.52 341.39 223.79
  Q 342.62 224.85 342.50 226.96
  C 318.76 232.44 295.00 223.40 277.29 207.70
  Q 245.76 179.74 240.16 137.72
  C 236.93 113.45 243.24 87.22 262.16 70.67
  Z"
/>
<path d="
  M 129.15 224.53
  L 144.25 227.21
  L 142.59 230.23
  C 131.41 231.72 119.60 241.43 112.00 249.34
  C 87.50 274.82 60.18 321.49 68.79 358.50
  L 67.46 361.00
  Q 54.78 348.88 51.12 331.55
  C 44.41 299.81 57.61 267.41 80.85 245.60
  Q 100.67 227.00 129.15 224.53
  Z"
/>
<path d="
  M 299.83 347.15
  L 302.50 350.04
  C 300.19 367.74 306.34 386.38 314.45 402.27
  Q 338.17 448.72 379.98 479.91
  Q 364.43 488.53 349.71 494.22
  Q 321.15 478.91 303.86 452.62
  C 283.89 422.25 275.93 378.10 299.83 347.15
  Z"
/>
</g>
<g fill="#56201c">
<path d="
  M 273.50 63.04
  Q 274.69 66.46 277.70 72.30
  Q 316.45 147.36 355.23 222.45
  Q 349.51 225.53 342.50 226.96
  Q 342.62 224.85 341.39 223.79
  L 264.04 74.00
  L 262.16 70.67
  Q 267.36 65.90 273.50 63.04
  Z"
/>
<path d="
  M 144.25 227.21
  Q 150.63 228.93 154.98 231.59
  L 76.54 367.97
  L 67.46 361.00
  L 68.79 358.50
  L 142.59 230.23
  L 144.25 227.21
  Z"
/>
<path d="
  M 310.79 336.25
  Q 311.88 339.13 313.41 341.08
  Q 339.06 373.69 408.54 461.44
  L 397.02 469.55
  L 302.50 350.04
  L 299.83 347.15
  Q 304.73 340.86 310.79 336.25
  Z"
/>
</g>
<g fill="#7c3221">
<path d="
  M 264.04 74.00
  L 341.39 223.79
  C 327.08 219.52 315.58 209.47 306.21 198.56
  Q 278.51 166.31 266.34 125.93
  C 261.56 110.06 258.44 91.30 263.17 75.40
  Q 263.30 74.95 263.69 74.68
  Q 264.00 74.47 264.04 74.00
  Z"
/>
<path d="
  M 142.59 230.23
  L 68.79 358.50
  C 60.18 321.49 87.50 274.82 112.00 249.34
  C 119.60 241.43 131.41 231.72 142.59 230.23
  Z"
/>
<path d="
  M 302.50 350.04
  L 397.02 469.55
  L 379.98 479.91
  Q 338.17 448.72 314.45 402.27
  C 306.34 386.38 300.19 367.74 302.50 350.04
  Z"
/>
</g>
</svg>
