<?xml version="1.0" encoding="utf-8"?>
<svg viewBox="-8.868 -30.45 526.9 504.7" width="512px" height="512px" xmlns="http://www.w3.org/2000/svg">
  <g stroke-width="2.00" fill="none" stroke-linecap="butt" transform="matrix(1, 0, 0, 1, -0.730677, -12.506791)">
    <path stroke="#e9b195" vector-effect="non-scaling-stroke" d=" M 219.50 177.71 L 206.38 176.07"/>
    <path stroke="#d6927a" vector-effect="non-scaling-stroke" d=" M 206.38 176.07 L 113.94 83.56"/>
    <path stroke="#d6927a" vector-effect="non-scaling-stroke" d=" M 390.29 93.75 L 307.94 176.02"/>
    <path stroke="#e9b195" vector-effect="non-scaling-stroke" d=" M 307.94 176.02 Q 293.25 178.09 278.29 178.75"/>
    <path stroke="#e5a88a" vector-effect="non-scaling-stroke" d=" M 206.38 176.07 L 199.79 175.50"/>
    <path stroke="#e39973" vector-effect="non-scaling-stroke" d=" M 199.79 175.50 L 150.75 168.46"/>
    <path stroke="#d6927a" vector-effect="non-scaling-stroke" d=" M 150.75 168.46 L 90.06 107.55"/>
    <path stroke="#d6927a" vector-effect="non-scaling-stroke" d=" M 413.97 117.68 L 363.16 168.54"/>
    <path stroke="#e5a88a" vector-effect="non-scaling-stroke" d=" M 363.16 168.54 L 307.94 176.02"/>
    <path stroke="#e6a27e" vector-effect="non-scaling-stroke" d=" M 150.75 168.46 Q 115.11 164.18 79.25 164.42"/>
    <path stroke="#e9b195" vector-effect="non-scaling-stroke" d=" M 428.42 164.72 Q 395.92 164.54 363.16 168.54"/>
    <path stroke="#f6b88e" vector-effect="non-scaling-stroke" d=" M 199.79 175.50 C 193.75 197.65 201.19 220.75 217.95 236.05"/>
    <path stroke="#f5c497" vector-effect="non-scaling-stroke" d=" M 217.95 236.05 C 193.56 233.84 169.21 230.26 144.96 226.90 Q 92.56 219.63 39.96 226.20"/>
    <path stroke="#f8d3ae" vector-effect="non-scaling-stroke" d=" M 472.22 226.07 Q 420.09 219.70 368.00 226.71 Q 347.16 229.52 326.33 232.44 C 290.41 237.46 255.07 239.48 217.95 236.05"/>
    <path stroke="#f9e8c3" vector-effect="non-scaling-stroke" d=" M 462.61 256.25 Q 460.57 255.63 458.51 255.35 C 452.28 254.50 447.12 250.41 441.10 253.91 A 1.72 1.67 30.7 0 1 440.19 254.13 Q 402.22 252.95 357.51 259.29 Q 320.89 264.47 307.00 265.98 Q 258.73 271.23 216.57 267.14 C 184.76 264.05 153.38 258.35 121.57 255.42 Q 85.48 252.09 49.50 256.29"/>
    <path stroke="#f1bdb6" vector-effect="non-scaling-stroke" d=" M 172.01 299.02 Q 164.22 299.54 160.78 300.31 C 149.66 302.81 138.34 311.50 137.85 323.56 C 137.56 330.93 141.38 338.34 147.32 342.69 C 160.94 352.67 182.33 352.75 194.69 340.20 C 204.64 330.10 203.22 315.41 192.14 306.86 Q 187.14 302.99 180.70 300.70"/>
    <path stroke="#a5a498" vector-effect="non-scaling-stroke" d=" M 180.70 300.70 Q 185.08 298.36 185.28 294.24 C 185.60 287.25 193.47 284.46 197.62 290.29 C 199.22 292.55 198.46 295.61 200.08 298.03 C 204.71 304.93 214.02 300.36 213.49 292.18 C 212.30 273.79 190.04 265.81 176.96 278.45 Q 167.76 287.35 172.01 299.02"/>
    <path stroke="#9b6f7f" vector-effect="non-scaling-stroke" d=" M 180.70 300.70 Q 177.08 302.36 172.01 299.02"/>
    <path stroke="#f1bdb6" vector-effect="non-scaling-stroke" d=" M 330.57 300.98 C 299.41 311.70 307.50 346.09 337.42 349.65 Q 351.45 351.32 362.80 343.98 C 381.18 332.09 375.70 309.29 356.68 302.06 Q 347.50 298.57 338.40 299.54"/>
    <path stroke="#a5a498" vector-effect="non-scaling-stroke" d=" M 338.40 299.54 Q 341.73 291.98 338.70 285.14 C 332.04 270.07 310.65 267.44 301.06 281.47 C 297.94 286.03 294.62 295.52 300.06 299.62 C 304.40 302.90 310.74 300.85 311.81 295.24 C 312.17 293.35 312.23 291.60 313.30 290.08 C 315.50 286.96 319.64 286.29 322.78 288.44 C 327.42 291.59 323.39 297.42 330.57 300.98"/>
    <path stroke="#9b6f7f" vector-effect="non-scaling-stroke" d=" M 338.40 299.54 Q 333.81 301.89 330.57 300.98"/>
    <path stroke="#a5a498" vector-effect="non-scaling-stroke" d=" M 256.0000 324.0000 A 18.87 16.84 90.0 0 0 272.8400 305.1300 A 18.87 16.84 90.0 0 0 256.0000 286.2600 A 18.87 16.84 90.0 0 0 239.1600 305.1300 A 18.87 16.84 90.0 0 0 256.0000 324.0000"/>
  </g>
  <path fill="#fbf1cf" d="M 461.879 242.771 C 446.952 278.105 432.019 313.426 417.079 348.734 C 413.779 356.537 387.399 382.61 368.589 383.024 C 359.742 383.222 151.486 383.229 142.619 383.017 C 125.509 382.603 111.279 377.136 102.369 366.283 C 100.349 363.822 98.236 359.99 96.029 354.786 C 80.189 317.475 64.436 280.147 48.769 242.801 C 72.756 240.73 96.779 240.515 120.839 242.157 C 152.649 244.325 184.029 248.542 215.839 250.828 C 243.946 252.845 274.089 252.559 306.269 249.97 C 315.529 249.226 332.366 247.576 356.779 245.02 C 386.586 241.894 414.146 240.622 439.459 241.203 C 439.78 241.213 440.095 241.156 440.369 241.04 C 446.389 238.451 451.549 241.477 457.779 242.106 C 459.152 242.244 460.519 242.466 461.879 242.771 Z" style=""/>
  <path fill="#f8c7a5" d="M 427.689 152.213 C 444.896 152.66 461.986 153.91 478.959 155.963 C 486.066 156.817 491.309 158.033 494.689 159.613 C 504.762 164.32 510.289 172.967 511.269 185.553 L 511.269 186.803 C 509.359 207.983 491.339 218.373 471.489 213.563 C 436.736 209.317 401.996 209.53 367.269 214.203 C 353.376 216.077 339.486 217.987 325.599 219.933 C 289.679 224.953 254.339 226.973 217.219 223.543 C 200.459 208.243 193.019 185.143 199.059 162.993 L 205.649 163.563 L 218.769 165.203 C 238.336 167.403 257.932 167.75 277.559 166.243 C 287.532 165.803 297.416 164.893 307.209 163.513 L 362.429 156.033 C 384.269 153.367 406.022 152.093 427.689 152.213 Z"/>
  <g fill="#4e5660" transform="matrix(1, 0, 0, 1, -0.730677, -12.506791)"/>
  <g fill="#d99a84" transform="matrix(1, 0, 0, 1, -0.730677, -12.506791)">
    <path d=" M 219.50 177.71 L 206.38 176.07 L 113.94 83.56 C 114.31 73.20 120.32 68.91 130.17 67.10 C 182.18 57.53 238.15 116.46 226.10 168.01 Q 224.78 173.67 219.50 177.71 Z"/>
    <path d=" M 390.29 93.75 L 307.94 176.02 Q 293.25 178.09 278.29 178.75 C 266.31 133.06 307.95 85.86 350.75 77.46 C 364.38 74.79 389.31 74.24 390.29 93.75 Z"/>
    <path d=" M 150.75 168.46 Q 115.11 164.18 79.25 164.42 C 72.91 150.35 69.88 130.91 75.32 116.82 Q 78.77 107.87 90.06 107.55 L 150.75 168.46 Z"/>
    <path d=" M 413.97 117.68 C 436.16 118.21 432.81 150.70 428.42 164.72 Q 395.92 164.54 363.16 168.54 L 413.97 117.68 Z"/>
  </g>
  <g fill="#e7889d" transform="matrix(1, 0, 0, 1, -0.730677, -12.506791)"/>
  <path fill="#f3a977" d="M 150.019 155.953 L 199.059 162.993 C 193.019 185.143 200.459 208.243 217.219 223.543 C 192.829 221.333 168.479 217.753 144.229 214.393 C 109.296 209.547 74.296 209.313 39.229 213.693 C 36.749 214.1 34.259 214.43 31.759 214.683 C 14.589 216.393 2.229 205.343 -0.731 188.683 L -0.731 181.933 C 2.509 165.143 13.209 158.193 28.969 156.123 C 45.062 154.003 57.159 152.853 65.259 152.673 C 71.379 152.54 75.799 152.287 78.519 151.913 C 102.426 151.753 126.259 153.1 150.019 155.953 Z"/>
  <g fill="#f7dfb7" transform="matrix(1, 0, 0, 1, -0.730677, -12.506791)">
    <path d=" M 217.95 236.05 C 255.07 239.48 290.41 237.46 326.33 232.44 Q 347.16 229.52 368.00 226.71 Q 420.09 219.70 472.22 226.07 L 462.61 256.25 Q 460.57 255.63 458.51 255.35 C 452.28 254.50 447.12 250.41 441.10 253.91 A 1.72 1.67 30.7 0 1 440.19 254.13 Q 402.22 252.95 357.51 259.29 Q 320.89 264.47 307.00 265.98 Q 258.73 271.23 216.57 267.14 C 184.76 264.05 153.38 258.35 121.57 255.42 Q 85.48 252.09 49.50 256.29 L 39.96 226.20 Q 92.56 219.63 144.96 226.90 C 169.21 230.26 193.56 233.84 217.95 236.05 Z"/>
    <path d="M 184.935 395.589 L 169.485 395.569 C 162.638 370.429 155.838 345.259 149.085 320.059 C 148.258 316.972 148.025 314.665 148.385 313.139 C 149.535 308.169 157.035 306.059 160.665 309.859 C 161.658 310.892 162.518 312.739 163.245 315.399 C 170.551 342.065 177.781 368.795 184.935 395.589 Z"/>
    <path d="M 341.455 395.569 L 325.785 395.679 C 332.938 369.239 340.121 342.782 347.335 316.309 C 348.181 313.195 349.068 311.099 349.995 310.019 C 353.455 306.009 361.415 308.039 362.505 313.329 C 362.805 314.789 362.565 316.962 361.785 319.849 C 354.978 345.022 348.201 370.262 341.455 395.569 Z"/>
    <path d="M 262.985 395.649 L 248.015 395.629 C 247.968 385.969 247.935 363.229 247.915 327.409 C 247.905 315.589 263.015 315.399 262.965 328.189 C 262.871 350.642 262.878 373.129 262.985 395.649 Z"/>
  </g>
  <g fill="#d2896f" transform="matrix(1, 0, 0, 1, -0.730677, -12.506791)">
    <path d=" M 113.94 83.56 L 206.38 176.07 L 199.79 175.50 L 150.75 168.46 L 90.06 107.55 C 79.02 90.31 96.94 72.21 113.94 83.56 Z"/>
    <path d=" M 413.97 117.68 L 363.16 168.54 L 307.94 176.02 L 390.29 93.75 C 407.14 82.39 425.25 100.64 413.97 117.68 Z"/>
  </g>
</svg>