<?xml version="1.0" encoding="UTF-8" standalone="no"?>
<!DOCTYPE svg PUBLIC "-//W3C//DTD SVG 1.1//EN" "http://www.w3.org/Graphics/SVG/1.1/DTD/svg11.dtd">
<svg xmlns="http://www.w3.org/2000/svg" version="1.1" viewBox="0.00 0.00 512.00 512.00">
<g stroke-width="2.00" fill="none" stroke-linecap="butt">
<path stroke="#f5ecbb" vector-effect="non-scaling-stroke" d="
  M 419.95 317.55
  L 365.01 317.57"
/>
<path stroke="#ffd25e" vector-effect="non-scaling-stroke" d="
  M 365.01 317.57
  C 430.38 288.17 437.62 198.55 375.63 161.49
  C 356.78 150.22 336.41 147.63 314.35 149.36"
/>
<path stroke="#ffd969" vector-effect="non-scaling-stroke" d="
  M 314.35 149.36
  L 301.19 149.05"
/>
<path stroke="#ffd25e" vector-effect="non-scaling-stroke" d="
  M 301.19 149.05
  L 217.28 149.00
  Q 216.89 149.00 216.54 149.18
  Q 216.17 149.37 215.75 149.29"
/>
<path stroke="#ffd969" vector-effect="non-scaling-stroke" d="
  M 215.75 149.29
  Q 215.40 149.29 215.09 149.17
  Q 214.63 149.00 214.15 149.00
  L 62.75 148.99"
/>
<path stroke="#ffca50" vector-effect="non-scaling-stroke" d="
  M 215.75 149.29
  Q 218.95 157.48 220.58 160.16
  C 241.10 194.04 290.59 187.35 301.19 149.05"
/>
<path stroke="#ffca50" vector-effect="non-scaling-stroke" d="
  M 314.35 149.36
  Q 327.35 151.63 331.01 152.73
  C 378.85 167.09 405.68 219.33 388.20 266.73
  Q 376.08 299.60 343.69 315.93
  Q 342.73 316.41 343.04 317.50"
/>
<path stroke="#f5e4ad" vector-effect="non-scaling-stroke" d="
  M 343.04 317.50
  L 292.00 317.49"
/>
<path stroke="#ffca50" vector-effect="non-scaling-stroke" d="
  M 292.00 317.49
  Q 290.47 291.86 268.93 281.84
  C 256.32 275.98 241.58 277.77 230.44 285.99
  Q 215.49 297.02 214.50 317.46"
/>
<path stroke="#f5e4ad" vector-effect="non-scaling-stroke" d="
  M 214.50 317.46
  L 62.75 317.50"
/>
<path stroke="#ffca50" vector-effect="non-scaling-stroke" d="
  M 133.75 202.46
  A 15.34 15.34 0.0 0 0 118.41 187.12
  A 15.34 15.34 0.0 0 0 103.07 202.46
  A 15.34 15.34 0.0 0 0 118.41 217.80
  A 15.34 15.34 0.0 0 0 133.75 202.46"
/>
<path stroke="#ffca50" vector-effect="non-scaling-stroke" d="
  M 356.06 211.94
  A 20.50 20.50 0.0 0 0 335.56 191.44
  A 20.50 20.50 0.0 0 0 315.06 211.94
  A 20.50 20.50 0.0 0 0 335.56 232.44
  A 20.50 20.50 0.0 0 0 356.06 211.94"
/>
<path stroke="#ffd969" vector-effect="non-scaling-stroke" d="
  M 222.09 203.29
  A 7.39 7.39 0.0 0 0 214.70 195.90
  A 7.39 7.39 0.0 0 0 207.31 203.29
  A 7.39 7.39 0.0 0 0 214.70 210.68
  A 7.39 7.39 0.0 0 0 222.09 203.29"
/>
<path stroke="#ffca50" vector-effect="non-scaling-stroke" d="
  M 202.19 253.73
  A 17.92 17.92 0.0 0 0 184.27 235.81
  A 17.92 17.92 0.0 0 0 166.35 253.73
  A 17.92 17.92 0.0 0 0 184.27 271.65
  A 17.92 17.92 0.0 0 0 202.19 253.73"
/>
<path stroke="#ffd969" vector-effect="non-scaling-stroke" d="
  M 297.68 253.75
  A 7.38 7.38 0.0 0 0 290.30 246.37
  A 7.38 7.38 0.0 0 0 282.92 253.75
  A 7.38 7.38 0.0 0 0 290.30 261.13
  A 7.38 7.38 0.0 0 0 297.68 253.75"
/>
<path stroke="#ffd969" vector-effect="non-scaling-stroke" d="
  M 125.79 263.31
  A 7.39 7.39 0.0 0 0 118.40 255.92
  A 7.39 7.39 0.0 0 0 111.01 263.31
  A 7.39 7.39 0.0 0 0 118.40 270.70
  A 7.39 7.39 0.0 0 0 125.79 263.31"
/>
<path stroke="#ffd969" vector-effect="non-scaling-stroke" d="
  M 362.15 271.78
  A 7.37 7.37 0.0 0 0 354.78 264.41
  A 7.37 7.37 0.0 0 0 347.41 271.78
  A 7.37 7.37 0.0 0 0 354.78 279.15
  A 7.37 7.37 0.0 0 0 362.15 271.78"
/>
<path stroke="#f5dda2" vector-effect="non-scaling-stroke" d="
  M 365.01 317.57
  L 343.04 317.50"
/>
<path stroke="#f5dda2" vector-effect="non-scaling-stroke" d="
  M 292.00 317.49
  L 214.50 317.46"
/>
<path stroke="#e1f1ff" vector-effect="non-scaling-stroke" d="
  M 485.75 351.71
  L 485.34 351.49
  Q 484.87 351.25 485.16 350.82
  C 488.77 345.48 487.25 333.36 487.25 326.86
  C 487.24 323.61 486.49 320.73 486.00 317.52"
/>
<path stroke="#e1f1ff" vector-effect="non-scaling-stroke" d="
  M 484.51 351.53
  L 28.33 351.64"
/>
</g>
<path fill="#ffd15b" d="
  M 62.75 148.99
  L 214.15 149.00
  Q 214.63 149.00 215.09 149.17
  Q 215.40 149.29 215.75 149.29
  Q 218.95 157.48 220.58 160.16
  C 241.10 194.04 290.59 187.35 301.19 149.05
  L 314.35 149.36
  Q 327.35 151.63 331.01 152.73
  C 378.85 167.09 405.68 219.33 388.20 266.73
  Q 376.08 299.60 343.69 315.93
  Q 342.73 316.41 343.04 317.50
  L 292.00 317.49
  Q 290.47 291.86 268.93 281.84
  C 256.32 275.98 241.58 277.77 230.44 285.99
  Q 215.49 297.02 214.50 317.46
  L 62.75 317.50
  L 62.75 148.99
  Z
  M 133.75 202.46
  A 15.34 15.34 0.0 0 0 118.41 187.12
  A 15.34 15.34 0.0 0 0 103.07 202.46
  A 15.34 15.34 0.0 0 0 118.41 217.80
  A 15.34 15.34 0.0 0 0 133.75 202.46
  Z
  M 356.06 211.94
  A 20.50 20.50 0.0 0 0 335.56 191.44
  A 20.50 20.50 0.0 0 0 315.06 211.94
  A 20.50 20.50 0.0 0 0 335.56 232.44
  A 20.50 20.50 0.0 0 0 356.06 211.94
  Z
  M 222.09 203.29
  A 7.39 7.39 0.0 0 0 214.70 195.90
  A 7.39 7.39 0.0 0 0 207.31 203.29
  A 7.39 7.39 0.0 0 0 214.70 210.68
  A 7.39 7.39 0.0 0 0 222.09 203.29
  Z
  M 202.19 253.73
  A 17.92 17.92 0.0 0 0 184.27 235.81
  A 17.92 17.92 0.0 0 0 166.35 253.73
  A 17.92 17.92 0.0 0 0 184.27 271.65
  A 17.92 17.92 0.0 0 0 202.19 253.73
  Z
  M 297.68 253.75
  A 7.38 7.38 0.0 0 0 290.30 246.37
  A 7.38 7.38 0.0 0 0 282.92 253.75
  A 7.38 7.38 0.0 0 0 290.30 261.13
  A 7.38 7.38 0.0 0 0 297.68 253.75
  Z
  M 125.79 263.31
  A 7.39 7.39 0.0 0 0 118.40 255.92
  A 7.39 7.39 0.0 0 0 111.01 263.31
  A 7.39 7.39 0.0 0 0 118.40 270.70
  A 7.39 7.39 0.0 0 0 125.79 263.31
  Z
  M 362.15 271.78
  A 7.37 7.37 0.0 0 0 354.78 264.41
  A 7.37 7.37 0.0 0 0 347.41 271.78
  A 7.37 7.37 0.0 0 0 354.78 279.15
  A 7.37 7.37 0.0 0 0 362.15 271.78
  Z"
/>
<g fill="#d8ecfe">
<path d="
  M 512.00 322.31
  L 512.00 347.31
  C 510.68 350.60 508.42 351.75 504.78 351.76
  Q 495.27 351.77 485.75 351.71
  L 485.34 351.49
  Q 484.87 351.25 485.16 350.82
  C 488.77 345.48 487.25 333.36 487.25 326.86
  C 487.24 323.61 486.49 320.73 486.00 317.52
  Q 490.51 317.41 505.25 317.50
  Q 510.55 317.53 512.00 322.31
  Z"
/>
<path d="
  M 484.51 351.53
  L 483.96 352.11
  Q 483.62 352.46 483.43 352.90
  Q 477.52 366.26 471.58 379.56
  Q 467.29 389.15 458.40 392.39
  Q 454.26 393.90 444.30 393.88
  Q 256.09 393.63 67.88 393.79
  C 53.40 393.80 46.19 391.39 40.20 378.46
  Q 34.18 365.47 28.33 351.64
  L 484.51 351.53
  Z"
/>
</g>
<g fill="#ffe177">
<path d="
  M 419.95 317.55
  L 365.01 317.57
  C 430.38 288.17 437.62 198.55 375.63 161.49
  C 356.78 150.22 336.41 147.63 314.35 149.36
  L 301.19 149.05
  L 217.28 149.00
  Q 216.89 149.00 216.54 149.18
  Q 216.17 149.37 215.75 149.29
  Q 215.40 149.29 215.09 149.17
  Q 214.63 149.00 214.15 149.00
  L 62.75 148.99
  Q 62.75 142.51 62.75 136.32
  C 62.74 124.39 65.06 118.25 77.78 118.25
  Q 205.76 118.25 333.75 118.25
  Q 347.19 118.25 353.71 119.17
  C 382.25 123.18 407.51 139.77 424.56 162.75
  C 458.94 209.09 457.28 272.93 419.95 317.55
  Z"
/>
<circle cx="214.70" cy="203.29" r="7.39"/>
<circle cx="290.30" cy="253.75" r="7.38"/>
<circle cx="118.40" cy="263.31" r="7.39"/>
<circle cx="354.78" cy="271.78" r="7.37"/>
</g>
<path fill="#eaf6ff" d="
  M 62.75 317.50
  L 214.50 317.46
  L 292.00 317.49
  L 343.04 317.50
  L 365.01 317.57
  L 419.95 317.55
  L 486.00 317.52
  C 486.49 320.73 487.24 323.61 487.25 326.86
  C 487.25 333.36 488.77 345.48 485.16 350.82
  Q 484.87 351.25 485.34 351.49
  L 485.75 351.71
  Q 485.08 351.95 484.51 351.53
  L 28.33 351.64
  Q 17.85 351.43 7.06 351.48
  C 3.19 351.49 0.90 350.16 0.00 346.44
  L 0.00 322.69
  Q 1.39 317.58 6.31 317.56
  Q 34.53 317.45 62.75 317.50
  Z"
/>
<g fill="#ffc344">
<path d="
  M 301.19 149.05
  C 290.59 187.35 241.10 194.04 220.58 160.16
  Q 218.95 157.48 215.75 149.29
  Q 216.17 149.37 216.54 149.18
  Q 216.89 149.00 217.28 149.00
  L 301.19 149.05
  Z"
/>
<path d="
  M 314.35 149.36
  C 336.41 147.63 356.78 150.22 375.63 161.49
  C 437.62 198.55 430.38 288.17 365.01 317.57
  L 343.04 317.50
  Q 342.73 316.41 343.69 315.93
  Q 376.08 299.60 388.20 266.73
  C 405.68 219.33 378.85 167.09 331.01 152.73
  Q 327.35 151.63 314.35 149.36
  Z"
/>
<circle cx="118.41" cy="202.46" r="15.34"/>
<circle cx="335.56" cy="211.94" r="20.50"/>
<circle cx="184.27" cy="253.73" r="17.92"/>
<path d="
  M 292.00 317.49
  L 214.50 317.46
  Q 215.49 297.02 230.44 285.99
  C 241.58 277.77 256.32 275.98 268.93 281.84
  Q 290.47 291.86 292.00 317.49
  Z"
/>
</g>
</svg>
