<?xml version="1.0" encoding="utf-8"?>
<svg version="1.1" viewBox="0.00 0.00 512.00 512.00" xmlns="http://www.w3.org/2000/svg">
  <g stroke-width="2.00" fill="none" stroke-linecap="butt" style="">
    <path stroke="#c47343" vector-effect="non-scaling-stroke" d=" M 494.78 151.98 Q 494.05 152.33 494.01 152.71 C 491.55 177.90 478.84 197.81 461.03 215.00"/>
    <path stroke="#d27a47" vector-effect="non-scaling-stroke" d=" M 461.03 215.00 C 416.22 254.35 354.60 272.71 296.22 277.80 C 235.51 283.09 173.22 277.14 116.22 254.59 C 74.36 238.04 24.47 205.20 18.39 155.96 A 2.36 2.30 -64.5 0 0 18.08 155.05 L 17.35 153.75"/>
    <path stroke="#eeb468" vector-effect="non-scaling-stroke" d=" M 363.98 139.85 A 107.98 65.51 0.0 0 0 256.00 74.34 A 107.98 65.51 0.0 0 0 148.02 139.85 A 107.98 65.51 0.0 0 0 256.00 205.36 A 107.98 65.51 0.0 0 0 363.98 139.85"/>
    <path stroke="#ffa373" vector-effect="non-scaling-stroke" d=" M 328.93 139.84 A 72.92 35.63 0.0 0 0 256.01 104.21 A 72.92 35.63 0.0 0 0 183.09 139.84 A 72.92 35.63 0.0 0 0 256.01 175.47 A 72.92 35.63 0.0 0 0 328.93 139.84"/>
    <path stroke="#ba6632" vector-effect="non-scaling-stroke" d=" M 247.25 495.95 L 248.81 494.93 Q 249.24 494.65 249.75 494.69 Q 252.39 494.93 255.01 494.60 Q 268.01 492.97 280.98 491.15 C 325.12 484.93 368.62 471.32 406.72 447.96 C 439.40 427.92 470.87 394.74 470.80 354.50 C 470.72 309.89 466.27 261.13 461.03 215.00"/>
    <path stroke="#d27a47" vector-effect="non-scaling-stroke" d=" M 69.32 287.10 A 7.58 7.58 0.0 0 0 61.74 279.52 A 7.58 7.58 0.0 0 0 54.16 287.10 A 7.58 7.58 0.0 0 0 61.74 294.68 A 7.58 7.58 0.0 0 0 69.32 287.10"/>
    <path stroke="#d27a47" vector-effect="non-scaling-stroke" d=" M 464.82 287.11 A 7.59 7.59 0.0 0 0 457.23 279.52 A 7.59 7.59 0.0 0 0 449.64 287.11 A 7.59 7.59 0.0 0 0 457.23 294.70 A 7.59 7.59 0.0 0 0 464.82 287.11"/>
    <path stroke="#d27a47" vector-effect="non-scaling-stroke" d=" M 317.50 376.97 A 7.59 7.59 0.0 0 0 309.91 369.38 A 7.59 7.59 0.0 0 0 302.32 376.97 A 7.59 7.59 0.0 0 0 309.91 384.56 A 7.59 7.59 0.0 0 0 317.50 376.97"/>
    <path stroke="#d27a47" vector-effect="non-scaling-stroke" d=" M 371.65 423.44 A 7.59 7.59 0.0 0 0 364.06 415.85 A 7.59 7.59 0.0 0 0 356.47 423.44 A 7.59 7.59 0.0 0 0 364.06 431.03 A 7.59 7.59 0.0 0 0 371.65 423.44"/>
  </g>
  <path d=" M 17.35 153.75 L 18.08 155.05 A 2.36 2.30 -64.5 0 1 18.39 155.96 C 24.47 205.20 74.36 238.04 116.22 254.59 C 173.22 277.14 235.51 283.09 296.22 277.80 C 354.60 272.71 416.22 254.35 461.03 215.00 C 466.27 261.13 470.72 309.89 470.80 354.50 C 470.87 394.74 439.40 427.92 406.72 447.96 C 368.62 471.32 325.12 484.93 280.98 491.15 Q 268.01 492.97 255.01 494.60 Q 252.39 494.93 249.75 494.69 Q 249.24 494.65 248.81 494.93 L 247.25 495.95 C 181.42 494.82 110.29 479.87 55.14 442.15 C 26.26 422.40 2.50 393.66 0.00 357.49 L 0.00 350.19 C 3.15 285.97 9.98 222.10 17.35 153.75 Z M 69.32 287.10 A 7.58 7.58 0.0 0 0 61.74 279.52 A 7.58 7.58 0.0 0 0 54.16 287.10 A 7.58 7.58 0.0 0 0 61.74 294.68 A 7.58 7.58 0.0 0 0 69.32 287.10 Z M 464.82 287.11 A 7.59 7.59 0.0 0 0 457.23 279.52 A 7.59 7.59 0.0 0 0 449.64 287.11 A 7.59 7.59 0.0 0 0 457.23 294.70 A 7.59 7.59 0.0 0 0 464.82 287.11 Z M 317.50 376.97 A 7.59 7.59 0.0 0 0 309.91 369.38 A 7.59 7.59 0.0 0 0 302.32 376.97 A 7.59 7.59 0.0 0 0 309.91 384.56 A 7.59 7.59 0.0 0 0 317.50 376.97 Z M 371.65 423.44 A 7.59 7.59 0.0 0 0 364.06 415.85 A 7.59 7.59 0.0 0 0 356.47 423.44 A 7.59 7.59 0.0 0 0 364.06 431.03 A 7.59 7.59 0.0 0 0 371.65 423.44 Z" style="fill: rgb(194, 127, 76);"/>
  <g fill="#dc8758">
    <path d="M 494.78 151.98 C 494.293 152.213 494.037 152.457 494.01 152.71 C 491.55 177.9 478.84 197.81 461.03 215 C 416.22 254.35 354.6 272.71 296.22 277.8 C 235.51 283.09 173.22 277.14 116.22 254.59 C 74.36 238.04 24.47 205.2 18.39 155.96 C 18.35 155.637 18.245 155.327 18.08 155.05 L 17.35 153.75 C 17.77 144.03 18.547 136.607 19.68 131.48 C 26.27 101.77 51.35 76.51 77.54 60.51 C 113.49 38.56 154.89 25.93 196.43 20.1 C 274.03 9.21 364.5 18.23 432.78 59.45 C 462.24 77.22 489.28 104.52 493.64 140.09 C 494 143.05 494.12 148.01 494.78 151.98 Z" style="fill: rgb(232, 163, 83);"/>
    <circle cx="61.74" cy="287.10" r="7.58" style="fill: rgb(232, 163, 83);"/>
    <circle cx="457.23" cy="287.11" r="7.59" style="fill: rgb(232, 163, 83);"/>
    <circle cx="309.91" cy="376.97" r="7.59" style="fill: rgb(232, 163, 83);"/>
    <circle cx="364.06" cy="423.44" r="7.59" style="fill: rgb(232, 163, 83);"/>
  </g>
  <ellipse cx="256.01" cy="139.84" rx="72.92" ry="35.63" style="fill: rgb(194, 127, 76);"/>
  <path d=" M 494.78 151.98 C 503.05 213.32 509.58 275.21 512.00 337.07 L 512.00 360.56 C 504.43 433.39 413.82 472.48 352.49 485.74 Q 298.74 497.36 247.25 495.95 L 248.81 494.93 Q 249.24 494.65 249.75 494.69 Q 252.39 494.93 255.01 494.60 Q 268.01 492.97 280.98 491.15 C 325.12 484.93 368.62 471.32 406.72 447.96 C 439.40 427.92 470.87 394.74 470.80 354.50 C 470.72 309.89 466.27 261.13 461.03 215.00 C 478.84 197.81 491.55 177.90 494.01 152.71 Q 494.05 152.33 494.78 151.98 Z" style="fill: rgb(184, 115, 62);"/>
</svg>