<?xml version="1.0" encoding="UTF-8" standalone="no"?>
<!DOCTYPE svg PUBLIC "-//W3C//DTD SVG 1.1//EN" "http://www.w3.org/Graphics/SVG/1.1/DTD/svg11.dtd">
<svg xmlns="http://www.w3.org/2000/svg" version="1.1" viewBox="0.00 0.00 512.00 512.00">
<g stroke-width="2.00" fill="none" stroke-linecap="butt">
<path stroke="#f37e8c" vector-effect="non-scaling-stroke" d="
  M 431.11 69.25
  C 431.54 70.51 431.54 71.19 432.37 72.29
  C 493.18 153.07 502.87 259.69 454.87 349.43
  C 452.92 353.08 449.71 358.21 447.40 362.77
  C 446.65 364.25 445.83 364.73 444.48 365.54"
/>
<path stroke="#f5c1c8" vector-effect="non-scaling-stroke" d="
  M 159.18 132.39
  Q 138.41 142.45 139.33 166.16"
/>
<path stroke="#fab687" vector-effect="non-scaling-stroke" d="
  M 115.79 422.73
  Q 145.36 447.71 182.04 461.04"
/>
<path stroke="#faae79" vector-effect="non-scaling-stroke" d="
  M 182.04 461.04
  Q 217.65 473.93 255.74 473.97"
/>
<path stroke="#fab687" vector-effect="non-scaling-stroke" d="
  M 255.74 473.97
  Q 293.45 474.15 329.89 461.10"
/>
<path stroke="#faae79" vector-effect="non-scaling-stroke" d="
  M 329.89 461.10
  Q 329.71 461.28 329.53 461.47"
/>
<path stroke="#f37e8c" vector-effect="non-scaling-stroke" d="
  M 329.53 461.47
  Q 329.14 462.01 328.05 462.51
  C 264.23 491.58 188.95 491.65 125.12 461.91
  C 102.41 451.33 81.54 439.03 62.77 422.48
  Q 62.38 422.13 62.17 422.62
  L 62.01 422.99"
/>
<path stroke="#f8a26e" vector-effect="non-scaling-stroke" d="
  M 329.53 461.47
  Q 347.09 454.73 363.15 445.86"
/>
<path stroke="#f89b63" vector-effect="non-scaling-stroke" d="
  M 363.15 445.86
  C 367.02 443.64 397.75 424.03 396.42 421.98"
/>
<path stroke="#f37e8c" vector-effect="non-scaling-stroke" d="
  M 396.42 421.98
  Q 396.64 422.00 396.82 422.00
  A 1.05 1.03 24.0 0 0 397.50 421.75
  Q 411.63 409.61 423.39 395.17
  Q 423.70 394.80 423.29 394.55
  L 422.50 394.07"
/>
<path stroke="#eff3f6" vector-effect="non-scaling-stroke" d="
  M 307.00 130.24
  Q 297.34 130.69 287.64 130.20
  C 284.77 130.05 283.15 128.61 283.23 125.75
  C 283.79 104.69 275.29 87.11 256.73 76.80
  A 0.07 0.02 26.6 0 0 256.66 76.79
  L 256.47 77.00
  Q 256.34 77.16 256.26 76.97
  Q 256.16 76.72 255.97 76.75"
/>
<path stroke="#eff3f6" vector-effect="non-scaling-stroke" d="
  M 307.00 130.24
  Q 305.03 139.21 298.47 145.46
  C 289.01 154.48 299.69 165.50 308.88 156.62
  Q 320.87 145.03 322.45 130.33"
/>
<path stroke="#eff3f6" vector-effect="non-scaling-stroke" d="
  M 326.50 130.30
  Q 327.24 130.53 327.49 131.23
  Q 327.66 131.72 328.13 131.93
  Q 350.39 141.96 348.77 167.00
  Q 348.60 169.65 346.84 173.70
  A 0.81 0.80 -78.4 0 1 346.12 174.18
  Q 336.12 174.43 326.12 174.49
  Q 323.05 174.51 321.50 175.22
  C 315.37 178.05 315.82 186.50 321.84 189.10
  Q 323.63 189.87 327.27 189.77
  Q 343.60 189.33 359.90 190.64
  Q 360.17 190.66 360.24 190.92
  Q 360.29 191.08 360.09 191.23
  Q 359.79 191.44 360.13 191.59
  C 377.51 199.01 384.36 217.97 379.27 235.56
  Q 379.13 236.03 378.63 236.04
  L 358.89 236.34"
/>
<path stroke="#fae5aa" vector-effect="non-scaling-stroke" d="
  M 358.89 236.34
  Q 356.25 225.53 345.48 221.64"
/>
<path stroke="#faedb8" vector-effect="non-scaling-stroke" d="
  M 345.48 221.64
  C 330.13 217.77 318.15 230.37 321.31 245.62"
/>
<path stroke="#fae5aa" vector-effect="non-scaling-stroke" d="
  M 321.31 245.62
  C 326.89 260.99 345.93 264.75 355.78 251.34"
/>
<path stroke="#eff3f6" vector-effect="non-scaling-stroke" d="
  M 355.78 251.34
  Q 372.37 251.56 388.45 251.65
  C 389.37 251.66 390.67 252.13 391.56 252.44
  Q 392.04 252.62 392.53 252.45
  Q 394.33 251.82 395.30 253.44
  Q 395.57 253.88 396.04 254.09
  C 416.79 263.53 419.06 287.76 407.83 305.33
  Q 399.16 318.92 381.96 324.66"
/>
<path stroke="#fade9f" vector-effect="non-scaling-stroke" d="
  M 381.96 324.66
  Q 364.90 322.53 348.85 313.06
  C 348.21 312.68 347.70 312.68 347.00 312.79"
/>
<path stroke="#fae5aa" vector-effect="non-scaling-stroke" d="
  M 347.00 312.79
  Q 346.15 312.69 345.35 313.15
  Q 311.77 332.73 275.19 321.12
  C 269.15 319.21 263.10 316.00 257.35 312.93
  C 256.93 312.70 256.19 312.75 255.75 312.79"
/>
<path stroke="#fade9f" vector-effect="non-scaling-stroke" d="
  M 255.75 312.79
  Q 255.15 312.62 254.67 312.90
  Q 211.39 337.63 167.54 313.76
  Q 165.76 312.79 165.06 312.74"
/>
<path stroke="#fae5aa" vector-effect="non-scaling-stroke" d="
  M 165.06 312.74
  C 164.91 312.42 163.41 312.79 163.07 313.00
  C 144.12 324.48 116.97 330.43 96.26 320.40"
/>
<path stroke="#eff3f6" vector-effect="non-scaling-stroke" d="
  M 119.17 251.58
  Q 122.10 251.15 127.24 251.47
  C 130.46 251.67 148.98 252.79 153.59 249.86
  C 157.76 247.21 157.46 239.93 153.11 237.29
  Q 151.26 236.17 147.65 236.11
  Q 128.51 235.76 109.21 236.22"
/>
<path stroke="#eff3f6" vector-effect="non-scaling-stroke" d="
  M 153.64 189.76
  C 164.51 188.98 176.27 189.75 187.25 189.72
  Q 191.75 189.71 193.54 188.98
  C 198.60 186.91 199.16 178.78 194.84 175.93
  Q 192.68 174.51 187.85 174.44
  Q 164.90 174.13 141.61 174.81"
/>
<path stroke="#fae5aa" vector-effect="non-scaling-stroke" d="
  M 185.65 130.51
  C 189.27 136.04 192.43 140.42 198.76 142.22
  C 210.89 145.67 221.29 138.01 223.61 125.73"
/>
<path stroke="#f5c1c8" vector-effect="non-scaling-stroke" d="
  M 258.7911 139.0206
  A 7.30 7.30 0.0 0 0 248.4673 139.0206
  L 248.0006 139.4873
  A 7.30 7.30 0.0 0 0 248.0006 149.8111
  L 256.1889 157.9994
  A 7.30 7.30 0.0 0 0 266.5127 157.9994
  L 266.9794 157.5327
  A 7.30 7.30 0.0 0 0 266.9794 147.2089
  L 258.7911 139.0206"
/>
<path stroke="#fae5aa" vector-effect="non-scaling-stroke" d="
  M 212.81 195.32
  C 218.08 210.13 237.76 214.57 247.06 201.06
  C 254.74 189.92 249.57 175.58 236.96 171.21"
/>
<path stroke="#faedb8" vector-effect="non-scaling-stroke" d="
  M 236.96 171.21
  C 221.57 167.20 209.49 180.01 212.81 195.32"
/>
<path stroke="#ffd969" vector-effect="non-scaling-stroke" d="
  M 236.96 171.21
  C 239.25 186.87 228.20 198.13 212.81 195.32"
/>
<path stroke="#f5c1c8" vector-effect="non-scaling-stroke" d="
  M 144.0469 211.2206
  A 7.29 7.29 0.0 0 0 133.7373 211.2206
  L 133.2706 211.6873
  A 7.29 7.29 0.0 0 0 133.2706 221.9969
  L 141.4731 230.1994
  A 7.29 7.29 0.0 0 0 151.7827 230.1994
  L 152.2494 229.7327
  A 7.29 7.29 0.0 0 0 152.2494 219.4231
  L 144.0469 211.2206"
/>
<path stroke="#f5c1c8" vector-effect="non-scaling-stroke" d="
  M 299.0544 211.2289
  A 7.32 7.32 0.0 0 0 288.7024 211.2289
  L 280.5989 219.3324
  A 7.32 7.32 0.0 0 0 280.5989 229.6844
  L 281.0656 230.1511
  A 7.32 7.32 0.0 0 0 291.4176 230.1511
  L 299.5211 222.0476
  A 7.32 7.32 0.0 0 0 299.5211 211.6956
  L 299.0544 211.2289"
/>
<path stroke="#fae5aa" vector-effect="non-scaling-stroke" d="
  M 163.44 271.50
  Q 167.92 283.43 179.43 285.05
  C 202.64 288.31 210.20 255.37 187.72 247.47"
/>
<path stroke="#faedb8" vector-effect="non-scaling-stroke" d="
  M 187.72 247.47
  C 172.37 244.02 159.69 256.07 163.44 271.50"
/>
<path stroke="#ffd969" vector-effect="non-scaling-stroke" d="
  M 187.72 247.47
  C 189.98 262.91 179.25 274.29 163.44 271.50"
/>
<path stroke="#f5c1c8" vector-effect="non-scaling-stroke" d="
  M 232.6740 275.9036
  A 7.29 7.29 0.0 0 0 222.3644 275.9036
  L 221.8836 276.3844
  A 7.29 7.29 0.0 0 0 221.8836 286.6940
  L 230.0860 294.8964
  A 7.29 7.29 0.0 0 0 240.3956 294.8964
  L 240.8764 294.4156
  A 7.29 7.29 0.0 0 0 240.8764 284.1060
  L 232.6740 275.9036"
/>
<path stroke="#f5c1c8" vector-effect="non-scaling-stroke" d="
  M 128.5946 286.7016
  A 7.30 7.30 0.0 0 0 128.5766 276.3779
  L 128.1090 275.9120
  A 7.30 7.30 0.0 0 0 117.7853 275.9300
  L 109.6254 284.1184
  A 7.30 7.30 0.0 0 0 109.6434 294.4421
  L 110.1110 294.9080
  A 7.30 7.30 0.0 0 0 120.4347 294.8900
  L 128.5946 286.7016"
/>
<path stroke="#f5c1c8" vector-effect="non-scaling-stroke" d="
  M 399.3779 294.3924
  A 7.28 7.28 0.0 0 0 399.3419 284.0970
  L 391.0967 275.9091
  A 7.28 7.28 0.0 0 0 380.8013 275.9451
  L 380.3221 276.4276
  A 7.28 7.28 0.0 0 0 380.3581 286.7230
  L 388.6033 294.9109
  A 7.28 7.28 0.0 0 0 398.8987 294.8749
  L 399.3779 294.3924"
/>
<path stroke="#ffd969" vector-effect="non-scaling-stroke" d="
  M 209.92 105.05
  C 212.20 119.97 201.53 132.25 186.37 129.12
  C 185.96 129.03 186.00 129.19 185.80 129.53"
/>
<path stroke="#f4d89b" vector-effect="non-scaling-stroke" d="
  M 415.65 320.58
  C 404.35 325.09 394.98 326.60 381.96 324.66"
/>
<path stroke="#f4dfa7" vector-effect="non-scaling-stroke" d="
  M 355.78 251.34
  Q 360.42 244.51 358.89 236.34"
/>
<path stroke="#ffd969" vector-effect="non-scaling-stroke" d="
  M 345.48 221.64
  C 347.78 237.07 337.01 249.05 321.31 245.62"
/>
<path stroke="#ffca50" vector-effect="non-scaling-stroke" d="
  M 165.06 312.74
  L 169.14 348.87
  A 1.54 1.53 -83.5 0 0 170.15 350.14
  Q 213.36 365.62 255.98 348.04"
/>
<path stroke="#ffd969" vector-effect="non-scaling-stroke" d="
  M 255.98 348.04
  L 255.94 473.57
  Q 255.94 473.67 255.87 473.75
  Q 255.78 473.83 255.74 473.97"
/>
<path stroke="#ffd969" vector-effect="non-scaling-stroke" d="
  M 182.04 461.04
  L 169.33 351.00
  Q 169.27 350.48 168.90 350.13
  C 166.73 348.03 164.76 348.09 161.88 349.22
  Q 133.42 360.39 103.06 356.13"
/>
<path stroke="#ffca50" vector-effect="non-scaling-stroke" d="
  M 255.75 312.79
  L 255.98 348.04"
/>
<path stroke="#ffca50" vector-effect="non-scaling-stroke" d="
  M 347.00 312.79
  L 342.89 348.40
  Q 342.72 349.80 344.04 349.30
  L 346.75 348.27
  Q 347.16 348.11 347.56 348.28
  Q 360.36 353.41 373.90 355.98
  Q 374.46 356.09 374.64 356.63
  Q 375.15 358.15 374.82 360.51
  Q 368.89 403.01 363.15 445.86"
/>
<path stroke="#ffd969" vector-effect="non-scaling-stroke" d="
  M 329.89 461.10
  L 342.69 350.49
  Q 342.77 349.82 342.14 350.05
  Q 298.56 365.61 255.98 348.04"
/>
<path stroke="#faa76e" vector-effect="non-scaling-stroke" d="
  M 404.92 378.14
  L 396.42 421.98"
/>
</g>
<path fill="#f5f8f9" d="
  M 255.97 76.75
  Q 256.16 76.72 256.26 76.97
  Q 256.34 77.16 256.47 77.00
  L 256.66 76.79
  A 0.07 0.02 26.6 0 1 256.73 76.80
  C 275.29 87.11 283.79 104.69 283.23 125.75
  C 283.15 128.61 284.77 130.05 287.64 130.20
  Q 297.34 130.69 307.00 130.24
  Q 305.03 139.21 298.47 145.46
  C 289.01 154.48 299.69 165.50 308.88 156.62
  Q 320.87 145.03 322.45 130.33
  L 326.50 130.30
  Q 327.24 130.53 327.49 131.23
  Q 327.66 131.72 328.13 131.93
  Q 350.39 141.96 348.77 167.00
  Q 348.60 169.65 346.84 173.70
  A 0.81 0.80 -78.4 0 1 346.12 174.18
  Q 336.12 174.43 326.12 174.49
  Q 323.05 174.51 321.50 175.22
  C 315.37 178.05 315.82 186.50 321.84 189.10
  Q 323.63 189.87 327.27 189.77
  Q 343.60 189.33 359.90 190.64
  Q 360.17 190.66 360.24 190.92
  Q 360.29 191.08 360.09 191.23
  Q 359.79 191.44 360.13 191.59
  C 377.51 199.01 384.36 217.97 379.27 235.56
  Q 379.13 236.03 378.63 236.04
  L 358.89 236.34
  Q 356.25 225.53 345.48 221.64
  C 330.13 217.77 318.15 230.37 321.31 245.62
  C 326.89 260.99 345.93 264.75 355.78 251.34
  Q 372.37 251.56 388.45 251.65
  C 389.37 251.66 390.67 252.13 391.56 252.44
  Q 392.04 252.62 392.53 252.45
  Q 394.33 251.82 395.30 253.44
  Q 395.57 253.88 396.04 254.09
  C 416.79 263.53 419.06 287.76 407.83 305.33
  Q 399.16 318.92 381.96 324.66
  Q 364.90 322.53 348.85 313.06
  C 348.21 312.68 347.70 312.68 347.00 312.79
  Q 346.15 312.69 345.35 313.15
  Q 311.77 332.73 275.19 321.12
  C 269.15 319.21 263.10 316.00 257.35 312.93
  C 256.93 312.70 256.19 312.75 255.75 312.79
  Q 255.15 312.62 254.67 312.90
  Q 211.39 337.63 167.54 313.76
  Q 165.76 312.79 165.06 312.74
  C 164.91 312.42 163.41 312.79 163.07 313.00
  C 144.12 324.48 116.97 330.43 96.26 320.40
  Q 96.27 320.29 95.79 320.00
  Q 76.48 308.26 74.04 286.70
  C 71.87 267.60 85.43 251.77 104.75 251.53
  Q 111.75 251.45 119.17 251.58
  Q 122.10 251.15 127.24 251.47
  C 130.46 251.67 148.98 252.79 153.59 249.86
  C 157.76 247.21 157.46 239.93 153.11 237.29
  Q 151.26 236.17 147.65 236.11
  Q 128.51 235.76 109.21 236.22
  C 103.18 217.09 112.42 194.61 133.12 190.40
  C 138.93 189.22 146.89 189.78 153.64 189.76
  C 164.51 188.98 176.27 189.75 187.25 189.72
  Q 191.75 189.71 193.54 188.98
  C 198.60 186.91 199.16 178.78 194.84 175.93
  Q 192.68 174.51 187.85 174.44
  Q 164.90 174.13 141.61 174.81
  L 139.33 166.16
  Q 138.41 142.45 159.18 132.39
  C 167.99 129.83 176.49 130.45 185.65 130.51
  C 189.27 136.04 192.43 140.42 198.76 142.22
  C 210.89 145.67 221.29 138.01 223.61 125.73
  C 243.10 116.03 255.23 98.41 255.97 76.75
  Z
  M 258.7911 139.0206
  A 7.30 7.30 0.0 0 0 248.4673 139.0206
  L 248.0006 139.4873
  A 7.30 7.30 0.0 0 0 248.0006 149.8111
  L 256.1889 157.9994
  A 7.30 7.30 0.0 0 0 266.5127 157.9994
  L 266.9794 157.5327
  A 7.30 7.30 0.0 0 0 266.9794 147.2089
  L 258.7911 139.0206
  Z
  M 212.81 195.32
  C 218.08 210.13 237.76 214.57 247.06 201.06
  C 254.74 189.92 249.57 175.58 236.96 171.21
  C 221.57 167.20 209.49 180.01 212.81 195.32
  Z
  M 144.0469 211.2206
  A 7.29 7.29 0.0 0 0 133.7373 211.2206
  L 133.2706 211.6873
  A 7.29 7.29 0.0 0 0 133.2706 221.9969
  L 141.4731 230.1994
  A 7.29 7.29 0.0 0 0 151.7827 230.1994
  L 152.2494 229.7327
  A 7.29 7.29 0.0 0 0 152.2494 219.4231
  L 144.0469 211.2206
  Z
  M 299.0544 211.2289
  A 7.32 7.32 0.0 0 0 288.7024 211.2289
  L 280.5989 219.3324
  A 7.32 7.32 0.0 0 0 280.5989 229.6844
  L 281.0656 230.1511
  A 7.32 7.32 0.0 0 0 291.4176 230.1511
  L 299.5211 222.0476
  A 7.32 7.32 0.0 0 0 299.5211 211.6956
  L 299.0544 211.2289
  Z
  M 163.44 271.50
  Q 167.92 283.43 179.43 285.05
  C 202.64 288.31 210.20 255.37 187.72 247.47
  C 172.37 244.02 159.69 256.07 163.44 271.50
  Z
  M 232.6740 275.9036
  A 7.29 7.29 0.0 0 0 222.3644 275.9036
  L 221.8836 276.3844
  A 7.29 7.29 0.0 0 0 221.8836 286.6940
  L 230.0860 294.8964
  A 7.29 7.29 0.0 0 0 240.3956 294.8964
  L 240.8764 294.4156
  A 7.29 7.29 0.0 0 0 240.8764 284.1060
  L 232.6740 275.9036
  Z
  M 128.5946 286.7016
  A 7.30 7.30 0.0 0 0 128.5766 276.3779
  L 128.1090 275.9120
  A 7.30 7.30 0.0 0 0 117.7853 275.9300
  L 109.6254 284.1184
  A 7.30 7.30 0.0 0 0 109.6434 294.4421
  L 110.1110 294.9080
  A 7.30 7.30 0.0 0 0 120.4347 294.8900
  L 128.5946 286.7016
  Z
  M 399.3779 294.3924
  A 7.28 7.28 0.0 0 0 399.3419 284.0970
  L 391.0967 275.9091
  A 7.28 7.28 0.0 0 0 380.8013 275.9451
  L 380.3221 276.4276
  A 7.28 7.28 0.0 0 0 380.3581 286.7230
  L 388.6033 294.9109
  A 7.28 7.28 0.0 0 0 398.8987 294.8749
  L 399.3779 294.3924
  Z"
/>
<g fill="#f58a97">
<path d="
  M 249.83 0.00
  L 259.84 0.00
  Q 358.67 2.74 431.11 69.25
  C 431.54 70.51 431.54 71.19 432.37 72.29
  C 493.18 153.07 502.87 259.69 454.87 349.43
  C 452.92 353.08 449.71 358.21 447.40 362.77
  C 446.65 364.25 445.83 364.73 444.48 365.54
  C 507.75 255.01 465.04 113.80 349.26 59.05
  C 273.81 23.37 184.05 33.69 119.29 86.30
  C 116.90 88.24 117.98 91.21 119.97 93.18
  Q 139.62 112.61 159.18 132.39
  Q 138.41 142.45 139.33 166.16
  Q 115.95 142.87 92.98 119.83
  C 91.02 117.86 88.21 116.96 86.30 119.30
  Q 53.98 158.91 42.95 210.55
  C 25.90 290.37 54.00 369.66 115.79 422.73
  Q 145.36 447.71 182.04 461.04
  Q 217.65 473.93 255.74 473.97
  Q 293.45 474.15 329.89 461.10
  Q 329.71 461.28 329.53 461.47
  Q 329.14 462.01 328.05 462.51
  C 264.23 491.58 188.95 491.65 125.12 461.91
  C 102.41 451.33 81.54 439.03 62.77 422.48
  Q 62.38 422.13 62.17 422.62
  L 62.01 422.99
  Q 2.59 352.38 0.00 259.73
  L 0.00 251.21
  C 3.49 113.72 111.89 4.17 249.83 0.00
  Z"
/>
<rect x="-7.63" y="-13.09" transform="translate(257.49,148.51) rotate(-45.0)" width="15.26" height="26.18" rx="7.30"/>
<rect x="-7.62" y="-13.09" transform="translate(142.76,220.71) rotate(-45.0)" width="15.24" height="26.18" rx="7.29"/>
<rect x="-13.05" y="-7.65" transform="translate(290.06,220.69) rotate(-45.0)" width="26.10" height="15.30" rx="7.32"/>
<rect x="-7.63" y="-13.09" transform="translate(231.38,285.40) rotate(-45.0)" width="15.26" height="26.18" rx="7.29"/>
<rect x="-7.63" y="-13.08" transform="translate(119.11,285.41) rotate(44.9)" width="15.26" height="26.16" rx="7.30"/>
<rect x="-13.09" y="-7.62" transform="translate(389.85,285.41) rotate(44.8)" width="26.18" height="15.24" rx="7.28"/>
<path d="
  M 404.92 378.14
  C 408.25 381.40 419.32 393.79 422.50 394.07
  L 423.29 394.55
  Q 423.70 394.80 423.39 395.17
  Q 411.63 409.61 397.50 421.75
  A 1.05 1.03 24.0 0 1 396.82 422.00
  Q 396.64 422.00 396.42 421.98
  L 404.92 378.14
  Z"
/>
</g>
<g fill="#ffd15b">
<path d="
  M 209.92 105.05
  Q 224.02 110.47 223.61 125.73
  C 221.29 138.01 210.89 145.67 198.76 142.22
  C 192.43 140.42 189.27 136.04 185.65 130.51
  L 185.80 129.53
  C 186.00 129.19 185.96 129.03 186.37 129.12
  C 201.53 132.25 212.20 119.97 209.92 105.05
  Z"
/>
<path d="
  M 236.96 171.21
  C 249.57 175.58 254.74 189.92 247.06 201.06
  C 237.76 214.57 218.08 210.13 212.81 195.32
  C 228.20 198.13 239.25 186.87 236.96 171.21
  Z"
/>
<path d="
  M 345.48 221.64
  Q 356.25 225.53 358.89 236.34
  Q 360.42 244.51 355.78 251.34
  C 345.93 264.75 326.89 260.99 321.31 245.62
  C 337.01 249.05 347.78 237.07 345.48 221.64
  Z"
/>
<path d="
  M 187.72 247.47
  C 210.20 255.37 202.64 288.31 179.43 285.05
  Q 167.92 283.43 163.44 271.50
  C 179.25 274.29 189.98 262.91 187.72 247.47
  Z"
/>
<path d="
  M 165.06 312.74
  L 169.14 348.87
  A 1.54 1.53 -83.5 0 0 170.15 350.14
  Q 213.36 365.62 255.98 348.04
  L 255.94 473.57
  Q 255.94 473.67 255.87 473.75
  Q 255.78 473.83 255.74 473.97
  Q 217.65 473.93 182.04 461.04
  L 169.33 351.00
  Q 169.27 350.48 168.90 350.13
  C 166.73 348.03 164.76 348.09 161.88 349.22
  Q 133.42 360.39 103.06 356.13
  L 96.26 320.40
  C 116.97 330.43 144.12 324.48 163.07 313.00
  C 163.41 312.79 164.91 312.42 165.06 312.74
  Z"
/>
<path d="
  M 255.75 312.79
  C 256.19 312.75 256.93 312.70 257.35 312.93
  C 263.10 316.00 269.15 319.21 275.19 321.12
  Q 311.77 332.73 345.35 313.15
  Q 346.15 312.69 347.00 312.79
  L 342.89 348.40
  Q 342.72 349.80 344.04 349.30
  L 346.75 348.27
  Q 347.16 348.11 347.56 348.28
  Q 360.36 353.41 373.90 355.98
  Q 374.46 356.09 374.64 356.63
  Q 375.15 358.15 374.82 360.51
  Q 368.89 403.01 363.15 445.86
  Q 347.09 454.73 329.53 461.47
  Q 329.71 461.28 329.89 461.10
  L 342.69 350.49
  Q 342.77 349.82 342.14 350.05
  Q 298.56 365.61 255.98 348.04
  L 255.75 312.79
  Z"
/>
</g>
<path fill="#f07281" d="
  M 431.11 69.25
  C 481.81 117.55 509.99 180.78 512.00 251.07
  L 512.00 261.35
  Q 508.32 362.22 440.08 433.70
  C 392.98 483.05 329.39 509.77 260.98 512.00
  L 250.20 512.00
  C 177.13 509.85 109.88 478.08 62.01 422.99
  L 62.17 422.62
  Q 62.38 422.13 62.77 422.48
  C 81.54 439.03 102.41 451.33 125.12 461.91
  C 188.95 491.65 264.23 491.58 328.05 462.51
  Q 329.14 462.01 329.53 461.47
  Q 347.09 454.73 363.15 445.86
  C 367.02 443.64 397.75 424.03 396.42 421.98
  Q 396.64 422.00 396.82 422.00
  A 1.05 1.03 24.0 0 0 397.50 421.75
  Q 411.63 409.61 423.39 395.17
  Q 423.70 394.80 423.29 394.55
  L 422.50 394.07
  C 426.98 394.22 442.19 369.40 444.48 365.54
  C 445.83 364.73 446.65 364.25 447.40 362.77
  C 449.71 358.21 452.92 353.08 454.87 349.43
  C 502.87 259.69 493.18 153.07 432.37 72.29
  C 431.54 71.19 431.54 70.51 431.11 69.25
  Z"
/>
<g fill="#ffe177">
<path d="
  M 209.92 105.05
  C 212.20 119.97 201.53 132.25 186.37 129.12
  C 185.96 129.03 186.00 129.19 185.80 129.53
  C 181.85 113.99 194.37 101.43 209.92 105.05
  Z"
/>
<path d="
  M 236.96 171.21
  C 239.25 186.87 228.20 198.13 212.81 195.32
  C 209.49 180.01 221.57 167.20 236.96 171.21
  Z"
/>
<path d="
  M 345.48 221.64
  C 347.78 237.07 337.01 249.05 321.31 245.62
  C 318.15 230.37 330.13 217.77 345.48 221.64
  Z"
/>
<path d="
  M 187.72 247.47
  C 189.98 262.91 179.25 274.29 163.44 271.50
  C 159.69 256.07 172.37 244.02 187.72 247.47
  Z"
/>
<path d="
  M 255.98 348.04
  Q 298.56 365.61 342.14 350.05
  Q 342.77 349.82 342.69 350.49
  L 329.89 461.10
  Q 293.45 474.15 255.74 473.97
  Q 255.78 473.83 255.87 473.75
  Q 255.94 473.67 255.94 473.57
  L 255.98 348.04
  Z"
/>
<path d="
  M 182.04 461.04
  Q 145.36 447.71 115.79 422.73
  L 103.06 356.13
  Q 133.42 360.39 161.88 349.22
  C 164.76 348.09 166.73 348.03 168.90 350.13
  Q 169.27 350.48 169.33 351.00
  L 182.04 461.04
  Z"
/>
</g>
<g fill="#ffc344">
<path d="
  M 165.06 312.74
  Q 165.76 312.79 167.54 313.76
  Q 211.39 337.63 254.67 312.90
  Q 255.15 312.62 255.75 312.79
  L 255.98 348.04
  Q 213.36 365.62 170.15 350.14
  A 1.54 1.53 -83.5 0 1 169.14 348.87
  L 165.06 312.74
  Z"
/>
<path d="
  M 347.00 312.79
  C 347.70 312.68 348.21 312.68 348.85 313.06
  Q 364.90 322.53 381.96 324.66
  C 394.98 326.60 404.35 325.09 415.65 320.58
  L 404.92 378.14
  L 396.42 421.98
  C 397.75 424.03 367.02 443.64 363.15 445.86
  Q 368.89 403.01 374.82 360.51
  Q 375.15 358.15 374.64 356.63
  Q 374.46 356.09 373.90 355.98
  Q 360.36 353.41 347.56 348.28
  Q 347.16 348.11 346.75 348.27
  L 344.04 349.30
  Q 342.72 349.80 342.89 348.40
  L 347.00 312.79
  Z"
/>
</g>
<g fill="#e8edf2">
<path d="
  M 307.00 130.24
  Q 297.34 130.69 287.64 130.20
  C 284.77 130.05 283.15 128.61 283.23 125.75
  C 283.79 104.69 275.29 87.11 256.73 76.80
  A 0.07 0.02 26.6 0 0 256.66 76.79
  L 256.47 77.00
  Q 256.34 77.16 256.26 76.97
  Q 256.16 76.72 255.97 76.75
  Q 255.47 73.52 257.19 71.87
  Q 257.56 71.52 258.07 71.52
  C 284.17 71.54 302.33 90.12 306.58 114.76
  Q 307.27 118.72 307.00 130.24
  Z"
/>
<path d="
  M 307.00 130.24
  L 322.45 130.33
  Q 320.87 145.03 308.88 156.62
  C 299.69 165.50 289.01 154.48 298.47 145.46
  Q 305.03 139.21 307.00 130.24
  Z"
/>
<path d="
  M 326.50 130.30
  C 338.44 130.78 349.27 128.70 359.91 136.59
  C 377.47 149.60 376.62 176.31 358.81 189.40
  Q 358.05 189.96 359.00 189.92
  C 367.17 189.53 377.17 188.98 384.44 192.01
  C 407.51 201.65 411.05 234.17 393.84 250.69
  Q 393.37 251.13 394.01 251.18
  C 400.55 251.70 408.11 250.77 414.02 252.25
  C 445.10 260.03 443.68 296.78 423.69 314.69
  Q 422.12 316.10 415.65 320.58
  C 404.35 325.09 394.98 326.60 381.96 324.66
  Q 399.16 318.92 407.83 305.33
  C 419.06 287.76 416.79 263.53 396.04 254.09
  Q 395.57 253.88 395.30 253.44
  Q 394.33 251.82 392.53 252.45
  Q 392.04 252.62 391.56 252.44
  C 390.67 252.13 389.37 251.66 388.45 251.65
  Q 372.37 251.56 355.78 251.34
  Q 360.42 244.51 358.89 236.34
  L 378.63 236.04
  Q 379.13 236.03 379.27 235.56
  C 384.36 217.97 377.51 199.01 360.13 191.59
  Q 359.79 191.44 360.09 191.23
  Q 360.29 191.08 360.24 190.92
  Q 360.17 190.66 359.90 190.64
  Q 343.60 189.33 327.27 189.77
  Q 323.63 189.87 321.84 189.10
  C 315.82 186.50 315.37 178.05 321.50 175.22
  Q 323.05 174.51 326.12 174.49
  Q 336.12 174.43 346.12 174.18
  A 0.81 0.80 -78.4 0 0 346.84 173.70
  Q 348.60 169.65 348.77 167.00
  Q 350.39 141.96 328.13 131.93
  Q 327.66 131.72 327.49 131.23
  Q 327.24 130.53 326.50 130.30
  Z"
/>
<path d="
  M 153.64 189.76
  Q 145.47 183.59 141.61 174.81
  Q 164.90 174.13 187.85 174.44
  Q 192.68 174.51 194.84 175.93
  C 199.16 178.78 198.60 186.91 193.54 188.98
  Q 191.75 189.71 187.25 189.72
  C 176.27 189.75 164.51 188.98 153.64 189.76
  Z"
/>
<path d="
  M 119.17 251.58
  Q 112.47 245.18 109.21 236.22
  Q 128.51 235.76 147.65 236.11
  Q 151.26 236.17 153.11 237.29
  C 157.46 239.93 157.76 247.21 153.59 249.86
  C 148.98 252.79 130.46 251.67 127.24 251.47
  Q 122.10 251.15 119.17 251.58
  Z"
/>
</g>
</svg>
