<?xml version="1.0"?>
<svg width="800" height="219.2" xmlns="http://www.w3.org/2000/svg" xmlns:svg="http://www.w3.org/2000/svg" enable-background="new 0 0 800 219.2" version="1.1" xml:space="preserve">
 <style type="text/css">.stblack{fill:#000000;}
	.st0{fill:#FFFFFF;}</style>
 <g class="layer">
  <title>Layer 1</title>
  <g id="svg_1" transform="rotate(-180 401.465 109.845)">
   <path class="st0" d="m333.58,212.81c1.78,-6.85 5.45,-11.94 11.96,-15.26c9.44,-4.88 20.45,-5.19 31.15,-5.5c84.84,-1.97 169.79,-1.66 254.74,1.04c31.67,1.04 64.29,2.18 94.28,-8c29.99,-10.18 57.47,-34.37 61.35,-65.52c4.09,-33.33 -19.93,-65.11 -49.92,-80.58c-29.99,-15.58 -64.92,-18.17 -98.79,-19.94c-182.37,-9.24 -365.27,0.83 -547.54,12.56c-28.11,1.77 -59.57,5.4 -76.98,27.21c-20.14,25.13 -10.38,64.9 13.74,86.39c24.12,21.49 57.89,28.45 90.3,30.63c41.32,2.7 83.06,-1.04 124.27,3.22c33.14,3.43 65.23,14.02 91.45,33.75z" fill="rgb(242, 242, 242)" id="svg_2"/>
   <path class="stblack" d="m59.44,152.27c-6.5,-3.12 -12.79,-6.75 -18.67,-11.32c-0.73,-0.52 -1.47,-1.14 -2.2,-1.77l-2.1,-1.77c-1.47,-1.14 -2.83,-2.49 -4.09,-3.74c-2.62,-2.6 -5.14,-5.5 -7.34,-8.51c-8.91,-12.15 -14.68,-27 -15.31,-42.57c-0.31,-7.79 0.84,-15.78 3.78,-23.16c1.47,-3.74 3.36,-7.27 5.66,-10.59c0.52,-0.83 1.15,-1.66 1.78,-2.39c0.63,-0.83 1.36,-1.56 1.99,-2.28c0.63,-0.73 1.36,-1.56 1.99,-2.28l2.2,-2.08c5.98,-5.4 13,-9.66 20.35,-12.56c7.45,-3.01 15.1,-4.88 22.86,-6.23c7.76,-1.35 15.63,-2.18 23.39,-2.8c7.76,-0.62 15.52,-1.04 23.28,-1.56c15.52,-0.93 30.94,-1.97 46.35,-2.91c30.73,-1.87 61.14,-3.63 90.61,-5.09c29.47,-1.56 58.1,-2.8 85.16,-3.84c13.53,-0.42 26.74,-0.93 39.54,-1.35c12.79,-0.31 25.17,-0.73 37.02,-0.93c47.4,-1.04 86.83,-1.04 113.79,-0.73c44.99,0.42 82.85,1.66 118.3,3.43c17.72,0.93 35.03,1.97 52.23,4.98c17.09,2.91 34.29,7.79 50.44,16.61c8.08,4.47 15.63,9.97 22.55,16.61c6.92,6.65 13.11,14.43 17.93,23.47c4.82,8.93 8.28,19.21 8.91,30.22c0.73,11.01 -1.57,22.64 -6.92,33.33c-5.24,10.7 -13.42,20.35 -23.39,28.45c-5.03,4.05 -10.49,7.68 -16.47,10.8c-5.98,3.12 -12.27,5.81 -18.98,8c-13.32,4.36 -27.9,6.54 -43.1,7.48c-15.21,0.93 -31.04,0.52 -47.61,0c-14.89,-0.42 -43.63,-1.04 -77.92,-1.25c-34.4,-0.21 -74.46,-0.1 -111.9,0.31c-18.77,0.31 -36.92,0.52 -53.38,0.73c-4.09,0.1 -8.18,0.1 -12.06,0.21c-3.88,0.1 -7.66,0.1 -11.12,0.31c-3.57,0.21 -6.82,0.52 -9.96,1.14c-3.04,0.62 -5.87,1.45 -8.49,2.49c-5.03,2.08 -8.7,5.3 -11.22,8.51c-1.26,1.66 -2.1,3.22 -2.83,4.78c-0.31,0.73 -0.63,1.45 -0.84,2.18c-0.21,0.73 -0.42,1.35 -0.52,1.97c-0.52,2.49 -0.42,4.26 -0.52,5.09c-0.1,0.93 -0.52,0.93 -1.15,-0.21c-0.84,-1.56 -1.68,-4.26 -1.26,-8c0.42,-3.63 2.2,-8.1 5.66,-12.25c1.78,-2.08 3.88,-4.05 6.61,-5.81c2.62,-1.66 5.66,-3.01 8.81,-4.15c6.5,-2.18 13.84,-2.91 21.39,-3.32c29.99,-1.35 67.64,-1.97 105.61,-1.77c37.96,0.1 76.35,1.14 107.6,2.18c31.25,1.04 55.37,2.39 64.92,2.49c5.14,0.1 11.64,0.1 19.09,0c7.55,-0.21 16.05,-0.62 25.48,-1.87c2.31,-0.31 4.72,-0.62 7.13,-1.04c2.41,-0.42 4.93,-0.83 7.45,-1.45c5.03,-1.04 10.17,-2.49 15.42,-4.26c5.24,-1.77 10.38,-4.15 15.52,-6.85c5.14,-2.8 10.17,-6.02 14.89,-9.76c4.82,-3.74 9.23,-8.1 13.32,-12.98c0.94,-1.25 1.99,-2.39 2.94,-3.74c0.94,-1.35 1.78,-2.6 2.73,-3.95c0.84,-1.35 1.57,-2.8 2.41,-4.15c0.42,-0.73 0.73,-1.45 1.15,-2.18l1.05,-2.18c2.62,-5.92 4.51,-12.25 5.24,-18.79c0.73,-6.54 0.31,-13.29 -1.15,-19.83c-2.94,-13.19 -9.96,-25.54 -19.3,-35.72c-9.23,-10.28 -20.76,-18.59 -33.35,-24.3c-12.58,-5.81 -25.9,-9.55 -39.12,-11.94c-6.61,-1.25 -13.21,-2.18 -19.72,-2.91c-6.5,-0.73 -12.9,-1.25 -19.3,-1.66c-12.58,-0.83 -24.85,-1.25 -36.29,-1.77c-5.77,-0.21 -11.33,-0.52 -16.67,-0.73c-5.35,-0.21 -10.49,-0.31 -15.52,-0.52c-4.93,-0.21 -9.65,-0.31 -14.16,-0.42c-4.51,-0.1 -8.7,-0.21 -12.69,-0.31c-7.97,-0.21 -14.89,-0.31 -20.56,-0.42c-11.33,-0.1 -17.72,-0.21 -17.72,-0.21s-7.34,-0.1 -20.35,-0.21c-13,0 -31.88,0 -54.74,0.31c-22.97,0.21 -50.02,0.83 -79.7,1.66c-29.68,1.04 -61.87,2.18 -95.12,3.84c-33.24,1.66 -67.33,3.43 -100.89,5.5c-16.78,1.04 -33.45,2.08 -49.71,3.12c-8.18,0.52 -16.15,1.04 -24.12,1.56c-7.97,0.52 -15.73,1.04 -23.28,1.97c-7.55,0.93 -15,2.18 -22.02,4.15c-7.03,1.97 -13.63,4.47 -19.51,8c-5.87,3.43 -10.91,7.79 -14.89,12.88c-1.99,2.49 -3.67,5.19 -5.03,7.89c-1.36,2.7 -2.52,5.61 -3.25,8.41c-1.68,5.71 -2.1,11.53 -1.99,16.93c0.21,5.5 1.15,10.7 2.52,15.58c2.73,9.66 7.03,17.65 11.54,23.78c1.78,2.39 3.67,4.67 5.77,6.85c2.1,2.18 4.3,4.15 6.61,6.02l1.68,1.45c0.52,0.52 1.15,0.93 1.78,1.35c1.26,0.83 2.41,1.77 3.67,2.6c1.26,0.83 2.52,1.56 3.78,2.39c1.26,0.83 2.62,1.45 3.88,2.18l1.89,1.04c0.63,0.31 1.36,0.62 1.99,0.93c1.36,0.62 2.62,1.35 3.99,1.87c1.36,0.62 2.73,1.14 4.09,1.77c1.36,0.62 2.73,1.04 4.09,1.56c1.36,0.52 2.73,1.04 4.09,1.45c1.36,0.42 2.73,0.93 4.19,1.35c2.83,0.73 5.56,1.56 8.39,2.18c22.44,5.3 44.89,6.02 66.07,6.23c21.29,0.1 41.53,-0.52 60.51,-0.21c18.98,0.21 36.81,1.35 52.96,3.95c32.3,5.09 57.37,16.41 72.57,27.52c3.78,2.8 7.13,5.4 9.75,8c2.83,2.49 4.82,4.88 6.61,6.85c0.42,0.52 0.84,0.93 1.26,1.45c0.31,0.52 0.63,0.93 0.94,1.35c0.63,0.83 1.05,1.66 1.47,2.39c0.73,1.35 1.15,2.39 1.05,3.01c-0.1,0.73 -1.36,0 -3.67,-1.97c-1.15,-1.04 -2.62,-2.39 -4.51,-3.84c-1.89,-1.56 -3.99,-3.43 -6.61,-5.3c-0.63,-0.52 -1.36,-1.04 -1.99,-1.56c-0.63,-0.52 -1.36,-1.04 -2.2,-1.56c-1.47,-1.04 -3.15,-2.18 -4.82,-3.32c-1.68,-1.14 -3.57,-2.18 -5.45,-3.43c-0.94,-0.62 -1.99,-1.14 -3.04,-1.77c-1.05,-0.52 -2.1,-1.14 -3.15,-1.77c-8.7,-4.67 -19.4,-9.24 -32.09,-12.98c-1.57,-0.42 -3.25,-0.93 -4.82,-1.45c-1.68,-0.42 -3.36,-0.83 -5.03,-1.25c-0.84,-0.21 -1.68,-0.42 -2.62,-0.62c-0.84,-0.21 -1.78,-0.42 -2.62,-0.62c-1.78,-0.42 -3.57,-0.83 -5.35,-1.14c-7.34,-1.45 -15.1,-2.6 -23.28,-3.53c-16.47,-1.77 -34.71,-2.28 -54.53,-2.39c-19.82,-0.1 -41.32,0.31 -64.39,-1.04c-11.54,-0.62 -23.49,-1.87 -35.55,-4.15c-6.08,-1.14 -12.17,-2.7 -18.35,-4.57c-5.98,-2.08 -12.06,-4.47 -18.04,-7.27z" id="svg_3"/>
  </g>
 </g>
</svg>