<?xml version="1.0" encoding="UTF-8" standalone="no"?>
<!DOCTYPE svg PUBLIC "-//W3C//DTD SVG 1.1//EN" "http://www.w3.org/Graphics/SVG/1.1/DTD/svg11.dtd">
<svg xmlns="http://www.w3.org/2000/svg" version="1.1" viewBox="0.00 0.00 512.00 512.00">
<g stroke-width="2.00" fill="none" stroke-linecap="butt">
<path stroke="#faa1a4" vector-effect="non-scaling-stroke" d="
  M 183.94 249.10
  L 133.93 298.82"
/>
<path stroke="#ea445e" vector-effect="non-scaling-stroke" d="
  M 133.93 298.82
  Q 139.66 275.25 146.08 252.07
  C 149.54 239.58 134.70 235.90 131.70 246.70
  Q 126.16 266.65 120.88 286.70
  A 0.38 0.38 0.0 0 1 120.35 286.94
  Q 110.01 281.85 98.05 284.83"
/>
<path stroke="#fadf9f" vector-effect="non-scaling-stroke" d="
  M 390.75 274.96
  L 327.44 275.10"
/>
<path stroke="#e4ded0" vector-effect="non-scaling-stroke" d="
  M 267.46 275.08
  L 220.44 322.23"
/>
<path stroke="#e4ded0" vector-effect="non-scaling-stroke" d="
  M 41.50 467.79
  C 47.97 461.88 55.69 453.72 60.09 449.34
  Q 148.70 361.03 236.98 272.40
  C 242.19 267.17 241.00 263.20 236.03 258.20
  Q 220.79 242.85 205.37 227.53"
/>
<path stroke="#faa1a4" vector-effect="non-scaling-stroke" d="
  M 41.13 391.89
  L 90.60 342.39"
/>
<path stroke="#e4919a" vector-effect="non-scaling-stroke" d="
  M 90.60 342.39
  L 133.93 298.82"
/>
<path stroke="#ea445e" vector-effect="non-scaling-stroke" d="
  M 90.60 342.39
  Q 89.68 342.03 89.05 342.19
  Q 66.77 347.99 44.51 353.86
  C 31.38 357.31 27.38 342.67 40.33 339.12
  Q 59.18 333.96 78.69 328.79
  A 0.43 0.43 0.0 0 0 78.97 328.19
  Q 74.03 317.60 76.97 305.91"
/>
<path stroke="#e4ded0" vector-effect="non-scaling-stroke" d="
  M 406.25 275.10
  L 488.08 275.20
  A 0.62 0.62 0.0 0 1 488.70 275.80
  Q 488.75 278.09 488.75 284.00
  Q 488.76 366.71 488.74 449.41
  C 488.74 457.15 483.29 457.98 477.00 457.99
  Q 348.75 458.04 220.50 457.96"
/>
</g>
<g fill="#f4eee0">
<path d="
  M 205.37 227.53
  Q 220.79 242.85 236.03 258.20
  C 241.00 263.20 242.19 267.17 236.98 272.40
  Q 148.70 361.03 60.09 449.34
  C 55.69 453.72 47.97 461.88 41.50 467.79
  Q 26.27 452.73 11.18 437.52
  C 5.84 432.15 4.71 428.29 10.31 422.75
  Q 25.86 407.39 41.13 391.89
  L 90.60 342.39
  L 133.93 298.82
  L 183.94 249.10
  L 205.37 227.53
  Z"
/>
<path d="
  M 327.44 275.10
  L 390.75 274.96
  L 406.25 275.10
  L 488.08 275.20
  A 0.62 0.62 0.0 0 1 488.70 275.80
  Q 488.75 278.09 488.75 284.00
  Q 488.76 366.71 488.74 449.41
  C 488.74 457.15 483.29 457.98 477.00 457.99
  Q 348.75 458.04 220.50 457.96
  L 220.44 322.23
  L 267.46 275.08
  L 327.44 275.10
  Z"
/>
</g>
<g fill="#ff5368">
<path d="
  M 271.61 129.08
  Q 275.39 121.40 279.20 113.73
  C 283.05 105.98 290.49 106.07 294.42 113.74
  Q 298.33 121.37 302.02 129.13
  Q 302.24 129.60 302.75 129.66
  Q 312.00 130.81 320.97 132.27
  C 326.07 133.09 329.25 137.92 327.26 142.83
  Q 326.55 144.58 323.74 147.32
  Q 318.01 152.92 312.26 158.51
  Q 311.90 158.85 311.97 159.35
  Q 313.33 168.19 314.92 177.01
  C 316.19 183.99 310.17 188.99 303.54 185.67
  Q 296.99 182.40 290.49 179.00
  C 285.40 176.34 275.55 182.79 270.80 185.59
  C 264.68 189.19 257.41 184.60 258.68 177.25
  Q 260.22 168.34 261.78 159.47
  Q 261.87 158.95 261.50 158.59
  Q 255.90 153.07 250.28 147.64
  C 245.56 143.08 243.46 138.42 249.08 133.54
  C 251.59 131.37 266.79 130.22 270.86 129.62
  Q 271.38 129.55 271.61 129.08
  Z"
/>
<path d="
  M 439.29 125.48
  C 441.03 125.04 442.93 124.39 444.60 124.52
  C 450.04 124.96 453.23 130.96 450.73 135.63
  C 449.41 138.11 446.73 139.53 444.06 140.17
  A 0.44 0.44 0.0 0 0 443.84 140.90
  C 449.55 147.19 445.69 157.14 436.69 154.56
  C 434.41 153.91 432.96 151.87 431.57 150.05
  Q 431.23 149.60 430.87 150.04
  Q 428.56 152.88 427.42 153.64
  C 422.15 157.16 415.57 153.32 415.67 147.20
  C 415.71 144.73 417.09 142.79 418.41 140.69
  A 0.46 0.45 -68.7 0 0 418.11 140.00
  C 412.38 138.93 408.68 133.59 411.80 128.25
  C 414.40 123.80 418.55 124.25 423.01 125.55
  A 0.46 0.46 0.0 0 0 423.59 125.04
  C 421.80 112.17 440.07 111.50 438.70 124.97
  Q 438.63 125.65 439.29 125.48
  Z"
/>
<path d="
  M 183.94 249.10
  L 133.93 298.82
  Q 139.66 275.25 146.08 252.07
  C 149.54 239.58 134.70 235.90 131.70 246.70
  Q 126.16 266.65 120.88 286.70
  A 0.38 0.38 0.0 0 1 120.35 286.94
  Q 110.01 281.85 98.05 284.83
  Q 105.89 254.58 113.89 225.73
  Q 115.51 219.88 117.33 217.09
  C 122.56 209.10 133.73 205.80 142.19 209.55
  Q 146.18 211.31 153.24 218.31
  Q 168.67 233.63 183.94 249.10
  Z"
/>
<path d="
  M 76.97 305.91
  Q 74.03 317.60 78.97 328.19
  A 0.43 0.43 0.0 0 1 78.69 328.79
  Q 59.18 333.96 40.33 339.12
  C 27.38 342.67 31.38 357.31 44.51 353.86
  Q 66.77 347.99 89.05 342.19
  Q 89.68 342.03 90.60 342.39
  L 41.13 391.89
  Q 18.79 369.99 5.62 356.13
  C -2.78 347.29 -1.13 332.74 8.49 325.87
  Q 12.10 323.29 21.74 320.67
  Q 49.27 313.17 76.97 305.91
  Z"
/>
</g>
<g fill="#ffcf5d">
<path d="
  M 363.03 42.43
  C 366.72 41.60 369.89 40.92 372.57 43.37
  C 378.38 48.68 374.27 55.33 367.84 57.12
  A 0.49 0.49 0.0 0 0 367.55 57.84
  C 368.67 59.67 370.03 61.60 370.26 63.63
  C 370.96 70.08 364.50 73.73 358.79 70.93
  Q 357.32 70.21 355.11 67.01
  Q 354.75 66.50 354.41 67.02
  C 347.11 77.88 334.14 69.13 341.76 58.06
  Q 342.27 57.31 341.39 57.10
  C 329.69 54.29 333.08 38.35 346.48 42.54
  Q 347.15 42.75 347.07 42.05
  C 345.75 29.53 362.88 28.27 362.46 41.96
  Q 362.44 42.56 363.03 42.43
  Z"
/>
<circle cx="391.47" cy="177.75" r="7.53"/>
<path d="
  M 390.75 274.96
  L 327.44 275.10
  Q 318.49 266.25 309.91 257.84
  C 305.80 253.81 307.19 246.36 311.61 243.50
  Q 313.83 242.07 320.24 241.14
  Q 329.61 239.77 339.00 238.38
  Q 339.50 238.31 339.73 237.86
  Q 344.69 227.84 349.62 217.90
  C 352.48 212.12 358.61 209.09 364.28 213.21
  Q 366.59 214.89 368.69 219.10
  Q 373.38 228.50 378.04 237.88
  Q 378.27 238.33 378.76 238.40
  Q 390.90 240.13 403.00 241.99
  C 408.26 242.79 411.80 250.03 409.62 255.02
  Q 408.73 257.04 405.17 260.43
  Q 397.76 267.49 390.75 274.96
  Z"
/>
</g>
<g fill="#d3cdbf">
<path d="
  M 267.46 275.08
  L 220.44 322.23
  Q 217.53 324.96 215.00 327.50
  Q 140.22 402.31 65.42 477.09
  C 61.61 480.90 57.24 482.92 52.76 479.26
  Q 48.82 476.04 41.50 467.79
  C 47.97 461.88 55.69 453.72 60.09 449.34
  Q 148.70 361.03 236.98 272.40
  C 242.19 267.17 241.00 263.20 236.03 258.20
  Q 220.79 242.85 205.37 227.53
  C 208.64 224.19 215.76 215.63 220.11 214.55
  C 223.75 213.64 226.34 215.50 229.05 218.20
  Q 248.82 237.92 268.54 257.67
  C 272.82 261.96 275.16 265.35 271.59 270.85
  Q 270.86 271.98 267.46 275.08
  Z"
/>
<path d="
  M 406.25 275.10
  L 512.00 275.04
  L 512.00 468.06
  C 509.42 479.36 501.99 481.25 491.10 481.25
  Q 366.14 481.25 241.20 481.25
  Q 233.00 481.26 229.53 479.76
  C 220.70 475.96 219.50 466.73 220.50 457.96
  Q 348.75 458.04 477.00 457.99
  C 483.29 457.98 488.74 457.15 488.74 449.41
  Q 488.76 366.71 488.75 284.00
  Q 488.75 278.09 488.70 275.80
  A 0.62 0.62 0.0 0 0 488.08 275.20
  L 406.25 275.10
  Z"
/>
</g>
<path fill="#d43453" d="
  M 133.93 298.82
  L 90.60 342.39
  Q 89.68 342.03 89.05 342.19
  Q 66.77 347.99 44.51 353.86
  C 31.38 357.31 27.38 342.67 40.33 339.12
  Q 59.18 333.96 78.69 328.79
  A 0.43 0.43 0.0 0 0 78.97 328.19
  Q 74.03 317.60 76.97 305.91
  Q 82.41 289.96 98.05 284.83
  Q 110.01 281.85 120.35 286.94
  A 0.38 0.38 0.0 0 0 120.88 286.70
  Q 126.16 266.65 131.70 246.70
  C 134.70 235.90 149.54 239.58 146.08 252.07
  Q 139.66 275.25 133.93 298.82
  Z"
/>
<g fill="#94e070">
<circle cx="474.91" cy="76.80" r="7.53"/>
<circle cx="348.18" cy="111.84" r="7.53"/>
<circle cx="471.81" cy="236.90" r="7.52"/>
</g>
</svg>
