<?xml version="1.0" encoding="UTF-8" standalone="no"?>
<!DOCTYPE svg PUBLIC "-//W3C//DTD SVG 1.1//EN" "http://www.w3.org/Graphics/SVG/1.1/DTD/svg11.dtd">
<svg xmlns="http://www.w3.org/2000/svg" version="1.1" viewBox="0.00 0.00 512.00 512.00">
<g stroke-width="2.00" fill="none" stroke-linecap="butt">
<path stroke="#fdc9b6" vector-effect="non-scaling-stroke" d="
  M 210.96 30.94
  Q 179.98 66.14 150.19 100.94
  Q 137.04 116.31 132.39 134.58
  C 126.92 156.13 120.68 177.54 114.97 199.05
  A 0.38 0.38 0.0 0 1 114.24 199.06
  C 111.59 190.06 109.13 179.85 110.74 170.75
  Q 113.57 154.80 122.92 106.79"
/>
<path stroke="#fed7c7" vector-effect="non-scaling-stroke" d="
  M 322.18 6.28
  C 319.32 7.44 316.25 9.66 314.18 10.81
  Q 295.01 21.48 275.95 32.34
  C 264.85 38.67 258.84 41.84 251.99 49.73
  Q 224.29 81.63 196.65 113.58
  C 188.36 123.17 182.27 129.92 179.55 139.81
  Q 166.48 187.40 153.68 235.06
  C 150.51 246.86 148.63 258.01 150.57 268.69
  Q 161.30 327.77 172.35 386.78
  Q 178.05 417.23 179.49 430.25
  C 182.73 459.58 181.91 484.64 182.06 512.00"
/>
<path stroke="#fdc9b6" vector-effect="non-scaling-stroke" d="
  M 129.44 291.77
  Q 127.82 279.71 125.74 268.18
  C 123.26 254.49 124.05 244.13 127.85 230.00
  Q 139.87 185.28 152.15 140.62
  C 154.71 131.33 157.21 124.68 162.73 117.99
  Q 168.12 111.45 186.76 90.02"
/>
<path stroke="#fed7c7" vector-effect="non-scaling-stroke" d="
  M 225.13 159.25
  Q 224.91 159.34 224.68 158.72
  Q 224.50 158.26 224.50 158.75
  L 224.50 180.28
  Q 224.50 180.74 224.13 181.01
  Q 223.97 181.13 223.79 181.23
  Q 223.35 181.46 223.05 181.85
  Q 210.34 198.35 197.45 214.69
  C 191.78 221.89 181.65 226.86 172.32 230.20
  C 159.27 234.86 165.53 253.16 178.19 249.68
  C 200.04 243.67 211.98 230.17 225.16 212.63"
/>
<path stroke="#fdc9b6" vector-effect="non-scaling-stroke" d="
  M 107.68 260.60
  C 110.02 259.25 108.06 256.36 107.50 254.25
  Q 99.84 225.49 92.28 196.70
  C 88.88 183.73 89.29 173.19 92.00 158.90
  Q 100.81 112.48 109.79 66.11"
/>
</g>
<path fill="#fedecf" d="
  M 322.18 6.28
  C 332.77 15.87 335.51 31.43 327.06 43.13
  Q 324.51 46.65 316.93 52.28
  Q 294.95 68.61 272.91 84.86
  Q 270.14 86.89 268.08 89.65
  Q 249.89 113.95 231.82 138.32
  Q 224.82 147.77 225.13 159.25
  Q 224.91 159.34 224.68 158.72
  Q 224.50 158.26 224.50 158.75
  L 224.50 180.28
  Q 224.50 180.74 224.13 181.01
  Q 223.97 181.13 223.79 181.23
  Q 223.35 181.46 223.05 181.85
  Q 210.34 198.35 197.45 214.69
  C 191.78 221.89 181.65 226.86 172.32 230.20
  C 159.27 234.86 165.53 253.16 178.19 249.68
  C 200.04 243.67 211.98 230.17 225.16 212.63
  Q 244.50 187.88 263.33 163.33
  C 271.91 152.13 282.55 150.56 296.72 151.58
  Q 325.36 153.63 354.00 155.70
  Q 373.06 157.08 381.80 173.82
  Q 388.88 187.40 395.99 200.96
  C 402.69 213.74 400.53 226.33 388.46 234.91
  Q 387.98 235.25 388.53 235.06
  C 402.36 230.27 414.55 235.72 420.94 248.68
  C 426.30 259.54 431.95 270.27 437.42 281.08
  C 443.94 293.97 440.19 303.69 433.22 316.78
  Q 412.30 356.05 405.19 368.94
  C 398.35 381.33 389.71 390.25 377.89 400.51
  Q 356.95 418.70 336.00 436.88
  Q 325.74 445.79 321.37 450.53
  Q 299.45 474.30 292.57 506.63
  C 291.95 509.57 290.73 511.20 287.94 512.00
  L 182.06 512.00
  C 181.91 484.64 182.73 459.58 179.49 430.25
  Q 178.05 417.23 172.35 386.78
  Q 161.30 327.77 150.57 268.69
  C 148.63 258.01 150.51 246.86 153.68 235.06
  Q 166.48 187.40 179.55 139.81
  C 182.27 129.92 188.36 123.17 196.65 113.58
  Q 224.29 81.63 251.99 49.73
  C 258.84 41.84 264.85 38.67 275.95 32.34
  Q 295.01 21.48 314.18 10.81
  C 316.25 9.66 319.32 7.44 322.18 6.28
  Z
  M 292.94 322.81
  C 302.97 332.29 314.41 331.55 327.09 332.62
  C 345.50 334.16 353.31 331.41 364.19 317.29
  Q 373.99 304.59 384.04 291.29
  A 2.90 2.90 0.0 0 0 384.38 288.37
  Q 380.44 279.42 376.54 270.28
  C 371.10 257.50 372.68 245.74 384.54 237.22
  Q 385.13 236.80 384.44 237.01
  C 361.96 243.83 354.70 226.81 345.82 211.00
  A 1.47 1.47 0.0 0 0 344.54 210.25
  L 303.27 210.25
  A 2.02 2.01 -75.1 0 0 301.52 211.27
  Q 288.94 233.53 276.48 255.64
  Q 270.66 265.97 269.51 271.10
  C 266.49 284.57 272.13 291.99 280.22 304.78
  C 283.97 310.71 287.82 317.98 292.94 322.81
  Z"
/>
<g fill="#fdd0bf">
<path d="
  M 184.57 0.00
  L 187.52 0.00
  Q 200.24 1.36 207.00 11.00
  Q 213.95 20.92 210.96 30.94
  Q 179.98 66.14 150.19 100.94
  Q 137.04 116.31 132.39 134.58
  C 126.92 156.13 120.68 177.54 114.97 199.05
  A 0.38 0.38 0.0 0 1 114.24 199.06
  C 111.59 190.06 109.13 179.85 110.74 170.75
  Q 113.57 154.80 122.92 106.79
  Q 127.36 83.38 128.74 76.75
  Q 130.31 69.21 134.42 62.13
  Q 147.47 39.70 160.71 17.39
  C 166.98 6.84 172.50 1.07 184.57 0.00
  Z"
/>
<path d="
  M 303.81 0.00
  L 305.55 0.00
  Q 315.30 0.55 322.18 6.28
  C 319.32 7.44 316.25 9.66 314.18 10.81
  Q 295.01 21.48 275.95 32.34
  C 264.85 38.67 258.84 41.84 251.99 49.73
  Q 224.29 81.63 196.65 113.58
  C 188.36 123.17 182.27 129.92 179.55 139.81
  Q 166.48 187.40 153.68 235.06
  C 150.51 246.86 148.63 258.01 150.57 268.69
  Q 161.30 327.77 172.35 386.78
  Q 178.05 417.23 179.49 430.25
  C 182.73 459.58 181.91 484.64 182.06 512.00
  L 160.69 512.00
  C 157.07 511.12 156.27 508.61 156.27 505.00
  C 156.24 486.89 156.78 468.16 155.86 450.51
  Q 154.55 425.18 149.85 400.24
  C 143.19 364.90 136.91 329.48 130.37 294.12
  C 130.21 293.25 129.80 292.43 129.44 291.77
  Q 127.82 279.71 125.74 268.18
  C 123.26 254.49 124.05 244.13 127.85 230.00
  Q 139.87 185.28 152.15 140.62
  C 154.71 131.33 157.21 124.68 162.73 117.99
  Q 168.12 111.45 186.76 90.02
  Q 215.43 57.10 225.45 45.44
  C 230.56 39.49 235.31 35.69 242.60 31.53
  Q 266.01 18.19 289.52 5.03
  Q 297.44 0.60 303.81 0.00
  Z"
/>
<path d="
  M 109.79 66.11
  Q 100.81 112.48 92.00 158.90
  C 89.29 173.19 88.88 183.73 92.28 196.70
  Q 99.84 225.49 107.50 254.25
  C 108.06 256.36 110.02 259.25 107.68 260.60
  Q 94.42 241.81 89.90 234.83
  Q 85.85 228.58 84.47 220.46
  Q 78.09 182.85 72.11 145.18
  C 71.11 138.84 71.06 134.33 72.26 127.66
  Q 75.88 107.53 79.74 87.44
  Q 81.47 78.49 83.59 75.01
  C 89.01 66.13 99.71 62.77 109.79 66.11
  Z"
/>
<path d="
  M 225.13 159.25
  L 225.16 212.63
  C 211.98 230.17 200.04 243.67 178.19 249.68
  C 165.53 253.16 159.27 234.86 172.32 230.20
  C 181.65 226.86 191.78 221.89 197.45 214.69
  Q 210.34 198.35 223.05 181.85
  Q 223.35 181.46 223.79 181.23
  Q 223.97 181.13 224.13 181.01
  Q 224.50 180.74 224.50 180.28
  L 224.50 158.75
  Q 224.50 158.26 224.68 158.72
  Q 224.91 159.34 225.13 159.25
  Z"
/>
</g>
<path fill="#fcc1ac" d="
  M 210.96 30.94
  Q 210.99 33.84 209.94 36.19
  Q 200.56 57.19 186.76 90.02
  Q 168.12 111.45 162.73 117.99
  C 157.21 124.68 154.71 131.33 152.15 140.62
  Q 139.87 185.28 127.85 230.00
  C 124.05 244.13 123.26 254.49 125.74 268.18
  Q 127.82 279.71 129.44 291.77
  L 107.68 260.60
  C 110.02 259.25 108.06 256.36 107.50 254.25
  Q 99.84 225.49 92.28 196.70
  C 88.88 183.73 89.29 173.19 92.00 158.90
  Q 100.81 112.48 109.79 66.11
  C 128.43 74.34 123.07 91.40 122.92 106.79
  Q 113.57 154.80 110.74 170.75
  C 109.13 179.85 111.59 190.06 114.24 199.06
  A 0.38 0.38 0.0 0 0 114.97 199.05
  C 120.68 177.54 126.92 156.13 132.39 134.58
  Q 137.04 116.31 150.19 100.94
  Q 179.98 66.14 210.96 30.94
  Z"
/>
</svg>
