<?xml version="1.0" encoding="utf-8"?>
<svg version="1.1" viewBox="0.00 0.00 512.00 512.00" xmlns="http://www.w3.org/2000/svg">
  <g stroke-width="2.00" fill="none" stroke-linecap="butt">
    <path stroke="#f55d6c" vector-effect="non-scaling-stroke" d=" M 448.53 126.28 Q 459.17 142.43 459.16 159.22 C 459.15 179.02 449.76 194.95 433.66 205.97 Q 400.78 228.46 370.80 245.79 Q 365.52 248.85 359.54 246.39 Q 359.12 246.22 358.67 246.29 L 356.86 246.57"/>
    <path stroke="#be6c7d" vector-effect="non-scaling-stroke" d=" M 417.89 256.91 C 409.86 261.79 397.57 272.26 388.07 266.18 Q 380.27 261.18 372.99 256.94"/>
    <path stroke="#be6c7d" vector-effect="non-scaling-stroke" d=" M 174.14 256.96 Q 170.77 259.51 166.99 262.20 C 153.66 271.70 139.39 271.04 123.94 266.16 C 116.86 263.93 110.33 264.56 103.45 266.57 C 84.24 272.18 71.00 270.29 55.79 256.94"/>
    <path stroke="#aea3af" vector-effect="non-scaling-stroke" d=" M 265.43 295.47 L 246.60 295.47"/>
  </g>
  <g fill="#fe646f">
    <path d=" M 448.53 126.28 Q 459.17 142.43 459.16 159.22 C 459.15 179.02 449.76 194.95 433.66 205.97 Q 400.78 228.46 370.80 245.79 Q 365.52 248.85 359.54 246.39 Q 359.12 246.22 358.67 246.29 L 356.86 246.57 Q 338.06 235.11 322.69 224.05 C 301.19 208.57 295.02 178.76 306.41 155.66 C 323.29 121.44 366.86 114.55 394.86 140.03 A 0.59 0.58 -43.8 0 0 395.64 140.04 Q 419.39 119.52 448.53 126.28 Z"/>
  </g>
  <path fill="#918291" d="M 12.93 257.02 C 27.017 257.02 372.99 256.94 372.99 256.94 C 377.843 259.767 382.87 262.847 388.07 266.18 C 397.57 272.26 409.86 261.79 417.89 256.91 C 444.763 257.01 471.4 257.04 497.8 257 C 505.45 256.98 510.57 257.98 512 266.07 L 512 286.57 C 510.78 292.523 506.863 295.5 500.25 295.5 C 422.037 295.513 343.763 295.503 265.43 295.47 L 246.6 295.47 C 167.753 295.51 88.99 295.517 10.31 295.49 C 4.403 295.49 0.967 292.39 0 286.19 L 0 265.7 C 1.48 258.66 5.96 257.02 12.93 257.02 Z"/>
  <path fill="#cbc4cc" d=" M 265.43 295.47 Q 294.68 346.20 323.87 396.70 Q 327.73 403.39 328.29 406.17 C 329.66 412.89 325.67 420.38 319.24 423.05 Q 316.40 424.23 310.45 424.24 Q 253.85 424.27 197.25 424.24 C 187.63 424.24 181.56 412.57 184.24 404.24 Q 184.79 402.54 190.06 393.40 Q 218.27 344.56 246.60 295.47 L 265.43 295.47 Z"/>
  <g fill="#eb5569">
    <path d=" M 448.53 126.28 C 487.49 136.95 503.53 183.65 477.64 215.35 Q 473.49 220.43 465.49 226.17 C 450.21 237.14 434.02 246.79 417.89 256.91 C 409.86 261.79 397.57 272.26 388.07 266.18 Q 380.27 261.18 372.99 256.94 L 356.86 246.57 L 358.67 246.29 Q 359.12 246.22 359.54 246.39 Q 365.52 248.85 370.80 245.79 Q 400.78 228.46 433.66 205.97 C 449.76 194.95 459.15 179.02 459.16 159.22 Q 459.17 142.43 448.53 126.28 Z"/>
  </g>
  <g transform="matrix(1.550024, 0, 0, 1.550024, -115.176483, 119.615898)" style="">
    <path d="M 150.302 -2.287 C 161.902 18.693 152.732 37.493 145.842 58.133 C 141.649 70.707 142.502 83.267 148.402 95.813 C 139.602 94.747 132.496 91.04 127.082 84.693 C 108.792 63.233 109.332 25.173 130.432 5.513 C 135.766 0.54 142.389 -2.06 150.302 -2.287 Z" style="fill: rgb(197, 145, 145);"/>
    <path d="M 149.75 -2.286 C 163.79 -1.326 174.63 9.154 179.9 21.984 C 181.66 27.394 183.12 31.794 184.1 37.334 C 184.807 43.634 184.853 49.96 184.24 56.314 L 179.89 71.574 C 178.063 75.687 175.753 79.517 172.96 83.064 C 166.307 91.51 157.937 95.76 147.85 95.814 C 141.95 83.267 141.097 70.707 145.29 58.134 C 152.18 37.494 161.35 18.694 149.75 -2.286 Z" style="fill: rgb(185, 128, 128);"/>
  </g>
</svg>