<?xml version="1.0" encoding="utf-8"?>
<svg version="1.1" viewBox="0.00 0.00 512.00 512.00" xmlns="http://www.w3.org/2000/svg">
  <path d=" M 430.69 512.00 L 46.19 512.00 Q 18.39 508.64 12.79 481.89 C 11.71 476.71 10.83 465.74 19.00 465.75 Q 59.09 465.76 99.19 465.74 Q 99.69 465.74 99.70 465.24 Q 99.89 447.06 99.69 440.57 C 99.59 437.22 97.67 435.02 94.83 432.92 Q 84.54 425.32 78.58 419.94 C 50.11 394.24 31.93 359.21 28.40 320.92 Q 27.79 314.35 27.77 300.94 Q 27.73 269.25 27.75 237.55 Q 27.75 230.61 29.24 227.68 C 31.98 222.27 36.79 220.94 42.95 220.95 Q 222.82 221.44 402.69 221.14 C 407.97 221.13 415.27 220.43 419.56 222.79 C 427.72 227.27 426.06 237.41 425.99 245.14 A 0.64 0.63 0.4 0 0 426.63 245.78 C 497.01 245.70 526.48 336.06 469.17 377.15 Q 463.85 380.97 451.68 386.80 C 425.86 399.16 400.08 412.03 373.97 423.76 Q 366.46 427.14 358.69 432.92 C 355.18 435.54 354.00 437.53 354.00 442.18 Q 353.99 453.81 354.01 465.35 A 0.42 0.41 -90.0 0 0 354.42 465.77 Q 406.03 465.74 457.25 465.69 Q 464.82 465.68 464.81 473.25 C 464.81 494.45 452.63 509.91 430.69 512.00 Z M 464.93 334.93 C 476.53 307.52 457.16 276.74 426.79 276.85 Q 425.94 276.85 425.95 277.70 C 426.16 293.60 426.64 310.53 424.70 325.45 Q 421.63 349.00 411.61 370.82 Q 411.30 371.50 411.98 371.19 Q 426.71 364.51 441.19 357.32 C 452.52 351.70 460.31 345.84 464.93 334.93 Z" style="fill: rgb(244, 238, 224);"/>
  <g fill="#eadad4">
    <path d=" M 204.81 0.00 L 206.56 0.00 C 211.58 1.15 214.91 6.12 212.72 10.83 Q 211.84 12.71 208.40 15.33 C 174.67 41.00 160.96 81.88 171.94 123.07 C 174.65 133.25 159.96 138.07 156.68 126.05 C 143.81 78.97 161.41 30.60 200.58 1.84 Q 202.31 0.57 204.81 0.00 Z"/>
    <path d=" M 205.81 183.22 C 202.37 183.21 200.48 178.80 200.51 175.90 C 200.71 155.50 200.14 138.65 195.30 119.78 Q 192.45 108.71 191.97 104.54 C 187.21 63.74 215.43 26.57 255.87 20.27 Q 262.33 19.26 275.81 19.26 Q 309.92 19.25 344.01 19.24 C 349.26 19.24 350.67 22.99 353.11 26.79 Q 367.22 48.68 381.06 70.73 Q 382.53 73.07 382.41 75.12 C 382.04 81.21 377.22 81.71 371.92 81.72 Q 346.71 81.79 321.50 81.74 Q 308.49 81.71 301.58 82.98 C 265.87 89.53 239.97 119.72 238.59 156.32 Q 238.42 160.98 238.48 175.09 C 238.51 180.37 236.50 183.21 231.15 183.23 Q 218.49 183.28 205.81 183.22 Z"/>
    <path d=" M 262.01 157.37 C 262.71 128.99 284.84 106.63 313.07 105.14 Q 317.09 104.93 319.14 106.09 C 324.32 108.99 324.32 116.60 319.24 119.44 Q 317.66 120.32 313.06 120.67 C 292.74 122.18 278.54 137.72 277.56 157.93 C 277.02 169.08 261.72 168.94 262.01 157.37 Z"/>
  </g>
</svg>