<?xml version="1.0" encoding="UTF-8" standalone="no"?>
<!DOCTYPE svg PUBLIC "-//W3C//DTD SVG 1.1//EN" "http://www.w3.org/Graphics/SVG/1.1/DTD/svg11.dtd">
<svg xmlns="http://www.w3.org/2000/svg" version="1.1" viewBox="0.00 0.00 512.00 512.00">
<g stroke-width="2.00" fill="none" stroke-linecap="butt">
<path stroke="#ffd971" vector-effect="non-scaling-stroke" d="
  M 451.88 420.87
  Q 450.88 420.31 449.98 420.99
  Q 434.93 432.28 421.21 440.16
  Q 360.84 474.81 291.52 474.71
  C 133.49 474.49 13.44 329.59 41.29 174.26
  Q 52.29 112.85 89.98 63.34
  Q 90.28 62.94 90.25 62.44
  L 90.14 60.94"
/>
<path stroke="#f3a376" vector-effect="non-scaling-stroke" d="
  M 363.96 246.61
  C 386.86 238.55 416.89 223.17 424.77 198.25
  C 431.92 175.61 416.33 152.79 393.00 150.02
  Q 386.06 149.20 377.56 151.31
  C 368.77 153.50 366.85 148.67 361.62 143.39
  Q 353.49 135.19 342.37 132.93"
/>
<path stroke="#ee9469" vector-effect="non-scaling-stroke" d="
  M 342.37 132.93
  C 324.71 129.34 308.20 138.38 301.05 154.03
  C 287.55 183.61 312.12 222.50 329.95 245.81
  C 335.33 252.85 340.39 254.01 348.99 251.51
  Q 356.39 249.35 363.96 246.61"
/>
<path stroke="#e15562" vector-effect="non-scaling-stroke" d="
  M 342.37 132.93
  C 339.43 135.64 335.91 138.21 333.63 141.14
  C 311.23 169.88 338.14 215.42 355.97 238.29
  Q 360.54 244.15 363.96 246.61"
/>
<path stroke="#ee9469" vector-effect="non-scaling-stroke" d="
  M 109.88 152.33
  Q 96.37 157.54 89.98 169.72
  C 76.49 195.45 95.80 219.38 117.05 231.98
  Q 138.13 244.48 162.70 251.39
  C 175.30 254.94 178.56 250.53 185.95 240.66
  Q 189.28 236.21 192.23 231.55"
/>
<path stroke="#f3a376" vector-effect="non-scaling-stroke" d="
  M 192.23 231.55
  C 200.93 218.23 208.56 203.85 212.53 188.26
  C 217.73 167.87 213.33 145.51 192.63 135.70
  C 179.56 129.51 163.53 131.98 152.35 141.44
  C 150.04 143.39 147.94 146.09 145.75 148.48
  C 139.28 155.57 131.35 149.86 123.41 149.95
  Q 116.12 150.02 109.88 152.33"
/>
<path stroke="#e15562" vector-effect="non-scaling-stroke" d="
  M 192.23 231.55
  C 160.17 224.23 94.14 198.22 109.88 152.33"
/>
<path stroke="#cea562" vector-effect="non-scaling-stroke" d="
  M 128.51 344.52
  C 185.23 446.50 326.93 446.26 383.53 344.29"
/>
<path stroke="#be9962" vector-effect="non-scaling-stroke" d="
  M 383.53 344.29
  Q 391.26 330.42 396.12 315.29
  C 397.96 309.55 392.80 304.55 387.00 305.77
  C 301.02 323.76 212.51 324.21 126.51 306.03
  C 118.52 304.34 113.79 308.74 116.42 316.82
  Q 121.10 331.27 128.51 344.52"
/>
<path stroke="#8d5c46" vector-effect="non-scaling-stroke" d="
  M 383.53 344.29
  C 382.67 344.10 381.67 343.87 380.79 344.03
  Q 256.16 365.73 131.53 344.06
  C 130.40 343.86 129.53 344.13 128.51 344.52"
/>
</g>
<path fill="#ffe17d" d="
  M 252.27 0.00
  L 259.33 0.00
  Q 351.89 2.37 421.41 60.75
  C 478.03 108.30 510.60 178.55 512.00 252.32
  L 512.00 259.33
  Q 509.82 350.73 451.88 420.87
  Q 450.88 420.31 449.98 420.99
  Q 434.93 432.28 421.21 440.16
  Q 360.84 474.81 291.52 474.71
  C 133.49 474.49 13.44 329.59 41.29 174.26
  Q 52.29 112.85 89.98 63.34
  Q 90.28 62.94 90.25 62.44
  L 90.14 60.94
  Q 160.44 2.36 252.27 0.00
  Z
  M 363.96 246.61
  C 386.86 238.55 416.89 223.17 424.77 198.25
  C 431.92 175.61 416.33 152.79 393.00 150.02
  Q 386.06 149.20 377.56 151.31
  C 368.77 153.50 366.85 148.67 361.62 143.39
  Q 353.49 135.19 342.37 132.93
  C 324.71 129.34 308.20 138.38 301.05 154.03
  C 287.55 183.61 312.12 222.50 329.95 245.81
  C 335.33 252.85 340.39 254.01 348.99 251.51
  Q 356.39 249.35 363.96 246.61
  Z
  M 109.88 152.33
  Q 96.37 157.54 89.98 169.72
  C 76.49 195.45 95.80 219.38 117.05 231.98
  Q 138.13 244.48 162.70 251.39
  C 175.30 254.94 178.56 250.53 185.95 240.66
  Q 189.28 236.21 192.23 231.55
  C 200.93 218.23 208.56 203.85 212.53 188.26
  C 217.73 167.87 213.33 145.51 192.63 135.70
  C 179.56 129.51 163.53 131.98 152.35 141.44
  C 150.04 143.39 147.94 146.09 145.75 148.48
  C 139.28 155.57 131.35 149.86 123.41 149.95
  Q 116.12 150.02 109.88 152.33
  Z
  M 128.51 344.52
  C 185.23 446.50 326.93 446.26 383.53 344.29
  Q 391.26 330.42 396.12 315.29
  C 397.96 309.55 392.80 304.55 387.00 305.77
  C 301.02 323.76 212.51 324.21 126.51 306.03
  C 118.52 304.34 113.79 308.74 116.42 316.82
  Q 121.10 331.27 128.51 344.52
  Z"
/>
<g fill="#e6646e">
<path d="
  M 192.23 231.55
  C 160.17 224.23 94.14 198.22 109.88 152.33
  Q 116.12 150.02 123.41 149.95
  C 131.35 149.86 139.28 155.57 145.75 148.48
  C 147.94 146.09 150.04 143.39 152.35 141.44
  C 163.53 131.98 179.56 129.51 192.63 135.70
  C 213.33 145.51 217.73 167.87 212.53 188.26
  C 208.56 203.85 200.93 218.23 192.23 231.55
  Z"
/>
<path d="
  M 342.37 132.93
  Q 353.49 135.19 361.62 143.39
  C 366.85 148.67 368.77 153.50 377.56 151.31
  Q 386.06 149.20 393.00 150.02
  C 416.33 152.79 431.92 175.61 424.77 198.25
  C 416.89 223.17 386.86 238.55 363.96 246.61
  Q 360.54 244.15 355.97 238.29
  C 338.14 215.42 311.23 169.88 333.63 141.14
  C 335.91 138.21 339.43 135.64 342.37 132.93
  Z"
/>
</g>
<path fill="#9c6846" d="
  M 383.53 344.29
  C 326.93 446.26 185.23 446.50 128.51 344.52
  C 129.53 344.13 130.40 343.86 131.53 344.06
  Q 256.16 365.73 380.79 344.03
  C 381.67 343.87 382.67 344.10 383.53 344.29
  Z"
/>
<path fill="#7d5046" d="
  M 383.53 344.29
  C 382.67 344.10 381.67 343.87 380.79 344.03
  Q 256.16 365.73 131.53 344.06
  C 130.40 343.86 129.53 344.13 128.51 344.52
  Q 121.10 331.27 116.42 316.82
  C 113.79 308.74 118.52 304.34 126.51 306.03
  C 212.51 324.21 301.02 323.76 387.00 305.77
  C 392.80 304.55 397.96 309.55 396.12 315.29
  Q 391.26 330.42 383.53 344.29
  Z"
/>
<path fill="#ffd164" d="
  M 90.14 60.94
  L 90.25 62.44
  Q 90.28 62.94 89.98 63.34
  Q 52.29 112.85 41.29 174.26
  C 13.44 329.59 133.49 474.49 291.52 474.71
  Q 360.84 474.81 421.21 440.16
  Q 434.93 432.28 449.98 420.99
  Q 450.88 420.31 451.88 420.87
  C 405.07 476.33 338.02 509.03 265.42 512.00
  L 246.20 512.00
  C 177.76 509.08 113.02 479.31 67.44 429.32
  Q 4.95 360.77 0.00 266.45
  L 0.00 244.20
  C 4.77 171.37 35.15 108.41 90.14 60.94
  Z"
/>
<g fill="#dc4655">
<path d="
  M 342.37 132.93
  C 339.43 135.64 335.91 138.21 333.63 141.14
  C 311.23 169.88 338.14 215.42 355.97 238.29
  Q 360.54 244.15 363.96 246.61
  Q 356.39 249.35 348.99 251.51
  C 340.39 254.01 335.33 252.85 329.95 245.81
  C 312.12 222.50 287.55 183.61 301.05 154.03
  C 308.20 138.38 324.71 129.34 342.37 132.93
  Z"
/>
<path d="
  M 109.88 152.33
  C 94.14 198.22 160.17 224.23 192.23 231.55
  Q 189.28 236.21 185.95 240.66
  C 178.56 250.53 175.30 254.94 162.70 251.39
  Q 138.13 244.48 117.05 231.98
  C 95.80 219.38 76.49 195.45 89.98 169.72
  Q 96.37 157.54 109.88 152.33
  Z"
/>
</g>
</svg>
