<?xml version="1.0" encoding="UTF-8" standalone="no"?>
<!DOCTYPE svg PUBLIC "-//W3C//DTD SVG 1.1//EN" "http://www.w3.org/Graphics/SVG/1.1/DTD/svg11.dtd">
<svg xmlns="http://www.w3.org/2000/svg" version="1.1" viewBox="0.00 0.00 512.00 512.00">
<g stroke-width="2.00" fill="none" stroke-linecap="butt">
<path stroke="#ffd971" vector-effect="non-scaling-stroke" d="
  M 451.88 420.87
  Q 450.87 420.32 450.00 420.98
  C 373.03 479.82 269.85 491.84 182.54 449.75
  C 36.32 379.26 -8.39 193.34 89.81 63.53
  C 90.47 62.66 90.33 61.93 90.14 60.94"
/>
<path stroke="#be9962" vector-effect="non-scaling-stroke" d="
  M 165.14 198.58
  Q 152.10 202.40 149.35 214.26
  C 148.25 218.98 148.74 225.84 148.77 231.34
  Q 148.81 239.02 149.97 242.39
  C 153.07 251.40 163.36 257.35 172.44 255.68
  C 185.90 253.21 190.22 242.80 189.92 229.89"
/>
<path stroke="#cea562" vector-effect="non-scaling-stroke" d="
  M 189.92 229.89
  C 190.02 224.44 190.61 217.75 189.05 212.83
  C 185.92 202.95 176.05 196.26 165.14 198.58"
/>
<path stroke="#8d5c46" vector-effect="non-scaling-stroke" d="
  M 189.92 229.89
  C 183.38 245.00 165.10 241.31 165.22 224.62
  Q 165.31 211.77 165.14 198.58"
/>
<path stroke="#be9962" vector-effect="non-scaling-stroke" d="
  M 338.62 198.58
  C 320.90 203.42 321.34 218.81 322.13 233.90
  Q 322.47 240.39 324.03 243.89
  C 329.54 256.29 345.63 259.54 355.87 251.07
  Q 364.34 244.06 363.20 230.69"
/>
<path stroke="#cea562" vector-effect="non-scaling-stroke" d="
  M 363.20 230.69
  Q 364.02 221.54 363.49 217.81
  C 361.66 204.88 352.07 196.18 338.62 198.58"
/>
<path stroke="#8d5c46" vector-effect="non-scaling-stroke" d="
  M 363.20 230.69
  C 358.90 238.66 350.22 242.93 342.90 236.09
  Q 338.92 232.37 338.67 229.00
  Q 338.22 222.85 338.62 198.58"
/>
<path stroke="#d5aa62" vector-effect="non-scaling-stroke" d="
  M 213.86 356.91
  C 249.15 343.27 291.97 347.01 322.39 370.72
  C 325.42 373.08 328.75 376.74 332.26 379.48
  C 342.34 387.33 354.11 373.63 346.17 364.81
  Q 341.69 359.84 335.32 354.75
  C 288.62 317.48 211.12 319.45 168.18 362.39
  C 164.44 366.12 161.97 369.78 163.80 374.84
  C 166.54 382.41 175.45 383.97 181.28 378.26
  Q 196.02 363.81 213.86 356.91"
/>
</g>
<path fill="#ffe17d" d="
  M 252.28 0.00
  L 259.33 0.00
  Q 351.89 2.37 421.41 60.75
  C 478.03 108.30 510.60 178.55 512.00 252.32
  L 512.00 259.33
  Q 509.82 350.73 451.88 420.87
  Q 450.87 420.32 450.00 420.98
  C 373.03 479.82 269.85 491.84 182.54 449.75
  C 36.32 379.26 -8.39 193.34 89.81 63.53
  C 90.47 62.66 90.33 61.93 90.14 60.94
  Q 160.42 2.37 252.28 0.00
  Z
  M 165.14 198.58
  Q 152.10 202.40 149.35 214.26
  C 148.25 218.98 148.74 225.84 148.77 231.34
  Q 148.81 239.02 149.97 242.39
  C 153.07 251.40 163.36 257.35 172.44 255.68
  C 185.90 253.21 190.22 242.80 189.92 229.89
  C 190.02 224.44 190.61 217.75 189.05 212.83
  C 185.92 202.95 176.05 196.26 165.14 198.58
  Z
  M 338.62 198.58
  C 320.90 203.42 321.34 218.81 322.13 233.90
  Q 322.47 240.39 324.03 243.89
  C 329.54 256.29 345.63 259.54 355.87 251.07
  Q 364.34 244.06 363.20 230.69
  Q 364.02 221.54 363.49 217.81
  C 361.66 204.88 352.07 196.18 338.62 198.58
  Z
  M 213.86 356.91
  C 249.15 343.27 291.97 347.01 322.39 370.72
  C 325.42 373.08 328.75 376.74 332.26 379.48
  C 342.34 387.33 354.11 373.63 346.17 364.81
  Q 341.69 359.84 335.32 354.75
  C 288.62 317.48 211.12 319.45 168.18 362.39
  C 164.44 366.12 161.97 369.78 163.80 374.84
  C 166.54 382.41 175.45 383.97 181.28 378.26
  Q 196.02 363.81 213.86 356.91
  Z"
/>
<path fill="#aa7346" d="
  M 322.39 370.72
  C 291.97 347.01 249.15 343.27 213.86 356.91
  Q 196.02 363.81 181.28 378.26
  C 175.45 383.97 166.54 382.41 163.80 374.84
  C 161.97 369.78 164.44 366.12 168.18 362.39
  C 211.12 319.45 288.62 317.48 335.32 354.75
  Q 341.69 359.84 346.17 364.81
  C 354.11 373.63 342.34 387.33 332.26 379.48
  C 328.75 376.74 325.42 373.08 322.39 370.72
  Z"
/>
<g fill="#7d5046">
<path d="
  M 165.14 198.58
  Q 165.31 211.77 165.22 224.62
  C 165.10 241.31 183.38 245.00 189.92 229.89
  C 190.22 242.80 185.90 253.21 172.44 255.68
  C 163.36 257.35 153.07 251.40 149.97 242.39
  Q 148.81 239.02 148.77 231.34
  C 148.74 225.84 148.25 218.98 149.35 214.26
  Q 152.10 202.40 165.14 198.58
  Z"
/>
<path d="
  M 338.62 198.58
  Q 338.22 222.85 338.67 229.00
  Q 338.92 232.37 342.90 236.09
  C 350.22 242.93 358.90 238.66 363.20 230.69
  Q 364.34 244.06 355.87 251.07
  C 345.63 259.54 329.54 256.29 324.03 243.89
  Q 322.47 240.39 322.13 233.90
  C 321.34 218.81 320.90 203.42 338.62 198.58
  Z"
/>
</g>
<path fill="#ffd164" d="
  M 90.14 60.94
  C 90.33 61.93 90.47 62.66 89.81 63.53
  C -8.39 193.34 36.32 379.26 182.54 449.75
  C 269.85 491.84 373.03 479.82 450.00 420.98
  Q 450.87 420.32 451.88 420.87
  C 405.07 476.33 338.02 509.03 265.42 512.00
  L 246.19 512.00
  C 177.72 509.06 113.02 479.32 67.44 429.32
  Q 4.95 360.77 0.00 266.45
  L 0.00 244.20
  C 4.77 171.37 35.16 108.41 90.14 60.94
  Z"
/>
<g fill="#9c6846">
<path d="
  M 189.92 229.89
  C 183.38 245.00 165.10 241.31 165.22 224.62
  Q 165.31 211.77 165.14 198.58
  C 176.05 196.26 185.92 202.95 189.05 212.83
  C 190.61 217.75 190.02 224.44 189.92 229.89
  Z"
/>
<path d="
  M 363.20 230.69
  C 358.90 238.66 350.22 242.93 342.90 236.09
  Q 338.92 232.37 338.67 229.00
  Q 338.22 222.85 338.62 198.58
  C 352.07 196.18 361.66 204.88 363.49 217.81
  Q 364.02 221.54 363.20 230.69
  Z"
/>
</g>
</svg>
