<?xml version="1.0" encoding="UTF-8" standalone="no"?>
<!DOCTYPE svg PUBLIC "-//W3C//DTD SVG 1.1//EN" "http://www.w3.org/Graphics/SVG/1.1/DTD/svg11.dtd">
<svg xmlns="http://www.w3.org/2000/svg" version="1.1" viewBox="0.00 0.00 512.00 512.00">
<g stroke-width="2.00" fill="none" stroke-linecap="butt">
<path stroke="#ffd971" vector-effect="non-scaling-stroke" d="
  M 451.88 420.87
  Q 450.87 420.32 450.00 420.98
  C 373.03 479.82 269.85 491.84 182.54 449.75
  C 36.32 379.26 -8.40 193.35 89.81 63.53
  C 90.47 62.66 90.33 61.93 90.14 60.94"
/>
<path stroke="#d5aa62" vector-effect="non-scaling-stroke" d="
  M 207.8040 170.3471
  A 10.11 10.11 0.0 0 0 195.2152 163.5688
  L 112.6509 188.3392
  A 10.11 10.11 0.0 0 0 105.8725 200.9280
  L 105.9760 201.2729
  A 10.11 10.11 0.0 0 0 118.5648 208.0512
  L 201.1291 183.2808
  A 10.11 10.11 0.0 0 0 207.9075 170.6920
  L 207.8040 170.3471"
/>
<path stroke="#d5aa62" vector-effect="non-scaling-stroke" d="
  M 406.1179 200.9252
  A 10.10 10.10 0.0 0 0 399.3462 188.3488
  L 316.7819 163.5783
  A 10.10 10.10 0.0 0 0 304.2056 170.3500
  L 304.1021 170.6948
  A 10.10 10.10 0.0 0 0 310.8738 183.2712
  L 393.4381 208.0417
  A 10.10 10.10 0.0 0 0 406.0144 201.2700
  L 406.1179 200.9252"
/>
<path stroke="#d5aa62" vector-effect="non-scaling-stroke" d="
  M 208.22 241.09
  C 209.58 234.81 203.30 228.33 196.78 229.40
  C 190.67 230.40 187.00 237.37 181.77 240.51
  Q 164.85 250.69 148.37 240.38
  C 142.83 236.92 138.72 228.97 131.69 229.31
  C 125.30 229.61 120.77 235.83 122.41 241.74
  Q 123.49 245.63 128.04 250.28
  C 149.24 271.92 182.98 271.29 203.40 249.03
  Q 207.45 244.61 208.22 241.09"
/>
<path stroke="#d5aa62" vector-effect="non-scaling-stroke" d="
  M 316.94 256.31
  C 340.33 272.82 368.68 267.92 387.11 246.89
  C 393.53 239.56 388.44 228.36 378.76 229.43
  C 372.51 230.11 368.35 237.67 362.94 240.84
  C 350.75 247.97 336.22 247.03 325.82 236.89
  C 323.15 234.28 319.92 230.67 316.54 229.66
  C 310.03 227.70 303.71 233.10 303.71 239.59
  C 303.70 245.85 312.06 252.87 316.94 256.31"
/>
<path stroke="#d5aa62" vector-effect="non-scaling-stroke" d="
  M 203.20 368.25
  C 230.89 394.99 281.12 394.25 309.08 368.30"
/>
<path stroke="#be9962" vector-effect="non-scaling-stroke" d="
  M 309.08 368.30
  Q 316.87 361.55 321.59 351.06
  C 323.77 346.20 317.60 346.88 315.25 347.23
  Q 255.35 356.31 195.51 346.98
  Q 193.08 346.60 191.03 347.56
  A 1.20 1.19 -4.6 0 0 190.40 348.30
  Q 190.04 349.58 190.72 351.03
  Q 195.87 361.99 203.20 368.25"
/>
<path stroke="#946246" vector-effect="non-scaling-stroke" d="
  M 309.08 368.30
  Q 255.95 374.57 203.20 368.25"
/>
</g>
<path fill="#ffe17d" d="
  M 252.27 0.00
  L 259.34 0.00
  C 388.38 3.32 492.33 95.70 509.93 223.50
  C 511.20 232.73 511.57 242.90 512.00 252.57
  L 512.00 259.33
  Q 509.82 350.73 451.88 420.87
  Q 450.87 420.32 450.00 420.98
  C 373.03 479.82 269.85 491.84 182.54 449.75
  C 36.32 379.26 -8.40 193.35 89.81 63.53
  C 90.47 62.66 90.33 61.93 90.14 60.94
  Q 160.44 2.36 252.27 0.00
  Z
  M 207.8040 170.3471
  A 10.11 10.11 0.0 0 0 195.2152 163.5688
  L 112.6509 188.3392
  A 10.11 10.11 0.0 0 0 105.8725 200.9280
  L 105.9760 201.2729
  A 10.11 10.11 0.0 0 0 118.5648 208.0512
  L 201.1291 183.2808
  A 10.11 10.11 0.0 0 0 207.9075 170.6920
  L 207.8040 170.3471
  Z
  M 406.1179 200.9252
  A 10.10 10.10 0.0 0 0 399.3462 188.3488
  L 316.7819 163.5783
  A 10.10 10.10 0.0 0 0 304.2056 170.3500
  L 304.1021 170.6948
  A 10.10 10.10 0.0 0 0 310.8738 183.2712
  L 393.4381 208.0417
  A 10.10 10.10 0.0 0 0 406.0144 201.2700
  L 406.1179 200.9252
  Z
  M 208.22 241.09
  C 209.58 234.81 203.30 228.33 196.78 229.40
  C 190.67 230.40 187.00 237.37 181.77 240.51
  Q 164.85 250.69 148.37 240.38
  C 142.83 236.92 138.72 228.97 131.69 229.31
  C 125.30 229.61 120.77 235.83 122.41 241.74
  Q 123.49 245.63 128.04 250.28
  C 149.24 271.92 182.98 271.29 203.40 249.03
  Q 207.45 244.61 208.22 241.09
  Z
  M 316.94 256.31
  C 340.33 272.82 368.68 267.92 387.11 246.89
  C 393.53 239.56 388.44 228.36 378.76 229.43
  C 372.51 230.11 368.35 237.67 362.94 240.84
  C 350.75 247.97 336.22 247.03 325.82 236.89
  C 323.15 234.28 319.92 230.67 316.54 229.66
  C 310.03 227.70 303.71 233.10 303.71 239.59
  C 303.70 245.85 312.06 252.87 316.94 256.31
  Z
  M 203.20 368.25
  C 230.89 394.99 281.12 394.25 309.08 368.30
  Q 316.87 361.55 321.59 351.06
  C 323.77 346.20 317.60 346.88 315.25 347.23
  Q 255.35 356.31 195.51 346.98
  Q 193.08 346.60 191.03 347.56
  A 1.20 1.19 -4.6 0 0 190.40 348.30
  Q 190.04 349.58 190.72 351.03
  Q 195.87 361.99 203.20 368.25
  Z"
/>
<g fill="#aa7346">
<rect x="-53.21" y="-10.29" transform="translate(156.89,185.81) rotate(-16.7)" width="106.42" height="20.58" rx="10.11"/>
<rect x="-53.20" y="-10.28" transform="translate(355.11,185.81) rotate(16.7)" width="106.40" height="20.56" rx="10.10"/>
<path d="
  M 196.78 229.40
  C 203.30 228.33 209.58 234.81 208.22 241.09
  Q 207.45 244.61 203.40 249.03
  C 182.98 271.29 149.24 271.92 128.04 250.28
  Q 123.49 245.63 122.41 241.74
  C 120.77 235.83 125.30 229.61 131.69 229.31
  C 138.72 228.97 142.83 236.92 148.37 240.38
  Q 164.85 250.69 181.77 240.51
  C 187.00 237.37 190.67 230.40 196.78 229.40
  Z"
/>
<path d="
  M 316.94 256.31
  C 312.06 252.87 303.70 245.85 303.71 239.59
  C 303.71 233.10 310.03 227.70 316.54 229.66
  C 319.92 230.67 323.15 234.28 325.82 236.89
  C 336.22 247.03 350.75 247.97 362.94 240.84
  C 368.35 237.67 372.51 230.11 378.76 229.43
  C 388.44 228.36 393.53 239.56 387.11 246.89
  C 368.68 267.92 340.33 272.82 316.94 256.31
  Z"
/>
<path d="
  M 309.08 368.30
  C 281.12 394.25 230.89 394.99 203.20 368.25
  Q 255.95 374.57 309.08 368.30
  Z"
/>
</g>
<path fill="#7d5046" d="
  M 309.08 368.30
  Q 255.95 374.57 203.20 368.25
  Q 195.87 361.99 190.72 351.03
  Q 190.04 349.58 190.40 348.30
  A 1.20 1.19 -4.6 0 1 191.03 347.56
  Q 193.08 346.60 195.51 346.98
  Q 255.35 356.31 315.25 347.23
  C 317.60 346.88 323.77 346.20 321.59 351.06
  Q 316.87 361.55 309.08 368.30
  Z"
/>
<path fill="#ffd164" d="
  M 90.14 60.94
  C 90.33 61.93 90.47 62.66 89.81 63.53
  C -8.40 193.35 36.32 379.26 182.54 449.75
  C 269.85 491.84 373.03 479.82 450.00 420.98
  Q 450.87 420.32 451.88 420.87
  C 405.09 476.32 338.00 509.04 265.42 512.00
  L 246.19 512.00
  C 112.04 505.70 6.48 401.08 0.00 266.43
  L 0.00 244.20
  C 4.77 171.37 35.15 108.41 90.14 60.94
  Z"
/>
</svg>
