<?xml version="1.0" encoding="UTF-8" standalone="no"?>
<!DOCTYPE svg PUBLIC "-//W3C//DTD SVG 1.1//EN" "http://www.w3.org/Graphics/SVG/1.1/DTD/svg11.dtd">
<svg xmlns="http://www.w3.org/2000/svg" version="1.1" viewBox="0.00 0.00 512.00 512.00">
<g stroke-width="2.00" fill="none" stroke-linecap="butt">
<path stroke="#ffd971" vector-effect="non-scaling-stroke" d="
  M 451.87 420.87
  Q 450.87 420.32 450.00 420.98
  C 380.10 474.41 289.98 489.16 206.87 459.91
  A 1.39 1.39 0.0 0 1 205.98 458.93
  Q 203.67 449.44 193.11 446.17"
/>
<path stroke="#ffd267" vector-effect="non-scaling-stroke" d="
  M 193.11 446.17
  C 196.70 445.99 200.35 446.09 203.50 444.95
  Q 213.86 441.17 214.72 429.52"
/>
<path stroke="#ffd971" vector-effect="non-scaling-stroke" d="
  M 214.72 429.52
  Q 214.13 417.81 201.84 413.06"
/>
<path stroke="#ffd267" vector-effect="non-scaling-stroke" d="
  M 201.84 413.06
  Q 245.28 412.98 287.68 412.97
  C 297.77 412.97 305.06 406.54 305.58 396.28"
/>
<path stroke="#ffd971" vector-effect="non-scaling-stroke" d="
  M 305.58 396.28
  C 304.16 383.99 296.60 379.99 285.36 379.95
  Q 221.46 379.73 157.56 380.05
  Q 153.84 380.07 148.96 379.87
  C 143.41 379.64 137.41 380.25 132.38 378.40
  Q 120.86 374.17 117.24 363.20
  Q 115.71 358.56 115.69 346.65
  Q 115.67 328.29 115.51 309.96
  Q 115.44 302.25 113.95 298.80
  Q 110.24 290.20 99.02 289.01"
/>
<path stroke="#ffd267" vector-effect="non-scaling-stroke" d="
  M 99.02 289.01
  Q 87.65 290.09 84.08 298.93
  Q 82.50 302.83 82.52 314.28
  Q 82.54 330.11 82.48 345.93
  Q 82.46 352.84 80.03 360.59"
/>
<path stroke="#ffd971" vector-effect="non-scaling-stroke" d="
  M 80.03 360.59
  Q 49.06 313.67 40.50 260.00
  C 29.44 190.61 47.04 119.99 89.69 63.69
  Q 90.49 62.64 90.41 60.75"
/>
<path stroke="#d5aa62" vector-effect="non-scaling-stroke" d="
  M 195.31 115.19
  C 166.50 94.35 128.93 90.02 96.63 105.54
  C 81.62 112.75 91.08 130.85 105.02 124.29
  C 131.06 112.03 159.12 115.46 182.63 131.22
  C 196.13 140.28 206.66 123.40 195.31 115.19"
/>
<path stroke="#d5aa62" vector-effect="non-scaling-stroke" d="
  M 398.0187 121.7035
  A 10.09 10.09 0.0 0 0 386.1472 113.7862
  L 303.5402 130.2927
  A 10.09 10.09 0.0 0 0 295.6229 142.1642
  L 295.7013 142.5565
  A 10.09 10.09 0.0 0 0 307.5728 150.4738
  L 390.1798 133.9673
  A 10.09 10.09 0.0 0 0 398.0971 122.0958
  L 398.0187 121.7035"
/>
<path stroke="#cea562" vector-effect="non-scaling-stroke" d="
  M 175.62 184.86
  Q 177.36 176.30 177.23 170.25
  C 176.97 158.72 166.71 149.78 155.05 150.53"
/>
<path stroke="#be9962" vector-effect="non-scaling-stroke" d="
  M 155.05 150.53
  Q 140.74 152.70 136.84 165.72
  C 135.64 169.70 135.30 175.37 134.67 180.09
  Q 133.71 187.17 134.39 190.93
  C 138.57 214.09 171.25 213.46 174.91 190.11
  Q 175.29 187.67 175.62 184.86"
/>
<path stroke="#8d5c46" vector-effect="non-scaling-stroke" d="
  M 155.05 150.53
  Q 152.38 169.29 151.52 178.25
  C 150.04 193.46 167.83 197.59 175.62 184.86"
/>
<path stroke="#be9962" vector-effect="non-scaling-stroke" d="
  M 327.75 168.61
  C 310.63 171.45 309.49 183.16 307.65 197.51
  Q 306.74 204.67 307.15 208.02
  C 309.49 226.98 333.65 232.58 344.46 217.18
  Q 348.15 211.93 348.45 202.89"
/>
<path stroke="#cea562" vector-effect="non-scaling-stroke" d="
  M 348.45 202.89
  Q 350.71 193.24 350.01 186.25
  C 348.95 175.88 338.36 167.63 327.75 168.61"
/>
<path stroke="#8d5c46" vector-effect="non-scaling-stroke" d="
  M 348.45 202.89
  C 340.12 216.69 322.49 210.79 324.55 194.81
  Q 326.22 181.90 327.75 168.61"
/>
<path stroke="#d5aa62" vector-effect="non-scaling-stroke" d="
  M 175.28 309.63
  C 214.93 311.67 254.81 322.49 291.68 339.01
  C 296.07 340.98 300.06 341.24 303.67 338.26
  C 308.11 334.60 308.76 327.86 304.81 323.53
  Q 303.14 321.70 298.74 319.68
  C 259.65 301.78 217.60 291.04 174.50 289.23
  C 167.81 288.95 163.01 292.84 163.04 299.60
  C 163.08 306.82 168.63 309.29 175.28 309.63"
/>
<path stroke="#ffca5a" vector-effect="non-scaling-stroke" d="
  M 80.03 360.59
  Q 77.62 369.62 70.31 378.57
  C 62.86 387.69 56.90 396.22 52.67 408.45
  C 52.41 409.20 52.82 410.48 51.75 410.55"
/>
<path stroke="#ffca5a" vector-effect="non-scaling-stroke" d="
  M 99.02 289.01
  Q 99.00 314.57 98.99 339.60
  C 98.98 351.96 97.98 360.99 93.72 371.37
  C 90.25 379.83 84.07 388.19 78.06 395.58
  C 70.45 404.92 66.85 414.55 66.33 426.95
  Q 65.66 443.07 66.10 460.44
  C 66.67 482.64 80.76 495.51 102.60 495.50
  Q 150.04 495.49 197.49 495.50
  Q 198.04 495.50 198.02 496.05
  Q 197.91 500.24 195.84 503.87
  Q 195.63 504.25 195.89 504.60
  Q 196.05 504.81 196.02 505.02"
/>
<path stroke="#ffca5a" vector-effect="non-scaling-stroke" d="
  M 305.58 396.28
  C 300.63 396.64 294.34 396.27 290.92 396.26
  Q 242.21 396.18 193.50 396.33
  Q 188.35 396.34 186.17 397.41
  C 181.44 399.71 180.28 407.23 184.47 410.67
  Q 186.44 412.29 190.46 412.69
  Q 196.37 413.28 201.84 413.06"
/>
<path stroke="#ffca5a" vector-effect="non-scaling-stroke" d="
  M 214.72 429.52
  Q 198.77 429.46 183.38 429.52
  C 170.14 429.57 171.00 446.02 182.47 445.90
  Q 185.33 445.87 185.38 445.88
  Q 189.60 446.04 193.11 446.17"
/>
<path stroke="#ffca5a" vector-effect="non-scaling-stroke" d="
  M 175.71 462.52
  C 161.91 462.55 161.90 478.84 175.26 478.93
  C 189.14 479.02 202.42 481.04 206.44 464.38
  A 1.52 1.52 0.0 0 0 204.96 462.51
  Q 190.74 462.48 175.71 462.52"
/>
</g>
<path fill="#ffe17d" d="
  M 252.29 0.00
  L 259.33 0.00
  Q 351.89 2.37 421.41 60.75
  C 478.03 108.30 510.60 178.55 512.00 252.32
  L 512.00 259.33
  Q 509.82 350.73 451.87 420.87
  Q 450.87 420.32 450.00 420.98
  C 380.10 474.41 289.98 489.16 206.87 459.91
  A 1.39 1.39 0.0 0 1 205.98 458.93
  Q 203.67 449.44 193.11 446.17
  C 196.70 445.99 200.35 446.09 203.50 444.95
  Q 213.86 441.17 214.72 429.52
  Q 214.13 417.81 201.84 413.06
  Q 245.28 412.98 287.68 412.97
  C 297.77 412.97 305.06 406.54 305.58 396.28
  C 304.16 383.99 296.60 379.99 285.36 379.95
  Q 221.46 379.73 157.56 380.05
  Q 153.84 380.07 148.96 379.87
  C 143.41 379.64 137.41 380.25 132.38 378.40
  Q 120.86 374.17 117.24 363.20
  Q 115.71 358.56 115.69 346.65
  Q 115.67 328.29 115.51 309.96
  Q 115.44 302.25 113.95 298.80
  Q 110.24 290.20 99.02 289.01
  Q 87.65 290.09 84.08 298.93
  Q 82.50 302.83 82.52 314.28
  Q 82.54 330.11 82.48 345.93
  Q 82.46 352.84 80.03 360.59
  Q 49.06 313.67 40.50 260.00
  C 29.44 190.61 47.04 119.99 89.69 63.69
  Q 90.49 62.64 90.41 60.75
  Q 160.58 2.33 252.29 0.00
  Z
  M 195.31 115.19
  C 166.50 94.35 128.93 90.02 96.63 105.54
  C 81.62 112.75 91.08 130.85 105.02 124.29
  C 131.06 112.03 159.12 115.46 182.63 131.22
  C 196.13 140.28 206.66 123.40 195.31 115.19
  Z
  M 398.0187 121.7035
  A 10.09 10.09 0.0 0 0 386.1472 113.7862
  L 303.5402 130.2927
  A 10.09 10.09 0.0 0 0 295.6229 142.1642
  L 295.7013 142.5565
  A 10.09 10.09 0.0 0 0 307.5728 150.4738
  L 390.1798 133.9673
  A 10.09 10.09 0.0 0 0 398.0971 122.0958
  L 398.0187 121.7035
  Z
  M 175.62 184.86
  Q 177.36 176.30 177.23 170.25
  C 176.97 158.72 166.71 149.78 155.05 150.53
  Q 140.74 152.70 136.84 165.72
  C 135.64 169.70 135.30 175.37 134.67 180.09
  Q 133.71 187.17 134.39 190.93
  C 138.57 214.09 171.25 213.46 174.91 190.11
  Q 175.29 187.67 175.62 184.86
  Z
  M 327.75 168.61
  C 310.63 171.45 309.49 183.16 307.65 197.51
  Q 306.74 204.67 307.15 208.02
  C 309.49 226.98 333.65 232.58 344.46 217.18
  Q 348.15 211.93 348.45 202.89
  Q 350.71 193.24 350.01 186.25
  C 348.95 175.88 338.36 167.63 327.75 168.61
  Z
  M 175.28 309.63
  C 214.93 311.67 254.81 322.49 291.68 339.01
  C 296.07 340.98 300.06 341.24 303.67 338.26
  C 308.11 334.60 308.76 327.86 304.81 323.53
  Q 303.14 321.70 298.74 319.68
  C 259.65 301.78 217.60 291.04 174.50 289.23
  C 167.81 288.95 163.01 292.84 163.04 299.60
  C 163.08 306.82 168.63 309.29 175.28 309.63
  Z"
/>
<g fill="#aa7346">
<path d="
  M 195.31 115.19
  C 206.66 123.40 196.13 140.28 182.63 131.22
  C 159.12 115.46 131.06 112.03 105.02 124.29
  C 91.08 130.85 81.62 112.75 96.63 105.54
  C 128.93 90.02 166.50 94.35 195.31 115.19
  Z"
/>
<rect x="-52.21" y="-10.29" transform="translate(346.86,132.13) rotate(-11.3)" width="104.42" height="20.58" rx="10.09"/>
<path d="
  M 291.68 339.01
  C 254.81 322.49 214.93 311.67 175.28 309.63
  C 168.63 309.29 163.08 306.82 163.04 299.60
  C 163.01 292.84 167.81 288.95 174.50 289.23
  C 217.60 291.04 259.65 301.78 298.74 319.68
  Q 303.14 321.70 304.81 323.53
  C 308.76 327.86 308.11 334.60 303.67 338.26
  C 300.06 341.24 296.07 340.98 291.68 339.01
  Z"
/>
</g>
<g fill="#ffd164">
<path d="
  M 90.41 60.75
  Q 90.49 62.64 89.69 63.69
  C 47.04 119.99 29.44 190.61 40.50 260.00
  Q 49.06 313.67 80.03 360.59
  Q 77.62 369.62 70.31 378.57
  C 62.86 387.69 56.90 396.22 52.67 408.45
  C 52.41 409.20 52.82 410.48 51.75 410.55
  Q 3.93 346.63 0.00 266.43
  L 0.00 244.22
  C 4.08 172.79 35.67 106.97 90.41 60.75
  Z"
/>
<path d="
  M 99.02 289.01
  Q 110.24 290.20 113.95 298.80
  Q 115.44 302.25 115.51 309.96
  Q 115.67 328.29 115.69 346.65
  Q 115.71 358.56 117.24 363.20
  Q 120.86 374.17 132.38 378.40
  C 137.41 380.25 143.41 379.64 148.96 379.87
  Q 153.84 380.07 157.56 380.05
  Q 221.46 379.73 285.36 379.95
  C 296.60 379.99 304.16 383.99 305.58 396.28
  C 300.63 396.64 294.34 396.27 290.92 396.26
  Q 242.21 396.18 193.50 396.33
  Q 188.35 396.34 186.17 397.41
  C 181.44 399.71 180.28 407.23 184.47 410.67
  Q 186.44 412.29 190.46 412.69
  Q 196.37 413.28 201.84 413.06
  Q 214.13 417.81 214.72 429.52
  Q 198.77 429.46 183.38 429.52
  C 170.14 429.57 171.00 446.02 182.47 445.90
  Q 185.33 445.87 185.38 445.88
  Q 189.60 446.04 193.11 446.17
  Q 203.67 449.44 205.98 458.93
  A 1.39 1.39 0.0 0 0 206.87 459.91
  C 289.98 489.16 380.10 474.41 450.00 420.98
  Q 450.87 420.32 451.87 420.87
  C 405.09 476.33 338.01 509.03 265.42 512.00
  L 246.21 512.00
  Q 220.68 510.87 196.02 505.02
  Q 196.05 504.81 195.89 504.60
  Q 195.63 504.25 195.84 503.87
  Q 197.91 500.24 198.02 496.05
  Q 198.04 495.50 197.49 495.50
  Q 150.04 495.49 102.60 495.50
  C 80.76 495.51 66.67 482.64 66.10 460.44
  Q 65.66 443.07 66.33 426.95
  C 66.85 414.55 70.45 404.92 78.06 395.58
  C 84.07 388.19 90.25 379.83 93.72 371.37
  C 97.98 360.99 98.98 351.96 98.99 339.60
  Q 99.00 314.57 99.02 289.01
  Z
  M 175.71 462.52
  C 161.91 462.55 161.90 478.84 175.26 478.93
  C 189.14 479.02 202.42 481.04 206.44 464.38
  A 1.52 1.52 0.0 0 0 204.96 462.51
  Q 190.74 462.48 175.71 462.52
  Z"
/>
</g>
<g fill="#7d5046">
<path d="
  M 155.05 150.53
  Q 152.38 169.29 151.52 178.25
  C 150.04 193.46 167.83 197.59 175.62 184.86
  Q 175.29 187.67 174.91 190.11
  C 171.25 213.46 138.57 214.09 134.39 190.93
  Q 133.71 187.17 134.67 180.09
  C 135.30 175.37 135.64 169.70 136.84 165.72
  Q 140.74 152.70 155.05 150.53
  Z"
/>
<path d="
  M 327.75 168.61
  Q 326.22 181.90 324.55 194.81
  C 322.49 210.79 340.12 216.69 348.45 202.89
  Q 348.15 211.93 344.46 217.18
  C 333.65 232.58 309.49 226.98 307.15 208.02
  Q 306.74 204.67 307.65 197.51
  C 309.49 183.16 310.63 171.45 327.75 168.61
  Z"
/>
</g>
<g fill="#ffc350">
<path d="
  M 99.02 289.01
  Q 99.00 314.57 98.99 339.60
  C 98.98 351.96 97.98 360.99 93.72 371.37
  C 90.25 379.83 84.07 388.19 78.06 395.58
  C 70.45 404.92 66.85 414.55 66.33 426.95
  Q 65.66 443.07 66.10 460.44
  C 66.67 482.64 80.76 495.51 102.60 495.50
  Q 150.04 495.49 197.49 495.50
  Q 198.04 495.50 198.02 496.05
  Q 197.91 500.24 195.84 503.87
  Q 195.63 504.25 195.89 504.60
  Q 196.05 504.81 196.02 505.02
  C 195.65 504.94 195.41 504.94 195.16 505.25
  Q 190.99 510.41 184.42 512.00
  L 94.19 512.00
  C 71.01 508.17 54.24 493.30 50.21 470.44
  C 48.28 459.51 49.26 443.23 49.25 430.15
  C 49.24 423.59 50.52 416.85 51.75 410.55
  C 52.82 410.48 52.41 409.20 52.67 408.45
  C 56.90 396.22 62.86 387.69 70.31 378.57
  Q 77.62 369.62 80.03 360.59
  Q 82.46 352.84 82.48 345.93
  Q 82.54 330.11 82.52 314.28
  Q 82.50 302.83 84.08 298.93
  Q 87.65 290.09 99.02 289.01
  Z"
/>
<path d="
  M 305.58 396.28
  C 305.06 406.54 297.77 412.97 287.68 412.97
  Q 245.28 412.98 201.84 413.06
  Q 196.37 413.28 190.46 412.69
  Q 186.44 412.29 184.47 410.67
  C 180.28 407.23 181.44 399.71 186.17 397.41
  Q 188.35 396.34 193.50 396.33
  Q 242.21 396.18 290.92 396.26
  C 294.34 396.27 300.63 396.64 305.58 396.28
  Z"
/>
<path d="
  M 214.72 429.52
  Q 213.86 441.17 203.50 444.95
  C 200.35 446.09 196.70 445.99 193.11 446.17
  Q 189.60 446.04 185.38 445.88
  Q 185.33 445.87 182.47 445.90
  C 171.00 446.02 170.14 429.57 183.38 429.52
  Q 198.77 429.46 214.72 429.52
  Z"
/>
<path d="
  M 175.26 478.93
  C 161.90 478.84 161.91 462.55 175.71 462.52
  Q 190.74 462.48 204.96 462.51
  A 1.52 1.52 0.0 0 1 206.44 464.38
  C 202.42 481.04 189.14 479.02 175.26 478.93
  Z"
/>
</g>
<g fill="#9c6846">
<path d="
  M 155.05 150.53
  C 166.71 149.78 176.97 158.72 177.23 170.25
  Q 177.36 176.30 175.62 184.86
  C 167.83 197.59 150.04 193.46 151.52 178.25
  Q 152.38 169.29 155.05 150.53
  Z"
/>
<path d="
  M 348.45 202.89
  C 340.12 216.69 322.49 210.79 324.55 194.81
  Q 326.22 181.90 327.75 168.61
  C 338.36 167.63 348.95 175.88 350.01 186.25
  Q 350.71 193.24 348.45 202.89
  Z"
/>
</g>
</svg>
