<?xml version="1.0" encoding="utf-8"?>
<svg version="1.1" viewBox="0.00 0.00 512.00 512.00" xmlns="http://www.w3.org/2000/svg">
  <g stroke-width="2.00" fill="none" stroke-linecap="butt">
    <path stroke="#63663c" vector-effect="non-scaling-stroke" d=" M 320.72 22.02 C 330.86 31.60 337.87 41.95 339.79 56.00"/>
    <path stroke="#8b673f" vector-effect="non-scaling-stroke" d=" M 339.79 56.00 C 341.87 79.80 327.04 98.99 307.04 109.75"/>
    <path stroke="#a57245" vector-effect="non-scaling-stroke" d=" M 307.04 109.75 C 275.52 126.90 236.63 126.13 205.04 110.00"/>
    <path stroke="#8b673f" vector-effect="non-scaling-stroke" d=" M 205.04 110.00 C 184.79 98.75 169.80 79.43 172.21 55.25"/>
    <path stroke="#63663c" vector-effect="non-scaling-stroke" d=" M 172.21 55.25 C 174.78 40.42 181.36 32.53 191.31 22.01"/>
    <path stroke="#7a5f36" vector-effect="non-scaling-stroke" d=" M 294.08 61.20 A 38.07 30.48 0.0 0 0 256.01 30.72 A 38.07 30.48 0.0 0 0 217.94 61.20 A 38.07 30.48 0.0 0 0 256.01 91.68 A 38.07 30.48 0.0 0 0 294.08 61.20"/>
    <path stroke="#5b3233" vector-effect="non-scaling-stroke" d=" M 172.21 55.25 Q 163.81 55.99 155.39 55.81 C 137.68 55.42 120.02 55.56 102.41 55.76"/>
    <path stroke="#753d39" vector-effect="non-scaling-stroke" d=" M 102.41 55.76 L 0.00 55.70"/>
    <path stroke="#753d39" vector-effect="non-scaling-stroke" d=" M 512.00 55.73 L 409.50 55.79"/>
    <path stroke="#5b3233" vector-effect="non-scaling-stroke" d=" M 409.50 55.79 C 386.43 55.45 362.82 54.66 339.79 56.00"/>
    <path stroke="#9d3e3b" vector-effect="non-scaling-stroke" d=" M 205.04 110.00 L 204.84 132.64"/>
    <path stroke="#a27568" vector-effect="non-scaling-stroke" d=" M 204.84 132.64 Q 201.80 150.94 189.21 164.00"/>
    <path stroke="#6d4441" vector-effect="non-scaling-stroke" d=" M 189.21 164.00 Q 186.79 165.72 184.47 167.56 C 179.32 171.67 173.18 174.45 166.96 176.50"/>
    <path stroke="#a27568" vector-effect="non-scaling-stroke" d=" M 166.96 176.50 Q 141.70 182.48 120.95 166.36"/>
    <path stroke="#b38573" vector-effect="non-scaling-stroke" d=" M 120.95 166.36 Q 105.69 153.17 102.57 132.89"/>
    <path stroke="#a56642" vector-effect="non-scaling-stroke" d=" M 102.57 132.89 L 102.46 129.98"/>
    <path stroke="#9d3e3b" vector-effect="non-scaling-stroke" d=" M 102.46 129.98 L 102.41 55.76"/>
    <path stroke="#bf7148" vector-effect="non-scaling-stroke" d=" M 102.46 129.98 Q 101.65 130.66 102.10 132.78"/>
    <path stroke="#cd9079" vector-effect="non-scaling-stroke" d=" M 102.10 132.78 C 98.20 158.75 77.46 177.81 50.93 178.04"/>
    <path stroke="#bc806e" vector-effect="non-scaling-stroke" d=" M 50.93 178.04 L 44.54 177.75"/>
    <path stroke="#874f47" vector-effect="non-scaling-stroke" d=" M 44.54 177.75 Q 32.40 175.65 22.04 169.00"/>
    <path stroke="#9d3e3b" vector-effect="non-scaling-stroke" d=" M 409.50 55.79 L 409.55 131.70"/>
    <path stroke="#b38573" vector-effect="non-scaling-stroke" d=" M 409.55 131.70 C 402.65 187.68 326.79 194.75 309.34 141.95 Q 308.65 139.88 307.18 132.09"/>
    <path stroke="#9d3e3b" vector-effect="non-scaling-stroke" d=" M 307.18 132.09 L 307.04 109.75"/>
    <path stroke="#874f47" vector-effect="non-scaling-stroke" d=" M 489.99 169.17 C 482.36 172.95 477.20 176.04 467.52 177.68"/>
    <path stroke="#bc806e" vector-effect="non-scaling-stroke" d=" M 467.52 177.68 Q 456.13 178.88 444.75 175.54"/>
    <path stroke="#cd9079" vector-effect="non-scaling-stroke" d=" M 444.75 175.54 Q 414.70 163.78 409.55 131.70"/>
    <path stroke="#cd9079" vector-effect="non-scaling-stroke" d=" M 307.18 132.09 Q 303.41 156.36 283.50 170.04"/>
    <path stroke="#ad7267" vector-effect="non-scaling-stroke" d=" M 283.50 170.04 L 272.62 175.38"/>
    <path stroke="#cd9079" vector-effect="non-scaling-stroke" d=" M 272.62 175.38 Q 261.54 178.73 251.00 177.79"/>
    <path stroke="#bc806e" vector-effect="non-scaling-stroke" d=" M 251.00 177.79 C 226.60 175.09 208.76 156.70 204.84 132.64"/>
    <path stroke="#d5b880" vector-effect="non-scaling-stroke" d=" M 102.57 132.89 Q 102.99 132.65 102.10 132.78"/>
    <path stroke="#d2c7a6" vector-effect="non-scaling-stroke" d=" M 444.75 175.54 L 414.99 289.50"/>
    <path stroke="#8b8471" vector-effect="non-scaling-stroke" d=" M 414.99 289.50 L 367.82 289.52 Q 367.28 289.52 367.28 290.06 L 367.27 467.69"/>
    <path stroke="#c7ac7b" vector-effect="non-scaling-stroke" d=" M 367.27 467.69 L 367.21 473.50"/>
    <path stroke="#d2c7a6" vector-effect="non-scaling-stroke" d=" M 367.21 473.50 L 362.75 489.71"/>
    <path stroke="#9d967f" vector-effect="non-scaling-stroke" d=" M 362.75 489.71 L 289.50 489.71"/>
    <path stroke="#c7ac7b" vector-effect="non-scaling-stroke" d=" M 289.50 489.71 L 289.47 366.65"/>
    <path stroke="#d5b880" vector-effect="non-scaling-stroke" d=" M 289.47 366.65 L 333.65 366.57 A 0.34 0.33 0.0 0 0 333.99 366.24 L 334.01 346.00 Q 334.01 345.41 333.41 345.40 L 328.40 345.34"/>
    <path stroke="#f1eaca" vector-effect="non-scaling-stroke" d=" M 328.40 345.34 L 295.29 278.50"/>
    <path stroke="#d5b880" vector-effect="non-scaling-stroke" d=" M 295.29 278.50 L 309.18 278.29 Q 309.66 278.28 309.81 277.82 C 316.29 257.55 304.09 238.76 283.71 234.00"/>
    <path stroke="#c3b99f" vector-effect="non-scaling-stroke" d=" M 283.71 234.00 L 283.50 170.04"/>
    <path stroke="#d2c7a6" vector-effect="non-scaling-stroke" d=" M 120.95 166.36 L 103.29 233.71"/>
    <path stroke="#9d967f" vector-effect="non-scaling-stroke" d=" M 103.29 233.71 L 45.04 233.72 Q 44.50 233.72 44.50 233.19 L 44.46 207.25"/>
    <path stroke="#bbb97d" vector-effect="non-scaling-stroke" d=" M 44.46 207.25 L 45.05 200.30"/>
    <path stroke="#d2c7a6" vector-effect="non-scaling-stroke" d=" M 45.05 200.30 L 50.93 178.04"/>
    <path stroke="#d2c7a6" vector-effect="non-scaling-stroke" d=" M 251.00 177.79 Q 250.10 182.14 248.04 190.01 Q 236.47 234.17 192.26 404.00 Q 189.78 413.53 189.29 420.25"/>
    <path stroke="#8c8573" vector-effect="non-scaling-stroke" d=" M 189.29 420.25 L 189.21 164.00"/>
    <path stroke="#9d967f" vector-effect="non-scaling-stroke" d=" M 189.29 420.25 L 189.28 489.23 Q 189.28 489.73 189.79 489.73 L 267.25 489.71"/>
    <path stroke="#816b48" vector-effect="non-scaling-stroke" d=" M 267.25 489.71 L 289.50 489.71"/>
    <path stroke="#8c8573" vector-effect="non-scaling-stroke" d=" M 362.75 489.71 L 367.21 489.75"/>
    <path stroke="#816b48" vector-effect="non-scaling-stroke" d=" M 367.21 489.75 L 367.26 500.25 Q 367.26 500.75 367.76 500.75 L 388.79 500.75 Q 389.46 500.75 389.47 500.08 L 389.54 489.75"/>
    <path stroke="#8c8573" vector-effect="non-scaling-stroke" d=" M 389.54 489.75 L 466.82 489.68 Q 467.43 489.68 467.43 489.07 L 467.50 467.54"/>
    <path stroke="#45423e" vector-effect="non-scaling-stroke" d=" M 467.50 467.54 L 478.68 467.59"/>
    <path stroke="#816b48" vector-effect="non-scaling-stroke" d=" M 478.68 467.59 L 478.61 500.35 Q 478.61 500.79 479.06 500.79 L 500.27 500.73 Q 500.83 500.73 500.84 500.17 L 501.04 490.00"/>
    <path stroke="#8c8573" vector-effect="non-scaling-stroke" d=" M 44.54 177.75 L 44.46 198.48"/>
    <path stroke="#75784a" vector-effect="non-scaling-stroke" d=" M 44.46 198.48 Q 43.67 202.85 44.46 207.25"/>
    <path stroke="#8c8573" vector-effect="non-scaling-stroke" d=" M 103.29 233.71 L 166.47 233.72 Q 167.03 233.72 167.03 233.16 L 166.96 176.50"/>
    <path stroke="#9d967f" vector-effect="non-scaling-stroke" d=" M 44.54 461.75 L 44.47 489.19 A 0.59 0.59 0.0 0 0 45.06 489.78 L 103.25 489.71"/>
    <path stroke="#8c8573" vector-effect="non-scaling-stroke" d=" M 103.25 489.71 L 166.51 489.72 Q 167.00 489.72 167.00 489.24 L 167.00 379.01 Q 167.00 378.53 166.52 378.53 C 159.40 378.50 150.03 379.85 146.23 372.47 Q 143.54 367.25 146.28 362.04 C 150.16 354.67 159.44 356.29 166.51 356.23 A 0.50 0.50 0.0 0 0 167.00 355.73 L 167.00 256.49 Q 167.00 256.01 166.52 256.02 L 164.11 256.06"/>
    <path stroke="#9d967f" vector-effect="non-scaling-stroke" d=" M 164.11 256.06 L 97.21 256.09"/>
    <path stroke="#8c8573" vector-effect="non-scaling-stroke" d=" M 97.21 256.09 L 45.08 256.02 A 0.59 0.58 90.0 0 0 44.50 256.61 L 44.54 461.75"/>
    <path stroke="#d2c7a6" vector-effect="non-scaling-stroke" d=" M 97.21 256.09 Q 71.89 353.52 46.49 450.75 Q 44.70 457.60 44.54 461.75"/>
    <path stroke="#d2c7a6" vector-effect="non-scaling-stroke" d=" M 164.11 256.06 L 103.25 489.71"/>
    <path stroke="#45423e" vector-effect="non-scaling-stroke" d=" M 490.04 289.25 L 467.53 289.44"/>
    <path stroke="#8c8573" vector-effect="non-scaling-stroke" d=" M 467.53 289.44 L 467.52 177.68"/>
    <path stroke="#b59a6e" vector-effect="non-scaling-stroke" d=" M 283.71 234.00 L 272.75 233.96"/>
    <path stroke="#c3b99f" vector-effect="non-scaling-stroke" d=" M 272.75 233.96 L 272.62 175.38"/>
    <path stroke="#d5b880" vector-effect="non-scaling-stroke" d=" M 272.75 233.96 C 252.25 238.87 240.40 257.40 246.73 277.80 Q 246.86 278.25 247.33 278.25 L 261.50 278.29"/>
    <path stroke="#f1eaca" vector-effect="non-scaling-stroke" d=" M 261.50 278.29 L 228.19 345.32"/>
    <path stroke="#d5b880" vector-effect="non-scaling-stroke" d=" M 228.19 345.32 L 223.00 345.50 Q 222.49 345.51 222.49 346.03 L 222.61 365.96 Q 222.62 366.53 223.19 366.53 L 267.23 366.71"/>
    <path stroke="#c7ac7b" vector-effect="non-scaling-stroke" d=" M 267.23 366.71 L 267.25 489.71"/>
    <path stroke="#7a7365" vector-effect="non-scaling-stroke" d=" M 467.53 289.44 L 414.99 289.50"/>
    <path stroke="#aaa971" vector-effect="non-scaling-stroke" d=" M 45.05 200.30 L 44.46 198.48"/>
    <path stroke="#e3ca99" vector-effect="non-scaling-stroke" d=" M 295.29 278.50 L 289.50 278.21"/>
    <path stroke="#deb660" vector-effect="non-scaling-stroke" d=" M 289.50 278.21 Q 289.78 267.73 289.06 264.98 C 287.22 257.95 280.73 254.47 274.01 257.09 C 265.37 260.45 267.24 271.06 267.25 278.21"/>
    <path stroke="#e3ca99" vector-effect="non-scaling-stroke" d=" M 267.25 278.21 L 261.50 278.29"/>
    <path stroke="#fae8aa" vector-effect="non-scaling-stroke" d=" M 289.50 278.21 L 267.25 278.21"/>
    <path stroke="#e3ca99" vector-effect="non-scaling-stroke" d=" M 328.40 345.34 L 228.19 345.32"/>
    <path stroke="#6e593a" vector-effect="non-scaling-stroke" d=" M 501.02 467.88 L 478.68 467.59"/>
    <path stroke="#7a7365" vector-effect="non-scaling-stroke" d=" M 467.50 467.54 L 389.59 467.53"/>
    <path stroke="#6e593a" vector-effect="non-scaling-stroke" d=" M 389.59 467.53 L 367.27 467.69"/>
    <path stroke="#8c8884" vector-effect="non-scaling-stroke" d=" M 478.34 355.85 A 10.78 10.78 0.0 0 0 467.56 345.07 L 400.64 345.07 A 10.78 10.78 0.0 0 0 389.86 355.85 L 389.86 356.43 A 10.78 10.78 0.0 0 0 400.64 367.21 L 467.56 367.21 A 10.78 10.78 0.0 0 0 478.34 356.43 L 478.34 355.85"/>
    <path stroke="#8c8884" vector-effect="non-scaling-stroke" d=" M 456.04 400.11 A 10.44 10.44 0.0 0 0 445.60 389.67 L 422.62 389.67 A 10.44 10.44 0.0 0 0 412.18 400.11 L 412.18 401.19 A 10.44 10.44 0.0 0 0 422.62 411.63 L 445.60 411.63 A 10.44 10.44 0.0 0 0 456.04 401.19 L 456.04 400.11"/>
    <path stroke="#b88d4a" vector-effect="non-scaling-stroke" d=" M 289.47 366.65 L 267.23 366.71"/>
    <path stroke="#b69c6f" vector-effect="non-scaling-stroke" d=" M 389.59 467.53 L 389.54 489.75"/>
    <path stroke="#b69c6f" vector-effect="non-scaling-stroke" d=" M 367.21 489.75 L 367.21 473.50"/>
  </g>
  <g fill="#323030">
    <path d=" M 191.31 22.01 C 181.36 32.53 174.78 40.42 172.21 55.25 Q 163.81 55.99 155.39 55.81 C 137.68 55.42 120.02 55.56 102.41 55.76 L 0.00 55.70 L 0.00 22.01 L 191.31 22.01 Z" style="fill: rgb(158, 149, 158);"/>
    <path d=" M 320.72 22.02 L 512.00 22.02 L 512.00 55.73 L 409.50 55.79 C 386.43 55.45 362.82 54.66 339.79 56.00 C 337.87 41.95 330.86 31.60 320.72 22.02 Z" style="fill: rgb(158, 149, 158);"/>
    <path d=" M 490.04 289.25 L 499.77 289.43 Q 500.99 289.45 500.99 290.67 L 501.02 467.88 L 478.68 467.59 L 467.50 467.54 L 389.59 467.53 L 367.27 467.69 L 367.28 290.06 Q 367.28 289.52 367.82 289.52 L 414.99 289.50 L 467.53 289.44 L 490.04 289.25 Z M 478.34 355.85 A 10.78 10.78 0.0 0 0 467.56 345.07 L 400.64 345.07 A 10.78 10.78 0.0 0 0 389.86 355.85 L 389.86 356.43 A 10.78 10.78 0.0 0 0 400.64 367.21 L 467.56 367.21 A 10.78 10.78 0.0 0 0 478.34 356.43 L 478.34 355.85 Z M 456.04 400.11 A 10.44 10.44 0.0 0 0 445.60 389.67 L 422.62 389.67 A 10.44 10.44 0.0 0 0 412.18 400.11 L 412.18 401.19 A 10.44 10.44 0.0 0 0 422.62 411.63 L 445.60 411.63 A 10.44 10.44 0.0 0 0 456.04 401.19 L 456.04 400.11 Z" style="fill: rgb(158, 149, 158);"/>
  </g>
  <g fill="#e3d7b1">
    <path d=" M 409.55 131.70 Q 414.70 163.78 444.75 175.54 L 414.99 289.50 L 367.82 289.52 Q 367.28 289.52 367.28 290.06 L 367.27 467.69 L 367.21 473.50 L 362.75 489.71 L 289.50 489.71 L 289.47 366.65 L 333.65 366.57 A 0.34 0.33 0.0 0 0 333.99 366.24 L 334.01 346.00 Q 334.01 345.41 333.41 345.40 L 328.40 345.34 L 295.29 278.50 L 309.18 278.29 Q 309.66 278.28 309.81 277.82 C 316.29 257.55 304.09 238.76 283.71 234.00 L 283.50 170.04 Q 303.41 156.36 307.18 132.09 Q 308.65 139.88 309.34 141.95 C 326.79 194.75 402.65 187.68 409.55 131.70 Z"/>
    <path d=" M 102.10 132.78 Q 102.99 132.65 102.57 132.89 Q 105.69 153.17 120.95 166.36 L 103.29 233.71 L 45.04 233.72 Q 44.50 233.72 44.50 233.19 L 44.46 207.25 L 45.05 200.30 L 50.93 178.04 C 77.46 177.81 98.20 158.75 102.10 132.78 Z"/>
    <path d=" M 272.62 175.38 L 272.75 233.96 C 252.25 238.87 240.40 257.40 246.73 277.80 Q 246.86 278.25 247.33 278.25 L 261.50 278.29 L 228.19 345.32 L 223.00 345.50 Q 222.49 345.51 222.49 346.03 L 222.61 365.96 Q 222.62 366.53 223.19 366.53 L 267.23 366.71 L 267.25 489.71 L 189.79 489.73 Q 189.28 489.73 189.28 489.23 L 189.29 420.25 Q 189.78 413.53 192.26 404.00 Q 236.47 234.17 248.04 190.01 Q 250.10 182.14 251.00 177.79 Q 261.54 178.73 272.62 175.38 Z"/>
    <path d=" M 97.21 256.09 L 164.11 256.06 L 103.25 489.71 L 45.06 489.78 A 0.59 0.59 0.0 0 1 44.47 489.19 L 44.54 461.75 Q 44.70 457.60 46.49 450.75 Q 71.89 353.52 97.21 256.09 Z"/>
  </g>
  <g fill="#b74941">
    <path d=" M 0.00 55.70 L 102.41 55.76 L 102.46 129.98 Q 101.65 130.66 102.10 132.78 C 98.20 158.75 77.46 177.81 50.93 178.04 L 44.54 177.75 Q 32.40 175.65 22.04 169.00 Q 1.83 153.91 0.00 128.70 L 0.00 55.70 Z" style="fill: rgb(214, 136, 130);"/>
    <path d=" M 512.00 55.73 L 512.00 128.56 C 511.18 142.78 505.35 155.41 494.76 164.81 Q 492.31 166.99 489.99 169.17 C 482.36 172.95 477.20 176.04 467.52 177.68 Q 456.13 178.88 444.75 175.54 Q 414.70 163.78 409.55 131.70 L 409.50 55.79 L 512.00 55.73 Z" style="fill: rgb(214, 136, 130);"/>
    <path d=" M 307.04 109.75 L 307.18 132.09 Q 303.41 156.36 283.50 170.04 L 272.62 175.38 Q 261.54 178.73 251.00 177.79 C 226.60 175.09 208.76 156.70 204.84 132.64 L 205.04 110.00 C 236.63 126.13 275.52 126.90 307.04 109.75 Z" style="fill: rgb(214, 136, 130);"/>
  </g>
  <g fill="#939b48">
    <path d=" M 253.81 0.00 L 258.56 0.00 C 281.84 1.08 302.52 7.29 320.72 22.02 C 330.86 31.60 337.87 41.95 339.79 56.00 C 341.87 79.80 327.04 98.99 307.04 109.75 C 275.52 126.90 236.63 126.13 205.04 110.00 C 184.79 98.75 169.80 79.43 172.21 55.25 C 174.78 40.42 181.36 32.53 191.31 22.01 C 209.40 7.23 230.69 0.90 253.81 0.00 Z M 294.08 61.20 A 38.07 30.48 0.0 0 0 256.01 30.72 A 38.07 30.48 0.0 0 0 217.94 61.20 A 38.07 30.48 0.0 0 0 256.01 91.68 A 38.07 30.48 0.0 0 0 294.08 61.20 Z" style="fill: rgb(111, 174, 150);"/>
    <path d=" M 44.46 198.48 L 45.05 200.30 L 44.46 207.25 Q 43.67 202.85 44.46 198.48 Z" style="fill: rgb(111, 174, 150);"/>
  </g>
  <g fill="#57544c">
    <path d=" M 189.21 164.00 L 189.29 420.25 L 189.28 489.23 Q 189.28 489.73 189.79 489.73 L 267.25 489.71 L 289.50 489.71 L 362.75 489.71 L 367.21 489.75 L 367.26 500.25 Q 367.26 500.75 367.76 500.75 L 388.79 500.75 Q 389.46 500.75 389.47 500.08 L 389.54 489.75 L 466.82 489.68 Q 467.43 489.68 467.43 489.07 L 467.50 467.54 L 478.68 467.59 L 478.61 500.35 Q 478.61 500.79 479.06 500.79 L 500.27 500.73 Q 500.83 500.73 500.84 500.17 L 501.04 490.00 C 515.70 491.36 515.15 510.34 500.93 512.00 L 10.69 512.00 C -1.32 510.39 -3.94 494.83 7.48 490.64 C 11.37 489.22 16.93 489.79 21.48 489.74 Q 22.01 489.73 22.01 489.20 L 22.04 169.00 Q 32.40 175.65 44.54 177.75 L 44.46 198.48 Q 43.67 202.85 44.46 207.25 L 44.50 233.19 Q 44.50 233.72 45.04 233.72 L 103.29 233.71 L 166.47 233.72 Q 167.03 233.72 167.03 233.16 L 166.96 176.50 C 173.18 174.45 179.32 171.67 184.47 167.56 Q 186.79 165.72 189.21 164.00 Z M 44.54 461.75 L 44.47 489.19 A 0.59 0.59 0.0 0 0 45.06 489.78 L 103.25 489.71 L 166.51 489.72 Q 167.00 489.72 167.00 489.24 L 167.00 379.01 Q 167.00 378.53 166.52 378.53 C 159.40 378.50 150.03 379.85 146.23 372.47 Q 143.54 367.25 146.28 362.04 C 150.16 354.67 159.44 356.29 166.51 356.23 A 0.50 0.50 0.0 0 0 167.00 355.73 L 167.00 256.49 Q 167.00 256.01 166.52 256.02 L 164.11 256.06 L 97.21 256.09 L 45.08 256.02 A 0.59 0.58 90.0 0 0 44.50 256.61 L 44.54 461.75 Z" style="fill: rgb(143, 143, 143);"/>
    <path d=" M 489.99 169.17 L 490.04 289.25 L 467.53 289.44 L 467.52 177.68 C 477.20 176.04 482.36 172.95 489.99 169.17 Z" style="fill: rgb(143, 143, 143);"/>
  </g>
  <g fill="#833335">
    <path d=" M 172.21 55.25 C 169.80 79.43 184.79 98.75 205.04 110.00 L 204.84 132.64 Q 201.80 150.94 189.21 164.00 Q 186.79 165.72 184.47 167.56 C 179.32 171.67 173.18 174.45 166.96 176.50 Q 141.70 182.48 120.95 166.36 Q 105.69 153.17 102.57 132.89 L 102.46 129.98 L 102.41 55.76 C 120.02 55.56 137.68 55.42 155.39 55.81 Q 163.81 55.99 172.21 55.25 Z" style="fill: rgb(166, 111, 113);"/>
    <path d=" M 409.50 55.79 L 409.55 131.70 C 402.65 187.68 326.79 194.75 309.34 141.95 Q 308.65 139.88 307.18 132.09 L 307.04 109.75 C 327.04 98.99 341.87 79.80 339.79 56.00 C 362.82 54.66 386.43 55.45 409.50 55.79 Z" style="fill: rgb(166, 111, 113);"/>
  </g>
  <g fill="#c1b69a">
    <path d=" M 204.84 132.64 C 208.76 156.70 226.60 175.09 251.00 177.79 Q 250.10 182.14 248.04 190.01 Q 236.47 234.17 192.26 404.00 Q 189.78 413.53 189.29 420.25 L 189.21 164.00 Q 201.80 150.94 204.84 132.64 Z"/>
    <path d=" M 120.95 166.36 Q 141.70 182.48 166.96 176.50 L 167.03 233.16 Q 167.03 233.72 166.47 233.72 L 103.29 233.71 L 120.95 166.36 Z"/>
    <path d=" M 444.75 175.54 Q 456.13 178.88 467.52 177.68 L 467.53 289.44 L 414.99 289.50 L 444.75 175.54 Z"/>
    <path d=" M 44.54 177.75 L 50.93 178.04 L 45.05 200.30 L 44.46 198.48 L 44.54 177.75 Z"/>
    <path d=" M 97.21 256.09 Q 71.89 353.52 46.49 450.75 Q 44.70 457.60 44.54 461.75 L 44.50 256.61 A 0.59 0.58 -90.0 0 1 45.08 256.02 L 97.21 256.09 Z"/>
    <path d=" M 164.11 256.06 L 166.52 256.02 Q 167.00 256.01 167.00 256.49 L 167.00 355.73 A 0.50 0.50 0.0 0 1 166.51 356.23 C 159.44 356.29 150.16 354.67 146.28 362.04 Q 143.54 367.25 146.23 372.47 C 150.03 379.85 159.40 378.50 166.52 378.53 Q 167.00 378.53 167.00 379.01 L 167.00 489.24 Q 167.00 489.72 166.51 489.72 L 103.25 489.71 L 164.11 256.06 Z"/>
    <path d=" M 389.59 467.53 L 467.50 467.54 L 467.43 489.07 Q 467.43 489.68 466.82 489.68 L 389.54 489.75 L 389.59 467.53 Z"/>
    <path d=" M 367.21 473.50 L 367.21 489.75 L 362.75 489.71 L 367.21 473.50 Z"/>
  </g>
  <g fill="#c6984f">
    <path d=" M 102.46 129.98 L 102.57 132.89 Q 102.99 132.65 102.10 132.78 Q 101.65 130.66 102.46 129.98 Z"/>
    <path d=" M 283.71 234.00 C 304.09 238.76 316.29 257.55 309.81 277.82 Q 309.66 278.28 309.18 278.29 L 295.29 278.50 L 289.50 278.21 Q 289.78 267.73 289.06 264.98 C 287.22 257.95 280.73 254.47 274.01 257.09 C 265.37 260.45 267.24 271.06 267.25 278.21 L 261.50 278.29 L 247.33 278.25 Q 246.86 278.25 246.73 277.80 C 240.40 257.40 252.25 238.87 272.75 233.96 L 283.71 234.00 Z"/>
    <path d=" M 228.19 345.32 L 328.40 345.34 L 333.41 345.40 Q 334.01 345.41 334.01 346.00 L 333.99 366.24 A 0.34 0.33 -0.0 0 1 333.65 366.57 L 289.47 366.65 L 267.23 366.71 L 223.19 366.53 Q 222.62 366.53 222.61 365.96 L 222.49 346.03 Q 222.49 345.51 223.00 345.50 L 228.19 345.32 Z"/>
  </g>
  <path fill="#fffce3" d=" M 261.50 278.29 L 267.25 278.21 L 289.50 278.21 L 295.29 278.50 L 328.40 345.34 L 228.19 345.32 L 261.50 278.29 Z"/>
  <g fill="#aa8144">
    <path d=" M 289.47 366.65 L 289.50 489.71 L 267.25 489.71 L 267.23 366.71 L 289.47 366.65 Z"/>
    <path d=" M 389.59 467.53 L 389.54 489.75 L 389.47 500.08 Q 389.46 500.75 388.79 500.75 L 367.76 500.75 Q 367.26 500.75 367.26 500.25 L 367.21 489.75 L 367.21 473.50 L 367.27 467.69 L 389.59 467.53 Z"/>
    <path d=" M 478.68 467.59 L 501.02 467.88 L 501.04 490.00 L 500.84 500.17 Q 500.83 500.73 500.27 500.73 L 479.06 500.79 Q 478.61 500.79 478.61 500.35 L 478.68 467.59 Z"/>
  </g>
  <g fill="#e5dfd7">
    <rect x="389.86" y="345.07" width="88.48" height="22.14" rx="10.78"/>
    <rect x="412.18" y="389.67" width="43.86" height="21.96" rx="10.44"/>
  </g>
  <ellipse cx="256.01" cy="61.20" rx="38.07" ry="30.48" style="fill: rgb(185, 128, 128);"/>
  <path fill="#f5d470" d=" M 289.50 278.21 L 267.25 278.21 C 267.24 271.06 265.37 260.45 274.01 257.09 C 280.73 254.47 287.22 257.95 289.06 264.98 Q 289.78 267.73 289.50 278.21 Z"/>
  <path fill="#a39b8d" d=" M 283.50 170.04 L 283.71 234.00 L 272.75 233.96 L 272.62 175.38 L 283.50 170.04 Z"/>
</svg>