<?xml version="1.0" encoding="utf-8"?>
<svg version="1.1" viewBox="0.00 0.00 512.00 512.00" xmlns="http://www.w3.org/2000/svg">
  <g stroke-width="2.00" fill="none" stroke-linecap="butt">
    <path stroke="#fed3ad" vector-effect="non-scaling-stroke" d=" M 375.78 0.00 Q 375.90 1.15 377.09 2.26 Q 377.46 2.60 377.46 3.10 L 377.37 131.99"/>
    <path stroke="#c8afa7" vector-effect="non-scaling-stroke" d=" M 337.01 131.97 L 322.01 131.95"/>
    <path stroke="#c8afa7" vector-effect="non-scaling-stroke" d=" M 300.44 131.91 L 285.45 131.94"/>
    <path stroke="#c8afa7" vector-effect="non-scaling-stroke" d=" M 263.75 131.90 L 248.75 131.97"/>
    <path stroke="#c8afa7" vector-effect="non-scaling-stroke" d=" M 227.17 131.96 L 212.19 131.97"/>
    <path stroke="#c8afa7" vector-effect="non-scaling-stroke" d=" M 190.50 131.93 L 175.50 131.98"/>
    <path stroke="#feaea2" vector-effect="non-scaling-stroke" d=" M 187.56 89.71 Q 187.08 89.34 187.45 88.86 Q 196.96 76.58 206.23 63.99 Q 210.53 58.15 212.72 51.24 C 223.03 18.84 173.97 4.29 164.23 36.47 C 161.37 45.92 171.91 51.84 177.04 44.29 C 177.95 42.96 178.35 41.15 179.01 39.56 C 182.21 31.80 191.92 31.38 197.19 37.25 C 201.19 41.71 198.15 49.60 194.69 54.24 Q 181.82 71.48 169.20 88.91 C 162.93 97.59 166.19 104.66 177.00 104.74 Q 185.62 104.81 209.69 104.71 C 219.12 104.68 220.52 89.85 207.40 89.73 Q 197.67 89.65 187.94 90.02 Q 187.90 90.02 187.87 89.99 Q 187.72 89.84 187.56 89.71"/>
    <path stroke="#feaea2" vector-effect="non-scaling-stroke" d=" M 263.27 68.67 Q 263.22 51.45 263.23 34.23 C 263.25 18.96 248.14 14.13 240.05 27.60 C 231.22 42.29 223.14 57.36 214.48 72.13 C 212.11 76.17 212.90 81.11 217.05 83.24 Q 219.03 84.26 224.17 84.24 Q 235.87 84.21 247.71 84.27 Q 248.29 84.28 248.28 84.86 C 248.21 89.19 247.18 96.51 248.68 100.25 C 250.92 105.84 258.60 106.58 261.80 101.37 C 263.93 97.90 263.00 89.35 263.01 84.93 A 0.68 0.67 -0.0 0 1 263.69 84.26 C 274.70 84.24 275.02 69.57 263.78 69.20 Q 263.27 69.18 263.27 68.67"/>
    <path stroke="#feaea2" vector-effect="non-scaling-stroke" d=" M 304.99 52.97 C 305.03 46.84 306.48 27.42 303.50 22.87 C 300.71 18.60 293.18 18.91 290.96 23.48 Q 290.00 25.45 290.00 30.18 Q 289.99 62.54 290.01 94.89 Q 290.01 99.51 291.37 101.70 C 293.94 105.86 301.44 105.79 303.89 101.13 Q 304.77 99.45 304.85 96.21 Q 305.20 82.70 304.89 69.17 A 0.66 0.65 -0.8 0 1 305.55 68.50 L 337.80 68.51 A 0.65 0.65 0.0 0 1 338.45 69.15 Q 338.60 82.48 338.50 95.82 C 338.43 104.78 349.20 108.68 352.74 100.40 Q 353.51 98.60 353.51 94.49 Q 353.48 62.84 353.52 31.20 Q 353.52 26.14 352.52 23.94 C 349.12 16.45 338.59 19.65 338.57 28.01 Q 338.54 40.48 338.47 53.09 Q 338.47 53.52 338.03 53.52 L 305.50 53.49 Q 304.98 53.49 304.99 52.97"/>
    <path stroke="#feaea2" vector-effect="non-scaling-stroke" d=" M 247.71 43.84 L 233.58 68.55 Q 233.18 69.25 233.98 69.25 L 247.62 69.25 Q 248.25 69.25 248.25 68.62 L 248.25 43.99 Q 248.25 42.90 247.71 43.84"/>
    <path stroke="#c2b9c2" vector-effect="non-scaling-stroke" d=" M 190.49 171.42 L 175.51 171.47"/>
    <path stroke="#c2b9c2" vector-effect="non-scaling-stroke" d=" M 227.12 171.39 L 212.19 171.41"/>
    <path stroke="#c2b9c2" vector-effect="non-scaling-stroke" d=" M 263.75 171.41 L 248.76 171.42"/>
    <path stroke="#c2b9c2" vector-effect="non-scaling-stroke" d=" M 300.48 171.42 L 285.45 171.47"/>
    <path stroke="#c2b9c2" vector-effect="non-scaling-stroke" d=" M 337.04 171.46 L 322.04 171.42"/>
    <path stroke="#ebe7eb" vector-effect="non-scaling-stroke" d=" M 431.18 171.48 L 431.23 221.40"/>
    <path stroke="#f9aab1" vector-effect="non-scaling-stroke" d=" M 431.23 221.40 L 379.98 221.31"/>
    <path stroke="#bdc3e9" vector-effect="non-scaling-stroke" d=" M 379.98 221.31 L 349.01 221.29"/>
    <path stroke="#cbcfed" vector-effect="non-scaling-stroke" d=" M 349.01 221.29 L 297.56 221.27"/>
    <path stroke="#f9aab1" vector-effect="non-scaling-stroke" d=" M 297.56 221.27 L 266.65 221.26"/>
    <path stroke="#f8b8bd" vector-effect="non-scaling-stroke" d=" M 266.65 221.26 L 215.32 221.27"/>
    <path stroke="#bdc3e9" vector-effect="non-scaling-stroke" d=" M 215.32 221.27 L 132.50 221.27"/>
    <path stroke="#f9aab1" vector-effect="non-scaling-stroke" d=" M 132.50 221.27 L 51.49 221.37"/>
    <path stroke="#f8b8bd" vector-effect="non-scaling-stroke" d=" M 51.49 221.37 L 50.50 221.50"/>
    <path stroke="#f0a1a9" vector-effect="non-scaling-stroke" d=" M 462.25 221.59 L 431.23 221.40"/>
    <path stroke="#fe727b" vector-effect="non-scaling-stroke" d=" M 51.49 221.37 L 100.21 221.51 A 1.79 1.78 90.0 0 1 101.99 223.30 Q 102.01 247.30 101.78 271.86 Q 101.69 281.44 100.18 285.96 C 97.46 294.10 89.63 302.86 80.32 304.29 Q 78.81 304.52 79.52 305.76"/>
    <path stroke="#c37da7" vector-effect="non-scaling-stroke" d=" M 132.50 221.27 L 132.78 221.78"/>
    <path stroke="#d089ab" vector-effect="non-scaling-stroke" d=" M 132.78 221.78 L 132.84 280.44"/>
    <path stroke="#f9aab1" vector-effect="non-scaling-stroke" d=" M 132.84 280.44 Q 126.51 306.47 99.61 305.76 C 98.94 305.74 98.83 306.01 98.51 306.52"/>
    <path stroke="#c28bb3" vector-effect="non-scaling-stroke" d=" M 215.32 221.27 L 215.12 278.97"/>
    <path stroke="#bdc3e9" vector-effect="non-scaling-stroke" d=" M 215.12 278.97 C 213.17 293.77 201.99 305.37 186.75 305.75 Q 176.91 305.99 160.67 305.53"/>
    <path stroke="#95a2e2" vector-effect="non-scaling-stroke" d=" M 160.67 305.53 Q 178.33 299.97 182.90 284.85 Q 184.31 280.20 184.27 270.04 Q 184.17 246.13 184.31 222.72 Q 184.32 221.75 183.34 221.75 L 132.78 221.78"/>
    <path stroke="#fe727b" vector-effect="non-scaling-stroke" d=" M 266.65 221.26 Q 266.38 247.11 266.52 272.89 Q 266.56 280.28 265.30 284.45 Q 260.66 299.77 243.93 305.50"/>
    <path stroke="#f8b8bd" vector-effect="non-scaling-stroke" d=" M 243.93 305.50 Q 223.77 304.47 216.63 285.53 C 215.85 283.47 215.62 281.20 215.12 278.97"/>
    <path stroke="#d089ab" vector-effect="non-scaling-stroke" d=" M 297.56 221.27 L 297.26 279.82"/>
    <path stroke="#f9aab1" vector-effect="non-scaling-stroke" d=" M 297.26 279.82 C 291.00 309.25 268.31 306.28 243.93 305.50"/>
    <path stroke="#95a2e2" vector-effect="non-scaling-stroke" d=" M 349.01 221.29 L 348.07 221.82 Q 347.99 221.87 348.08 221.89 Q 348.39 221.98 348.55 222.02 Q 349.03 222.15 349.03 222.66 Q 348.98 247.96 349.00 273.25 Q 349.02 298.36 324.81 305.62"/>
    <path stroke="#cbcfed" vector-effect="non-scaling-stroke" d=" M 324.81 305.62 Q 302.70 303.09 297.26 279.82"/>
    <path stroke="#c37da7" vector-effect="non-scaling-stroke" d=" M 379.98 221.31 Q 379.24 222.39 379.76 222.24"/>
    <path stroke="#c28bb3" vector-effect="non-scaling-stroke" d=" M 379.76 222.24 L 379.79 279.75"/>
    <path stroke="#bdc3e9" vector-effect="non-scaling-stroke" d=" M 379.79 279.75 Q 376.17 299.06 359.13 304.31 C 349.67 307.22 335.40 305.79 324.81 305.62"/>
    <path stroke="#f0a1a9" vector-effect="non-scaling-stroke" d=" M 414.01 305.95 L 408.99 305.91"/>
    <path stroke="#fe727b" vector-effect="non-scaling-stroke" d=" M 408.99 305.91 Q 408.77 305.68 408.74 305.44 Q 408.68 304.91 409.18 304.75 Q 425.40 299.68 429.79 285.03 Q 431.29 280.01 431.27 267.81 Q 431.22 245.24 431.26 223.49 A 1.93 1.92 -89.9 0 0 429.35 221.56 C 422.77 221.51 380.81 220.89 379.76 222.24"/>
    <path stroke="#f0afb5" vector-effect="non-scaling-stroke" d=" M 408.99 305.91 Q 392.62 304.90 383.11 290.63"/>
    <path stroke="#f8b8bd" vector-effect="non-scaling-stroke" d=" M 383.11 290.63 L 379.79 279.75"/>
    <path stroke="#cbcfed" vector-effect="non-scaling-stroke" d=" M 160.67 305.53 Q 149.99 305.28 141.66 297.34 Q 134.81 290.80 132.84 280.44"/>
    <path stroke="#ebe7eb" vector-effect="non-scaling-stroke" d=" M 383.11 290.63 L 383.05 480.98"/>
    <path stroke="#cbcfed" vector-effect="non-scaling-stroke" d=" M 383.05 480.98 L 374.94 480.96"/>
    <path stroke="#c2b9c2" vector-effect="non-scaling-stroke" d=" M 374.94 480.96 Q 375.15 413.40 374.86 345.84 C 374.84 340.38 372.84 336.25 367.00 336.25 Q 256.25 336.25 145.50 336.25 C 139.56 336.25 137.82 340.33 137.79 345.80 Q 137.37 413.10 137.57 480.93"/>
    <path stroke="#cbcfed" vector-effect="non-scaling-stroke" d=" M 137.57 480.93 L 98.52 481.02"/>
    <path stroke="#e8bca6" vector-effect="non-scaling-stroke" d=" M 98.51 453.25 L 109.90 453.24 A 4.85 4.85 0.0 0 0 114.75 448.39 Q 114.75 404.23 114.75 359.42 C 114.76 354.31 113.63 352.03 108.23 352.02 Q 103.40 352.01 98.53 351.96"/>
    <path stroke="#c2c6e4" vector-effect="non-scaling-stroke" d=" M 414.01 481.07 L 383.05 480.98"/>
    <path stroke="#9a98bc" vector-effect="non-scaling-stroke" d=" M 374.94 480.96 L 359.99 480.94"/>
    <path stroke="#95b4c7" vector-effect="non-scaling-stroke" d=" M 359.99 480.94 L 359.99 351.80 A 0.54 0.54 0.0 0 0 359.45 351.26 L 336.51 351.26"/>
    <path stroke="#adb9c8" vector-effect="non-scaling-stroke" d=" M 336.51 351.26 L 303.91 351.26 Q 303.35 351.26 303.24 351.81 Q 303.17 352.18 303.37 352.47 Q 303.59 352.80 303.59 353.20 L 303.22 480.98"/>
    <path stroke="#9a98bc" vector-effect="non-scaling-stroke" d=" M 303.22 480.98 L 288.27 480.93"/>
    <path stroke="#95b4c7" vector-effect="non-scaling-stroke" d=" M 288.27 480.93 L 288.45 351.84 A 0.54 0.54 0.0 0 0 287.91 351.30 L 265.00 351.28"/>
    <path stroke="#adb9c8" vector-effect="non-scaling-stroke" d=" M 265.00 351.28 L 224.81 351.28 Q 224.28 351.28 224.28 351.81 L 224.27 480.93"/>
    <path stroke="#9a98bc" vector-effect="non-scaling-stroke" d=" M 224.27 480.93 L 209.24 480.91"/>
    <path stroke="#95b4c7" vector-effect="non-scaling-stroke" d=" M 209.24 480.91 L 209.24 351.80 A 0.54 0.53 -90.0 0 0 208.71 351.26 L 185.97 351.29"/>
    <path stroke="#adb9c8" vector-effect="non-scaling-stroke" d=" M 185.97 351.29 L 153.25 351.33 Q 152.69 351.33 152.69 351.89 L 152.48 480.97"/>
    <path stroke="#9a98bc" vector-effect="non-scaling-stroke" d=" M 152.48 480.97 L 137.57 480.93"/>
    <path stroke="#b1ebfd" vector-effect="non-scaling-stroke" d=" M 185.97 351.29 L 185.99 480.98"/>
    <path stroke="#b5cff2" vector-effect="non-scaling-stroke" d=" M 185.99 480.98 L 152.48 480.97"/>
    <path stroke="#9ecaf1" vector-effect="non-scaling-stroke" d=" M 209.24 480.91 L 185.99 480.98"/>
    <path stroke="#b1ebfd" vector-effect="non-scaling-stroke" d=" M 265.00 351.28 L 265.00 480.94"/>
    <path stroke="#b5cff2" vector-effect="non-scaling-stroke" d=" M 265.00 480.94 L 224.27 480.93"/>
    <path stroke="#9ecaf1" vector-effect="non-scaling-stroke" d=" M 288.27 480.93 L 265.00 480.94"/>
    <path stroke="#b1ebfd" vector-effect="non-scaling-stroke" d=" M 336.51 351.26 L 336.52 480.97"/>
    <path stroke="#b5cff2" vector-effect="non-scaling-stroke" d=" M 336.52 480.97 L 303.22 480.98"/>
    <path stroke="#9ecaf1" vector-effect="non-scaling-stroke" d=" M 359.99 480.94 L 336.52 480.97"/>
    <path stroke="#df9066" vector-effect="non-scaling-stroke" d=" M 81.42 453.20 Q 83.75 450.29 83.75 447.76 Q 83.75 402.00 83.75 356.25 Q 83.75 354.52 81.01 352.17"/>
    <path stroke="#95a2e2" vector-effect="non-scaling-stroke" d=" M 470.59 481.09 Q 481.86 487.83 481.04 497.74 Q 480.28 506.99 470.12 512.00"/>
  </g>
  <g fill="#f3f0f3">
    <path d=" M 175.51 171.47 L 190.49 171.42 L 212.19 171.41 L 227.12 171.39 L 248.76 171.42 L 263.75 171.41 L 285.45 171.47 L 300.48 171.42 L 322.04 171.42 L 337.04 171.46 L 431.18 171.48 L 431.23 221.40 L 379.98 221.31 L 349.01 221.29 L 297.56 221.27 L 266.65 221.26 L 215.32 221.27 L 132.50 221.27 L 51.49 221.37 L 50.50 221.50 Q 50.52 208.64 50.49 195.80 C 50.45 178.61 59.35 171.48 75.91 171.49 Q 125.75 171.53 175.51 171.47 Z"/>
    <path d=" M 215.12 278.97 C 215.62 281.20 215.85 283.47 216.63 285.53 Q 223.77 304.47 243.93 305.50 C 268.31 306.28 291.00 309.25 297.26 279.82 Q 302.70 303.09 324.81 305.62 C 335.40 305.79 349.67 307.22 359.13 304.31 Q 376.17 299.06 379.79 279.75 L 383.11 290.63 L 383.05 480.98 L 374.94 480.96 Q 375.15 413.40 374.86 345.84 C 374.84 340.38 372.84 336.25 367.00 336.25 Q 256.25 336.25 145.50 336.25 C 139.56 336.25 137.82 340.33 137.79 345.80 Q 137.37 413.10 137.57 480.93 L 98.52 481.02 L 98.51 453.25 L 109.90 453.24 A 4.85 4.85 0.0 0 0 114.75 448.39 Q 114.75 404.23 114.75 359.42 C 114.76 354.31 113.63 352.03 108.23 352.02 Q 103.40 352.01 98.53 351.96 L 98.51 306.52 C 98.83 306.01 98.94 305.74 99.61 305.76 Q 126.51 306.47 132.84 280.44 Q 134.81 290.80 141.66 297.34 Q 149.99 305.28 160.67 305.53 Q 176.91 305.99 186.75 305.75 C 201.99 305.37 213.17 293.77 215.12 278.97 Z"/>
  </g>
  <g fill="#fd8087">
    <path d=" M 187.56 89.71 Q 187.72 89.84 187.87 89.99 Q 187.90 90.02 187.94 90.02 Q 197.67 89.65 207.40 89.73 C 220.52 89.85 219.12 104.68 209.69 104.71 Q 185.62 104.81 177.00 104.74 C 166.19 104.66 162.93 97.59 169.20 88.91 Q 181.82 71.48 194.69 54.24 C 198.15 49.60 201.19 41.71 197.19 37.25 C 191.92 31.38 182.21 31.80 179.01 39.56 C 178.35 41.15 177.95 42.96 177.04 44.29 C 171.91 51.84 161.37 45.92 164.23 36.47 C 173.97 4.29 223.03 18.84 212.72 51.24 Q 210.53 58.15 206.23 63.99 Q 196.96 76.58 187.45 88.86 Q 187.08 89.34 187.56 89.71 Z" style="fill: rgb(248, 165, 112);"/>
    <path d=" M 263.78 69.20 C 275.02 69.57 274.70 84.24 263.69 84.26 A 0.68 0.67 0.0 0 0 263.01 84.93 C 263.00 89.35 263.93 97.90 261.80 101.37 C 258.60 106.58 250.92 105.84 248.68 100.25 C 247.18 96.51 248.21 89.19 248.28 84.86 Q 248.29 84.28 247.71 84.27 Q 235.87 84.21 224.17 84.24 Q 219.03 84.26 217.05 83.24 C 212.90 81.11 212.11 76.17 214.48 72.13 C 223.14 57.36 231.22 42.29 240.05 27.60 C 248.14 14.13 263.25 18.96 263.23 34.23 Q 263.22 51.45 263.27 68.67 Q 263.27 69.18 263.78 69.20 Z M 247.71 43.84 L 233.58 68.55 Q 233.18 69.25 233.98 69.25 L 247.62 69.25 Q 248.25 69.25 248.25 68.62 L 248.25 43.99 Q 248.25 42.90 247.71 43.84 Z" style="fill: rgb(248, 165, 112);"/>
    <path d=" M 305.50 53.49 L 338.03 53.52 Q 338.47 53.52 338.47 53.09 Q 338.54 40.48 338.57 28.01 C 338.59 19.65 349.12 16.45 352.52 23.94 Q 353.52 26.14 353.52 31.20 Q 353.48 62.84 353.51 94.49 Q 353.51 98.60 352.74 100.40 C 349.20 108.68 338.43 104.78 338.50 95.82 Q 338.60 82.48 338.45 69.15 A 0.65 0.65 0.0 0 0 337.80 68.51 L 305.55 68.50 A 0.66 0.65 -0.8 0 0 304.89 69.17 Q 305.20 82.70 304.85 96.21 Q 304.77 99.45 303.89 101.13 C 301.44 105.79 293.94 105.86 291.37 101.70 Q 290.01 99.51 290.01 94.89 Q 289.99 62.54 290.00 30.18 Q 290.00 25.45 290.96 23.48 C 293.18 18.91 300.71 18.60 303.50 22.87 C 306.48 27.42 305.03 46.84 304.99 52.97 Q 304.98 53.49 305.50 53.49 Z" style="fill: rgb(248, 165, 112);"/>
    <path d=" M 51.49 221.37 L 100.21 221.51 A 1.79 1.78 90.0 0 1 101.99 223.30 Q 102.01 247.30 101.78 271.86 Q 101.69 281.44 100.18 285.96 C 97.46 294.10 89.63 302.86 80.32 304.29 Q 78.81 304.52 79.52 305.76 C 66.04 305.06 54.36 296.52 51.28 283.25 Q 50.51 279.95 50.51 272.69 Q 50.49 247.09 50.50 221.50 L 51.49 221.37 Z" style="fill: rgb(248, 165, 112);"/>
    <path d=" M 266.65 221.26 Q 266.38 247.11 266.52 272.89 Q 266.56 280.28 265.30 284.45 Q 260.66 299.77 243.93 305.50 Q 223.77 304.47 216.63 285.53 C 215.85 283.47 215.62 281.20 215.12 278.97 L 215.32 221.27 L 266.65 221.26 Z" style="fill: rgb(248, 165, 112);"/>
    <path d=" M 408.99 305.91 Q 392.62 304.90 383.11 290.63 L 379.79 279.75 L 379.76 222.24 C 380.81 220.89 422.77 221.51 429.35 221.56 A 1.93 1.92 -89.9 0 1 431.26 223.49 Q 431.22 245.24 431.27 267.81 Q 431.29 280.01 429.79 285.03 Q 425.40 299.68 409.18 304.75 Q 408.68 304.91 408.74 305.44 Q 408.77 305.68 408.99 305.91 Z" style="fill: rgb(248, 165, 112);"/>
  </g>
  <g fill="#a2aee6">
    <path d=" M 297.56 221.27 L 349.01 221.29 L 348.07 221.82 Q 347.99 221.87 348.08 221.89 Q 348.39 221.98 348.55 222.02 Q 349.03 222.15 349.03 222.66 Q 348.98 247.96 349.00 273.25 Q 349.02 298.36 324.81 305.62 Q 302.70 303.09 297.26 279.82 L 297.56 221.27 Z" style="fill: rgb(167, 155, 167);"/>
    <path d=" M 132.78 221.78 L 183.34 221.75 Q 184.32 221.75 184.31 222.72 Q 184.17 246.13 184.27 270.04 Q 184.31 280.20 182.90 284.85 Q 178.33 299.97 160.67 305.53 Q 149.99 305.28 141.66 297.34 Q 134.81 290.80 132.84 280.44 L 132.78 221.78 Z" style="fill: rgb(167, 155, 167);"/>
    <path d=" M 137.57 480.93 L 152.48 480.97 L 185.99 480.98 L 209.24 480.91 L 224.27 480.93 L 265.00 480.94 L 288.27 480.93 L 303.22 480.98 L 336.52 480.97 L 359.99 480.94 L 374.94 480.96 L 383.05 480.98 L 414.01 481.07 L 470.59 481.09 Q 481.86 487.83 481.04 497.74 Q 480.28 506.99 470.12 512.00 L 13.94 512.00 Q 2.10 509.80 0.00 497.94 L 0.00 494.95 Q 1.85 485.76 9.01 482.62 Q 12.54 481.07 22.83 481.04 Q 60.65 480.94 98.52 481.02 L 137.57 480.93 Z" style="fill: rgb(167, 155, 167);"/>
  </g>
  <g fill="#fedbbd">
    <path d=" M 107.32 0.00 L 375.78 0.00 Q 375.90 1.15 377.09 2.26 Q 377.46 2.60 377.46 3.10 L 377.37 131.99 L 337.01 131.97 L 322.01 131.95 L 300.44 131.91 L 285.45 131.94 L 263.75 131.90 L 248.75 131.97 L 227.17 131.96 L 212.19 131.97 L 190.50 131.93 L 175.50 131.98 Q 142.25 132.01 109.00 132.01 C 104.62 132.00 104.00 129.08 104.00 125.25 Q 104.00 65.00 104.01 4.75 Q 104.01 1.28 107.32 0.00 Z M 187.56 89.71 Q 187.08 89.34 187.45 88.86 Q 196.96 76.58 206.23 63.99 Q 210.53 58.15 212.72 51.24 C 223.03 18.84 173.97 4.29 164.23 36.47 C 161.37 45.92 171.91 51.84 177.04 44.29 C 177.95 42.96 178.35 41.15 179.01 39.56 C 182.21 31.80 191.92 31.38 197.19 37.25 C 201.19 41.71 198.15 49.60 194.69 54.24 Q 181.82 71.48 169.20 88.91 C 162.93 97.59 166.19 104.66 177.00 104.74 Q 185.62 104.81 209.69 104.71 C 219.12 104.68 220.52 89.85 207.40 89.73 Q 197.67 89.65 187.94 90.02 Q 187.90 90.02 187.87 89.99 Q 187.72 89.84 187.56 89.71 Z M 263.27 68.67 Q 263.22 51.45 263.23 34.23 C 263.25 18.96 248.14 14.13 240.05 27.60 C 231.22 42.29 223.14 57.36 214.48 72.13 C 212.11 76.17 212.90 81.11 217.05 83.24 Q 219.03 84.26 224.17 84.24 Q 235.87 84.21 247.71 84.27 Q 248.29 84.28 248.28 84.86 C 248.21 89.19 247.18 96.51 248.68 100.25 C 250.92 105.84 258.60 106.58 261.80 101.37 C 263.93 97.90 263.00 89.35 263.01 84.93 A 0.68 0.67 -0.0 0 1 263.69 84.26 C 274.70 84.24 275.02 69.57 263.78 69.20 Q 263.27 69.18 263.27 68.67 Z M 304.99 52.97 C 305.03 46.84 306.48 27.42 303.50 22.87 C 300.71 18.60 293.18 18.91 290.96 23.48 Q 290.00 25.45 290.00 30.18 Q 289.99 62.54 290.01 94.89 Q 290.01 99.51 291.37 101.70 C 293.94 105.86 301.44 105.79 303.89 101.13 Q 304.77 99.45 304.85 96.21 Q 305.20 82.70 304.89 69.17 A 0.66 0.65 -0.8 0 1 305.55 68.50 L 337.80 68.51 A 0.65 0.65 0.0 0 1 338.45 69.15 Q 338.60 82.48 338.50 95.82 C 338.43 104.78 349.20 108.68 352.74 100.40 Q 353.51 98.60 353.51 94.49 Q 353.48 62.84 353.52 31.20 Q 353.52 26.14 352.52 23.94 C 349.12 16.45 338.59 19.65 338.57 28.01 Q 338.54 40.48 338.47 53.09 Q 338.47 53.52 338.03 53.52 L 305.50 53.49 Q 304.98 53.49 304.99 52.97 Z"/>
    <path d=" M 247.71 43.84 Q 248.25 42.90 248.25 43.99 L 248.25 68.62 Q 248.25 69.25 247.62 69.25 L 233.98 69.25 Q 233.18 69.25 233.58 68.55 L 247.71 43.84 Z"/>
  </g>
  <g fill="#918291">
    <path d=" M 190.50 131.93 L 190.49 171.42 L 175.51 171.47 L 175.50 131.98 L 190.50 131.93 Z"/>
    <path d=" M 227.17 131.96 L 227.12 171.39 L 212.19 171.41 L 212.19 131.97 L 227.17 131.96 Z"/>
    <path d=" M 263.75 131.90 L 263.75 171.41 L 248.76 171.42 L 248.75 131.97 L 263.75 131.90 Z"/>
    <path d=" M 300.44 131.91 L 300.48 171.42 L 285.45 171.47 L 285.45 131.94 L 300.44 131.91 Z"/>
    <path d=" M 337.01 131.97 L 337.04 171.46 L 322.04 171.42 L 322.01 131.95 L 337.01 131.97 Z"/>
    <path d=" M 374.94 480.96 L 359.99 480.94 L 359.99 351.80 A 0.54 0.54 0.0 0 0 359.45 351.26 L 336.51 351.26 L 303.91 351.26 Q 303.35 351.26 303.24 351.81 Q 303.17 352.18 303.37 352.47 Q 303.59 352.80 303.59 353.20 L 303.22 480.98 L 288.27 480.93 L 288.45 351.84 A 0.54 0.54 0.0 0 0 287.91 351.30 L 265.00 351.28 L 224.81 351.28 Q 224.28 351.28 224.28 351.81 L 224.27 480.93 L 209.24 480.91 L 209.24 351.80 A 0.54 0.53 -90.0 0 0 208.71 351.26 L 185.97 351.29 L 153.25 351.33 Q 152.69 351.33 152.69 351.89 L 152.48 480.97 L 137.57 480.93 Q 137.37 413.10 137.79 345.80 C 137.82 340.33 139.56 336.25 145.50 336.25 Q 256.25 336.25 367.00 336.25 C 372.84 336.25 374.84 340.38 374.86 345.84 Q 375.15 413.40 374.94 480.96 Z"/>
  </g>
  <g fill="#c8effe">
    <path d=" M 185.97 351.29 L 185.99 480.98 L 152.48 480.97 L 152.69 351.89 Q 152.69 351.33 153.25 351.33 L 185.97 351.29 Z"/>
    <path d=" M 265.00 351.28 L 265.00 480.94 L 224.27 480.93 L 224.28 351.81 Q 224.28 351.28 224.81 351.28 L 265.00 351.28 Z"/>
    <path d=" M 336.51 351.26 L 336.52 480.97 L 303.22 480.98 L 303.59 353.20 Q 303.59 352.80 303.37 352.47 Q 303.17 352.18 303.24 351.81 Q 303.35 351.26 303.91 351.26 L 336.51 351.26 Z"/>
  </g>
  <path fill="#e19974" d=" M 81.01 352.17 Q 83.75 354.52 83.75 356.25 Q 83.75 402.00 83.75 447.76 Q 83.75 450.29 81.42 453.20 L 41.11 453.16 A 4.62 4.61 0.1 0 1 36.50 448.55 L 36.50 356.54 A 4.30 4.30 0.0 0 1 40.80 352.24 L 81.01 352.17 Z"/>
  <g fill="#99e6fc">
    <path d=" M 185.97 351.29 L 208.71 351.26 A 0.54 0.53 90.0 0 1 209.24 351.80 L 209.24 480.91 L 185.99 480.98 L 185.97 351.29 Z"/>
    <path d=" M 265.00 351.28 L 287.91 351.30 A 0.54 0.54 0.0 0 1 288.45 351.84 L 288.27 480.93 L 265.00 480.94 L 265.00 351.28 Z"/>
    <path d=" M 336.51 351.26 L 359.45 351.26 A 0.54 0.54 0.0 0 1 359.99 351.80 L 359.99 480.94 L 336.52 480.97 L 336.51 351.26 Z"/>
  </g>
  <g fill="#8795de">
    <path d=" M 132.50 221.27 L 215.32 221.27 L 215.12 278.97 C 213.17 293.77 201.99 305.37 186.75 305.75 Q 176.91 305.99 160.67 305.53 Q 178.33 299.97 182.90 284.85 Q 184.31 280.20 184.27 270.04 Q 184.17 246.13 184.31 222.72 Q 184.32 221.75 183.34 221.75 L 132.78 221.78 L 132.50 221.27 Z" style="fill: rgb(145, 130, 145);"/>
    <path d=" M 379.98 221.31 Q 379.24 222.39 379.76 222.24 L 379.79 279.75 Q 376.17 299.06 359.13 304.31 C 349.67 307.22 335.40 305.79 324.81 305.62 Q 349.02 298.36 349.00 273.25 Q 348.98 247.96 349.03 222.66 Q 349.03 222.15 348.55 222.02 Q 348.39 221.98 348.08 221.89 Q 347.99 221.87 348.07 221.82 L 349.01 221.29 L 379.98 221.31 Z" style="fill: rgb(145, 130, 145);"/>
    <path d=" M 470.59 481.09 Q 483.09 480.96 494.44 480.98 C 503.52 481.01 509.82 484.82 512.00 494.06 L 512.00 499.28 Q 509.34 509.69 498.94 512.00 L 470.12 512.00 Q 480.28 506.99 481.04 497.74 Q 481.86 487.83 470.59 481.09 Z" style="fill: rgb(145, 130, 145);"/>
  </g>
  <g fill="#fe646f">
    <path d=" M 51.49 221.37 L 132.50 221.27 L 132.78 221.78 L 132.84 280.44 Q 126.51 306.47 99.61 305.76 C 98.94 305.74 98.83 306.01 98.51 306.52 C 98.59 305.85 81.45 305.84 79.52 305.76 Q 78.81 304.52 80.32 304.29 C 89.63 302.86 97.46 294.10 100.18 285.96 Q 101.69 281.44 101.78 271.86 Q 102.01 247.30 101.99 223.30 A 1.79 1.78 90.0 0 0 100.21 221.51 L 51.49 221.37 Z" style="fill: rgb(246, 140, 72);"/>
    <path d=" M 266.65 221.26 L 297.56 221.27 L 297.26 279.82 C 291.00 309.25 268.31 306.28 243.93 305.50 Q 260.66 299.77 265.30 284.45 Q 266.56 280.28 266.52 272.89 Q 266.38 247.11 266.65 221.26 Z" style="fill: rgb(246, 140, 72);"/>
    <path d=" M 431.23 221.40 L 462.25 221.59 Q 462.26 248.43 462.24 274.25 C 462.23 288.09 455.76 299.38 442.63 304.04 C 434.66 306.87 423.11 306.11 414.01 305.95 L 408.99 305.91 Q 408.77 305.68 408.74 305.44 Q 408.68 304.91 409.18 304.75 Q 425.40 299.68 429.79 285.03 Q 431.29 280.01 431.27 267.81 Q 431.22 245.24 431.26 223.49 A 1.93 1.92 -89.9 0 0 429.35 221.56 C 422.77 221.51 380.81 220.89 379.76 222.24 Q 379.24 222.39 379.98 221.31 L 431.23 221.40 Z" style="fill: rgb(246, 140, 72);"/>
  </g>
  <path fill="#feca9c" d=" M 375.78 0.00 L 405.80 0.00 Q 408.74 1.66 408.74 4.00 Q 408.77 66.09 408.74 127.59 A 4.41 4.40 -90.0 0 1 404.34 132.00 L 377.37 131.99 L 377.46 3.10 Q 377.46 2.60 377.09 2.26 Q 375.90 1.15 375.78 0.00 Z"/>
  <path fill="#dc8758" d=" M 98.53 351.96 Q 103.40 352.01 108.23 352.02 C 113.63 352.03 114.76 354.31 114.75 359.42 Q 114.75 404.23 114.75 448.39 A 4.85 4.85 0.0 0 1 109.90 453.24 L 98.51 453.25 L 81.42 453.20 Q 83.75 450.29 83.75 447.76 Q 83.75 402.00 83.75 356.25 Q 83.75 354.52 81.01 352.17 L 98.53 351.96 Z"/>
  <g fill="#e2dee2">
    <path d=" M 462.25 221.59 L 431.23 221.40 L 431.18 171.48 C 443.57 170.04 457.03 172.45 461.15 186.04 Q 462.24 189.63 462.25 199.53 Q 462.25 210.88 462.25 221.59 Z"/>
    <path d=" M 383.11 290.63 Q 392.62 304.90 408.99 305.91 L 414.01 305.95 L 414.01 481.07 L 383.05 480.98 L 383.11 290.63 Z"/>
  </g>
</svg>