<?xml version="1.0" encoding="utf-8"?>
<svg version="1.1" viewBox="0.00 0.00 512.00 512.00" xmlns="http://www.w3.org/2000/svg">
  <g stroke-width="2.00" fill="none" stroke-linecap="butt">
    <path stroke="#fdc3b4" vector-effect="non-scaling-stroke" d=" M 471.96 184.00 L 39.99 184.01"/>
    <path stroke="#ff8e94" vector-effect="non-scaling-stroke" d=" M 495.71 247.50 Q 493.06 248.28 490.35 247.89 Q 489.87 247.82 489.44 248.04 C 486.34 249.62 480.17 254.10 477.06 252.20 C 471.60 248.85 468.55 248.00 461.73 248.00 Q 249.77 247.99 37.81 248.01 Q 22.31 248.01 16.13 247.65"/>
    <path stroke="#faae9e" vector-effect="non-scaling-stroke" d=" M 471.98 279.86 C 462.28 279.91 451.05 276.13 448.26 265.65 Q 447.99 264.64 447.74 265.66 C 445.22 275.93 433.52 279.89 424.00 280.04"/>
    <path stroke="#c69ab9" vector-effect="non-scaling-stroke" d=" M 424.00 280.04 C 413.36 279.45 404.03 276.37 399.97 265.89 Q 399.89 265.68 399.83 265.89 C 393.98 284.79 358.00 284.62 352.11 265.80 Q 352.01 265.46 351.90 265.80 C 347.16 280.70 325.63 282.79 313.72 276.86 Q 306.98 273.50 303.99 265.90 Q 303.91 265.69 303.84 265.91 C 297.97 284.73 260.44 284.51 256.26 265.74 Q 256.12 265.10 255.92 265.73 C 250.73 281.93 228.68 282.29 216.16 276.01"/>
    <path stroke="#faae9e" vector-effect="non-scaling-stroke" d=" M 216.16 276.01 Q 210.15 272.45 208.12 265.72 Q 207.92 265.05 207.74 265.73 C 205.12 275.96 193.60 279.99 184.01 279.85"/>
    <path stroke="#c69ab9" vector-effect="non-scaling-stroke" d=" M 184.01 279.85 C 174.54 280.03 162.63 275.82 160.24 265.73 Q 160.09 265.12 159.90 265.72 C 153.94 284.66 116.78 284.72 112.19 265.69 Q 111.98 264.78 111.74 265.68 C 109.07 275.93 97.59 280.07 87.97 279.88"/>
    <path stroke="#faae9e" vector-effect="non-scaling-stroke" d=" M 87.97 279.88 C 78.38 280.00 69.37 276.40 64.65 267.95 A 1.52 1.51 35.7 0 1 64.48 266.93 Q 64.62 266.27 64.35 265.69 Q 63.92 264.77 63.69 265.76 C 61.36 275.93 49.21 280.01 39.98 279.91"/>
    <path stroke="#f8e4be" vector-effect="non-scaling-stroke" d=" M 471.99 295.69 Q 461.15 296.04 451.20 291.39 C 450.18 290.91 448.57 289.40 447.11 290.14 Q 435.61 295.91 424.02 295.82"/>
    <path stroke="#c1c8d0" vector-effect="non-scaling-stroke" d=" M 184.01 279.85 L 184.02 295.86"/>
    <path stroke="#c3d0da" vector-effect="non-scaling-stroke" d=" M 184.02 295.86 Q 184.01 295.93 183.99 296.00"/>
    <path stroke="#99c1f5" vector-effect="non-scaling-stroke" d=" M 183.99 296.00 Q 171.55 295.82 160.56 290.04 Q 160.09 289.79 159.61 290.03 Q 136.03 301.74 112.48 290.09 Q 112.02 289.86 111.56 290.09 Q 100.41 295.54 88.04 296.25"/>
    <path stroke="#c3d0da" vector-effect="non-scaling-stroke" d=" M 88.04 296.25 L 87.99 295.80"/>
    <path stroke="#c1c8d0" vector-effect="non-scaling-stroke" d=" M 216.16 276.01 L 216.00 293.21"/>
    <path stroke="#f8e4be" vector-effect="non-scaling-stroke" d=" M 216.00 293.21 L 209.00 290.16 A 2.36 2.36 0.0 0 0 206.96 290.24 Q 196.39 295.90 184.02 295.86"/>
    <path stroke="#c1c8d0" vector-effect="non-scaling-stroke" d=" M 87.97 279.88 L 87.99 295.80"/>
    <path stroke="#f8e4be" vector-effect="non-scaling-stroke" d=" M 87.99 295.80 Q 75.62 295.98 64.95 290.16 A 1.88 1.87 -44.5 0 0 63.16 290.15 Q 52.50 295.86 40.01 295.91"/>
    <path stroke="#c1c8d0" vector-effect="non-scaling-stroke" d=" M 424.00 280.04 L 424.02 295.82"/>
    <path stroke="#c3d0da" vector-effect="non-scaling-stroke" d=" M 424.02 295.82 L 423.96 296.25"/>
    <path stroke="#99c1f5" vector-effect="non-scaling-stroke" d=" M 423.96 296.25 Q 423.11 295.99 422.24 295.95 Q 410.90 295.44 401.22 290.19 A 2.50 2.49 -45.1 0 0 398.84 290.20 C 385.37 297.52 366.73 297.75 353.27 290.26 A 2.64 2.63 -44.7 0 0 350.72 290.25 C 337.35 297.56 318.63 297.70 305.27 290.25 A 2.64 2.63 -44.7 0 0 302.72 290.24 C 289.26 297.61 270.59 297.67 257.15 290.20 A 2.19 2.19 0.0 0 0 255.09 290.16 Q 237.95 298.91 218.67 294.04 Q 216.90 293.60 216.26 293.69"/>
    <path stroke="#c3d0da" vector-effect="non-scaling-stroke" d=" M 216.26 293.69 Q 216.33 293.34 216.00 293.21"/>
    <path stroke="#d0dce4" vector-effect="non-scaling-stroke" d=" M 216.26 293.69 Q 216.21 293.72 216.16 293.75 Q 216.06 293.81 216.06 293.92 L 216.02 383.99"/>
    <path stroke="#c3d0da" vector-effect="non-scaling-stroke" d=" M 216.02 383.99 Q 215.99 395.65 215.99 407.24 C 215.99 414.69 221.07 416.00 227.65 416.00 Q 321.06 416.00 414.47 415.99 C 422.05 415.99 423.93 412.26 423.98 405.01 Q 424.05 394.49 423.96 384.00"/>
    <path stroke="#d0dce4" vector-effect="non-scaling-stroke" d=" M 423.96 384.00 L 423.96 296.25"/>
    <path stroke="#f8e4be" vector-effect="non-scaling-stroke" d=" M 471.98 448.02 L 184.04 448.25"/>
    <path stroke="#e2d9c9" vector-effect="non-scaling-stroke" d=" M 184.04 448.25 L 183.96 447.75"/>
    <path stroke="#ebe2d2" vector-effect="non-scaling-stroke" d=" M 183.96 447.75 L 183.75 416.04"/>
    <path stroke="#c3d0da" vector-effect="non-scaling-stroke" d=" M 183.75 416.04 L 183.97 400.00"/>
    <path stroke="#d0dce4" vector-effect="non-scaling-stroke" d=" M 88.04 296.25 L 88.02 399.96"/>
    <path stroke="#c3d0da" vector-effect="non-scaling-stroke" d=" M 88.02 399.96 L 88.06 416.04"/>
    <path stroke="#ebe2d2" vector-effect="non-scaling-stroke" d=" M 88.06 416.04 L 88.01 447.93"/>
    <path stroke="#f8e4be" vector-effect="non-scaling-stroke" d=" M 88.01 447.93 L 41.79 447.97 Q 41.49 447.97 41.25 448.13 Q 41.14 448.20 41.01 448.24 Q 40.58 448.37 40.33 447.99 L 40.01 447.50"/>
    <path stroke="#d0dce4" vector-effect="non-scaling-stroke" d=" M 183.99 296.00 L 183.97 400.00"/>
    <path stroke="#99c1f5" vector-effect="non-scaling-stroke" d=" M 183.97 400.00 L 88.02 399.96"/>
    <path stroke="#99c1f5" vector-effect="non-scaling-stroke" d=" M 423.96 384.00 L 216.02 383.99"/>
    <path stroke="#dfd1bf" vector-effect="non-scaling-stroke" d=" M 184.04 448.25 L 184.01 463.41 A 0.59 0.59 0.0 0 0 184.60 464.00 L 471.96 464.00"/>
    <path stroke="#b4c7e4" vector-effect="non-scaling-stroke" d=" M 183.75 416.04 L 88.06 416.04"/>
    <path stroke="#d2d0d3" vector-effect="non-scaling-stroke" d=" M 183.96 447.75 L 88.01 447.93"/>
    <path stroke="#dfd1bf" vector-effect="non-scaling-stroke" d=" M 88.01 447.93 L 88.00 463.32 Q 88.00 463.98 87.34 463.98 L 40.00 463.96"/>
  </g>
  <g fill="#faebc8">
    <path d=" M 471.96 184.00 L 39.99 184.01 Q 40.00 164.88 39.97 145.25 C 39.96 137.72 44.71 136.00 51.54 136.00 Q 257.15 136.00 462.75 136.00 C 470.55 136.00 471.96 140.86 471.98 147.83 Q 472.05 165.92 471.96 184.00 Z"/>
    <path d=" M 87.99 295.80 L 88.04 296.25 L 88.02 399.96 L 88.06 416.04 L 88.01 447.93 L 41.79 447.97 Q 41.49 447.97 41.25 448.13 Q 41.14 448.20 41.01 448.24 Q 40.58 448.37 40.33 447.99 L 40.01 447.50 L 40.01 295.91 Q 52.50 295.86 63.16 290.15 A 1.88 1.87 -44.5 0 1 64.95 290.16 Q 75.62 295.98 87.99 295.80 Z"/>
    <path d=" M 216.00 293.21 Q 216.33 293.34 216.26 293.69 Q 216.21 293.72 216.16 293.75 Q 216.06 293.81 216.06 293.92 L 216.02 383.99 Q 215.99 395.65 215.99 407.24 C 215.99 414.69 221.07 416.00 227.65 416.00 Q 321.06 416.00 414.47 415.99 C 422.05 415.99 423.93 412.26 423.98 405.01 Q 424.05 394.49 423.96 384.00 L 423.96 296.25 L 424.02 295.82 Q 435.61 295.91 447.11 290.14 C 448.57 289.40 450.18 290.91 451.20 291.39 Q 461.15 296.04 471.99 295.69 L 471.98 448.02 L 184.04 448.25 L 183.96 447.75 L 183.75 416.04 L 183.97 400.00 L 183.99 296.00 Q 184.01 295.93 184.02 295.86 Q 196.39 295.90 206.96 290.24 A 2.36 2.36 0.0 0 1 209.00 290.16 L 216.00 293.21 Z"/>
  </g>
  <g fill="#a5cdff">
    <path d=" M 183.99 296.00 L 183.97 400.00 L 88.02 399.96 L 88.04 296.25 Q 100.41 295.54 111.56 290.09 Q 112.02 289.86 112.48 290.09 Q 136.03 301.74 159.61 290.03 Q 160.09 289.79 160.56 290.04 Q 171.55 295.82 183.99 296.00 Z"/>
    <path d=" M 423.96 296.25 L 423.96 384.00 L 216.02 383.99 L 216.06 293.92 Q 216.06 293.81 216.16 293.75 Q 216.21 293.72 216.26 293.69 Q 216.90 293.60 218.67 294.04 Q 237.95 298.91 255.09 290.16 A 2.19 2.19 0.0 0 1 257.15 290.20 C 270.59 297.67 289.26 297.61 302.72 290.24 A 2.64 2.63 -44.7 0 1 305.27 290.25 C 318.63 297.70 337.35 297.56 350.72 290.25 A 2.64 2.63 -44.7 0 1 353.27 290.26 C 366.73 297.75 385.37 297.52 398.84 290.20 A 2.50 2.49 -45.1 0 1 401.22 290.19 Q 410.90 295.44 422.24 295.95 Q 423.11 295.99 423.96 296.25 Z"/>
  </g>
  <path d="M 471.96 184 L 495.71 247.5 C 493.943 248.02 20.25 247.89 16.13 247.65 L 39.99 184.01 L 471.96 184 Z" style="fill: rgb(248, 165, 112);"/>
  <path fill="#c9c6ca" d=" M 183.96 447.75 L 184.04 448.25 L 184.01 463.41 A 0.59 0.59 0.0 0 0 184.60 464.00 L 471.96 464.00 Q 487.48 464.03 502.99 464.05 C 512.12 464.07 515.48 475.54 507.20 479.16 Q 505.29 480.00 501.06 480.00 Q 254.90 480.00 8.75 479.93 C -2.66 479.93 -3.22 464.04 10.04 464.02 Q 25.02 464.01 40.00 463.96 L 87.34 463.98 Q 88.00 463.98 88.00 463.32 L 88.01 447.93 L 183.96 447.75 Z"/>
  <g fill="#ff8087">
    <path d=" M 114.73 90.69 C 122.40 82.93 134.43 93.70 124.56 103.50 C 107.33 120.59 77.93 109.71 76.98 85.20 Q 76.49 72.62 76.84 60.00 C 77.56 33.85 108.58 22.25 126.14 42.34 C 133.29 50.51 122.55 61.09 114.50 52.74 C 108.40 46.40 98.11 46.34 94.00 54.89 Q 92.80 57.40 92.77 63.45 Q 92.74 73.46 92.87 83.49 Q 92.99 92.09 100.25 95.02 C 106.38 97.50 110.52 94.95 114.73 90.69 Z" style="fill: rgb(246, 140, 72);"/>
    <path d=" M 139.69 49.17 C 149.76 25.78 183.68 26.78 191.76 51.18 C 194.48 59.39 193.30 73.57 193.26 83.50 C 193.13 114.62 150.62 122.88 139.40 93.86 C 135.82 84.59 137.01 69.61 137.58 59.62 Q 137.95 53.23 139.69 49.17 Z M 153.23 83.06 C 153.39 95.81 170.11 100.98 175.75 89.64 C 178.65 83.79 177.26 70.34 177.25 63.22 C 177.24 56.96 176.16 52.05 170.52 49.40 C 161.54 45.17 153.52 51.88 153.32 61.52 Q 153.09 72.27 153.23 83.06 Z" style="fill: rgb(246, 140, 72);"/>
    <path d=" M 237.23 64.03 C 245.94 63.96 249.15 75.60 241.08 79.16 C 236.83 81.03 227.22 79.99 222.35 80.02 Q 221.79 80.02 221.79 80.58 Q 221.67 92.12 221.77 103.48 C 221.86 112.58 209.75 114.98 206.63 106.86 Q 205.78 104.65 205.77 98.88 Q 205.71 70.20 205.78 41.50 C 205.80 33.06 211.08 31.98 218.48 31.99 Q 231.87 32.01 245.24 31.99 C 254.04 31.98 257.22 43.88 248.73 47.29 Q 246.96 48.00 243.16 47.99 Q 232.72 47.96 222.26 48.02 Q 221.75 48.03 221.75 48.54 L 221.75 63.46 A 0.49 0.49 0.0 0 0 222.23 63.95 Q 229.81 64.09 237.23 64.03 Z" style="fill: rgb(246, 140, 72);"/>
    <path d=" M 282.49 63.96 C 289.22 64.04 306.65 60.94 305.69 72.79 C 304.89 82.79 289.17 79.98 282.52 80.01 Q 282.00 80.01 282.00 80.53 Q 281.99 90.49 281.99 100.41 Q 281.99 105.06 281.24 106.97 C 278.62 113.71 268.98 113.29 266.56 106.50 Q 266.03 105.00 266.03 101.82 Q 265.97 71.03 266.01 40.25 C 266.02 33.59 271.36 32.04 277.28 32.02 Q 290.00 31.97 302.73 32.01 Q 307.22 32.02 309.14 32.83 C 315.59 35.54 315.28 44.93 308.69 47.40 Q 307.20 47.95 304.12 47.97 Q 293.32 48.02 282.51 48.00 Q 282.00 48.00 282.00 48.51 L 282.00 63.47 Q 282.00 63.96 282.49 63.96 Z" style="fill: rgb(246, 140, 72);"/>
    <path d=" M 341.73 95.96 Q 353.00 96.05 364.24 96.08 C 373.37 96.10 376.68 107.60 368.35 111.16 Q 366.48 111.96 362.42 111.98 Q 347.96 112.03 333.50 111.98 C 327.00 111.96 325.26 106.89 325.26 101.02 Q 325.24 70.88 325.25 40.75 C 325.25 33.56 330.25 32.04 336.67 32.02 Q 350.45 31.97 364.24 32.06 C 373.35 32.12 376.70 43.59 368.35 47.16 Q 366.48 47.96 362.42 47.98 Q 352.09 48.01 341.76 48.00 Q 341.25 48.00 341.25 48.51 L 341.25 63.48 Q 341.25 63.97 341.74 63.98 Q 349.01 64.03 356.23 64.07 C 365.36 64.12 368.70 75.60 360.35 79.16 C 356.03 81.00 346.65 80.01 341.76 80.00 Q 341.25 80.00 341.25 80.51 L 341.25 95.48 Q 341.25 95.96 341.73 95.96 Z" style="fill: rgb(246, 140, 72);"/>
    <path d=" M 401.25 48.73 L 401.25 63.47 A 0.50 0.50 0.0 0 0 401.75 63.97 C 406.75 64.03 415.21 63.05 419.70 64.54 C 426.68 66.86 427.15 76.41 420.31 79.24 C 416.04 81.01 406.62 79.99 401.76 80.02 A 0.51 0.51 0.0 0 0 401.25 80.53 L 401.25 95.46 Q 401.25 95.96 401.76 95.97 Q 411.94 96.06 422.02 96.01 Q 426.13 95.99 427.86 96.60 C 434.75 99.02 435.05 108.50 428.20 111.28 Q 426.53 111.96 423.08 111.97 Q 401.26 112.06 394.74 112.00 Q 385.41 111.93 385.35 102.44 Q 385.17 72.10 385.30 41.76 C 385.34 33.67 389.71 31.99 397.14 32.00 Q 408.94 32.01 420.72 31.98 Q 426.31 31.97 428.61 32.95 C 437.34 36.68 433.09 48.18 423.57 48.00 Q 412.71 47.79 401.86 48.10 Q 401.25 48.12 401.25 48.73 Z" style="fill: rgb(246, 140, 72);"/>
    <path d="M 16.13 247.65 C 20.25 247.89 493.943 248.02 495.71 247.5 C 495.963 250.98 496.043 255.983 495.95 262.51 C 495.78 274.82 482.8 280.04 471.98 279.86 C 462.28 279.91 451.05 276.13 448.26 265.65 C 448.08 264.977 447.907 264.98 447.74 265.66 C 445.22 275.93 433.52 279.89 424 280.04 C 413.36 279.45 404.03 276.37 399.97 265.89 C 399.917 265.75 399.87 265.75 399.83 265.89 C 393.98 284.79 358 284.62 352.11 265.8 C 352.043 265.573 351.973 265.573 351.9 265.8 C 347.16 280.7 325.63 282.79 313.72 276.86 C 309.227 274.62 305.983 270.967 303.99 265.9 C 303.937 265.76 303.887 265.763 303.84 265.91 C 297.97 284.73 260.44 284.51 256.26 265.74 C 256.167 265.313 256.053 265.31 255.92 265.73 C 250.73 281.93 228.68 282.29 216.16 276.01 C 212.153 273.637 209.473 270.207 208.12 265.72 C 207.987 265.273 207.86 265.277 207.74 265.73 C 205.12 275.96 193.6 279.99 184.01 279.85 C 174.54 280.03 162.63 275.82 160.24 265.73 C 160.14 265.323 160.027 265.32 159.9 265.72 C 153.94 284.66 116.78 284.72 112.19 265.69 C 112.05 265.083 111.9 265.08 111.74 265.68 C 109.07 275.93 97.59 280.07 87.97 279.88 C 78.38 280 69.37 276.4 64.65 267.95 C 64.475 267.64 64.415 267.279 64.48 266.93 C 64.573 266.49 64.53 266.077 64.35 265.69 C 64.063 265.077 63.843 265.1 63.69 265.76 C 61.36 275.93 49.21 280.01 39.98 279.91 C 33.733 279.957 28.097 278.407 23.07 275.26 C 17.27 271.62 16.09 267.05 16 260.03 C 15.94 255.69 15.983 251.563 16.13 247.65 Z" style="fill: rgb(246, 140, 72);"/>
  </g>
  <g fill="#8cb4eb">
    <path d=" M 184.01 279.85 L 184.02 295.86 Q 184.01 295.93 183.99 296.00 Q 171.55 295.82 160.56 290.04 Q 160.09 289.79 159.61 290.03 Q 136.03 301.74 112.48 290.09 Q 112.02 289.86 111.56 290.09 Q 100.41 295.54 88.04 296.25 L 87.99 295.80 L 87.97 279.88 C 97.59 280.07 109.07 275.93 111.74 265.68 Q 111.98 264.78 112.19 265.69 C 116.78 284.72 153.94 284.66 159.90 265.72 Q 160.09 265.12 160.24 265.73 C 162.63 275.82 174.54 280.03 184.01 279.85 Z"/>
    <path d=" M 424.00 280.04 L 424.02 295.82 L 423.96 296.25 Q 423.11 295.99 422.24 295.95 Q 410.90 295.44 401.22 290.19 A 2.50 2.49 -45.1 0 0 398.84 290.20 C 385.37 297.52 366.73 297.75 353.27 290.26 A 2.64 2.63 -44.7 0 0 350.72 290.25 C 337.35 297.56 318.63 297.70 305.27 290.25 A 2.64 2.63 -44.7 0 0 302.72 290.24 C 289.26 297.61 270.59 297.67 257.15 290.20 A 2.19 2.19 0.0 0 0 255.09 290.16 Q 237.95 298.91 218.67 294.04 Q 216.90 293.60 216.26 293.69 Q 216.33 293.34 216.00 293.21 L 216.16 276.01 C 228.68 282.29 250.73 281.93 255.92 265.73 Q 256.12 265.10 256.26 265.74 C 260.44 284.51 297.97 284.73 303.84 265.91 Q 303.91 265.69 303.99 265.90 Q 306.98 273.50 313.72 276.86 C 325.63 282.79 347.16 280.70 351.90 265.80 Q 352.01 265.46 352.11 265.80 C 358.00 284.62 393.98 284.79 399.83 265.89 Q 399.89 265.68 399.97 265.89 C 404.03 276.37 413.36 279.45 424.00 280.04 Z"/>
    <path d=" M 423.96 384.00 Q 424.05 394.49 423.98 405.01 C 423.93 412.26 422.05 415.99 414.47 415.99 Q 321.06 416.00 227.65 416.00 C 221.07 416.00 215.99 414.69 215.99 407.24 Q 215.99 395.65 216.02 383.99 L 423.96 384.00 Z"/>
    <path d=" M 88.02 399.96 L 183.97 400.00 L 183.75 416.04 L 88.06 416.04 L 88.02 399.96 Z"/>
  </g>
  <g fill="#f5dcb4">
    <path d=" M 87.97 279.88 L 87.99 295.80 Q 75.62 295.98 64.95 290.16 A 1.88 1.87 -44.5 0 0 63.16 290.15 Q 52.50 295.86 40.01 295.91 L 39.98 279.91 C 49.21 280.01 61.36 275.93 63.69 265.76 Q 63.92 264.77 64.35 265.69 Q 64.62 266.27 64.48 266.93 A 1.52 1.51 35.7 0 0 64.65 267.95 C 69.37 276.40 78.38 280.00 87.97 279.88 Z"/>
    <path d=" M 216.16 276.01 L 216.00 293.21 L 209.00 290.16 A 2.36 2.36 0.0 0 0 206.96 290.24 Q 196.39 295.90 184.02 295.86 L 184.01 279.85 C 193.60 279.99 205.12 275.96 207.74 265.73 Q 207.92 265.05 208.12 265.72 Q 210.15 272.45 216.16 276.01 Z"/>
    <path d=" M 471.98 279.86 L 471.99 295.69 Q 461.15 296.04 451.20 291.39 C 450.18 290.91 448.57 289.40 447.11 290.14 Q 435.61 295.91 424.02 295.82 L 424.00 280.04 C 433.52 279.89 445.22 275.93 447.74 265.66 Q 447.99 264.64 448.26 265.65 C 451.05 276.13 462.28 279.91 471.98 279.86 Z"/>
    <path d=" M 40.01 447.50 L 40.33 447.99 Q 40.58 448.37 41.01 448.24 Q 41.14 448.20 41.25 448.13 Q 41.49 447.97 41.79 447.97 L 88.01 447.93 L 88.00 463.32 Q 88.00 463.98 87.34 463.98 L 40.00 463.96 L 40.01 447.50 Z"/>
    <path d=" M 471.98 448.02 L 471.96 464.00 L 184.60 464.00 A 0.59 0.59 0.0 0 1 184.01 463.41 L 184.04 448.25 L 471.98 448.02 Z"/>
  </g>
  <path fill="#dbd9dc" d=" M 183.75 416.04 L 183.96 447.75 L 88.01 447.93 L 88.06 416.04 L 183.75 416.04 Z"/>
</svg>