<?xml version="1.0" encoding="UTF-8" standalone="no"?>
<!DOCTYPE svg PUBLIC "-//W3C//DTD SVG 1.1//EN" "http://www.w3.org/Graphics/SVG/1.1/DTD/svg11.dtd">
<svg xmlns="http://www.w3.org/2000/svg" version="1.1" viewBox="0.00 0.00 512.00 512.00">
<g stroke-width="2.00" fill="none" stroke-linecap="butt">
<path stroke="#9c8f9c" vector-effect="non-scaling-stroke" d="
  M 437.25 28.79
  L 437.02 63.00"
/>
<path stroke="#b6969c" vector-effect="non-scaling-stroke" d="
  M 437.02 63.00
  L 140.97 63.02"
/>
<path stroke="#a58189" vector-effect="non-scaling-stroke" d="
  M 465.75 62.90
  L 437.02 63.00"
/>
<path stroke="#a58189" vector-effect="non-scaling-stroke" d="
  M 465.75 232.84
  L 436.95 232.94"
/>
<path stroke="#b08e94" vector-effect="non-scaling-stroke" d="
  M 436.95 232.94
  Q 436.95 232.97 436.95 232.99"
/>
<path stroke="#bf8989" vector-effect="non-scaling-stroke" d="
  M 436.95 232.99
  L 436.73 199.68"
/>
<path stroke="#dca96e" vector-effect="non-scaling-stroke" d="
  M 436.73 199.68
  Q 436.90 148.38 436.57 97.02
  C 436.56 96.45 436.35 96.28 436.21 95.75"
/>
<path stroke="#bf8989" vector-effect="non-scaling-stroke" d="
  M 436.21 95.75
  C 438.22 92.87 437.01 68.12 437.02 63.00"
/>
<path stroke="#e2b176" vector-effect="non-scaling-stroke" d="
  M 436.21 95.75
  C 435.17 94.74 434.31 94.00 432.74 93.99
  Q 422.00 93.90 410.79 93.88"
/>
<path stroke="#e2b984" vector-effect="non-scaling-stroke" d="
  M 410.79 93.88
  L 385.00 93.88"
/>
<path stroke="#bf8989" vector-effect="non-scaling-stroke" d="
  M 385.00 93.88
  L 369.50 93.91"
/>
<path stroke="#e2b176" vector-effect="non-scaling-stroke" d="
  M 369.50 93.91
  L 344.50 93.79"
/>
<path stroke="#e2b984" vector-effect="non-scaling-stroke" d="
  M 344.50 93.79
  Q 333.87 93.97 323.26 93.73
  Q 317.75 93.61 317.75 98.74
  Q 317.74 148.73 317.75 197.95
  A 4.03 4.03 0.0 0 0 321.78 201.98
  L 343.50 201.96"
/>
<path stroke="#e2b176" vector-effect="non-scaling-stroke" d="
  M 343.50 201.96
  L 369.50 201.71"
/>
<path stroke="#bf8989" vector-effect="non-scaling-stroke" d="
  M 369.50 201.71
  L 385.02 201.96"
/>
<path stroke="#e2b984" vector-effect="non-scaling-stroke" d="
  M 385.02 201.96
  L 410.82 201.98"
/>
<path stroke="#e2b176" vector-effect="non-scaling-stroke" d="
  M 410.82 201.98
  Q 421.94 202.06 432.11 201.95
  C 434.25 201.93 435.30 201.08 436.73 199.68"
/>
<path stroke="#b6969c" vector-effect="non-scaling-stroke" d="
  M 436.95 232.99
  L 141.00 233.00"
/>
<path stroke="#ab8a91" vector-effect="non-scaling-stroke" d="
  M 141.01 172.83
  L 141.01 157.47"
/>
<path stroke="#ab8a91" vector-effect="non-scaling-stroke" d="
  M 141.02 138.54
  L 140.96 123.00"
/>
<path stroke="#e2b176" vector-effect="non-scaling-stroke" d="
  M 195.72 201.98
  L 221.56 201.92"
/>
<path stroke="#bf8989" vector-effect="non-scaling-stroke" d="
  M 221.56 201.92
  L 237.01 201.98"
/>
<path stroke="#e2b984" vector-effect="non-scaling-stroke" d="
  M 237.01 201.98
  L 262.85 201.98"
/>
<path stroke="#e2b176" vector-effect="non-scaling-stroke" d="
  M 262.85 201.98
  L 284.79 201.98
  A 3.96 3.96 0.0 0 0 288.75 198.02
  L 288.75 97.98
  A 4.17 4.16 89.9 0 0 284.57 93.81
  L 262.86 93.88"
/>
<path stroke="#e2b984" vector-effect="non-scaling-stroke" d="
  M 262.86 93.88
  L 237.00 93.88"
/>
<path stroke="#bf8989" vector-effect="non-scaling-stroke" d="
  M 237.00 93.88
  L 221.57 93.92"
/>
<path stroke="#e2b176" vector-effect="non-scaling-stroke" d="
  M 221.57 93.92
  L 195.70 93.78"
/>
<path stroke="#e2b984" vector-effect="non-scaling-stroke" d="
  M 195.70 93.78
  Q 192.28 93.79 188.52 93.86
  C 184.59 93.94 169.77 91.62 169.77 98.07
  Q 169.73 147.66 169.93 197.25
  Q 169.95 201.87 174.50 201.96
  Q 180.23 202.08 195.72 201.98"
/>
<path stroke="#ffd969" vector-effect="non-scaling-stroke" d="
  M 195.70 93.78
  L 195.72 201.98"
/>
<path stroke="#dca96e" vector-effect="non-scaling-stroke" d="
  M 221.57 93.92
  L 221.56 201.92"
/>
<path stroke="#dcb17c" vector-effect="non-scaling-stroke" d="
  M 237.00 93.88
  L 237.01 201.98"
/>
<path stroke="#ffd969" vector-effect="non-scaling-stroke" d="
  M 262.86 93.88
  L 262.85 201.98"
/>
<path stroke="#ffd969" vector-effect="non-scaling-stroke" d="
  M 344.50 93.79
  L 343.98 94.00
  Q 343.50 94.19 343.50 94.70
  L 343.50 201.96"
/>
<path stroke="#dca96e" vector-effect="non-scaling-stroke" d="
  M 369.50 93.91
  L 369.50 201.71"
/>
<path stroke="#dcb17c" vector-effect="non-scaling-stroke" d="
  M 385.00 93.88
  L 385.02 201.96"
/>
<path stroke="#ffd969" vector-effect="non-scaling-stroke" d="
  M 410.79 93.88
  L 410.82 201.98"
/>
<path stroke="#bf8989" vector-effect="non-scaling-stroke" d="
  M 63.05 98.90
  C 74.65 119.88 65.48 138.68 58.59 159.32
  Q 52.30 178.18 61.15 197.00"
/>
<path stroke="#a58189" vector-effect="non-scaling-stroke" d="
  M 93.20 123.17
  C 94.96 128.58 96.42 132.98 97.40 138.52"
/>
<path stroke="#a58189" vector-effect="non-scaling-stroke" d="
  M 97.54 157.50
  L 93.19 172.76"
/>
<path stroke="#c3bdc5" vector-effect="non-scaling-stroke" d="
  M 484.99 267.01
  L 436.82 267.00"
/>
<path stroke="#9c8f9c" vector-effect="non-scaling-stroke" d="
  M 436.82 267.00
  L 436.95 232.94"
/>
<path stroke="#cecad0" vector-effect="non-scaling-stroke" d="
  M 436.82 267.00
  L 269.49 267.01"
/>
<path stroke="#ab848a" vector-effect="non-scaling-stroke" d="
  M 269.49 267.01
  L 233.96 267.01"
/>
<path stroke="#b08e94" vector-effect="non-scaling-stroke" d="
  M 233.96 267.01
  L 121.77 267.01"
/>
<path stroke="#b08e94" vector-effect="non-scaling-stroke" d="
  M 54.76 267.03
  L 20.50 267.14"
/>
<path stroke="#b08e94" vector-effect="non-scaling-stroke" d="
  M 54.77 384.62
  L 54.74 400.03"
/>
<path stroke="#b08e94" vector-effect="non-scaling-stroke" d="
  M 54.74 448.50
  L 54.13 448.80
  Q 53.72 449.00 53.26 449.00
  L 20.76 448.99"
/>
<path stroke="#b47676" vector-effect="non-scaling-stroke" d="
  M 233.96 267.01
  L 233.97 313.43
  Q 233.97 313.92 233.66 314.29
  L 233.25 314.79"
/>
<path stroke="#d7bcbd" vector-effect="non-scaling-stroke" d="
  M 233.25 314.79
  C 232.39 314.18 231.50 313.51 230.37 313.51
  Q 195.35 313.48 161.23 313.51
  A 3.74 3.73 0.0 0 0 157.49 317.24
  L 157.48 448.92"
/>
<path stroke="#b08e94" vector-effect="non-scaling-stroke" d="
  M 157.48 448.92
  L 121.80 449.00"
/>
<path stroke="#b08e94" vector-effect="non-scaling-stroke" d="
  M 121.77 400.01
  L 121.76 384.64"
/>
<path stroke="#d2b2b3" vector-effect="non-scaling-stroke" d="
  M 269.49 267.01
  L 269.94 311.48"
/>
<path stroke="#b47676" vector-effect="non-scaling-stroke" d="
  M 269.94 311.48
  L 269.55 348.13"
/>
<path stroke="#ba7f7f" vector-effect="non-scaling-stroke" d="
  M 269.55 348.13
  L 269.53 448.98"
/>
<path stroke="#ab848a" vector-effect="non-scaling-stroke" d="
  M 269.53 448.98
  L 233.96 448.75"
/>
<path stroke="#d2b2b3" vector-effect="non-scaling-stroke" d="
  M 233.96 448.75
  L 233.99 388.87"
/>
<path stroke="#ab848a" vector-effect="non-scaling-stroke" d="
  M 233.99 388.87
  L 234.01 373.50"
/>
<path stroke="#d2b2b3" vector-effect="non-scaling-stroke" d="
  M 234.01 373.50
  Q 233.99 345.64 234.00 317.77
  C 234.00 316.67 233.59 315.80 233.25 314.79"
/>
<path stroke="#d7bcbd" vector-effect="non-scaling-stroke" d="
  M 484.97 310.86
  C 479.88 329.17 463.92 337.90 446.29 330.75"
/>
<path stroke="#fae5aa" vector-effect="non-scaling-stroke" d="
  M 446.29 330.75
  Q 433.71 323.91 431.25 309.77
  Q 431.09 308.88 430.91 309.76
  C 426.19 332.27 402.84 340.87 385.22 325.85"
/>
<path stroke="#d2b2b3" vector-effect="non-scaling-stroke" d="
  M 385.22 325.85
  Q 378.51 318.74 377.30 308.76
  Q 377.22 308.16 377.15 308.76
  Q 375.96 318.37 369.51 325.48"
/>
<path stroke="#fae5aa" vector-effect="non-scaling-stroke" d="
  M 369.51 325.48
  Q 352.90 339.39 336.36 329.16
  C 329.05 324.64 324.85 318.12 323.75 309.71"
/>
<path stroke="#faedb8" vector-effect="non-scaling-stroke" d="
  M 323.75 309.71
  Q 323.85 308.33 323.45 307.02
  Q 323.27 306.43 323.26 307.04
  L 323.23 309.74"
/>
<path stroke="#fae5aa" vector-effect="non-scaling-stroke" d="
  M 323.23 309.74
  Q 320.88 324.04 308.21 330.67"
/>
<path stroke="#d7bcbd" vector-effect="non-scaling-stroke" d="
  M 308.21 330.67
  C 290.98 338.42 274.64 328.65 269.94 311.48"
/>
<path stroke="#ffd969" vector-effect="non-scaling-stroke" d="
  M 323.75 309.71
  Q 323.57 309.78 323.23 309.74"
/>
<path stroke="#d79f64" vector-effect="non-scaling-stroke" d="
  M 385.22 325.85
  L 385.05 351.84"
/>
<path stroke="#b47676" vector-effect="non-scaling-stroke" d="
  M 385.05 351.84
  L 378.65 349.17
  A 3.93 3.91 -46.3 0 0 375.44 349.25
  L 369.51 352.05"
/>
<path stroke="#d79f64" vector-effect="non-scaling-stroke" d="
  M 369.51 352.05
  L 369.51 325.48"
/>
<path stroke="#dca96e" vector-effect="non-scaling-stroke" d="
  M 446.29 330.75
  L 446.26 355.23"
/>
<path stroke="#e2b176" vector-effect="non-scaling-stroke" d="
  M 446.26 355.23
  Q 446.23 380.95 446.26 406.06
  C 446.27 409.85 444.99 412.20 440.99 412.23
  Q 430.63 412.32 420.25 412.19"
/>
<path stroke="#ffd969" vector-effect="non-scaling-stroke" d="
  M 420.25 412.19
  Q 420.27 385.97 420.23 359.71
  C 420.23 355.37 417.90 354.39 413.86 355.11
  Q 399.19 357.69 385.03 352.38"
/>
<path stroke="#dca96e" vector-effect="non-scaling-stroke" d="
  M 385.03 352.38
  Q 384.94 352.14 385.05 351.84"
/>
<path stroke="#dca96e" vector-effect="non-scaling-stroke" d="
  M 369.51 352.05
  L 369.50 412.07"
/>
<path stroke="#e2b176" vector-effect="non-scaling-stroke" d="
  M 369.50 412.07
  L 343.49 412.21"
/>
<path stroke="#ffd969" vector-effect="non-scaling-stroke" d="
  M 343.49 412.21
  Q 343.52 385.90 343.48 359.59
  C 343.48 357.97 342.63 355.67 341.11 355.31
  Q 332.11 353.23 324.65 348.98
  A 2.47 2.46 -44.2 0 0 322.27 348.95
  Q 315.52 352.54 308.25 354.76"
/>
<path stroke="#e2b176" vector-effect="non-scaling-stroke" d="
  M 308.25 354.76
  Q 308.33 354.37 308.12 354.24"
/>
<path stroke="#dca96e" vector-effect="non-scaling-stroke" d="
  M 308.12 354.24
  L 308.21 330.67"
/>
<path stroke="#a58189" vector-effect="non-scaling-stroke" d="
  M 484.99 448.97
  L 457.00 448.99"
/>
<path stroke="#bf8989" vector-effect="non-scaling-stroke" d="
  M 457.00 448.99
  L 457.00 358.49
  A 2.36 2.36 0.0 0 0 454.88 356.14
  L 446.26 355.23"
/>
<path stroke="#bf8989" vector-effect="non-scaling-stroke" d="
  M 308.12 354.24
  L 308.01 354.49
  Q 307.87 354.80 307.53 354.87
  Q 287.15 358.93 269.55 348.13"
/>
<path stroke="#cecad0" vector-effect="non-scaling-stroke" d="
  M 234.01 373.50
  Q 222.08 373.50 210.26 373.50
  Q 205.59 373.50 203.83 374.20
  C 198.81 376.20 197.96 383.72 202.11 387.06
  C 206.64 390.70 230.81 388.95 233.99 388.87"
/>
<path stroke="#cecad0" vector-effect="non-scaling-stroke" d="
  M 233.96 448.75
  L 157.48 448.92"
/>
<path stroke="#e2b984" vector-effect="non-scaling-stroke" d="
  M 308.25 354.76
  Q 308.25 380.53 308.25 406.37
  C 308.25 412.60 312.40 412.17 317.63 412.22
  Q 330.55 412.31 343.49 412.21"
/>
<path stroke="#bf8989" vector-effect="non-scaling-stroke" d="
  M 369.50 412.07
  L 385.04 412.00"
/>
<path stroke="#e2b984" vector-effect="non-scaling-stroke" d="
  M 385.04 412.00
  L 420.25 412.19"
/>
<path stroke="#b6969c" vector-effect="non-scaling-stroke" d="
  M 457.00 448.99
  L 269.53 448.98"
/>
<path stroke="#dcb17c" vector-effect="non-scaling-stroke" d="
  M 385.03 352.38
  L 385.04 412.00"
/>
<path stroke="#9c8f9c" vector-effect="non-scaling-stroke" d="
  M 96.00 399.99
  L 80.52 400.10"
/>
<path stroke="#9c8f9c" vector-effect="non-scaling-stroke" d="
  M 96.00 449.01
  L 80.52 448.97"
/>
<path stroke="#9c8f9c" vector-effect="non-scaling-stroke" d="
  M 457.00 448.99
  L 456.95 481.35
  Q 456.95 482.84 455.46 482.98
  L 453.25 483.18"
/>
</g>
<g fill="#b98080">
<path d="
  M 465.75 62.90
  L 465.75 232.84
  L 436.95 232.94
  Q 436.95 232.97 436.95 232.99
  L 436.73 199.68
  Q 436.90 148.38 436.57 97.02
  C 436.56 96.45 436.35 96.28 436.21 95.75
  C 438.22 92.87 437.01 68.12 437.02 63.00
  L 465.75 62.90
  Z"
/>
<path d="
  M 237.00 93.88
  L 237.01 201.98
  L 221.56 201.92
  L 221.57 93.92
  L 237.00 93.88
  Z"
/>
<path d="
  M 385.00 93.88
  L 385.02 201.96
  L 369.50 201.71
  L 369.50 93.91
  L 385.00 93.88
  Z"
/>
<path d="
  M 63.05 98.90
  C 77.09 99.86 87.93 110.34 93.20 123.17
  C 94.96 128.58 96.42 132.98 97.40 138.52
  Q 98.46 147.97 97.54 157.50
  L 93.19 172.76
  Q 90.45 178.93 86.26 184.25
  Q 76.28 196.92 61.15 197.00
  Q 52.30 178.18 58.59 159.32
  C 65.48 138.68 74.65 119.88 63.05 98.90
  Z"
/>
<path d="
  M 54.76 267.03
  L 54.77 384.62
  L 54.74 400.03
  L 54.74 448.50
  L 54.13 448.80
  Q 53.72 449.00 53.26 449.00
  L 20.76 448.99
  L 20.50 267.14
  L 54.76 267.03
  Z"
/>
<path d="
  M 233.96 267.01
  L 233.97 313.43
  Q 233.97 313.92 233.66 314.29
  L 233.25 314.79
  C 232.39 314.18 231.50 313.51 230.37 313.51
  Q 195.35 313.48 161.23 313.51
  A 3.74 3.73 0.0 0 0 157.49 317.24
  L 157.48 448.92
  L 121.80 449.00
  L 121.77 400.01
  L 121.76 384.64
  L 121.77 267.01
  L 233.96 267.01
  Z"
/>
<path d="
  M 484.97 310.86
  L 484.99 448.97
  L 457.00 448.99
  L 457.00 358.49
  A 2.36 2.36 0.0 0 0 454.88 356.14
  L 446.26 355.23
  L 446.29 330.75
  C 463.92 337.90 479.88 329.17 484.97 310.86
  Z"
/>
<path d="
  M 269.94 311.48
  C 274.64 328.65 290.98 338.42 308.21 330.67
  L 308.12 354.24
  L 308.01 354.49
  Q 307.87 354.80 307.53 354.87
  Q 287.15 358.93 269.55 348.13
  L 269.94 311.48
  Z"
/>
<path d="
  M 385.05 351.84
  Q 384.94 352.14 385.03 352.38
  L 385.04 412.00
  L 369.50 412.07
  L 369.51 352.05
  L 375.44 349.25
  A 3.93 3.91 -46.3 0 1 378.65 349.17
  L 385.05 351.84
  Z"
/>
</g>
<g fill="#ffd15b">
<path d="
  M 195.70 93.78
  L 221.57 93.92
  L 221.56 201.92
  L 195.72 201.98
  L 195.70 93.78
  Z"
/>
<path d="
  M 262.85 201.98
  L 262.86 93.88
  L 284.57 93.81
  A 4.17 4.16 89.9 0 1 288.75 97.98
  L 288.75 198.02
  A 3.96 3.96 0.0 0 1 284.79 201.98
  L 262.85 201.98
  Z"
/>
<path d="
  M 344.50 93.79
  L 369.50 93.91
  L 369.50 201.71
  L 343.50 201.96
  L 343.50 94.70
  Q 343.50 94.19 343.98 94.00
  L 344.50 93.79
  Z"
/>
<path d="
  M 436.21 95.75
  C 436.35 96.28 436.56 96.45 436.57 97.02
  Q 436.90 148.38 436.73 199.68
  C 435.30 201.08 434.25 201.93 432.11 201.95
  Q 421.94 202.06 410.82 201.98
  L 410.79 93.88
  Q 422.00 93.90 432.74 93.99
  C 434.31 94.00 435.17 94.74 436.21 95.75
  Z"
/>
<path d="
  M 446.29 330.75
  L 446.26 355.23
  Q 446.23 380.95 446.26 406.06
  C 446.27 409.85 444.99 412.20 440.99 412.23
  Q 430.63 412.32 420.25 412.19
  Q 420.27 385.97 420.23 359.71
  C 420.23 355.37 417.90 354.39 413.86 355.11
  Q 399.19 357.69 385.03 352.38
  Q 384.94 352.14 385.05 351.84
  L 385.22 325.85
  C 402.84 340.87 426.19 332.27 430.91 309.76
  Q 431.09 308.88 431.25 309.77
  Q 433.71 323.91 446.29 330.75
  Z"
/>
<path d="
  M 323.23 309.74
  Q 323.57 309.78 323.75 309.71
  C 324.85 318.12 329.05 324.64 336.36 329.16
  Q 352.90 339.39 369.51 325.48
  L 369.51 352.05
  L 369.50 412.07
  L 343.49 412.21
  Q 343.52 385.90 343.48 359.59
  C 343.48 357.97 342.63 355.67 341.11 355.31
  Q 332.11 353.23 324.65 348.98
  A 2.47 2.46 -44.2 0 0 322.27 348.95
  Q 315.52 352.54 308.25 354.76
  Q 308.33 354.37 308.12 354.24
  L 308.21 330.67
  Q 320.88 324.04 323.23 309.74
  Z"
/>
</g>
<g fill="#f5f8f9">
<path d="
  M 436.82 267.00
  L 484.99 267.01
  L 484.97 310.86
  C 479.88 329.17 463.92 337.90 446.29 330.75
  Q 433.71 323.91 431.25 309.77
  Q 431.09 308.88 430.91 309.76
  C 426.19 332.27 402.84 340.87 385.22 325.85
  Q 378.51 318.74 377.30 308.76
  Q 377.22 308.16 377.15 308.76
  Q 375.96 318.37 369.51 325.48
  Q 352.90 339.39 336.36 329.16
  C 329.05 324.64 324.85 318.12 323.75 309.71
  Q 323.85 308.33 323.45 307.02
  Q 323.27 306.43 323.26 307.04
  L 323.23 309.74
  Q 320.88 324.04 308.21 330.67
  C 290.98 338.42 274.64 328.65 269.94 311.48
  L 269.49 267.01
  L 436.82 267.00
  Z"
/>
<path d="
  M 233.25 314.79
  C 233.59 315.80 234.00 316.67 234.00 317.77
  Q 233.99 345.64 234.01 373.50
  Q 222.08 373.50 210.26 373.50
  Q 205.59 373.50 203.83 374.20
  C 198.81 376.20 197.96 383.72 202.11 387.06
  C 206.64 390.70 230.81 388.95 233.99 388.87
  L 233.96 448.75
  L 157.48 448.92
  L 157.49 317.24
  A 3.74 3.73 -0.0 0 1 161.23 313.51
  Q 195.35 313.48 230.37 313.51
  C 231.50 313.51 232.39 314.18 233.25 314.79
  Z"
/>
</g>
<g fill="#a79ba7">
<path d="
  M 437.25 28.79
  L 437.02 63.00
  L 140.97 63.02
  Q 133.87 62.96 126.74 63.03
  C 124.07 63.06 123.11 61.08 121.57 58.53
  Q 113.50 45.19 105.42 31.84
  A 1.85 1.84 74.4 0 1 106.99 29.04
  L 437.25 28.79
  Z"
/>
<path d="
  M 141.00 233.00
  L 436.95 232.99
  Q 436.95 232.97 436.95 232.94
  L 436.82 267.00
  L 269.49 267.01
  L 233.96 267.01
  L 121.77 267.01
  L 54.76 267.03
  L 20.50 267.14
  Q 12.31 266.90 4.00 267.00
  Q 1.07 267.04 0.00 263.69
  L 0.00 236.20
  C 0.82 233.92 2.26 233.00 4.76 233.00
  Q 72.93 233.00 141.00 233.00
  Z"
/>
<path d="
  M 234.01 373.50
  L 233.99 388.87
  C 230.81 388.95 206.64 390.70 202.11 387.06
  C 197.96 383.72 198.81 376.20 203.83 374.20
  Q 205.59 373.50 210.26 373.50
  Q 222.08 373.50 234.01 373.50
  Z"
/>
<path d="
  M 121.76 384.64
  L 121.77 400.01
  L 96.00 399.99
  L 80.52 400.10
  L 54.74 400.03
  L 54.77 384.62
  L 121.76 384.64
  Z"
/>
<path d="
  M 54.74 448.50
  Q 54.72 448.64 54.76 448.79
  Q 54.80 448.94 54.95 448.94
  L 80.52 448.97
  L 96.00 449.01
  L 121.80 449.00
  L 157.48 448.92
  L 233.96 448.75
  L 269.53 448.98
  L 457.00 448.99
  L 456.95 481.35
  Q 456.95 482.84 455.46 482.98
  L 453.25 483.18
  Q 192.15 482.61 5.50 483.25
  Q 1.25 483.26 0.00 479.69
  L 0.00 452.44
  Q 1.10 449.00 4.00 449.00
  Q 12.38 449.01 20.76 448.99
  L 53.26 449.00
  Q 53.72 449.00 54.13 448.80
  L 54.74 448.50
  Z"
/>
</g>
<g fill="#c59191">
<path d="
  M 437.02 63.00
  C 437.01 68.12 438.22 92.87 436.21 95.75
  C 435.17 94.74 434.31 94.00 432.74 93.99
  Q 422.00 93.90 410.79 93.88
  L 385.00 93.88
  L 369.50 93.91
  L 344.50 93.79
  Q 333.87 93.97 323.26 93.73
  Q 317.75 93.61 317.75 98.74
  Q 317.74 148.73 317.75 197.95
  A 4.03 4.03 0.0 0 0 321.78 201.98
  L 343.50 201.96
  L 369.50 201.71
  L 385.02 201.96
  L 410.82 201.98
  Q 421.94 202.06 432.11 201.95
  C 434.25 201.93 435.30 201.08 436.73 199.68
  L 436.95 232.99
  L 141.00 233.00
  L 141.01 172.83
  L 141.01 157.47
  L 141.02 138.54
  L 140.96 123.00
  L 140.97 63.02
  L 437.02 63.00
  Z
  M 195.72 201.98
  L 221.56 201.92
  L 237.01 201.98
  L 262.85 201.98
  L 284.79 201.98
  A 3.96 3.96 0.0 0 0 288.75 198.02
  L 288.75 97.98
  A 4.17 4.16 89.9 0 0 284.57 93.81
  L 262.86 93.88
  L 237.00 93.88
  L 221.57 93.92
  L 195.70 93.78
  Q 192.28 93.79 188.52 93.86
  C 184.59 93.94 169.77 91.62 169.77 98.07
  Q 169.73 147.66 169.93 197.25
  Q 169.95 201.87 174.50 201.96
  Q 180.23 202.08 195.72 201.98
  Z"
/>
<path d="
  M 63.05 98.90
  C 74.65 119.88 65.48 138.68 58.59 159.32
  Q 52.30 178.18 61.15 197.00
  Q 47.95 195.40 39.83 185.88
  C 21.54 164.42 22.08 126.36 43.18 106.70
  Q 51.18 99.24 63.05 98.90
  Z"
/>
<path d="
  M 269.55 348.13
  Q 287.15 358.93 307.53 354.87
  Q 307.87 354.80 308.01 354.49
  L 308.12 354.24
  Q 308.33 354.37 308.25 354.76
  Q 308.25 380.53 308.25 406.37
  C 308.25 412.60 312.40 412.17 317.63 412.22
  Q 330.55 412.31 343.49 412.21
  L 369.50 412.07
  L 385.04 412.00
  L 420.25 412.19
  Q 430.63 412.32 440.99 412.23
  C 444.99 412.20 446.27 409.85 446.26 406.06
  Q 446.23 380.95 446.26 355.23
  L 454.88 356.14
  A 2.36 2.36 0.0 0 1 457.00 358.49
  L 457.00 448.99
  L 269.53 448.98
  L 269.55 348.13
  Z"
/>
</g>
<g fill="#918291">
<path d="
  M 437.25 28.79
  L 499.64 28.83
  A 1.99 1.99 0.0 0 1 501.35 31.85
  L 483.55 61.29
  A 3.36 3.35 15.6 0 1 480.68 62.90
  L 465.75 62.90
  L 437.02 63.00
  L 437.25 28.79
  Z"
/>
<path d="
  M 140.96 123.00
  L 141.02 138.54
  L 97.40 138.52
  C 96.42 132.98 94.96 128.58 93.20 123.17
  L 140.96 123.00
  Z"
/>
<path d="
  M 141.01 157.47
  L 141.01 172.83
  L 93.19 172.76
  L 97.54 157.50
  L 141.01 157.47
  Z"
/>
<path d="
  M 465.75 232.84
  Q 487.00 233.12 508.25 233.00
  Q 511.17 232.99 512.00 236.56
  L 512.00 263.80
  Q 510.75 267.00 508.50 267.00
  Q 496.75 267.00 484.99 267.01
  L 436.82 267.00
  L 436.95 232.94
  L 465.75 232.84
  Z"
/>
<path d="
  M 96.00 399.99
  L 96.00 449.01
  L 80.52 448.97
  L 80.52 400.10
  L 96.00 399.99
  Z"
/>
<path d="
  M 484.99 448.97
  Q 496.33 449.02 507.75 449.00
  Q 511.25 448.99 512.00 452.81
  L 512.00 479.79
  Q 510.96 482.91 508.75 483.00
  Q 493.11 483.60 453.25 483.18
  L 455.46 482.98
  Q 456.95 482.84 456.95 481.35
  L 457.00 448.99
  L 484.99 448.97
  Z"
/>
</g>
<g fill="#ffe177">
<path d="
  M 195.70 93.78
  L 195.72 201.98
  Q 180.23 202.08 174.50 201.96
  Q 169.95 201.87 169.93 197.25
  Q 169.73 147.66 169.77 98.07
  C 169.77 91.62 184.59 93.94 188.52 93.86
  Q 192.28 93.79 195.70 93.78
  Z"
/>
<path d="
  M 262.86 93.88
  L 262.85 201.98
  L 237.01 201.98
  L 237.00 93.88
  L 262.86 93.88
  Z"
/>
<path d="
  M 344.50 93.79
  L 343.98 94.00
  Q 343.50 94.19 343.50 94.70
  L 343.50 201.96
  L 321.78 201.98
  A 4.03 4.03 0.0 0 1 317.75 197.95
  Q 317.74 148.73 317.75 98.74
  Q 317.75 93.61 323.26 93.73
  Q 333.87 93.97 344.50 93.79
  Z"
/>
<path d="
  M 410.79 93.88
  L 410.82 201.98
  L 385.02 201.96
  L 385.00 93.88
  L 410.79 93.88
  Z"
/>
<path d="
  M 323.75 309.71
  Q 323.57 309.78 323.23 309.74
  L 323.26 307.04
  Q 323.27 306.43 323.45 307.02
  Q 323.85 308.33 323.75 309.71
  Z"
/>
<path d="
  M 343.49 412.21
  Q 330.55 412.31 317.63 412.22
  C 312.40 412.17 308.25 412.60 308.25 406.37
  Q 308.25 380.53 308.25 354.76
  Q 315.52 352.54 322.27 348.95
  A 2.47 2.46 -44.2 0 1 324.65 348.98
  Q 332.11 353.23 341.11 355.31
  C 342.63 355.67 343.48 357.97 343.48 359.59
  Q 343.52 385.90 343.49 412.21
  Z"
/>
<path d="
  M 385.03 352.38
  Q 399.19 357.69 413.86 355.11
  C 417.90 354.39 420.23 355.37 420.23 359.71
  Q 420.27 385.97 420.25 412.19
  L 385.04 412.00
  L 385.03 352.38
  Z"
/>
</g>
<g fill="#ae6c6c">
<path d="
  M 233.96 267.01
  L 269.49 267.01
  L 269.94 311.48
  L 269.55 348.13
  L 269.53 448.98
  L 233.96 448.75
  L 233.99 388.87
  L 234.01 373.50
  Q 233.99 345.64 234.00 317.77
  C 234.00 316.67 233.59 315.80 233.25 314.79
  L 233.66 314.29
  Q 233.97 313.92 233.97 313.43
  L 233.96 267.01
  Z"
/>
<path d="
  M 385.22 325.85
  L 385.05 351.84
  L 378.65 349.17
  A 3.93 3.91 -46.3 0 0 375.44 349.25
  L 369.51 352.05
  L 369.51 325.48
  Q 375.96 318.37 377.15 308.76
  Q 377.22 308.16 377.30 308.76
  Q 378.51 318.74 385.22 325.85
  Z"
/>
</g>
</svg>
