<?xml version="1.0" encoding="UTF-8" standalone="no"?>
<!DOCTYPE svg PUBLIC "-//W3C//DTD SVG 1.1//EN" "http://www.w3.org/Graphics/SVG/1.1/DTD/svg11.dtd">
<svg xmlns="http://www.w3.org/2000/svg" version="1.1" viewBox="0.00 0.00 512.00 512.00">
<g stroke-width="2.00" fill="none" stroke-linecap="butt">
<path stroke="#ffdc4b" vector-effect="non-scaling-stroke" d="
  M 505.96 310.50
  Q 492.28 321.01 487.26 324.36
  Q 480.79 328.67 466.65 336.11
  Q 391.50 375.64 306.05 362.82"
/>
<path stroke="#fff3ad" vector-effect="non-scaling-stroke" d="
  M 306.05 362.82
  L 310.49 359.51"
/>
<path stroke="#ffb359" vector-effect="non-scaling-stroke" d="
  M 310.49 359.51
  C 356.64 340.67 382.75 292.99 369.53 244.19"
/>
<path stroke="#fff3ad" vector-effect="non-scaling-stroke" d="
  M 369.53 244.19
  Q 409.82 210.98 425.94 161.56
  C 431.51 144.48 430.43 128.18 417.37 114.80
  Q 405.51 102.65 387.00 102.59
  Q 362.65 102.50 338.29 102.50"
/>
<path stroke="#fff099" vector-effect="non-scaling-stroke" d="
  M 338.29 102.50
  L 337.61 100.18"
/>
<path stroke="#fff3ad" vector-effect="non-scaling-stroke" d="
  M 337.61 100.18
  Q 334.77 75.24 333.73 50.86
  Q 333.70 50.26 333.10 50.26
  L 199.26 50.26"
/>
<path stroke="#f0f0ad" vector-effect="non-scaling-stroke" d="
  M 199.26 50.26
  L 168.70 50.32
  Q 168.11 50.32 168.08 50.91
  Q 166.93 76.26 163.96 101.53"
/>
<path stroke="#ffe987" vector-effect="non-scaling-stroke" d="
  M 163.96 101.53
  L 157.78 141.99"
/>
<path stroke="#b48735" vector-effect="non-scaling-stroke" d="
  M 157.78 141.99
  Q 148.48 192.13 133.25 240.09"
/>
<path stroke="#e49644" vector-effect="non-scaling-stroke" d="
  M 133.25 240.09
  L 131.07 247.99"
/>
<path stroke="#ffdc4b" vector-effect="non-scaling-stroke" d="
  M 131.07 247.99
  Q 79.69 165.77 93.98 69.31
  C 94.48 65.94 95.94 60.67 96.18 56.13"
/>
<path stroke="#f0fdff" vector-effect="non-scaling-stroke" d="
  M 199.26 50.26
  Q 198.40 71.34 195.86 95.57
  Q 195.48 99.24 194.74 101.80"
/>
<path stroke="#f0f3da" vector-effect="non-scaling-stroke" d="
  M 194.74 101.80
  C 184.78 100.44 173.87 99.61 163.96 101.53"
/>
<path stroke="#fffdeb" vector-effect="non-scaling-stroke" d="
  M 337.61 100.18
  Q 324.38 95.86 311.07 96.93
  C 296.83 98.08 282.56 101.47 268.51 104.03
  Q 249.30 107.54 229.66 106.45"
/>
<path stroke="#fff5da" vector-effect="non-scaling-stroke" d="
  M 229.66 106.45
  L 194.74 101.80"
/>
<path stroke="#e48c35" vector-effect="non-scaling-stroke" d="
  M 131.07 247.99
  Q 127.66 265.49 129.57 280.93
  C 134.01 316.91 158.00 346.65 191.99 359.75"
/>
<path stroke="#f0e69e" vector-effect="non-scaling-stroke" d="
  M 191.99 359.75
  Q 195.29 362.24 198.60 364.65
  C 216.84 377.94 227.91 402.87 223.14 425.17
  C 218.65 446.21 199.72 461.00 178.17 461.39
  C 157.38 461.76 158.25 490.54 178.51 490.54
  Q 190.87 490.55 203.25 490.49"
/>
<path stroke="#ffe99e" vector-effect="non-scaling-stroke" d="
  M 203.25 490.49
  Q 263.72 490.53 324.19 490.47
  C 338.51 490.46 344.39 472.21 332.38 463.84
  C 328.51 461.15 325.09 461.52 320.31 461.18
  C 293.94 459.31 274.84 435.60 277.89 409.44
  Q 281.46 378.81 306.05 362.82"
/>
<path stroke="#fffdeb" vector-effect="non-scaling-stroke" d="
  M 338.29 102.50
  Q 337.83 103.18 337.95 104.01
  Q 339.74 117.46 342.05 130.51"
/>
<path stroke="#fff099" vector-effect="non-scaling-stroke" d="
  M 342.05 130.51
  Q 343.15 135.84 344.00 141.00
  Q 344.08 141.53 343.75 141.98"
/>
<path stroke="#c3947b" vector-effect="non-scaling-stroke" d="
  M 343.75 141.98
  L 224.25 141.96"
/>
<path stroke="#fff3c6" vector-effect="non-scaling-stroke" d="
  M 224.25 141.96
  L 229.66 106.45"
/>
<path stroke="#c38c69" vector-effect="non-scaling-stroke" d="
  M 224.25 141.96
  Q 224.13 141.98 224.00 142.00"
/>
<path stroke="#b48a62" vector-effect="non-scaling-stroke" d="
  M 224.00 142.00
  L 157.78 141.99"
/>
<path stroke="#ffbfab" vector-effect="non-scaling-stroke" d="
  M 369.53 244.19
  L 368.46 240.00"
/>
<path stroke="#c3968f" vector-effect="non-scaling-stroke" d="
  M 368.46 240.00
  L 360.86 214.38"
/>
<path stroke="#fff3ad" vector-effect="non-scaling-stroke" d="
  M 360.86 214.38
  Q 388.46 187.44 399.51 151.42
  Q 401.58 144.70 400.84 140.90
  C 399.32 133.02 392.63 130.55 385.25 130.53
  Q 364.22 130.49 342.05 130.51"
/>
<path stroke="#c38a3c" vector-effect="non-scaling-stroke" d="
  M 360.86 214.38
  Q 350.62 178.08 344.09 142.43
  Q 344.02 142.03 343.75 141.98"
/>
<path stroke="#782b17" vector-effect="non-scaling-stroke" d="
  M 224.00 142.00
  Q 214.70 190.85 200.23 238.32
  Q 200.00 239.07 200.00 240.00"
/>
<path stroke="#b45433" vector-effect="non-scaling-stroke" d="
  M 200.00 240.00
  L 199.38 240.03"
/>
<path stroke="#99371e" vector-effect="non-scaling-stroke" d="
  M 199.38 240.03
  L 133.25 240.09"
/>
<path stroke="#c3563b" vector-effect="non-scaling-stroke" d="
  M 368.46 240.00
  L 200.00 240.00"
/>
<path stroke="#e46342" vector-effect="non-scaling-stroke" d="
  M 199.38 240.03
  C 190.14 271.83 195.79 304.64 216.69 330.03
  Q 241.33 359.97 282.02 365.23"
/>
<path stroke="#e4a396" vector-effect="non-scaling-stroke" d="
  M 282.02 365.23
  L 232.01 365.40"
/>
<path stroke="#d5a096" vector-effect="non-scaling-stroke" d="
  M 232.01 365.40
  Q 211.39 366.35 191.99 359.75"
/>
<path stroke="#ffbfab" vector-effect="non-scaling-stroke" d="
  M 310.49 359.51
  Q 296.21 364.52 282.02 365.23"
/>
<path stroke="#f0fdff" vector-effect="non-scaling-stroke" d="
  M 203.25 490.49
  Q 203.49 489.19 202.76 489.26
  C 187.85 482.26 192.92 461.82 209.86 461.33
  C 237.70 460.53 257.31 437.82 255.16 410.07
  Q 253.24 385.29 233.69 367.78
  A 1.64 1.63 74.9 0 0 233.07 367.42
  L 231.94 367.07
  Q 231.38 366.89 231.61 366.35
  L 232.01 365.40"
/>
</g>
<path fill="#ffd23c" d="
  M 96.18 56.13
  C 95.94 60.67 94.48 65.94 93.98 69.31
  Q 79.69 165.77 131.07 247.99
  Q 127.66 265.49 129.57 280.93
  C 134.01 316.91 158.00 346.65 191.99 359.75
  Q 195.29 362.24 198.60 364.65
  C 216.84 377.94 227.91 402.87 223.14 425.17
  C 218.65 446.21 199.72 461.00 178.17 461.39
  C 157.38 461.76 158.25 490.54 178.51 490.54
  Q 190.87 490.55 203.25 490.49
  Q 263.72 490.53 324.19 490.47
  C 338.51 490.46 344.39 472.21 332.38 463.84
  C 328.51 461.15 325.09 461.52 320.31 461.18
  C 293.94 459.31 274.84 435.60 277.89 409.44
  Q 281.46 378.81 306.05 362.82
  Q 391.50 375.64 466.65 336.11
  Q 480.79 328.67 487.26 324.36
  Q 492.28 321.01 505.96 310.50
  C 481.03 427.61 377.94 509.49 259.42 512.00
  L 250.20 512.00
  C 111.95 508.05 4.43 398.89 0.00 261.69
  L 0.00 250.95
  C 1.83 174.42 36.60 104.07 96.18 56.13
  Z"
/>
<path fill="#872d1e" d="
  M 224.00 142.00
  Q 224.13 141.98 224.25 141.96
  L 343.75 141.98
  Q 344.02 142.03 344.09 142.43
  Q 350.62 178.08 360.86 214.38
  L 368.46 240.00
  L 200.00 240.00
  Q 200.00 239.07 200.23 238.32
  Q 214.70 190.85 224.00 142.00
  Z"
/>
<g fill="#ffffff">
<path d="
  M 199.26 50.26
  L 333.10 50.26
  Q 333.70 50.26 333.73 50.86
  Q 334.77 75.24 337.61 100.18
  Q 324.38 95.86 311.07 96.93
  C 296.83 98.08 282.56 101.47 268.51 104.03
  Q 249.30 107.54 229.66 106.45
  L 194.74 101.80
  Q 195.48 99.24 195.86 95.57
  Q 198.40 71.34 199.26 50.26
  Z"
/>
<path d="
  M 338.29 102.50
  Q 362.65 102.50 387.00 102.59
  Q 405.51 102.65 417.37 114.80
  C 430.43 128.18 431.51 144.48 425.94 161.56
  Q 409.82 210.98 369.53 244.19
  L 368.46 240.00
  L 360.86 214.38
  Q 388.46 187.44 399.51 151.42
  Q 401.58 144.70 400.84 140.90
  C 399.32 133.02 392.63 130.55 385.25 130.53
  Q 364.22 130.49 342.05 130.51
  Q 339.74 117.46 337.95 104.01
  Q 337.83 103.18 338.29 102.50
  Z"
/>
<path d="
  M 310.49 359.51
  L 306.05 362.82
  Q 281.46 378.81 277.89 409.44
  C 274.84 435.60 293.94 459.31 320.31 461.18
  C 325.09 461.52 328.51 461.15 332.38 463.84
  C 344.39 472.21 338.51 490.46 324.19 490.47
  Q 263.72 490.53 203.25 490.49
  Q 203.49 489.19 202.76 489.26
  C 187.85 482.26 192.92 461.82 209.86 461.33
  C 237.70 460.53 257.31 437.82 255.16 410.07
  Q 253.24 385.29 233.69 367.78
  A 1.64 1.63 74.9 0 0 233.07 367.42
  L 231.94 367.07
  Q 231.38 366.89 231.61 366.35
  L 232.01 365.40
  L 282.02 365.23
  Q 296.21 364.52 310.49 359.51
  Z"
/>
</g>
<path fill="#ff7f57" d="
  M 199.38 240.03
  L 200.00 240.00
  L 368.46 240.00
  L 369.53 244.19
  C 382.75 292.99 356.64 340.67 310.49 359.51
  Q 296.21 364.52 282.02 365.23
  Q 241.33 359.97 216.69 330.03
  C 195.79 304.64 190.14 271.83 199.38 240.03
  Z"
/>
<path fill="#c8462d" d="
  M 199.38 240.03
  C 190.14 271.83 195.79 304.64 216.69 330.03
  Q 241.33 359.97 282.02 365.23
  L 232.01 365.40
  Q 211.39 366.35 191.99 359.75
  C 158.00 346.65 134.01 316.91 129.57 280.93
  Q 127.66 265.49 131.07 247.99
  L 133.25 240.09
  L 199.38 240.03
  Z"
/>
<g fill="#ffe65a">
<path d="
  M 250.87 0.00
  L 262.04 0.00
  C 399.84 4.07 507.78 113.02 512.00 250.31
  L 512.00 259.55
  Q 511.62 285.38 505.96 310.50
  Q 492.28 321.01 487.26 324.36
  Q 480.79 328.67 466.65 336.11
  Q 391.50 375.64 306.05 362.82
  L 310.49 359.51
  C 356.64 340.67 382.75 292.99 369.53 244.19
  Q 409.82 210.98 425.94 161.56
  C 431.51 144.48 430.43 128.18 417.37 114.80
  Q 405.51 102.65 387.00 102.59
  Q 362.65 102.50 338.29 102.50
  L 337.61 100.18
  Q 334.77 75.24 333.73 50.86
  Q 333.70 50.26 333.10 50.26
  L 199.26 50.26
  L 168.70 50.32
  Q 168.11 50.32 168.08 50.91
  Q 166.93 76.26 163.96 101.53
  L 157.78 141.99
  Q 148.48 192.13 133.25 240.09
  L 131.07 247.99
  Q 79.69 165.77 93.98 69.31
  C 94.48 65.94 95.94 60.67 96.18 56.13
  C 138.43 20.23 195.74 1.57 250.87 0.00
  Z"
/>
<path d="
  M 342.05 130.51
  Q 364.22 130.49 385.25 130.53
  C 392.63 130.55 399.32 133.02 400.84 140.90
  Q 401.58 144.70 399.51 151.42
  Q 388.46 187.44 360.86 214.38
  Q 350.62 178.08 344.09 142.43
  Q 344.02 142.03 343.75 141.98
  Q 344.08 141.53 344.00 141.00
  Q 343.15 135.84 342.05 130.51
  Z"
/>
</g>
<path fill="#fffad7" d="
  M 337.61 100.18
  L 338.29 102.50
  Q 337.83 103.18 337.95 104.01
  Q 339.74 117.46 342.05 130.51
  Q 343.15 135.84 344.00 141.00
  Q 344.08 141.53 343.75 141.98
  L 224.25 141.96
  L 229.66 106.45
  Q 249.30 107.54 268.51 104.03
  C 282.56 101.47 296.83 98.08 311.07 96.93
  Q 324.38 95.86 337.61 100.18
  Z"
/>
<g fill="#e1faff">
<path d="
  M 199.26 50.26
  Q 198.40 71.34 195.86 95.57
  Q 195.48 99.24 194.74 101.80
  C 184.78 100.44 173.87 99.61 163.96 101.53
  Q 166.93 76.26 168.08 50.91
  Q 168.11 50.32 168.70 50.32
  L 199.26 50.26
  Z"
/>
<path d="
  M 191.99 359.75
  Q 211.39 366.35 232.01 365.40
  L 231.61 366.35
  Q 231.38 366.89 231.94 367.07
  L 233.07 367.42
  A 1.64 1.63 74.9 0 1 233.69 367.78
  Q 253.24 385.29 255.16 410.07
  C 257.31 437.82 237.70 460.53 209.86 461.33
  C 192.92 461.82 187.85 482.26 202.76 489.26
  Q 203.49 489.19 203.25 490.49
  Q 190.87 490.55 178.51 490.54
  C 158.25 490.54 157.38 461.76 178.17 461.39
  C 199.72 461.00 218.65 446.21 223.14 425.17
  C 227.91 402.87 216.84 377.94 198.60 364.65
  Q 195.29 362.24 191.99 359.75
  Z"
/>
</g>
<path fill="#69280f" d="
  M 157.78 141.99
  L 224.00 142.00
  Q 214.70 190.85 200.23 238.32
  Q 200.00 239.07 200.00 240.00
  L 199.38 240.03
  L 133.25 240.09
  Q 148.48 192.13 157.78 141.99
  Z"
/>
<path fill="#ffebb4" d="
  M 194.74 101.80
  L 229.66 106.45
  L 224.25 141.96
  Q 224.13 141.98 224.00 142.00
  L 157.78 141.99
  L 163.96 101.53
  C 173.87 99.61 184.78 100.44 194.74 101.80
  Z"
/>
</svg>
