<?xml version="1.0" encoding="utf-8"?>
<svg version="1.1" viewBox="0.00 0.00 512.00 512.00" xmlns="http://www.w3.org/2000/svg">
  <g stroke-width="2.00" fill="none" stroke-linecap="butt">
    <path stroke="#fea55b" vector-effect="non-scaling-stroke" d=" M 506.03 310.97 C 504.50 310.62 503.28 312.54 502.45 313.20 Q 477.75 332.58 447.98 345.08"/>
    <path stroke="#fedaa6" vector-effect="non-scaling-stroke" d=" M 447.98 345.08 Q 462.89 325.53 471.14 303.56 Q 475.90 290.88 476.68 284.38 C 478.71 267.29 467.58 250.16 450.94 245.50 C 440.00 242.43 422.81 244.00 410.26 244.00 Q 409.66 244.00 409.68 243.40 L 409.95 235.88 Q 410.00 234.51 408.62 234.51 L 184.98 234.50"/>
    <path stroke="#d6cea6" vector-effect="non-scaling-stroke" d=" M 184.98 234.50 L 122.87 234.48"/>
    <path stroke="#fea55b" vector-effect="non-scaling-stroke" d=" M 122.87 234.48 Q 111.53 213.73 104.22 191.41"/>
    <path stroke="#9ab034" vector-effect="non-scaling-stroke" d=" M 104.22 191.41 Q 128.05 198.91 151.77 195.22 Q 153.09 195.01 154.49 196.51 Q 158.15 200.43 167.44 207.50"/>
    <path stroke="#a7bd37" vector-effect="non-scaling-stroke" d=" M 167.44 207.50 Q 169.83 205.77 174.75 201.49 C 198.15 181.14 215.20 153.81 196.75 123.48 Q 185.59 105.15 168.05 92.44"/>
    <path stroke="#9ab034" vector-effect="non-scaling-stroke" d=" M 168.05 92.44 Q 167.49 91.69 166.06 92.81 Q 148.03 106.91 136.82 125.17"/>
    <path stroke="#a7bd37" vector-effect="non-scaling-stroke" d=" M 136.82 125.17 C 123.72 114.84 107.24 111.86 90.79 111.73"/>
    <path stroke="#fea55b" vector-effect="non-scaling-stroke" d=" M 90.79 111.73 Q 90.78 83.67 96.51 55.86"/>
    <path stroke="#fedaa6" vector-effect="non-scaling-stroke" d=" M 262.00 82.96 C 256.06 71.58 258.70 62.94 262.61 50.99 C 264.03 46.64 263.74 42.98 263.09 38.67 A 0.41 0.41 0.0 0 0 262.30 38.60 C 261.18 42.07 259.86 45.34 257.69 48.48 C 254.25 53.42 250.19 58.20 248.45 63.72 C 245.33 73.66 246.37 82.54 250.98 91.77 C 254.38 98.56 256.07 105.54 254.68 112.19 C 253.43 118.20 249.21 124.35 247.85 129.66 C 245.29 139.64 246.81 149.95 252.73 158.49 C 256.71 164.23 260.30 168.57 262.32 175.44 A 0.35 0.34 42.2 0 0 262.99 175.41 Q 263.65 171.76 263.53 168.16 C 263.33 162.12 260.09 156.77 259.00 150.79 Q 257.68 143.55 259.73 136.57 C 261.85 129.30 267.33 123.66 269.09 116.37 Q 271.85 104.88 267.85 93.63 C 266.55 89.97 263.57 85.96 262.00 82.96"/>
    <path stroke="#a8ad46" vector-effect="non-scaling-stroke" d=" M 90.79 111.73 L 73.48 113.00"/>
    <path stroke="#9ba043" vector-effect="non-scaling-stroke" d=" M 73.48 113.00 Q 72.30 112.80 72.04 115.00 C 70.01 132.61 70.27 151.34 77.54 166.98 Q 85.76 184.64 104.22 191.41"/>
    <path stroke="#d7beb5" vector-effect="non-scaling-stroke" d=" M 122.87 234.48 L 88.81 234.49 A 0.81 0.81 0.0 0 0 88.00 235.30 Q 88.04 252.34 90.62 268.47"/>
    <path stroke="#c36144" vector-effect="non-scaling-stroke" d=" M 90.62 268.47 C 99.19 323.51 132.58 383.01 184.98 407.09"/>
    <path stroke="#d7beb5" vector-effect="non-scaling-stroke" d=" M 184.98 407.09 L 185.03 423.24"/>
    <path stroke="#ffcab5" vector-effect="non-scaling-stroke" d=" M 185.03 423.24 L 163.24 423.26"/>
    <path stroke="#d7beb5" vector-effect="non-scaling-stroke" d=" M 163.24 423.26 L 88.53 423.26 Q 88.02 423.26 88.03 423.77 C 88.30 438.45 100.41 448.81 114.76 448.79 Q 149.33 448.75 184.27 448.77"/>
    <path stroke="#ffcab5" vector-effect="non-scaling-stroke" d=" M 184.27 448.77 Q 280.75 448.72 377.75 448.76 Q 387.45 448.77 392.09 447.34 Q 407.89 442.47 410.02 423.99 A 0.67 0.67 0.0 0 0 409.36 423.24 L 312.76 423.25"/>
    <path stroke="#d7beb5" vector-effect="non-scaling-stroke" d=" M 312.76 423.25 L 312.88 407.06"/>
    <path stroke="#d56444" vector-effect="non-scaling-stroke" d=" M 312.88 407.06 L 318.62 404.79"/>
    <path stroke="#ffcab5" vector-effect="non-scaling-stroke" d=" M 318.62 404.79 Q 387.98 406.04 436.08 358.38 Q 438.73 355.75 442.12 351.83 Q 445.22 348.25 447.98 345.08"/>
    <path stroke="#d7f3ff" vector-effect="non-scaling-stroke" d=" M 184.98 234.50 Q 185.04 251.44 187.47 268.23"/>
    <path stroke="#9b8a8f" vector-effect="non-scaling-stroke" d=" M 187.47 268.23 L 90.62 268.47"/>
    <path stroke="#d5998f" vector-effect="non-scaling-stroke" d=" M 318.62 404.79 Q 338.59 392.86 354.37 377.29"/>
    <path stroke="#ffcab5" vector-effect="non-scaling-stroke" d=" M 354.37 377.29 Q 374.42 372.79 391.60 362.65"/>
    <path stroke="#fedaa6" vector-effect="non-scaling-stroke" d=" M 391.60 362.65 Q 436.48 335.78 451.82 285.50 C 455.24 274.31 448.50 268.00 438.00 267.96 C 434.39 267.95 408.48 267.38 407.20 268.50"/>
    <path stroke="#d5998f" vector-effect="non-scaling-stroke" d=" M 407.20 268.50 L 188.00 268.50"/>
    <path stroke="#c3968f" vector-effect="non-scaling-stroke" d=" M 188.00 268.50 L 187.47 268.23"/>
    <path stroke="#fea55b" vector-effect="non-scaling-stroke" d=" M 391.60 362.65 L 365.19 365.14"/>
    <path stroke="#d37435" vector-effect="non-scaling-stroke" d=" M 365.19 365.14 Q 399.08 322.38 407.20 268.50"/>
    <path stroke="#99301e" vector-effect="non-scaling-stroke" d=" M 188.00 268.50 Q 187.81 269.12 187.87 269.46 Q 195.38 318.41 224.45 358.29 Q 250.12 393.51 291.40 412.36"/>
    <path stroke="#9b8a8f" vector-effect="non-scaling-stroke" d=" M 291.40 412.36 Q 287.89 413.23 283.75 413.23 Q 230.03 413.34 215.07 413.19 Q 200.05 413.05 184.98 407.09"/>
    <path stroke="#d56444" vector-effect="non-scaling-stroke" d=" M 365.19 365.14 L 354.37 377.29"/>
    <path stroke="#ad8c8f" vector-effect="non-scaling-stroke" d=" M 312.88 407.06 Q 301.34 411.78 291.40 412.36"/>
    <path stroke="#d7f3ff" vector-effect="non-scaling-stroke" d=" M 312.76 423.25 L 185.03 423.24"/>
    <path stroke="#d7f3ff" vector-effect="non-scaling-stroke" d=" M 184.27 448.77 Q 164.61 442.62 163.24 423.26"/>
  </g>
  <g fill="#fcb54c">
    <path d="M 250.57 0 L 262.03 0 C 399.6 4.16 507.99 112.89 512 250.33 L 512 259.55 C 511.64 276.97 509.65 294.11 506.03 310.97 C 504.5 310.62 503.28 312.54 502.45 313.2 C 485.983 326.12 467.827 336.747 447.98 345.08 C 457.92 332.047 465.64 318.207 471.14 303.56 C 474.313 295.107 476.16 288.713 476.68 284.38 C 478.71 267.29 467.58 250.16 450.94 245.5 C 440 242.43 422.81 244 410.26 244 C 409.86 244 409.667 243.8 409.68 243.4 L 409.95 235.88 C 409.983 234.967 409.54 234.51 408.62 234.51 L 184.98 234.5 L 122.87 234.48 C 115.31 220.647 109.093 206.29 104.22 191.41 C 91.329 149.647 92.252 136.441 90.79 111.73 C 90.783 93.023 92.69 74.4 96.51 55.86 C 138.73 20.22 195.88 1.53 250.57 0 Z M 262 82.96 C 256.06 71.58 258.7 62.94 262.61 50.99 C 264.03 46.64 263.74 42.98 263.09 38.67 C 263.037 38.359 262.667 38.222 262.424 38.423 C 262.368 38.47 262.325 38.531 262.3 38.6 C 261.18 42.07 259.86 45.34 257.69 48.48 C 254.25 53.42 250.19 58.2 248.45 63.72 C 245.33 73.66 246.37 82.54 250.98 91.77 C 254.38 98.56 256.07 105.54 254.68 112.19 C 253.43 118.2 249.21 124.35 247.85 129.66 C 245.29 139.64 246.81 149.95 252.73 158.49 C 256.71 164.23 260.3 168.57 262.32 175.44 C 262.401 175.695 262.726 175.774 262.905 175.583 C 262.95 175.535 262.979 175.475 262.99 175.41 C 263.43 172.977 263.61 170.56 263.53 168.16 C 263.33 162.12 260.09 156.77 259 150.79 C 258.12 145.963 258.363 141.223 259.73 136.57 C 261.85 129.3 267.33 123.66 269.09 116.37 C 270.93 108.71 270.517 101.13 267.85 93.63 C 266.55 89.97 263.57 85.96 262 82.96 Z"/>
    <path d=" M 391.60 362.65 L 365.19 365.14 Q 399.08 322.38 407.20 268.50 C 408.48 267.38 434.39 267.95 438.00 267.96 C 448.50 268.00 455.24 274.31 451.82 285.50 Q 436.48 335.78 391.60 362.65 Z"/>
  </g>
  <path fill="#aa321e" d=" M 188.00 268.50 L 407.20 268.50 Q 399.08 322.38 365.19 365.14 L 354.37 377.29 Q 338.59 392.86 318.62 404.79 L 312.88 407.06 Q 301.34 411.78 291.40 412.36 Q 250.12 393.51 224.45 358.29 Q 195.38 318.41 187.87 269.46 Q 187.81 269.12 188.00 268.50 Z"/>
  <g fill="#ffffff">
    <path d=" M 262.61 50.99 C 258.70 62.94 256.06 71.58 262.00 82.96 C 263.57 85.96 266.55 89.97 267.85 93.63 Q 271.85 104.88 269.09 116.37 C 267.33 123.66 261.85 129.30 259.73 136.57 Q 257.68 143.55 259.00 150.79 C 260.09 156.77 263.33 162.12 263.53 168.16 Q 263.65 171.76 262.99 175.41 A 0.35 0.34 42.2 0 1 262.32 175.44 C 260.30 168.57 256.71 164.23 252.73 158.49 C 246.81 149.95 245.29 139.64 247.85 129.66 C 249.21 124.35 253.43 118.20 254.68 112.19 C 256.07 105.54 254.38 98.56 250.98 91.77 C 246.37 82.54 245.33 73.66 248.45 63.72 C 250.19 58.20 254.25 53.42 257.69 48.48 C 259.86 45.34 261.18 42.07 262.30 38.60 A 0.41 0.41 0.0 0 1 263.09 38.67 C 263.74 42.98 264.03 46.64 262.61 50.99 Z"/>
    <path d=" M 184.98 234.50 L 408.62 234.51 Q 410.00 234.51 409.95 235.88 L 409.68 243.40 Q 409.66 244.00 410.26 244.00 C 422.81 244.00 440.00 242.43 450.94 245.50 C 467.58 250.16 478.71 267.29 476.68 284.38 Q 475.90 290.88 471.14 303.56 Q 462.89 325.53 447.98 345.08 Q 445.22 348.25 442.12 351.83 Q 438.73 355.75 436.08 358.38 Q 387.98 406.04 318.62 404.79 Q 338.59 392.86 354.37 377.29 Q 374.42 372.79 391.60 362.65 Q 436.48 335.78 451.82 285.50 C 455.24 274.31 448.50 268.00 438.00 267.96 C 434.39 267.95 408.48 267.38 407.20 268.50 L 188.00 268.50 L 187.47 268.23 Q 185.04 251.44 184.98 234.50 Z"/>
    <path d=" M 185.03 423.24 L 312.76 423.25 L 409.36 423.24 A 0.67 0.67 0.0 0 1 410.02 423.99 Q 407.89 442.47 392.09 447.34 Q 387.45 448.77 377.75 448.76 Q 280.75 448.72 184.27 448.77 Q 164.61 442.62 163.24 423.26 L 185.03 423.24 Z"/>
  </g>
  <g fill="#ff956a">
    <path d="M 96.51 55.86 C 92.69 74.4 90.783 93.023 90.79 111.73 C 90.79 111.73 92.513 146.728 104.22 191.41 C 109.093 206.29 115.31 220.647 122.87 234.48 L 88.81 234.49 C 88.363 234.49 88 234.853 88 235.3 C 88.027 246.66 88.9 257.717 90.62 268.47 C 99.19 323.51 132.58 383.01 184.98 407.09 L 185.03 423.24 L 163.24 423.26 L 88.53 423.26 C 88.19 423.26 88.023 423.43 88.03 423.77 C 88.3 438.45 100.41 448.81 114.76 448.79 C 137.807 448.763 160.977 448.757 184.27 448.77 C 248.59 448.737 313.083 448.733 377.75 448.76 C 384.217 448.767 388.997 448.293 392.09 447.34 C 402.623 444.093 408.6 436.31 410.02 423.99 C 410.068 423.593 409.76 423.243 409.36 423.24 L 312.76 423.25 L 312.88 407.06 L 318.62 404.79 C 364.86 405.623 404.013 390.153 436.08 358.38 C 437.847 356.627 439.86 354.443 442.12 351.83 C 444.187 349.443 446.14 347.193 447.98 345.08 C 467.827 336.747 485.983 326.12 502.45 313.2 C 503.28 312.54 504.5 310.62 506.03 310.97 C 479.9 427.55 378.85 509.44 259.92 512 L 250.21 512 C 112.31 507.97 3.98 398.92 0 261.43 L 0 251.21 C 1.77 174.56 36.68 103.74 96.51 55.86 Z"/>
    <path d=" M 391.60 362.65 Q 374.42 372.79 354.37 377.29 L 365.19 365.14 L 391.60 362.65 Z"/>
  </g>
  <g fill="#afe6ff">
    <path d=" M 122.87 234.48 L 184.98 234.50 Q 185.04 251.44 187.47 268.23 L 90.62 268.47 Q 88.04 252.34 88.00 235.30 A 0.81 0.81 0.0 0 1 88.81 234.49 L 122.87 234.48 Z"/>
    <path d=" M 184.98 407.09 Q 200.05 413.05 215.07 413.19 Q 230.03 413.34 283.75 413.23 Q 287.89 413.23 291.40 412.36 Q 301.34 411.78 312.88 407.06 L 312.76 423.25 L 185.03 423.24 L 184.98 407.09 Z"/>
    <path d=" M 163.24 423.26 Q 164.61 442.62 184.27 448.77 Q 149.33 448.75 114.76 448.79 C 100.41 448.81 88.30 438.45 88.03 423.77 Q 88.02 423.26 88.53 423.26 L 163.24 423.26 Z"/>
  </g>
  <path fill="#872d1e" d=" M 187.47 268.23 L 188.00 268.50 Q 187.81 269.12 187.87 269.46 Q 195.38 318.41 224.45 358.29 Q 250.12 393.51 291.40 412.36 Q 287.89 413.23 283.75 413.23 Q 230.03 413.34 215.07 413.19 Q 200.05 413.05 184.98 407.09 C 132.58 383.01 99.19 323.51 90.62 268.47 L 187.47 268.23 Z"/>
</svg>