<?xml version="1.0" encoding="UTF-8" standalone="no"?>
<!DOCTYPE svg PUBLIC "-//W3C//DTD SVG 1.1//EN" "http://www.w3.org/Graphics/SVG/1.1/DTD/svg11.dtd">
<svg xmlns="http://www.w3.org/2000/svg" version="1.1" viewBox="0.00 0.00 512.00 512.00">
<g stroke-width="2.00" fill="none" stroke-linecap="butt">
<path stroke="#8dcf46" vector-effect="non-scaling-stroke" d="
  M 505.52 309.97
  Q 504.75 310.26 502.94 311.67
  Q 452.70 350.82 388.99 361.72
  Q 384.59 362.48 371.17 364.19"
/>
<path stroke="#72c12e" vector-effect="non-scaling-stroke" d="
  M 371.17 364.19
  L 382.86 219.52"
/>
<path stroke="#bb8f37" vector-effect="non-scaling-stroke" d="
  M 382.86 219.52
  L 388.35 153.95"
/>
<path stroke="#ac8530" vector-effect="non-scaling-stroke" d="
  M 388.35 153.95
  L 389.82 134.78"
/>
<path stroke="#d6b756" vector-effect="non-scaling-stroke" d="
  M 389.82 134.78
  L 404.44 134.86
  A 0.58 0.58 0.0 0 0 405.03 134.25
  L 402.56 90.71
  Q 402.53 90.20 402.02 90.20
  L 380.70 90.14"
/>
<path stroke="#d6aa45" vector-effect="non-scaling-stroke" d="
  M 380.70 90.14
  L 380.67 68.68
  Q 380.67 68.07 380.06 68.07
  L 355.26 67.98"
/>
<path stroke="#d6b756" vector-effect="non-scaling-stroke" d="
  M 355.26 67.98
  L 355.29 37.49
  A 0.41 0.41 0.0 0 0 354.76 37.09
  L 279.38 59.20
  Q 278.80 59.37 278.80 59.97
  L 278.78 67.73"
/>
<path stroke="#d6aa45" vector-effect="non-scaling-stroke" d="
  M 278.78 67.73
  L 211.23 68.00"
/>
<path stroke="#c99748" vector-effect="non-scaling-stroke" d="
  M 211.23 68.00
  L 140.32 68.01
  A 0.57 0.56 0.0 0 0 139.75 68.57
  L 139.75 90.06"
/>
<path stroke="#d6aa45" vector-effect="non-scaling-stroke" d="
  M 139.75 90.06
  L 118.86 90.18
  Q 118.32 90.18 118.29 90.73
  L 115.76 134.19
  A 0.69 0.68 1.5 0 0 116.46 134.92
  L 129.54 134.81"
/>
<path stroke="#ac8530" vector-effect="non-scaling-stroke" d="
  M 129.54 134.81
  L 136.31 219.48"
/>
<path stroke="#6db928" vector-effect="non-scaling-stroke" d="
  M 136.31 219.48
  L 139.28 257.74"
/>
<path stroke="#8dcf46" vector-effect="non-scaling-stroke" d="
  M 139.28 257.74
  C 138.86 258.04 138.50 258.07 138.17 257.60
  C 100.13 202.69 83.01 135.26 94.66 68.68
  Q 95.74 62.49 96.58 55.95"
/>
<path stroke="#ff8959" vector-effect="non-scaling-stroke" d="
  M 355.26 67.98
  L 280.83 67.99
  Q 280.34 67.99 279.88 67.82
  Q 279.41 67.64 278.78 67.73"
/>
<path stroke="#4daf2c" vector-effect="non-scaling-stroke" d="
  M 139.28 257.74
  L 147.65 365.21"
/>
<path stroke="#8c7c34" vector-effect="non-scaling-stroke" d="
  M 147.65 365.21
  L 153.66 442.32
  Q 153.70 442.92 154.29 442.92
  L 164.75 443.03"
/>
<path stroke="#7a7934" vector-effect="non-scaling-stroke" d="
  M 164.75 443.03
  L 166.97 472.93
  Q 167.01 473.46 167.54 473.46
  L 229.95 473.70"
/>
<path stroke="#8c7c34" vector-effect="non-scaling-stroke" d="
  M 229.95 473.70
  L 280.13 473.56"
/>
<path stroke="#7a7934" vector-effect="non-scaling-stroke" d="
  M 280.13 473.56
  C 279.68 480.95 280.34 487.84 283.97 494.40"
/>
<path stroke="#6b772d" vector-effect="non-scaling-stroke" d="
  M 283.97 494.40
  Q 288.94 502.68 297.74 507.43"
/>
<path stroke="#ff8959" vector-effect="non-scaling-stroke" d="
  M 380.70 90.14
  L 224.01 89.94
  Q 223.47 89.94 223.47 90.48
  Q 223.51 110.90 223.47 131.05
  C 223.47 132.17 222.73 134.33 224.49 134.81"
/>
<path stroke="#d55733" vector-effect="non-scaling-stroke" d="
  M 224.49 134.81
  L 129.54 134.81"
/>
<path stroke="#f2694b" vector-effect="non-scaling-stroke" d="
  M 139.75 90.06
  L 210.36 90.05
  A 0.89 0.88 0.0 0 0 211.25 89.17
  L 211.23 68.00"
/>
<path stroke="#d56444" vector-effect="non-scaling-stroke" d="
  M 389.82 134.78
  L 224.49 134.81"
/>
<path stroke="#b93c26" vector-effect="non-scaling-stroke" d="
  M 388.35 153.95
  L 224.13 153.99
  A 0.67 0.67 0.0 0 0 223.46 154.66
  L 223.45 219.49"
/>
<path stroke="#6b6616" vector-effect="non-scaling-stroke" d="
  M 223.45 219.49
  L 136.31 219.48"
/>
<path stroke="#807824" vector-effect="non-scaling-stroke" d="
  M 382.86 219.52
  L 258.23 219.49"
/>
<path stroke="#7a701e" vector-effect="non-scaling-stroke" d="
  M 258.23 219.49
  L 223.45 219.49"
/>
<path stroke="#32a215" vector-effect="non-scaling-stroke" d="
  M 258.23 219.49
  L 258.32 238.00
  Q 258.32 238.55 258.87 238.59
  Q 286.47 240.71 301.12 261.70
  C 325.67 296.89 301.36 343.77 259.11 346.03
  A 0.82 0.82 0.0 0 0 258.33 346.85
  L 258.33 365.24"
/>
<path stroke="#7a701e" vector-effect="non-scaling-stroke" d="
  M 258.33 365.24
  L 223.39 365.24"
/>
<path stroke="#6b6616" vector-effect="non-scaling-stroke" d="
  M 223.39 365.24
  L 147.65 365.21"
/>
<path stroke="#32a215" vector-effect="non-scaling-stroke" d="
  M 282.73 292.37
  A 25.54 25.54 0.0 0 0 257.19 266.83
  A 25.54 25.54 0.0 0 0 231.65 292.37
  A 25.54 25.54 0.0 0 0 257.19 317.91
  A 25.54 25.54 0.0 0 0 282.73 292.37"
/>
<path stroke="#52b833" vector-effect="non-scaling-stroke" d="
  M 371.17 364.19
  Q 371.14 364.66 370.75 365.23"
/>
<path stroke="#807824" vector-effect="non-scaling-stroke" d="
  M 370.75 365.23
  L 258.33 365.24"
/>
<path stroke="#6b772d" vector-effect="non-scaling-stroke" d="
  M 445.41 426.66
  Q 440.69 408.69 427.94 397.56
  Q 418.10 388.98 405.16 389.06"
/>
<path stroke="#7a7934" vector-effect="non-scaling-stroke" d="
  M 405.16 389.06
  C 387.93 388.42 373.93 406.01 368.65 420.46
  Q 368.47 420.97 367.93 420.92
  Q 367.16 420.85 366.55 420.09"
/>
<path stroke="#9b863c" vector-effect="non-scaling-stroke" d="
  M 366.55 420.09
  L 370.93 365.42
  A 0.15 0.14 -76.7 0 0 370.84 365.27
  Q 370.79 365.25 370.75 365.23"
/>
<path stroke="#b93c26" vector-effect="non-scaling-stroke" d="
  M 223.39 365.24
  L 223.43 442.98"
/>
<path stroke="#99301e" vector-effect="non-scaling-stroke" d="
  M 223.43 442.98
  L 164.75 443.03"
/>
<path stroke="#a83a26" vector-effect="non-scaling-stroke" d="
  M 366.55 420.09
  Q 350.12 414.82 334.23 418.98
  Q 310.79 425.12 294.66 443.11"
/>
<path stroke="#b93c26" vector-effect="non-scaling-stroke" d="
  M 294.66 443.11
  L 230.23 443.04"
/>
<path stroke="#a83a26" vector-effect="non-scaling-stroke" d="
  M 230.23 443.04
  L 223.43 442.98"
/>
<path stroke="#782b17" vector-effect="non-scaling-stroke" d="
  M 405.16 389.06
  Q 400.49 397.36 397.68 405.93
  C 394.26 416.38 395.55 424.03 399.84 434.74
  C 409.76 459.45 417.45 479.19 404.10 505.01"
/>
<path stroke="#782b17" vector-effect="non-scaling-stroke" d="
  M 373.95 484.50
  Q 361.08 462.27 364.74 435.49
  A 0.48 0.47 -2.5 0 0 364.16 434.96
  C 352.92 437.65 347.02 443.36 340.08 453.37
  C 325.40 474.49 312.27 492.66 283.97 494.40"
/>
<path stroke="#99301e" vector-effect="non-scaling-stroke" d="
  M 280.13 473.56
  Q 282.87 456.86 294.66 443.11"
/>
<path stroke="#99301e" vector-effect="non-scaling-stroke" d="
  M 230.23 443.04
  C 228.69 452.40 229.70 464.17 229.95 473.70"
/>
</g>
<path fill="#add841" d="
  M 250.33 0.00
  L 262.04 0.00
  C 422.71 4.67 539.49 152.67 505.52 309.97
  Q 504.75 310.26 502.94 311.67
  Q 452.70 350.82 388.99 361.72
  Q 384.59 362.48 371.17 364.19
  L 382.86 219.52
  L 388.35 153.95
  L 389.82 134.78
  L 404.44 134.86
  A 0.58 0.58 0.0 0 0 405.03 134.25
  L 402.56 90.71
  Q 402.53 90.20 402.02 90.20
  L 380.70 90.14
  L 380.67 68.68
  Q 380.67 68.07 380.06 68.07
  L 355.26 67.98
  L 355.29 37.49
  A 0.41 0.41 0.0 0 0 354.76 37.09
  L 279.38 59.20
  Q 278.80 59.37 278.80 59.97
  L 278.78 67.73
  L 211.23 68.00
  L 140.32 68.01
  A 0.57 0.56 0.0 0 0 139.75 68.57
  L 139.75 90.06
  L 118.86 90.18
  Q 118.32 90.18 118.29 90.73
  L 115.76 134.19
  A 0.69 0.68 1.5 0 0 116.46 134.92
  L 129.54 134.81
  L 136.31 219.48
  L 139.28 257.74
  C 138.86 258.04 138.50 258.07 138.17 257.60
  C 100.13 202.69 83.01 135.26 94.66 68.68
  Q 95.74 62.49 96.58 55.95
  C 138.74 20.36 195.66 1.54 250.33 0.00
  Z"
/>
<g fill="#aa321e">
<path d="
  M 224.49 134.81
  L 389.82 134.78
  L 388.35 153.95
  L 224.13 153.99
  A 0.67 0.67 0.0 0 0 223.46 154.66
  L 223.45 219.49
  L 136.31 219.48
  L 129.54 134.81
  L 224.49 134.81
  Z"
/>
<path d="
  M 147.65 365.21
  L 223.39 365.24
  L 223.43 442.98
  L 164.75 443.03
  L 154.29 442.92
  Q 153.70 442.92 153.66 442.32
  L 147.65 365.21
  Z"
/>
<path d="
  M 230.23 443.04
  L 294.66 443.11
  Q 282.87 456.86 280.13 473.56
  L 229.95 473.70
  C 229.70 464.17 228.69 452.40 230.23 443.04
  Z"
/>
</g>
<g fill="#ff956a">
<path d="
  M 355.26 67.98
  L 280.83 67.99
  Q 280.34 67.99 279.88 67.82
  Q 279.41 67.64 278.78 67.73
  L 278.80 59.97
  Q 278.80 59.37 279.38 59.20
  L 354.76 37.09
  A 0.41 0.41 0.0 0 1 355.29 37.49
  L 355.26 67.98
  Z"
/>
<path d="
  M 380.70 90.14
  L 402.02 90.20
  Q 402.53 90.20 402.56 90.71
  L 405.03 134.25
  A 0.58 0.58 0.0 0 1 404.44 134.86
  L 389.82 134.78
  L 224.49 134.81
  C 222.73 134.33 223.47 132.17 223.47 131.05
  Q 223.51 110.90 223.47 90.48
  Q 223.47 89.94 224.01 89.94
  L 380.70 90.14
  Z"
/>
</g>
<path fill="#2c990e" d="
  M 136.31 219.48
  L 223.45 219.49
  L 258.23 219.49
  L 258.32 238.00
  Q 258.32 238.55 258.87 238.59
  Q 286.47 240.71 301.12 261.70
  C 325.67 296.89 301.36 343.77 259.11 346.03
  A 0.82 0.82 0.0 0 0 258.33 346.85
  L 258.33 365.24
  L 223.39 365.24
  L 147.65 365.21
  L 139.28 257.74
  L 136.31 219.48
  Z
  M 282.73 292.37
  A 25.54 25.54 0.0 0 0 257.19 266.83
  A 25.54 25.54 0.0 0 0 231.65 292.37
  A 25.54 25.54 0.0 0 0 257.19 317.91
  A 25.54 25.54 0.0 0 0 282.73 292.37
  Z"
/>
<g fill="#6dc54a">
<path d="
  M 96.58 55.95
  Q 95.74 62.49 94.66 68.68
  C 83.01 135.26 100.13 202.69 138.17 257.60
  C 138.50 258.07 138.86 258.04 139.28 257.74
  L 147.65 365.21
  L 153.66 442.32
  Q 153.70 442.92 154.29 442.92
  L 164.75 443.03
  L 166.97 472.93
  Q 167.01 473.46 167.54 473.46
  L 229.95 473.70
  L 280.13 473.56
  C 279.68 480.95 280.34 487.84 283.97 494.40
  Q 288.94 502.68 297.74 507.43
  C 211.91 520.88 127.10 492.17 68.32 428.53
  C -32.26 319.67 -18.96 149.09 96.58 55.95
  Z"
/>
<path d="
  M 505.52 309.97
  Q 490.74 376.09 445.41 426.66
  Q 440.69 408.69 427.94 397.56
  Q 418.10 388.98 405.16 389.06
  C 387.93 388.42 373.93 406.01 368.65 420.46
  Q 368.47 420.97 367.93 420.92
  Q 367.16 420.85 366.55 420.09
  L 370.93 365.42
  A 0.15 0.14 -76.7 0 0 370.84 365.27
  Q 370.79 365.25 370.75 365.23
  Q 371.14 364.66 371.17 364.19
  Q 384.59 362.48 388.99 361.72
  Q 452.70 350.82 502.94 311.67
  Q 504.75 310.26 505.52 309.97
  Z"
/>
</g>
<g fill="#c8462d">
<path d="
  M 388.35 153.95
  L 382.86 219.52
  L 258.23 219.49
  L 223.45 219.49
  L 223.46 154.66
  A 0.67 0.67 0.0 0 1 224.13 153.99
  L 388.35 153.95
  Z"
/>
<path d="
  M 370.75 365.23
  Q 370.79 365.25 370.84 365.27
  A 0.15 0.14 -76.7 0 1 370.93 365.42
  L 366.55 420.09
  Q 350.12 414.82 334.23 418.98
  Q 310.79 425.12 294.66 443.11
  L 230.23 443.04
  L 223.43 442.98
  L 223.39 365.24
  L 258.33 365.24
  L 370.75 365.23
  Z"
/>
</g>
<g fill="#872d1e">
<path d="
  M 405.16 389.06
  Q 400.49 397.36 397.68 405.93
  C 394.26 416.38 395.55 424.03 399.84 434.74
  C 409.76 459.45 417.45 479.19 404.10 505.01
  C 391.73 504.40 380.44 495.08 373.95 484.50
  Q 361.08 462.27 364.74 435.49
  A 0.48 0.47 -2.5 0 0 364.16 434.96
  C 352.92 437.65 347.02 443.36 340.08 453.37
  C 325.40 474.49 312.27 492.66 283.97 494.40
  C 280.34 487.84 279.68 480.95 280.13 473.56
  Q 282.87 456.86 294.66 443.11
  Q 310.79 425.12 334.23 418.98
  Q 350.12 414.82 366.55 420.09
  Q 367.16 420.85 367.93 420.92
  Q 368.47 420.97 368.65 420.46
  C 373.93 406.01 387.93 388.42 405.16 389.06
  Z"
/>
<path d="
  M 223.43 442.98
  L 230.23 443.04
  C 228.69 452.40 229.70 464.17 229.95 473.70
  L 167.54 473.46
  Q 167.01 473.46 166.97 472.93
  L 164.75 443.03
  L 223.43 442.98
  Z"
/>
</g>
<g fill="#37aa1b">
<path d="
  M 258.23 219.49
  L 382.86 219.52
  L 371.17 364.19
  Q 371.14 364.66 370.75 365.23
  L 258.33 365.24
  L 258.33 346.85
  A 0.82 0.82 0.0 0 1 259.11 346.03
  C 301.36 343.77 325.67 296.89 301.12 261.70
  Q 286.47 240.71 258.87 238.59
  Q 258.32 238.55 258.32 238.00
  L 258.23 219.49
  Z"
/>
<circle cx="257.19" cy="292.37" r="25.54"/>
</g>
<g fill="#69280f">
<path d="
  M 405.16 389.06
  Q 418.10 388.98 427.94 397.56
  Q 440.69 408.69 445.41 426.66
  Q 452.41 453.92 441.21 478.46
  C 434.36 493.47 421.56 505.23 404.10 505.01
  C 417.45 479.19 409.76 459.45 399.84 434.74
  C 395.55 424.03 394.26 416.38 397.68 405.93
  Q 400.49 397.36 405.16 389.06
  Z"
/>
<path d="
  M 373.95 484.50
  C 358.60 500.73 343.11 510.12 320.50 512.00
  L 316.20 512.00
  Q 306.41 511.44 297.74 507.43
  Q 288.94 502.68 283.97 494.40
  C 312.27 492.66 325.40 474.49 340.08 453.37
  C 347.02 443.36 352.92 437.65 364.16 434.96
  A 0.48 0.47 -2.5 0 1 364.74 435.49
  Q 361.08 462.27 373.95 484.50
  Z"
/>
</g>
<path fill="#ff7c48" d="
  M 278.78 67.73
  Q 279.41 67.64 279.88 67.82
  Q 280.34 67.99 280.83 67.99
  L 355.26 67.98
  L 380.06 68.07
  Q 380.67 68.07 380.67 68.68
  L 380.70 90.14
  L 224.01 89.94
  Q 223.47 89.94 223.47 90.48
  Q 223.51 110.90 223.47 131.05
  C 223.47 132.17 222.73 134.33 224.49 134.81
  L 129.54 134.81
  L 116.46 134.92
  A 0.69 0.68 1.5 0 1 115.76 134.19
  L 118.29 90.73
  Q 118.32 90.18 118.86 90.18
  L 139.75 90.06
  L 210.36 90.05
  A 0.89 0.88 0.0 0 0 211.25 89.17
  L 211.23 68.00
  L 278.78 67.73
  Z"
/>
<path fill="#e5554e" d="
  M 211.23 68.00
  L 211.25 89.17
  A 0.89 0.88 0.0 0 1 210.36 90.05
  L 139.75 90.06
  L 139.75 68.57
  A 0.57 0.56 -0.0 0 1 140.32 68.01
  L 211.23 68.00
  Z"
/>
</svg>
