<?xml version="1.0" encoding="UTF-8" standalone="no"?>
<!DOCTYPE svg PUBLIC "-//W3C//DTD SVG 1.1//EN" "http://www.w3.org/Graphics/SVG/1.1/DTD/svg11.dtd">
<svg xmlns="http://www.w3.org/2000/svg" version="1.1" viewBox="0.00 0.00 512.00 512.00">
<g stroke-width="2.00" fill="none" stroke-linecap="butt">
<path stroke="#a6bc65" vector-effect="non-scaling-stroke" d="
  M 477.41 129.14
  Q 477.16 129.28 476.98 129.38
  Q 476.58 129.60 476.48 130.04
  C 464.90 181.82 417.54 217.36 364.32 213.66
  Q 363.83 213.63 363.79 213.13
  L 363.46 208.50"
/>
<path stroke="#7e7b20" vector-effect="non-scaling-stroke" d="
  M 363.46 208.50
  L 363.72 196.01"
/>
<path stroke="#8ae03a" vector-effect="non-scaling-stroke" d="
  M 363.72 196.01
  C 392.22 198.01 418.81 188.13 437.84 167.22
  C 473.57 127.94 467.67 66.73 424.93 35.05
  Q 398.42 15.40 363.79 18.02"
/>
<path stroke="#dfd87d" vector-effect="non-scaling-stroke" d="
  M 363.70 24.86
  L 363.72 91.00"
/>
<path stroke="#fdd9d4" vector-effect="non-scaling-stroke" d="
  M 363.72 91.00
  L 213.64 91.00"
/>
<path stroke="#e7d2d4" vector-effect="non-scaling-stroke" d="
  M 213.64 91.00
  L 143.04 91.01
  Q 142.30 91.01 142.34 91.74
  L 146.89 179.25"
/>
<path stroke="#c17063" vector-effect="non-scaling-stroke" d="
  M 146.89 179.25
  L 151.67 273.75"
/>
<path stroke="#f7a2b1" vector-effect="non-scaling-stroke" d="
  M 151.67 273.75
  C 151.29 274.63 150.71 274.86 150.04 274.05
  C 100.38 213.84 80.85 135.70 96.55 59.12
  A 1.64 1.63 -50.7 0 0 96.46 58.17
  L 96.14 57.42"
/>
<path stroke="#b69738" vector-effect="non-scaling-stroke" d="
  M 363.72 196.01
  L 363.72 179.25"
/>
<path stroke="#e1fea8" vector-effect="non-scaling-stroke" d="
  M 363.72 179.25
  L 363.72 91.00"
/>
<path stroke="#adea3d" vector-effect="non-scaling-stroke" d="
  M 388.47 38.66
  C 383.11 37.37 380.96 41.27 380.96 46.00
  Q 380.99 65.22 381.01 84.17
  Q 381.01 85.33 381.84 84.51
  Q 394.54 71.85 407.62 58.76
  C 411.56 54.82 414.58 50.52 408.25 46.74
  Q 398.96 41.19 388.47 38.66"
/>
<path stroke="#adea3d" vector-effect="non-scaling-stroke" d="
  M 439.59 95.59
  C 442.96 90.76 435.03 75.34 432.23 70.69
  C 429.09 65.47 425.27 66.60 421.44 70.44
  Q 407.87 84.00 394.68 97.20
  Q 393.89 97.99 395.00 97.99
  Q 414.70 98.02 434.16 97.98
  C 436.54 97.97 438.29 97.46 439.59 95.59"
/>
<path stroke="#adea3d" vector-effect="non-scaling-stroke" d="
  M 431.56 144.31
  Q 437.68 135.19 440.39 123.26
  C 441.59 117.97 438.00 116.03 433.20 116.02
  Q 413.89 115.98 394.64 116.01
  A 0.31 0.31 0.0 0 0 394.42 116.54
  Q 408.06 130.20 421.80 143.91
  C 424.83 146.94 428.80 148.44 431.56 144.31"
/>
<path stroke="#adea3d" vector-effect="non-scaling-stroke" d="
  M 381.09 154.03
  C 381.22 160.04 377.88 177.32 388.25 175.46
  Q 396.20 174.04 406.12 168.55
  C 410.93 165.88 414.57 162.27 409.53 157.19
  Q 395.59 143.16 382.14 129.79
  Q 381.15 128.80 381.12 130.20
  Q 380.84 142.52 381.09 154.03"
/>
<path stroke="#bd5f6c" vector-effect="non-scaling-stroke" d="
  M 151.67 273.75
  L 160.54 440.79"
/>
<path stroke="#e2c1dc" vector-effect="non-scaling-stroke" d="
  M 160.54 440.79
  Q 161.20 453.64 161.87 465.93
  C 162.69 480.95 171.96 488.00 186.03 488.11
  Q 218.63 488.38 251.29 488.22"
/>
<path stroke="#f9c8dc" vector-effect="non-scaling-stroke" d="
  M 251.29 488.22
  Q 289.19 488.30 327.19 488.21
  C 341.36 488.18 348.99 478.94 349.90 465.71
  Q 350.75 453.39 351.12 440.93"
/>
<path stroke="#ce626c" vector-effect="non-scaling-stroke" d="
  M 351.12 440.93
  L 355.27 366.43"
/>
<path stroke="#f7a2b1" vector-effect="non-scaling-stroke" d="
  M 355.27 366.43
  Q 363.49 365.78 371.67 364.97
  Q 433.12 358.88 484.98 325.71
  Q 492.88 320.66 505.56 310.87"
/>
<path stroke="#e9f8ff" vector-effect="non-scaling-stroke" d="
  M 213.64 91.00
  L 216.98 156.75
  Q 217.00 157.12 216.87 157.48
  Q 216.80 157.66 216.73 157.97"
/>
<path stroke="#c1ebff" vector-effect="non-scaling-stroke" d="
  M 216.73 157.97
  C 216.92 157.60 216.07 158.02 215.76 158.02
  Q 196.28 157.94 176.82 158.08
  C 164.05 158.18 166.06 170.31 166.41 178.88
  Q 166.42 179.22 166.08 179.24
  L 165.75 179.26"
/>
<path stroke="#ad8f8f" vector-effect="non-scaling-stroke" d="
  M 165.75 179.26
  L 146.89 179.25"
/>
<path stroke="#d5998f" vector-effect="non-scaling-stroke" d="
  M 363.72 179.25
  L 349.90 179.25"
/>
<path stroke="#e4a396" vector-effect="non-scaling-stroke" d="
  M 349.90 179.25
  Q 349.11 179.07 349.10 179.48"
/>
<path stroke="#d7f3ff" vector-effect="non-scaling-stroke" d="
  M 349.10 179.48
  Q 348.33 176.25 346.08 174.90
  Q 333.80 167.50 301.04 148.87
  C 292.13 143.80 288.26 146.02 283.32 154.60
  Q 276.23 166.89 268.98 179.48"
/>
<path stroke="#e4a396" vector-effect="non-scaling-stroke" d="
  M 268.98 179.48
  Q 268.80 179.09 267.73 179.26"
/>
<path stroke="#d5998f" vector-effect="non-scaling-stroke" d="
  M 267.73 179.26
  L 239.51 179.26"
/>
<path stroke="#e4a396" vector-effect="non-scaling-stroke" d="
  M 239.51 179.26
  Q 238.76 179.16 239.13 179.46"
/>
<path stroke="#d7f3ff" vector-effect="non-scaling-stroke" d="
  M 239.13 179.46
  C 238.98 170.02 241.70 158.52 227.93 158.09
  Q 222.35 157.91 216.73 157.97"
/>
<path stroke="#d37363" vector-effect="non-scaling-stroke" d="
  M 355.27 366.43
  L 363.46 208.50"
/>
<path stroke="#bc9696" vector-effect="non-scaling-stroke" d="
  M 349.10 179.48
  L 268.98 179.48"
/>
<path stroke="#bc9696" vector-effect="non-scaling-stroke" d="
  M 239.13 179.46
  L 218.03 179.47"
/>
<path stroke="#ad8c8f" vector-effect="non-scaling-stroke" d="
  M 218.03 179.47
  L 166.16 179.49"
/>
<path stroke="#9b8a8f" vector-effect="non-scaling-stroke" d="
  M 166.16 179.49
  Q 165.82 179.65 165.75 179.26"
/>
<path stroke="#99301e" vector-effect="non-scaling-stroke" d="
  M 166.16 179.49
  Q 166.34 198.96 166.22 218.33
  C 166.18 225.07 168.30 230.91 175.74 230.95
  Q 198.26 231.07 220.67 230.95"
/>
<path stroke="#a83a26" vector-effect="non-scaling-stroke" d="
  M 220.67 230.95
  Q 220.70 230.98 220.73 231.00"
/>
<path stroke="#99301e" vector-effect="non-scaling-stroke" d="
  M 220.73 231.00
  Q 221.90 256.13 222.44 264.31
  Q 222.46 264.68 223.09 265.54"
/>
<path stroke="#a83a26" vector-effect="non-scaling-stroke" d="
  M 223.09 265.54
  L 222.91 267.27"
/>
<path stroke="#99301e" vector-effect="non-scaling-stroke" d="
  M 222.91 267.27
  C 222.74 267.70 222.49 268.12 222.53 268.60
  Q 223.48 281.35 223.94 294.34"
/>
<path stroke="#a83a26" vector-effect="non-scaling-stroke" d="
  M 223.94 294.34
  C 215.16 291.93 202.84 285.49 198.99 299.25
  Q 192.34 323.01 185.81 346.82
  C 183.35 355.78 186.03 359.52 194.97 361.99
  Q 211.70 366.58 228.13 371.19"
/>
<path stroke="#99301e" vector-effect="non-scaling-stroke" d="
  M 228.13 371.19
  L 232.74 461.00"
/>
<path stroke="#ad8f8f" vector-effect="non-scaling-stroke" d="
  M 232.74 461.00
  Q 212.79 461.00 193.26 461.00
  Q 182.46 461.00 177.90 459.49
  Q 165.37 455.34 160.54 440.79"
/>
<path stroke="#b93c26" vector-effect="non-scaling-stroke" d="
  M 218.03 179.47
  L 220.67 230.95"
/>
<path stroke="#b93c26" vector-effect="non-scaling-stroke" d="
  M 239.51 179.26
  C 238.24 192.20 239.01 205.87 239.01 218.90
  C 239.02 232.05 230.81 231.06 220.73 231.00"
/>
<path stroke="#b93c26" vector-effect="non-scaling-stroke" d="
  M 267.73 179.26
  Q 267.42 179.86 267.68 180.72
  Q 267.83 181.21 267.58 181.67
  Q 264.39 187.32 261.14 192.95
  C 257.25 199.68 254.55 206.15 262.51 210.75
  Q 284.29 223.32 306.09 235.90
  C 314.58 240.79 318.67 238.96 323.52 230.62
  Q 340.51 201.45 348.09 188.08
  Q 350.17 184.41 349.90 179.25"
/>
<path stroke="#d5998f" vector-effect="non-scaling-stroke" d="
  M 351.12 440.93
  Q 346.38 455.35 334.03 459.43
  Q 329.28 461.00 315.81 461.00
  Q 274.28 461.00 232.75 461.00"
/>
<path stroke="#be918f" vector-effect="non-scaling-stroke" d="
  M 232.75 461.00
  Q 232.75 461.00 232.74 461.00"
/>
<path stroke="#b93c26" vector-effect="non-scaling-stroke" d="
  M 228.13 371.19
  Q 235.22 373.18 242.10 375.05
  C 249.90 377.17 253.83 373.96 255.97 366.37
  Q 262.61 342.82 269.12 319.01
  A 2.42 2.41 81.0 0 1 270.12 317.63
  Q 290.47 304.24 311.02 290.56
  C 320.29 284.40 316.33 278.54 311.23 270.75
  Q 298.96 252.04 286.58 233.40
  C 282.33 226.98 277.67 225.50 270.83 229.94
  Q 249.06 244.08 227.53 258.54
  Q 223.85 261.01 223.09 265.54"
/>
<path stroke="#b93c26" vector-effect="non-scaling-stroke" d="
  M 223.94 294.34
  L 242.25 299.32
  Q 242.85 299.48 242.51 298.96
  Q 233.91 285.85 225.33 272.74
  C 224.24 271.07 223.64 269.12 222.91 267.27"
/>
<path stroke="#e9f8ff" vector-effect="non-scaling-stroke" d="
  M 232.75 461.00
  C 233.09 465.04 233.13 469.67 234.31 473.23
  Q 238.22 484.99 251.29 488.22"
/>
</g>
<path fill="#f291b9" d="
  M 96.14 57.42
  L 96.46 58.17
  A 1.64 1.63 -50.7 0 1 96.55 59.12
  C 80.85 135.70 100.38 213.84 150.04 274.05
  C 150.71 274.86 151.29 274.63 151.67 273.75
  L 160.54 440.79
  Q 161.20 453.64 161.87 465.93
  C 162.69 480.95 171.96 488.00 186.03 488.11
  Q 218.63 488.38 251.29 488.22
  Q 289.19 488.30 327.19 488.21
  C 341.36 488.18 348.99 478.94 349.90 465.71
  Q 350.75 453.39 351.12 440.93
  L 355.27 366.43
  Q 363.49 365.78 371.67 364.97
  Q 433.12 358.88 484.98 325.71
  Q 492.88 320.66 505.56 310.87
  C 479.72 427.64 378.88 509.22 259.93 512.00
  L 250.20 512.00
  C 112.42 508.12 1.28 396.59 0.61 258.44
  C 0.24 180.07 35.04 106.59 96.14 57.42
  Z"
/>
<g fill="#aa321e">
<path d="
  M 218.03 179.47
  L 220.67 230.95
  Q 198.26 231.07 175.74 230.95
  C 168.30 230.91 166.18 225.07 166.22 218.33
  Q 166.34 198.96 166.16 179.49
  L 218.03 179.47
  Z"
/>
<path d="
  M 239.51 179.26
  L 267.73 179.26
  Q 267.42 179.86 267.68 180.72
  Q 267.83 181.21 267.58 181.67
  Q 264.39 187.32 261.14 192.95
  C 257.25 199.68 254.55 206.15 262.51 210.75
  Q 284.29 223.32 306.09 235.90
  C 314.58 240.79 318.67 238.96 323.52 230.62
  Q 340.51 201.45 348.09 188.08
  Q 350.17 184.41 349.90 179.25
  L 363.72 179.25
  L 363.72 196.01
  L 363.46 208.50
  L 355.27 366.43
  L 351.12 440.93
  Q 346.38 455.35 334.03 459.43
  Q 329.28 461.00 315.81 461.00
  Q 274.28 461.00 232.75 461.00
  Q 232.75 461.00 232.74 461.00
  L 228.13 371.19
  Q 235.22 373.18 242.10 375.05
  C 249.90 377.17 253.83 373.96 255.97 366.37
  Q 262.61 342.82 269.12 319.01
  A 2.42 2.41 81.0 0 1 270.12 317.63
  Q 290.47 304.24 311.02 290.56
  C 320.29 284.40 316.33 278.54 311.23 270.75
  Q 298.96 252.04 286.58 233.40
  C 282.33 226.98 277.67 225.50 270.83 229.94
  Q 249.06 244.08 227.53 258.54
  Q 223.85 261.01 223.09 265.54
  Q 222.46 264.68 222.44 264.31
  Q 221.90 256.13 220.73 231.00
  C 230.81 231.06 239.02 232.05 239.01 218.90
  C 239.01 205.87 238.24 192.20 239.51 179.26
  Z"
/>
<path d="
  M 222.91 267.27
  C 223.64 269.12 224.24 271.07 225.33 272.74
  Q 233.91 285.85 242.51 298.96
  Q 242.85 299.48 242.25 299.32
  L 223.94 294.34
  Q 223.48 281.35 222.53 268.60
  C 222.49 268.12 222.74 267.70 222.91 267.27
  Z"
/>
</g>
<g fill="#ffffff">
<path d="
  M 213.64 91.00
  L 363.72 91.00
  L 363.72 179.25
  L 349.90 179.25
  Q 349.11 179.07 349.10 179.48
  Q 348.33 176.25 346.08 174.90
  Q 333.80 167.50 301.04 148.87
  C 292.13 143.80 288.26 146.02 283.32 154.60
  Q 276.23 166.89 268.98 179.48
  Q 268.80 179.09 267.73 179.26
  L 239.51 179.26
  Q 238.76 179.16 239.13 179.46
  C 238.98 170.02 241.70 158.52 227.93 158.09
  Q 222.35 157.91 216.73 157.97
  Q 216.80 157.66 216.87 157.48
  Q 217.00 157.12 216.98 156.75
  L 213.64 91.00
  Z"
/>
<path d="
  M 351.12 440.93
  Q 350.75 453.39 349.90 465.71
  C 348.99 478.94 341.36 488.18 327.19 488.21
  Q 289.19 488.30 251.29 488.22
  Q 238.22 484.99 234.31 473.23
  C 233.13 469.67 233.09 465.04 232.75 461.00
  Q 274.28 461.00 315.81 461.00
  Q 329.28 461.00 334.03 459.43
  Q 346.38 455.35 351.12 440.93
  Z"
/>
</g>
<path fill="#c2fc51" d="
  M 363.72 196.01
  L 363.72 179.25
  L 363.72 91.00
  L 363.70 24.86
  L 363.79 18.02
  Q 398.42 15.40 424.93 35.05
  C 467.67 66.73 473.57 127.94 437.84 167.22
  C 418.81 188.13 392.22 198.01 363.72 196.01
  Z
  M 388.47 38.66
  C 383.11 37.37 380.96 41.27 380.96 46.00
  Q 380.99 65.22 381.01 84.17
  Q 381.01 85.33 381.84 84.51
  Q 394.54 71.85 407.62 58.76
  C 411.56 54.82 414.58 50.52 408.25 46.74
  Q 398.96 41.19 388.47 38.66
  Z
  M 439.59 95.59
  C 442.96 90.76 435.03 75.34 432.23 70.69
  C 429.09 65.47 425.27 66.60 421.44 70.44
  Q 407.87 84.00 394.68 97.20
  Q 393.89 97.99 395.00 97.99
  Q 414.70 98.02 434.16 97.98
  C 436.54 97.97 438.29 97.46 439.59 95.59
  Z
  M 431.56 144.31
  Q 437.68 135.19 440.39 123.26
  C 441.59 117.97 438.00 116.03 433.20 116.02
  Q 413.89 115.98 394.64 116.01
  A 0.31 0.31 0.0 0 0 394.42 116.54
  Q 408.06 130.20 421.80 143.91
  C 424.83 146.94 428.80 148.44 431.56 144.31
  Z
  M 381.09 154.03
  C 381.22 160.04 377.88 177.32 388.25 175.46
  Q 396.20 174.04 406.12 168.55
  C 410.93 165.88 414.57 162.27 409.53 157.19
  Q 395.59 143.16 382.14 129.79
  Q 381.15 128.80 381.12 130.20
  Q 380.84 142.52 381.09 154.03
  Z"
/>
<g fill="#fbb3a8">
<path d="
  M 363.70 24.86
  L 363.72 91.00
  L 213.64 91.00
  L 143.04 91.01
  Q 142.30 91.01 142.34 91.74
  L 146.89 179.25
  L 151.67 273.75
  C 151.29 274.63 150.71 274.86 150.04 274.05
  C 100.38 213.84 80.85 135.70 96.55 59.12
  A 1.64 1.63 -50.7 0 0 96.46 58.17
  L 96.14 57.42
  Q 110.29 45.41 127.69 35.45
  C 200.26 -6.06 287.57 -10.07 363.70 24.86
  Z"
/>
<path d="
  M 477.41 129.14
  Q 517.32 199.36 510.20 280.50
  Q 508.81 296.34 505.56 310.87
  Q 492.88 320.66 484.98 325.71
  Q 433.12 358.88 371.67 364.97
  Q 363.49 365.78 355.27 366.43
  L 363.46 208.50
  L 363.79 213.13
  Q 363.83 213.63 364.32 213.66
  C 417.54 217.36 464.90 181.82 476.48 130.04
  Q 476.58 129.60 476.98 129.38
  Q 477.16 129.28 477.41 129.14
  Z"
/>
</g>
<path fill="#51c422" d="
  M 368.31 0.00
  L 374.58 0.00
  C 442.28 2.89 488.46 61.26 476.97 127.98
  Q 476.85 128.68 477.41 129.14
  Q 477.16 129.28 476.98 129.38
  Q 476.58 129.60 476.48 130.04
  C 464.90 181.82 417.54 217.36 364.32 213.66
  Q 363.83 213.63 363.79 213.13
  L 363.46 208.50
  L 363.72 196.01
  C 392.22 198.01 418.81 188.13 437.84 167.22
  C 473.57 127.94 467.67 66.73 424.93 35.05
  Q 398.42 15.40 363.79 18.02
  L 363.83 0.93
  Q 363.83 0.33 364.43 0.29
  L 368.31 0.00
  Z"
/>
<g fill="#d2f0ff">
<path d="
  M 213.64 91.00
  L 216.98 156.75
  Q 217.00 157.12 216.87 157.48
  Q 216.80 157.66 216.73 157.97
  C 216.92 157.60 216.07 158.02 215.76 158.02
  Q 196.28 157.94 176.82 158.08
  C 164.05 158.18 166.06 170.31 166.41 178.88
  Q 166.42 179.22 166.08 179.24
  L 165.75 179.26
  L 146.89 179.25
  L 142.34 91.74
  Q 142.30 91.01 143.04 91.01
  L 213.64 91.00
  Z"
/>
<path d="
  M 160.54 440.79
  Q 165.37 455.34 177.90 459.49
  Q 182.46 461.00 193.26 461.00
  Q 212.79 461.00 232.74 461.00
  Q 232.75 461.00 232.75 461.00
  C 233.09 465.04 233.13 469.67 234.31 473.23
  Q 238.22 484.99 251.29 488.22
  Q 218.63 488.38 186.03 488.11
  C 171.96 488.00 162.69 480.95 161.87 465.93
  Q 161.20 453.64 160.54 440.79
  Z"
/>
</g>
<g fill="#c8462d">
<path d="
  M 239.13 179.46
  Q 238.76 179.16 239.51 179.26
  C 238.24 192.20 239.01 205.87 239.01 218.90
  C 239.02 232.05 230.81 231.06 220.73 231.00
  Q 220.70 230.98 220.67 230.95
  L 218.03 179.47
  L 239.13 179.46
  Z"
/>
<path d="
  M 267.73 179.26
  Q 268.80 179.09 268.98 179.48
  L 349.10 179.48
  Q 349.11 179.07 349.90 179.25
  Q 350.17 184.41 348.09 188.08
  Q 340.51 201.45 323.52 230.62
  C 318.67 238.96 314.58 240.79 306.09 235.90
  Q 284.29 223.32 262.51 210.75
  C 254.55 206.15 257.25 199.68 261.14 192.95
  Q 264.39 187.32 267.58 181.67
  Q 267.83 181.21 267.68 180.72
  Q 267.42 179.86 267.73 179.26
  Z"
/>
<path d="
  M 228.13 371.19
  Q 211.70 366.58 194.97 361.99
  C 186.03 359.52 183.35 355.78 185.81 346.82
  Q 192.34 323.01 198.99 299.25
  C 202.84 285.49 215.16 291.93 223.94 294.34
  L 242.25 299.32
  Q 242.85 299.48 242.51 298.96
  Q 233.91 285.85 225.33 272.74
  C 224.24 271.07 223.64 269.12 222.91 267.27
  L 223.09 265.54
  Q 223.85 261.01 227.53 258.54
  Q 249.06 244.08 270.83 229.94
  C 277.67 225.50 282.33 226.98 286.58 233.40
  Q 298.96 252.04 311.23 270.75
  C 316.33 278.54 320.29 284.40 311.02 290.56
  Q 290.47 304.24 270.12 317.63
  A 2.42 2.41 81.0 0 0 269.12 319.01
  Q 262.61 342.82 255.97 366.37
  C 253.83 373.96 249.90 377.17 242.10 375.05
  Q 235.22 373.18 228.13 371.19
  Z"
/>
</g>
<path fill="#872d1e" d="
  M 146.89 179.25
  L 165.75 179.26
  Q 165.82 179.65 166.16 179.49
  Q 166.34 198.96 166.22 218.33
  C 166.18 225.07 168.30 230.91 175.74 230.95
  Q 198.26 231.07 220.67 230.95
  Q 220.70 230.98 220.73 231.00
  Q 221.90 256.13 222.44 264.31
  Q 222.46 264.68 223.09 265.54
  L 222.91 267.27
  C 222.74 267.70 222.49 268.12 222.53 268.60
  Q 223.48 281.35 223.94 294.34
  C 215.16 291.93 202.84 285.49 198.99 299.25
  Q 192.34 323.01 185.81 346.82
  C 183.35 355.78 186.03 359.52 194.97 361.99
  Q 211.70 366.58 228.13 371.19
  L 232.74 461.00
  Q 212.79 461.00 193.26 461.00
  Q 182.46 461.00 177.90 459.49
  Q 165.37 455.34 160.54 440.79
  L 151.67 273.75
  L 146.89 179.25
  Z"
/>
<g fill="#97d729">
<path d="
  M 380.96 46.00
  C 380.96 41.27 383.11 37.37 388.47 38.66
  Q 398.96 41.19 408.25 46.74
  C 414.58 50.52 411.56 54.82 407.62 58.76
  Q 394.54 71.85 381.84 84.51
  Q 381.01 85.33 381.01 84.17
  Q 380.99 65.22 380.96 46.00
  Z"
/>
<path d="
  M 439.59 95.59
  C 438.29 97.46 436.54 97.97 434.16 97.98
  Q 414.70 98.02 395.00 97.99
  Q 393.89 97.99 394.68 97.20
  Q 407.87 84.00 421.44 70.44
  C 425.27 66.60 429.09 65.47 432.23 70.69
  C 435.03 75.34 442.96 90.76 439.59 95.59
  Z"
/>
<path d="
  M 431.56 144.31
  C 428.80 148.44 424.83 146.94 421.80 143.91
  Q 408.06 130.20 394.42 116.54
  A 0.31 0.31 0.0 0 1 394.64 116.01
  Q 413.89 115.98 433.20 116.02
  C 438.00 116.03 441.59 117.97 440.39 123.26
  Q 437.68 135.19 431.56 144.31
  Z"
/>
<path d="
  M 381.09 154.03
  Q 380.84 142.52 381.12 130.20
  Q 381.15 128.80 382.14 129.79
  Q 395.59 143.16 409.53 157.19
  C 414.57 162.27 410.93 165.88 406.12 168.55
  Q 396.20 174.04 388.25 175.46
  C 377.88 177.32 381.22 160.04 381.09 154.03
  Z"
/>
</g>
<g fill="#afe6ff">
<path d="
  M 349.10 179.48
  L 268.98 179.48
  Q 276.23 166.89 283.32 154.60
  C 288.26 146.02 292.13 143.80 301.04 148.87
  Q 333.80 167.50 346.08 174.90
  Q 348.33 176.25 349.10 179.48
  Z"
/>
<path d="
  M 216.73 157.97
  Q 222.35 157.91 227.93 158.09
  C 241.70 158.52 238.98 170.02 239.13 179.46
  L 218.03 179.47
  L 166.16 179.49
  Q 165.82 179.65 165.75 179.26
  L 166.08 179.24
  Q 166.42 179.22 166.41 178.88
  C 166.06 170.31 164.05 158.18 176.82 158.08
  Q 196.28 157.94 215.76 158.02
  C 216.07 158.02 216.92 157.60 216.73 157.97
  Z"
/>
</g>
</svg>
