<?xml version="1.0" encoding="UTF-8" standalone="no"?>
<!DOCTYPE svg PUBLIC "-//W3C//DTD SVG 1.1//EN" "http://www.w3.org/Graphics/SVG/1.1/DTD/svg11.dtd">
<svg xmlns="http://www.w3.org/2000/svg" version="1.1" viewBox="0.00 0.00 512.00 512.00">
<g stroke-width="2.00" fill="none" stroke-linecap="butt">
<path stroke="#52281f" vector-effect="non-scaling-stroke" d="
  M 370.99 429.95
  Q 365.04 434.72 359.50 429.27
  Q 345.72 415.73 331.89 402.25
  Q 319.73 390.39 317.27 388.65
  C 306.15 380.78 292.62 379.07 279.30 383.34"
/>
<path stroke="#5e2f26" vector-effect="non-scaling-stroke" d="
  M 279.30 383.34
  Q 270.24 386.52 261.44 395.19
  Q 223.82 432.21 186.14 469.17"
/>
<path stroke="#52281f" vector-effect="non-scaling-stroke" d="
  M 186.14 469.17
  L 158.28 496.47
  A 0.31 0.31 0.0 0 0 158.50 497.00
  L 427.51 497.00
  A 0.41 0.41 0.0 0 0 427.80 496.29
  Q 407.06 476.05 386.38 455.64
  C 382.64 451.95 381.78 447.99 385.20 443.85"
/>
<path stroke="#6c452b" vector-effect="non-scaling-stroke" d="
  M 91.76 222.57
  C 97.94 222.99 99.25 226.86 99.25 232.59
  Q 99.24 250.93 99.26 269.24"
/>
<path stroke="#633d22" vector-effect="non-scaling-stroke" d="
  M 99.26 269.24
  L 99.26 291.49
  A 0.51 0.51 0.0 0 0 99.77 292.00
  L 204.00 292.00
  A 0.50 0.50 0.0 0 0 204.50 291.50
  L 204.50 160.21
  Q 204.50 159.56 203.85 159.57
  L 182.26 159.73"
/>
<path stroke="#6c452b" vector-effect="non-scaling-stroke" d="
  M 182.26 159.73
  L 99.91 159.45
  Q 99.25 159.44 99.25 160.11
  Q 99.26 176.49 99.25 193.00
  C 99.24 198.52 97.44 201.99 91.78 202.57"
/>
<path stroke="#80692e" vector-effect="non-scaling-stroke" d="
  M 165.8194 15.3743
  A 0.35 0.35 0.0 0 0 165.4701 15.0237
  L 138.3701 14.9764
  A 0.35 0.35 0.0 0 0 138.0195 15.3258
  L 137.9806 37.6257
  A 0.35 0.35 0.0 0 0 138.3299 37.9763
  L 165.4299 38.0236
  A 0.35 0.35 0.0 0 0 165.7805 37.6742
  L 165.8194 15.3743"
/>
<path stroke="#754e2c" vector-effect="non-scaling-stroke" d="
  M 360.24 16.67
  A 1.45 1.45 0.0 0 0 360.07 18.31
  L 375.33 45.72
  A 0.70 0.70 0.0 0 0 375.94 46.08
  L 387.17 46.00
  A 0.67 0.65 -75.4 0 0 387.75 45.65
  L 402.80 19.01
  A 2.68 2.68 0.0 0 0 400.47 15.01
  Q 381.92 14.97 362.97 15.02
  C 361.34 15.02 361.15 15.62 360.24 16.67"
/>
<path stroke="#80692e" vector-effect="non-scaling-stroke" d="
  M 182.77 53.48
  A 0.48 0.48 0.0 0 0 182.29 53.00
  L 121.49 53.00
  A 0.48 0.48 0.0 0 0 121.01 53.48
  L 121.01 63.52
  A 0.48 0.48 0.0 0 0 121.49 64.00
  L 182.29 64.00
  A 0.48 0.48 0.0 0 0 182.77 63.52
  L 182.77 53.48"
/>
<path stroke="#6c452b" vector-effect="non-scaling-stroke" d="
  M 190.89 144.47
  L 208.58 144.48
  A 1.43 1.40 22.5 0 0 209.57 144.08
  L 223.22 131.23
  A 1.69 1.69 0.0 0 0 223.75 130.00
  L 223.75 81.48
  A 2.32 2.32 0.0 0 0 221.45 79.16
  L 201.83 79.02"
/>
<path stroke="#754e2c" vector-effect="non-scaling-stroke" d="
  M 201.83 79.02
  L 83.51 79.02
  Q 80.00 79.02 80.00 82.53
  L 80.00 129.48
  A 2.40 2.39 21.8 0 0 80.75 131.22
  L 94.33 144.13
  Q 94.70 144.48 95.21 144.48
  L 190.89 144.47"
/>
<path stroke="#e19357" vector-effect="non-scaling-stroke" d="
  M 201.83 79.02
  Q 202.26 103.89 201.80 128.72
  C 201.67 136.18 195.27 139.59 190.89 144.47"
/>
<path stroke="#6c452b" vector-effect="non-scaling-stroke" d="
  M 189.14 322.97
  L 217.06 322.94
  Q 217.79 322.94 217.41 322.33
  L 208.15 307.43
  Q 207.89 307.01 207.39 307.01
  L 179.73 307.02"
/>
<path stroke="#754e2c" vector-effect="non-scaling-stroke" d="
  M 179.73 307.02
  L 96.51 307.01
  Q 95.98 307.01 95.70 307.46
  L 86.23 322.71
  A 0.18 0.18 0.0 0 0 86.38 322.99
  L 189.14 322.97"
/>
<path stroke="#e19357" vector-effect="non-scaling-stroke" d="
  M 179.73 307.02
  L 189.14 322.97"
/>
<path stroke="#754e2c" vector-effect="non-scaling-stroke" d="
  M 121.52 367.24
  C 120.62 373.22 117.24 374.51 111.45 374.50
  Q 95.90 374.49 80.53 374.50
  A 0.53 0.52 90.0 0 0 80.01 375.03
  L 80.01 469.50"
/>
<path stroke="#6c452b" vector-effect="non-scaling-stroke" d="
  M 80.01 469.50
  L 80.01 494.00
  A 3.00 3.00 0.0 0 0 83.01 497.00
  L 135.73 497.00
  A 1.50 1.46 21.9 0 0 136.78 496.57
  L 223.49 411.46
  Q 223.78 411.18 223.78 410.79
  L 223.74 375.00
  Q 223.74 374.52 223.26 374.52
  L 194.14 374.51"
/>
<path stroke="#754e2c" vector-effect="non-scaling-stroke" d="
  M 194.14 374.51
  Q 172.55 374.49 151.27 374.50
  C 145.68 374.50 142.16 372.98 141.46 367.19"
/>
<path stroke="#805f43" vector-effect="non-scaling-stroke" d="
  M 141.46 367.19
  Q 142.48 359.50 151.25 359.50
  Q 172.83 359.50 194.14 359.50"
/>
<path stroke="#754e2c" vector-effect="non-scaling-stroke" d="
  M 194.14 359.50
  L 223.21 359.52
  Q 223.75 359.52 223.75 358.97
  L 223.75 338.49
  A 0.50 0.50 0.0 0 0 223.25 337.99
  L 194.14 337.99"
/>
<path stroke="#805f43" vector-effect="non-scaling-stroke" d="
  M 194.14 337.99
  L 80.51 338.01
  Q 80.00 338.01 80.00 338.52
  L 80.00 358.99
  Q 80.00 359.52 80.52 359.51
  Q 96.33 359.44 112.05 359.59
  Q 120.80 359.67 121.52 367.24"
/>
<path stroke="#f5ac6f" vector-effect="non-scaling-stroke" d="
  M 194.14 337.99
  L 194.14 359.50"
/>
<path stroke="#f5ac6f" vector-effect="non-scaling-stroke" d="
  M 141.46 367.19
  L 121.52 367.24"
/>
<path stroke="#e19357" vector-effect="non-scaling-stroke" d="
  M 194.14 374.51
  Q 193.93 390.51 193.98 406.45
  C 193.99 411.17 193.44 415.90 190.46 418.96
  Q 180.48 429.21 144.51 464.08
  C 140.59 467.87 137.18 469.43 132.00 469.44
  Q 106.05 469.50 80.01 469.50"
/>
<path stroke="#cf824d" vector-effect="non-scaling-stroke" d="
  M 182.26 159.73
  Q 182.21 206.04 182.23 252.22
  C 182.23 267.07 175.59 271.00 161.33 271.00
  Q 130.68 271.00 100.03 271.00
  Q 99.50 271.00 99.51 270.47
  Q 99.53 269.69 99.26 269.24"
/>
<path stroke="#6c452b" vector-effect="non-scaling-stroke" d="
  M 179.05 196.69
  C 173.18 168.63 133.57 167.19 125.51 194.69
  Q 124.19 199.21 124.23 207.99
  Q 124.29 221.21 124.25 234.43
  Q 124.22 244.35 125.62 248.94
  C 131.18 267.20 154.26 274.82 169.17 262.42
  Q 178.67 254.52 179.51 243.50
  Q 180.08 235.91 179.78 214.40
  Q 179.57 199.15 179.05 196.69"
/>
<path stroke="#754e2c" vector-effect="non-scaling-stroke" d="
  M 140.63 246.39
  C 145.83 255.38 158.56 256.02 163.21 246.36
  Q 164.49 243.69 164.50 237.43
  Q 164.53 220.91 164.47 204.42
  C 164.45 198.04 163.12 194.20 157.68 191.21"
/>
<path stroke="#805f43" vector-effect="non-scaling-stroke" d="
  M 157.68 191.21
  Q 155.20 189.71 153.50 189.71
  C 141.52 189.66 139.24 197.13 139.24 207.62
  Q 139.24 224.66 139.28 241.69
  Q 139.28 243.26 140.63 246.39"
/>
<path stroke="#f5ac6f" vector-effect="non-scaling-stroke" d="
  M 157.68 191.21
  Q 157.46 206.51 157.29 221.36
  C 157.16 232.93 154.80 240.21 144.03 244.74
  Q 142.35 245.44 140.63 246.39"
/>
<path stroke="#b05645" vector-effect="non-scaling-stroke" d="
  M 186.14 469.17
  Q 186.20 469.31 186.24 469.42
  Q 186.33 469.66 186.58 469.66
  L 237.26 469.49"
/>
<path stroke="#52281f" vector-effect="non-scaling-stroke" d="
  M 237.26 469.49
  Q 243.78 472.71 249.37 469.45"
/>
<path stroke="#b05645" vector-effect="non-scaling-stroke" d="
  M 249.37 469.45
  Q 266.93 469.46 283.69 469.62
  Q 286.26 469.65 286.32 468.42"
/>
<path stroke="#52281f" vector-effect="non-scaling-stroke" d="
  M 286.32 468.42
  Q 291.95 473.45 299.24 469.26"
/>
<path stroke="#b05645" vector-effect="non-scaling-stroke" d="
  M 299.24 469.26
  Q 317.97 469.81 331.31 469.43
  Q 334.36 469.35 335.87 467.89"
/>
<path stroke="#52281f" vector-effect="non-scaling-stroke" d="
  M 335.87 467.89
  Q 339.45 471.82 345.00 470.91
  C 354.02 469.44 353.79 458.00 345.16 456.15"
/>
<path stroke="#b05645" vector-effect="non-scaling-stroke" d="
  M 345.16 456.15
  Q 345.08 449.14 341.19 444.58
  Q 336.38 438.93 326.07 430.17"
/>
<path stroke="#52281f" vector-effect="non-scaling-stroke" d="
  M 326.07 430.17
  Q 324.15 427.76 321.60 426.37"
/>
<path stroke="#b05645" vector-effect="non-scaling-stroke" d="
  M 321.60 426.37
  Q 321.86 425.33 321.25 424.74
  Q 300.55 404.47 279.30 383.34"
/>
<path stroke="#5e2f26" vector-effect="non-scaling-stroke" d="
  M 321.60 426.37
  Q 313.36 424.50 310.41 429.99
  C 304.03 441.89 329.16 446.78 326.07 430.17"
/>
<path stroke="#5e2f26" vector-effect="non-scaling-stroke" d="
  M 345.16 456.15
  Q 331.93 456.04 335.87 467.89"
/>
<path stroke="#5e2f26" vector-effect="non-scaling-stroke" d="
  M 299.24 469.26
  C 303.59 463.58 301.21 456.66 294.01 456.12
  C 286.78 455.59 281.98 462.04 286.32 468.42"
/>
<path stroke="#5e2f26" vector-effect="non-scaling-stroke" d="
  M 249.37 469.45
  Q 252.25 465.61 251.72 462.76
  C 249.47 450.57 228.01 456.38 237.26 469.49"
/>
<path stroke="#5e2f26" vector-effect="non-scaling-stroke" d="
  M 276.6799 433.3204
  A 8.48 7.60 -0.2 0 0 268.1735 425.7500
  A 8.48 7.60 -0.2 0 0 259.7201 433.3796
  A 8.48 7.60 -0.2 0 0 268.2265 440.9500
  A 8.48 7.60 -0.2 0 0 276.6799 433.3204"
/>
</g>
<g fill="#ea9b58">
<path d="
  M 360.24 16.67
  C 361.15 15.62 361.34 15.02 362.97 15.02
  Q 381.92 14.97 400.47 15.01
  A 2.68 2.68 0.0 0 1 402.80 19.01
  L 387.75 45.65
  A 0.67 0.65 -75.4 0 1 387.17 46.00
  L 375.94 46.08
  A 0.70 0.70 0.0 0 1 375.33 45.72
  L 360.07 18.31
  A 1.45 1.45 0.0 0 1 360.24 16.67
  Z"
/>
<path d="
  M 201.83 79.02
  Q 202.26 103.89 201.80 128.72
  C 201.67 136.18 195.27 139.59 190.89 144.47
  L 95.21 144.48
  Q 94.70 144.48 94.33 144.13
  L 80.75 131.22
  A 2.40 2.39 21.8 0 1 80.00 129.48
  L 80.00 82.53
  Q 80.00 79.02 83.51 79.02
  L 201.83 79.02
  Z"
/>
<path d="
  M 157.68 191.21
  C 163.12 194.20 164.45 198.04 164.47 204.42
  Q 164.53 220.91 164.50 237.43
  Q 164.49 243.69 163.21 246.36
  C 158.56 256.02 145.83 255.38 140.63 246.39
  Q 142.35 245.44 144.03 244.74
  C 154.80 240.21 157.16 232.93 157.29 221.36
  Q 157.46 206.51 157.68 191.21
  Z"
/>
<path d="
  M 179.73 307.02
  L 189.14 322.97
  L 86.38 322.99
  A 0.18 0.18 0.0 0 1 86.23 322.71
  L 95.70 307.46
  Q 95.98 307.01 96.51 307.01
  L 179.73 307.02
  Z"
/>
<path d="
  M 194.14 337.99
  L 223.25 337.99
  A 0.50 0.50 0.0 0 1 223.75 338.49
  L 223.75 358.97
  Q 223.75 359.52 223.21 359.52
  L 194.14 359.50
  L 194.14 337.99
  Z"
/>
<path d="
  M 141.46 367.19
  C 142.16 372.98 145.68 374.50 151.27 374.50
  Q 172.55 374.49 194.14 374.51
  Q 193.93 390.51 193.98 406.45
  C 193.99 411.17 193.44 415.90 190.46 418.96
  Q 180.48 429.21 144.51 464.08
  C 140.59 467.87 137.18 469.43 132.00 469.44
  Q 106.05 469.50 80.01 469.50
  L 80.01 375.03
  A 0.53 0.52 90.0 0 1 80.53 374.50
  Q 95.90 374.49 111.45 374.50
  C 117.24 374.51 120.62 373.22 121.52 367.24
  L 141.46 367.19
  Z"
/>
</g>
<g fill="#000000">
<path d="
  M 134.57 0.00
  L 169.32 0.00
  Q 181.04 2.26 180.88 14.47
  A 0.79 0.78 -89.6 0 0 181.66 15.27
  Q 209.63 15.21 237.89 15.29
  C 252.36 15.33 259.54 19.94 270.08 30.47
  Q 291.33 51.70 312.58 72.94
  C 320.26 80.62 327.36 80.16 339.55 80.23
  Q 350.65 80.29 361.73 80.24
  C 369.36 80.21 374.21 79.43 374.24 70.72
  Q 374.26 64.50 374.24 61.59
  A 0.61 0.60 1.5 0 0 373.66 60.99
  Q 366.76 60.67 363.67 55.57
  Q 359.62 48.88 347.95 27.28
  C 341.36 15.05 347.26 1.90 361.31 0.00
  L 402.05 0.00
  Q 413.31 1.51 417.16 11.56
  C 419.38 17.38 418.08 22.19 414.95 27.90
  Q 408.98 38.76 402.80 49.50
  C 398.91 56.26 397.14 60.15 389.81 61.11
  Q 389.30 61.17 389.28 61.69
  C 389.15 66.37 389.62 71.88 388.86 75.90
  C 386.33 89.43 376.50 95.02 363.59 95.12
  Q 353.31 95.20 330.93 95.13
  C 317.12 95.08 309.22 90.61 299.25 80.76
  Q 276.99 58.76 254.96 36.53
  C 249.90 31.43 244.19 30.24 236.53 30.25
  Q 209.09 30.29 181.60 30.20
  Q 181.06 30.19 181.05 30.74
  L 180.89 37.46
  Q 180.88 37.98 181.40 37.98
  C 199.52 38.11 197.71 48.96 197.75 63.14
  Q 197.76 64.07 198.68 64.05
  C 215.23 63.76 238.76 59.56 238.76 84.47
  Q 238.76 106.48 238.73 128.48
  C 238.72 140.70 227.72 147.62 219.91 155.03
  A 1.32 1.30 -22.1 0 0 219.50 155.98
  L 219.50 296.75
  Q 219.50 297.22 219.75 297.62
  Q 228.26 311.28 236.66 325.01
  C 237.89 327.03 238.75 330.46 238.75 332.81
  Q 238.73 364.25 238.78 395.50
  A 0.51 0.51 0.0 0 0 239.66 395.84
  C 247.31 387.72 256.24 378.33 265.34 373.20
  C 287.35 360.81 314.58 364.52 332.67 382.08
  Q 350.87 399.75 368.96 417.58
  C 373.03 421.59 374.64 425.10 370.99 429.95
  Q 365.04 434.72 359.50 429.27
  Q 345.72 415.73 331.89 402.25
  Q 319.73 390.39 317.27 388.65
  C 306.15 380.78 292.62 379.07 279.30 383.34
  Q 270.24 386.52 261.44 395.19
  Q 223.82 432.21 186.14 469.17
  L 158.28 496.47
  A 0.31 0.31 0.0 0 0 158.50 497.00
  L 427.51 497.00
  A 0.41 0.41 0.0 0 0 427.80 496.29
  Q 407.06 476.05 386.38 455.64
  C 382.64 451.95 381.78 447.99 385.20 443.85
  Q 391.00 439.31 395.65 443.84
  Q 418.60 466.17 441.34 488.71
  Q 445.43 492.76 446.41 495.69
  C 448.93 503.22 443.51 510.77 435.68 512.00
  L 81.19 512.00
  C 68.42 509.69 64.99 501.40 64.99 489.54
  Q 65.01 411.15 65.00 332.75
  Q 65.00 328.05 68.36 322.94
  C 73.76 314.73 78.78 306.21 83.98 297.87
  A 1.77 1.72 -29.6 0 0 84.25 296.94
  Q 84.25 263.96 84.26 231.01
  Q 84.26 223.31 91.76 222.57
  C 97.94 222.99 99.25 226.86 99.25 232.59
  Q 99.24 250.93 99.26 269.24
  L 99.26 291.49
  A 0.51 0.51 0.0 0 0 99.77 292.00
  L 204.00 292.00
  A 0.50 0.50 0.0 0 0 204.50 291.50
  L 204.50 160.21
  Q 204.50 159.56 203.85 159.57
  L 182.26 159.73
  L 99.91 159.45
  Q 99.25 159.44 99.25 160.11
  Q 99.26 176.49 99.25 193.00
  C 99.24 198.52 97.44 201.99 91.78 202.57
  C 85.24 201.71 84.25 197.55 84.25 191.45
  Q 84.25 173.63 84.25 155.76
  Q 84.25 155.25 83.88 154.91
  Q 76.35 147.88 69.06 140.70
  C 65.98 137.67 65.03 132.19 65.02 127.42
  Q 64.99 106.58 64.99 85.75
  C 64.99 59.43 86.57 64.00 105.04 64.03
  Q 105.98 64.03 105.98 63.10
  C 106.08 49.33 104.20 38.18 122.40 37.98
  Q 122.97 37.98 122.97 37.41
  Q 123.06 28.25 123.00 19.12
  C 122.93 8.97 123.80 2.06 134.57 0.00
  Z
  M 165.8194 15.3743
  A 0.35 0.35 0.0 0 0 165.4701 15.0237
  L 138.3701 14.9764
  A 0.35 0.35 0.0 0 0 138.0195 15.3258
  L 137.9806 37.6257
  A 0.35 0.35 0.0 0 0 138.3299 37.9763
  L 165.4299 38.0236
  A 0.35 0.35 0.0 0 0 165.7805 37.6742
  L 165.8194 15.3743
  Z
  M 360.24 16.67
  A 1.45 1.45 0.0 0 0 360.07 18.31
  L 375.33 45.72
  A 0.70 0.70 0.0 0 0 375.94 46.08
  L 387.17 46.00
  A 0.67 0.65 -75.4 0 0 387.75 45.65
  L 402.80 19.01
  A 2.68 2.68 0.0 0 0 400.47 15.01
  Q 381.92 14.97 362.97 15.02
  C 361.34 15.02 361.15 15.62 360.24 16.67
  Z
  M 182.77 53.48
  A 0.48 0.48 0.0 0 0 182.29 53.00
  L 121.49 53.00
  A 0.48 0.48 0.0 0 0 121.01 53.48
  L 121.01 63.52
  A 0.48 0.48 0.0 0 0 121.49 64.00
  L 182.29 64.00
  A 0.48 0.48 0.0 0 0 182.77 63.52
  L 182.77 53.48
  Z
  M 190.89 144.47
  L 208.58 144.48
  A 1.43 1.40 22.5 0 0 209.57 144.08
  L 223.22 131.23
  A 1.69 1.69 0.0 0 0 223.75 130.00
  L 223.75 81.48
  A 2.32 2.32 0.0 0 0 221.45 79.16
  L 201.83 79.02
  L 83.51 79.02
  Q 80.00 79.02 80.00 82.53
  L 80.00 129.48
  A 2.40 2.39 21.8 0 0 80.75 131.22
  L 94.33 144.13
  Q 94.70 144.48 95.21 144.48
  L 190.89 144.47
  Z
  M 189.14 322.97
  L 217.06 322.94
  Q 217.79 322.94 217.41 322.33
  L 208.15 307.43
  Q 207.89 307.01 207.39 307.01
  L 179.73 307.02
  L 96.51 307.01
  Q 95.98 307.01 95.70 307.46
  L 86.23 322.71
  A 0.18 0.18 0.0 0 0 86.38 322.99
  L 189.14 322.97
  Z
  M 121.52 367.24
  C 120.62 373.22 117.24 374.51 111.45 374.50
  Q 95.90 374.49 80.53 374.50
  A 0.53 0.52 90.0 0 0 80.01 375.03
  L 80.01 469.50
  L 80.01 494.00
  A 3.00 3.00 0.0 0 0 83.01 497.00
  L 135.73 497.00
  A 1.50 1.46 21.9 0 0 136.78 496.57
  L 223.49 411.46
  Q 223.78 411.18 223.78 410.79
  L 223.74 375.00
  Q 223.74 374.52 223.26 374.52
  L 194.14 374.51
  Q 172.55 374.49 151.27 374.50
  C 145.68 374.50 142.16 372.98 141.46 367.19
  Q 142.48 359.50 151.25 359.50
  Q 172.83 359.50 194.14 359.50
  L 223.21 359.52
  Q 223.75 359.52 223.75 358.97
  L 223.75 338.49
  A 0.50 0.50 0.0 0 0 223.25 337.99
  L 194.14 337.99
  L 80.51 338.01
  Q 80.00 338.01 80.00 338.52
  L 80.00 358.99
  Q 80.00 359.52 80.52 359.51
  Q 96.33 359.44 112.05 359.59
  Q 120.80 359.67 121.52 367.24
  Z"
/>
<path d="
  M 125.51 194.69
  C 133.57 167.19 173.18 168.63 179.05 196.69
  Q 179.57 199.15 179.78 214.40
  Q 180.08 235.91 179.51 243.50
  Q 178.67 254.52 169.17 262.42
  C 154.26 274.82 131.18 267.20 125.62 248.94
  Q 124.22 244.35 124.25 234.43
  Q 124.29 221.21 124.23 207.99
  Q 124.19 199.21 125.51 194.69
  Z
  M 140.63 246.39
  C 145.83 255.38 158.56 256.02 163.21 246.36
  Q 164.49 243.69 164.50 237.43
  Q 164.53 220.91 164.47 204.42
  C 164.45 198.04 163.12 194.20 157.68 191.21
  Q 155.20 189.71 153.50 189.71
  C 141.52 189.66 139.24 197.13 139.24 207.62
  Q 139.24 224.66 139.28 241.69
  Q 139.28 243.26 140.63 246.39
  Z"
/>
<ellipse cx="0.00" cy="0.00" transform="translate(268.20,433.35) rotate(-0.2)" rx="8.48" ry="7.60"/>
<path d="
  M 321.60 426.37
  Q 324.15 427.76 326.07 430.17
  C 329.16 446.78 304.03 441.89 310.41 429.99
  Q 313.36 424.50 321.60 426.37
  Z"
/>
<path d="
  M 249.37 469.45
  Q 243.78 472.71 237.26 469.49
  C 228.01 456.38 249.47 450.57 251.72 462.76
  Q 252.25 465.61 249.37 469.45
  Z"
/>
<path d="
  M 299.24 469.26
  Q 291.95 473.45 286.32 468.42
  C 281.98 462.04 286.78 455.59 294.01 456.12
  C 301.21 456.66 303.59 463.58 299.24 469.26
  Z"
/>
<path d="
  M 345.16 456.15
  C 353.79 458.00 354.02 469.44 345.00 470.91
  Q 339.45 471.82 335.87 467.89
  Q 331.93 456.04 345.16 456.15
  Z"
/>
</g>
<path fill="#a44f3e" d="
  M 370.99 429.95
  L 385.20 443.85
  C 381.78 447.99 382.64 451.95 386.38 455.64
  Q 407.06 476.05 427.80 496.29
  A 0.41 0.41 0.0 0 1 427.51 497.00
  L 158.50 497.00
  A 0.31 0.31 0.0 0 1 158.28 496.47
  L 186.14 469.17
  Q 186.20 469.31 186.24 469.42
  Q 186.33 469.66 186.58 469.66
  L 237.26 469.49
  Q 243.78 472.71 249.37 469.45
  Q 266.93 469.46 283.69 469.62
  Q 286.26 469.65 286.32 468.42
  Q 291.95 473.45 299.24 469.26
  Q 317.97 469.81 331.31 469.43
  Q 334.36 469.35 335.87 467.89
  Q 339.45 471.82 345.00 470.91
  C 354.02 469.44 353.79 458.00 345.16 456.15
  Q 345.08 449.14 341.19 444.58
  Q 336.38 438.93 326.07 430.17
  Q 324.15 427.76 321.60 426.37
  Q 321.86 425.33 321.25 424.74
  Q 300.55 404.47 279.30 383.34
  C 292.62 379.07 306.15 380.78 317.27 388.65
  Q 319.73 390.39 331.89 402.25
  Q 345.72 415.73 359.50 429.27
  Q 365.04 434.72 370.99 429.95
  Z"
/>
<g fill="#ffd15b">
<rect x="-13.90" y="-11.50" transform="translate(151.90,26.50) rotate(0.1)" width="27.80" height="23.00" rx="0.35"/>
<rect x="121.01" y="53.00" width="61.76" height="11.00" rx="0.48"/>
</g>
<g fill="#d88a55">
<path d="
  M 201.83 79.02
  L 221.45 79.16
  A 2.32 2.32 0.0 0 1 223.75 81.48
  L 223.75 130.00
  A 1.69 1.69 0.0 0 1 223.22 131.23
  L 209.57 144.08
  A 1.43 1.40 22.5 0 1 208.58 144.48
  L 190.89 144.47
  C 195.27 139.59 201.67 136.18 201.80 128.72
  Q 202.26 103.89 201.83 79.02
  Z"
/>
<path d="
  M 182.26 159.73
  Q 182.21 206.04 182.23 252.22
  C 182.23 267.07 175.59 271.00 161.33 271.00
  Q 130.68 271.00 100.03 271.00
  Q 99.50 271.00 99.51 270.47
  Q 99.53 269.69 99.26 269.24
  Q 99.24 250.93 99.25 232.59
  C 99.25 226.86 97.94 222.99 91.76 222.57
  L 91.78 202.57
  C 97.44 201.99 99.24 198.52 99.25 193.00
  Q 99.26 176.49 99.25 160.11
  Q 99.25 159.44 99.91 159.45
  L 182.26 159.73
  Z
  M 179.05 196.69
  C 173.18 168.63 133.57 167.19 125.51 194.69
  Q 124.19 199.21 124.23 207.99
  Q 124.29 221.21 124.25 234.43
  Q 124.22 244.35 125.62 248.94
  C 131.18 267.20 154.26 274.82 169.17 262.42
  Q 178.67 254.52 179.51 243.50
  Q 180.08 235.91 179.78 214.40
  Q 179.57 199.15 179.05 196.69
  Z"
/>
<path d="
  M 179.73 307.02
  L 207.39 307.01
  Q 207.89 307.01 208.15 307.43
  L 217.41 322.33
  Q 217.79 322.94 217.06 322.94
  L 189.14 322.97
  L 179.73 307.02
  Z"
/>
<path d="
  M 194.14 374.51
  L 223.26 374.52
  Q 223.74 374.52 223.74 375.00
  L 223.78 410.79
  Q 223.78 411.18 223.49 411.46
  L 136.78 496.57
  A 1.50 1.46 21.9 0 1 135.73 497.00
  L 83.01 497.00
  A 3.00 3.00 0.0 0 1 80.01 494.00
  L 80.01 469.50
  Q 106.05 469.50 132.00 469.44
  C 137.18 469.43 140.59 467.87 144.51 464.08
  Q 180.48 429.21 190.46 418.96
  C 193.44 415.90 193.99 411.17 193.98 406.45
  Q 193.93 390.51 194.14 374.51
  Z"
/>
</g>
<path fill="#bb5d4c" d="
  M 279.30 383.34
  Q 300.55 404.47 321.25 424.74
  Q 321.86 425.33 321.60 426.37
  Q 313.36 424.50 310.41 429.99
  C 304.03 441.89 329.16 446.78 326.07 430.17
  Q 336.38 438.93 341.19 444.58
  Q 345.08 449.14 345.16 456.15
  Q 331.93 456.04 335.87 467.89
  Q 334.36 469.35 331.31 469.43
  Q 317.97 469.81 299.24 469.26
  C 303.59 463.58 301.21 456.66 294.01 456.12
  C 286.78 455.59 281.98 462.04 286.32 468.42
  Q 286.26 469.65 283.69 469.62
  Q 266.93 469.46 249.37 469.45
  Q 252.25 465.61 251.72 462.76
  C 249.47 450.57 228.01 456.38 237.26 469.49
  L 186.58 469.66
  Q 186.33 469.66 186.24 469.42
  Q 186.20 469.31 186.14 469.17
  Q 223.82 432.21 261.44 395.19
  Q 270.24 386.52 279.30 383.34
  Z
  M 276.6799 433.3204
  A 8.48 7.60 -0.2 0 0 268.1735 425.7500
  A 8.48 7.60 -0.2 0 0 259.7201 433.3796
  A 8.48 7.60 -0.2 0 0 268.2265 440.9500
  A 8.48 7.60 -0.2 0 0 276.6799 433.3204
  Z"
/>
<g fill="#ffbd86">
<path d="
  M 157.68 191.21
  Q 157.46 206.51 157.29 221.36
  C 157.16 232.93 154.80 240.21 144.03 244.74
  Q 142.35 245.44 140.63 246.39
  Q 139.28 243.26 139.28 241.69
  Q 139.24 224.66 139.24 207.62
  C 139.24 197.13 141.52 189.66 153.50 189.71
  Q 155.20 189.71 157.68 191.21
  Z"
/>
<path d="
  M 194.14 337.99
  L 194.14 359.50
  Q 172.83 359.50 151.25 359.50
  Q 142.48 359.50 141.46 367.19
  L 121.52 367.24
  Q 120.80 359.67 112.05 359.59
  Q 96.33 359.44 80.52 359.51
  Q 80.00 359.52 80.00 358.99
  L 80.00 338.52
  Q 80.00 338.01 80.51 338.01
  L 194.14 337.99
  Z"
/>
</g>
<path fill="#c57a44" d="
  M 99.26 269.24
  Q 99.53 269.69 99.51 270.47
  Q 99.50 271.00 100.03 271.00
  Q 130.68 271.00 161.33 271.00
  C 175.59 271.00 182.23 267.07 182.23 252.22
  Q 182.21 206.04 182.26 159.73
  L 203.85 159.57
  Q 204.50 159.56 204.50 160.21
  L 204.50 291.50
  A 0.50 0.50 0.0 0 1 204.00 292.00
  L 99.77 292.00
  A 0.51 0.51 0.0 0 1 99.26 291.49
  L 99.26 269.24
  Z"
/>
</svg>
