<?xml version="1.0" encoding="UTF-8" standalone="no"?>
<!DOCTYPE svg PUBLIC "-//W3C//DTD SVG 1.1//EN" "http://www.w3.org/Graphics/SVG/1.1/DTD/svg11.dtd">
<svg xmlns="http://www.w3.org/2000/svg" version="1.1" viewBox="0.00 0.00 512.00 512.00">
<g stroke-width="2.00" fill="none" stroke-linecap="butt">
<path stroke="#43221c" vector-effect="non-scaling-stroke" d="
  M 127.76 97.37
  C 124.41 103.31 119.49 101.85 114.07 100.38
  Q 107.92 98.71 101.48 99.88
  Q 100.93 99.98 101.26 100.43
  Q 108.17 109.87 116.16 114.61
  C 122.49 118.36 132.34 122.01 138.93 126.78
  Q 145.99 131.87 152.02 138.50
  A 0.22 0.22 0.0 0 0 152.40 138.33
  C 151.75 131.28 148.99 127.10 145.74 121.13
  C 143.62 117.23 143.66 114.18 146.62 111.01"
/>
<path stroke="#7b796f" vector-effect="non-scaling-stroke" d="
  M 179.25 377.95
  Q 179.27 377.83 179.46 377.75
  Q 179.69 377.64 179.64 377.38
  C 178.38 371.29 181.86 369.05 187.23 367.12
  Q 240.00 348.09 292.75 329.01
  Q 298.34 326.99 307.55 321.90"
/>
<path stroke="#6b6557" vector-effect="non-scaling-stroke" d="
  M 307.55 321.90
  C 342.25 300.10 359.74 259.59 348.49 219.67
  C 345.37 208.60 339.00 192.18 334.03 178.83
  A 2.23 2.23 0.0 0 0 331.16 177.52
  L 321.91 180.98"
/>
<path stroke="#7b796f" vector-effect="non-scaling-stroke" d="
  M 321.91 180.98
  Q 269.81 198.26 225.88 231.17
  Q 215.00 239.32 197.01 254.01
  Q 113.51 322.26 30.02 390.50
  Q 14.78 402.95 14.99 422.50
  C 15.05 427.67 18.84 427.83 22.76 426.42
  Q 82.70 404.79 142.64 383.19
  C 148.27 381.16 152.91 380.44 155.72 386.48"
/>
<path stroke="#744f21" vector-effect="non-scaling-stroke" d="
  M 407.73 122.38
  Q 411.16 129.09 404.50 133.76
  Q 376.42 153.43 348.36 172.97
  A 0.53 0.53 0.0 0 0 348.16 173.59
  L 353.81 189.26
  Q 354.03 189.88 354.60 189.56
  Q 421.44 152.70 488.22 115.74
  C 498.62 109.99 499.99 94.37 489.91 87.58
  C 480.96 81.55 474.15 85.23 465.58 91.19
  Q 451.46 101.03 437.36 110.87
  Q 431.32 115.09 426.21 110.18
  Q 426.03 110.01 425.78 110.00
  Q 425.64 110.00 425.51 109.97"
/>
<path stroke="#43221c" vector-effect="non-scaling-stroke" d="
  M 232.45 207.07
  C 216.17 200.56 188.77 202.88 177.19 217.83
  Q 176.84 218.27 177.39 218.39
  C 191.02 221.15 200.50 218.80 214.12 214.66
  C 216.95 213.80 219.92 213.55 222.86 213.03
  C 226.72 212.34 229.42 209.93 232.53 207.77
  A 0.40 0.40 0.0 0 0 232.45 207.07"
/>
<path stroke="#43221c" vector-effect="non-scaling-stroke" d="
  M 196.31 234.62
  L 182.69 234.57
  Q 181.71 234.57 182.56 235.05
  L 190.22 239.35
  Q 190.78 239.66 191.28 239.26
  L 196.46 235.04
  Q 196.97 234.62 196.31 234.62"
/>
<path stroke="#43221c" vector-effect="non-scaling-stroke" d="
  M 157.00 266.51
  C 144.64 252.34 116.25 243.75 99.38 254.03
  Q 98.95 254.29 99.37 254.56
  Q 108.05 260.14 118.00 262.44
  C 123.10 263.62 129.49 263.84 135.18 264.33
  Q 143.12 265.01 153.48 269.48
  A 0.95 0.94 -52.2 0 0 154.45 269.35
  L 156.92 267.35
  Q 157.40 266.97 157.00 266.51"
/>
<path stroke="#43221c" vector-effect="non-scaling-stroke" d="
  M 98.53 271.97
  C 104.50 281.38 115.82 288.59 125.88 292.11
  Q 126.42 292.29 126.86 291.93
  L 140.14 281.14
  A 0.43 0.42 -60.0 0 0 139.94 280.39
  Q 132.20 279.15 124.34 278.48
  C 114.54 277.64 107.19 275.49 98.82 271.63
  Q 98.10 271.30 98.53 271.97"
/>
<path stroke="#43221c" vector-effect="non-scaling-stroke" d="
  M 35.90 326.73
  C 41.17 326.86 46.06 326.89 51.17 326.17
  C 60.86 324.81 69.13 319.27 78.67 317.06
  Q 88.14 314.86 97.80 314.99
  A 0.38 0.38 0.0 0 0 98.02 314.30
  C 81.86 303.39 59.29 307.29 43.95 317.44
  Q 38.84 320.83 35.55 326.07
  Q 35.14 326.71 35.90 326.73"
/>
<path stroke="#43221c" vector-effect="non-scaling-stroke" d="
  M 42.65 342.53
  Q 50.05 346.25 58.23 347.66
  Q 58.67 347.73 59.02 347.45
  L 75.26 334.07
  A 0.13 0.13 0.0 0 0 75.11 333.85
  Q 60.80 341.36 44.49 341.86
  Q 43.48 341.89 42.65 342.34
  Q 42.47 342.44 42.65 342.53"
/>
<path stroke="#43221c" vector-effect="non-scaling-stroke" d="
  M 143.34 151.84
  C 138.68 145.65 132.07 139.65 125.19 135.79
  C 121.07 133.47 114.34 131.04 109.85 128.34
  Q 101.39 123.27 94.75 116.09
  A 0.36 0.36 0.0 0 0 94.14 116.44
  C 100.07 135.53 120.03 158.90 142.67 153.68
  Q 144.43 153.27 143.34 151.84"
/>
<path stroke="#43221c" vector-effect="non-scaling-stroke" d="
  M 247.27 155.62
  C 254.21 135.29 237.49 105.72 217.32 99.75
  Q 216.50 99.50 216.68 100.34
  C 219.50 113.21 225.54 121.39 234.19 131.33
  Q 242.27 140.63 246.67 155.61
  Q 246.95 156.56 247.27 155.62"
/>
<path stroke="#43221c" vector-effect="non-scaling-stroke" d="
  M 211.40 150.08
  C 216.06 157.92 223.67 164.81 233.19 165.75
  Q 233.77 165.81 233.65 165.24
  Q 231.24 153.93 225.08 144.28
  C 222.84 140.79 219.58 137.41 216.75 134.01
  C 210.95 127.08 207.01 119.90 204.19 111.49
  A 0.31 0.31 0.0 0 0 203.59 111.55
  Q 200.76 132.16 211.40 150.08"
/>
<path stroke="#43221c" vector-effect="non-scaling-stroke" d="
  M 100.54 190.33
  C 88.13 173.64 52.06 171.57 37.25 185.53
  Q 36.80 185.95 37.38 186.17
  Q 46.25 189.46 55.64 189.89
  C 60.68 190.13 66.38 189.12 71.72 188.48
  C 81.91 187.25 90.73 188.12 100.25 190.76
  A 0.28 0.27 79.4 0 0 100.54 190.33"
/>
<path stroke="#43221c" vector-effect="non-scaling-stroke" d="
  M 63.30 204.73
  C 55.89 205.87 47.85 204.33 40.53 203.00
  Q 39.44 202.81 40.28 203.53
  Q 51.63 213.40 66.07 216.29
  C 77.79 218.63 93.70 218.36 101.48 207.58
  Q 101.76 207.19 101.31 207.02
  C 87.68 201.87 77.88 202.50 63.30 204.73"
/>
<path stroke="#e6ddc5" vector-effect="non-scaling-stroke" d="
  M 307.55 321.90
  Q 307.12 320.90 307.60 320.55
  Q 307.79 320.41 307.84 320.36
  C 328.57 298.08 339.70 268.92 337.82 238.51
  C 336.56 218.25 328.72 199.87 321.91 180.98"
/>
</g>
<g fill="#000000">
<path d="
  M 512.00 100.06
  L 512.00 102.56
  C 510.84 115.98 504.21 124.01 492.79 130.34
  Q 426.36 167.15 360.11 203.66
  A 1.35 1.34 65.3 0 0 359.50 205.32
  C 376.80 250.72 362.29 300.15 323.69 329.07
  C 314.65 335.85 304.15 340.86 293.45 344.72
  Q 242.93 362.97 192.39 381.16
  C 187.15 383.05 183.06 383.68 180.08 378.46
  Q 179.80 377.97 179.25 377.95
  Q 179.27 377.83 179.46 377.75
  Q 179.69 377.64 179.64 377.38
  C 178.38 371.29 181.86 369.05 187.23 367.12
  Q 240.00 348.09 292.75 329.01
  Q 298.34 326.99 307.55 321.90
  C 342.25 300.10 359.74 259.59 348.49 219.67
  C 345.37 208.60 339.00 192.18 334.03 178.83
  A 2.23 2.23 0.0 0 0 331.16 177.52
  L 321.91 180.98
  Q 269.81 198.26 225.88 231.17
  Q 215.00 239.32 197.01 254.01
  Q 113.51 322.26 30.02 390.50
  Q 14.78 402.95 14.99 422.50
  C 15.05 427.67 18.84 427.83 22.76 426.42
  Q 82.70 404.79 142.64 383.19
  C 148.27 381.16 152.91 380.44 155.72 386.48
  C 157.85 395.66 147.67 397.40 141.54 399.61
  Q 87.77 418.94 34.02 438.31
  C 29.52 439.94 23.73 442.64 19.00 442.27
  Q 0.89 440.89 0.00 421.45
  L 0.00 418.45
  C 2.28 389.19 22.65 377.07 43.56 360.15
  A 0.50 0.50 0.0 0 0 43.41 359.28
  C 20.57 351.54 9.32 328.89 29.44 310.00
  C 49.06 291.60 88.97 284.92 110.01 304.90
  Q 110.43 305.29 110.89 304.97
  L 112.42 303.90
  A 0.76 0.76 0.0 0 0 112.32 302.60
  Q 101.16 297.09 92.57 288.43
  C 81.61 277.38 74.05 260.22 85.11 246.69
  C 90.20 240.47 99.08 236.50 107.00 235.47
  C 128.91 232.63 154.10 239.36 168.59 257.00
  A 0.69 0.68 50.6 0 0 169.56 257.10
  L 177.56 250.53
  A 0.62 0.62 0.0 0 0 177.53 249.55
  C 172.31 245.75 167.05 242.42 163.58 236.43
  C 152.28 216.88 168.80 200.78 185.48 194.03
  C 204.62 186.29 228.80 185.82 246.34 197.98
  A 1.70 1.70 0.0 0 0 248.17 198.05
  C 272.96 183.44 301.56 171.26 327.26 163.01
  Q 330.93 161.83 336.03 162.82
  A 1.27 1.24 -56.7 0 0 336.99 162.61
  Q 366.54 141.97 396.09 121.37
  Q 402.67 116.78 407.73 122.38
  Q 411.16 129.09 404.50 133.76
  Q 376.42 153.43 348.36 172.97
  A 0.53 0.53 0.0 0 0 348.16 173.59
  L 353.81 189.26
  Q 354.03 189.88 354.60 189.56
  Q 421.44 152.70 488.22 115.74
  C 498.62 109.99 499.99 94.37 489.91 87.58
  C 480.96 81.55 474.15 85.23 465.58 91.19
  Q 451.46 101.03 437.36 110.87
  Q 431.32 115.09 426.21 110.18
  Q 426.03 110.01 425.78 110.00
  Q 425.64 110.00 425.51 109.97
  L 425.66 109.70
  Q 425.77 109.50 425.67 109.29
  C 422.94 103.65 425.74 100.74 430.39 97.48
  Q 442.10 89.26 453.85 81.09
  Q 465.54 72.97 470.52 71.27
  C 490.83 64.32 510.52 79.31 512.00 100.06
  Z
  M 232.45 207.07
  C 216.17 200.56 188.77 202.88 177.19 217.83
  Q 176.84 218.27 177.39 218.39
  C 191.02 221.15 200.50 218.80 214.12 214.66
  C 216.95 213.80 219.92 213.55 222.86 213.03
  C 226.72 212.34 229.42 209.93 232.53 207.77
  A 0.40 0.40 0.0 0 0 232.45 207.07
  Z
  M 196.31 234.62
  L 182.69 234.57
  Q 181.71 234.57 182.56 235.05
  L 190.22 239.35
  Q 190.78 239.66 191.28 239.26
  L 196.46 235.04
  Q 196.97 234.62 196.31 234.62
  Z
  M 157.00 266.51
  C 144.64 252.34 116.25 243.75 99.38 254.03
  Q 98.95 254.29 99.37 254.56
  Q 108.05 260.14 118.00 262.44
  C 123.10 263.62 129.49 263.84 135.18 264.33
  Q 143.12 265.01 153.48 269.48
  A 0.95 0.94 -52.2 0 0 154.45 269.35
  L 156.92 267.35
  Q 157.40 266.97 157.00 266.51
  Z
  M 98.53 271.97
  C 104.50 281.38 115.82 288.59 125.88 292.11
  Q 126.42 292.29 126.86 291.93
  L 140.14 281.14
  A 0.43 0.42 -60.0 0 0 139.94 280.39
  Q 132.20 279.15 124.34 278.48
  C 114.54 277.64 107.19 275.49 98.82 271.63
  Q 98.10 271.30 98.53 271.97
  Z
  M 35.90 326.73
  C 41.17 326.86 46.06 326.89 51.17 326.17
  C 60.86 324.81 69.13 319.27 78.67 317.06
  Q 88.14 314.86 97.80 314.99
  A 0.38 0.38 0.0 0 0 98.02 314.30
  C 81.86 303.39 59.29 307.29 43.95 317.44
  Q 38.84 320.83 35.55 326.07
  Q 35.14 326.71 35.90 326.73
  Z
  M 42.65 342.53
  Q 50.05 346.25 58.23 347.66
  Q 58.67 347.73 59.02 347.45
  L 75.26 334.07
  A 0.13 0.13 0.0 0 0 75.11 333.85
  Q 60.80 341.36 44.49 341.86
  Q 43.48 341.89 42.65 342.34
  Q 42.47 342.44 42.65 342.53
  Z"
/>
<path d="
  M 127.76 97.37
  C 124.41 103.31 119.49 101.85 114.07 100.38
  Q 107.92 98.71 101.48 99.88
  Q 100.93 99.98 101.26 100.43
  Q 108.17 109.87 116.16 114.61
  C 122.49 118.36 132.34 122.01 138.93 126.78
  Q 145.99 131.87 152.02 138.50
  A 0.22 0.22 0.0 0 0 152.40 138.33
  C 151.75 131.28 148.99 127.10 145.74 121.13
  C 143.62 117.23 143.66 114.18 146.62 111.01
  C 152.39 107.05 156.14 109.90 159.51 115.01
  C 164.80 123.01 168.15 132.78 167.15 142.38
  C 165.35 159.75 151.00 170.04 134.15 169.48
  C 107.25 168.60 79.40 137.56 78.63 111.65
  C 77.88 86.61 101.64 79.99 121.41 86.85
  C 126.70 88.69 129.44 91.64 127.76 97.37
  Z
  M 143.34 151.84
  C 138.68 145.65 132.07 139.65 125.19 135.79
  C 121.07 133.47 114.34 131.04 109.85 128.34
  Q 101.39 123.27 94.75 116.09
  A 0.36 0.36 0.0 0 0 94.14 116.44
  C 100.07 135.53 120.03 158.90 142.67 153.68
  Q 144.43 153.27 143.34 151.84
  Z"
/>
<path d="
  M 241.32 96.93
  Q 257.14 111.79 262.35 132.34
  C 266.37 148.21 263.97 167.70 248.11 176.56
  C 229.96 186.69 211.17 176.47 200.49 160.67
  C 189.58 144.51 183.65 119.94 191.29 101.18
  C 201.22 76.76 225.79 82.33 241.32 96.93
  Z
  M 247.27 155.62
  C 254.21 135.29 237.49 105.72 217.32 99.75
  Q 216.50 99.50 216.68 100.34
  C 219.50 113.21 225.54 121.39 234.19 131.33
  Q 242.27 140.63 246.67 155.61
  Q 246.95 156.56 247.27 155.62
  Z
  M 211.40 150.08
  C 216.06 157.92 223.67 164.81 233.19 165.75
  Q 233.77 165.81 233.65 165.24
  Q 231.24 153.93 225.08 144.28
  C 222.84 140.79 219.58 137.41 216.75 134.01
  C 210.95 127.08 207.01 119.90 204.19 111.49
  A 0.31 0.31 0.0 0 0 203.59 111.55
  Q 200.76 132.16 211.40 150.08
  Z"
/>
<path d="
  M 107.59 175.66
  C 120.45 187.38 122.84 205.50 111.51 218.85
  C 92.21 241.61 52.99 232.70 32.94 217.04
  C 16.61 204.29 12.78 182.38 32.48 170.25
  C 54.14 156.91 88.41 158.18 107.59 175.66
  Z
  M 100.54 190.33
  C 88.13 173.64 52.06 171.57 37.25 185.53
  Q 36.80 185.95 37.38 186.17
  Q 46.25 189.46 55.64 189.89
  C 60.68 190.13 66.38 189.12 71.72 188.48
  C 81.91 187.25 90.73 188.12 100.25 190.76
  A 0.28 0.27 79.4 0 0 100.54 190.33
  Z
  M 63.30 204.73
  C 55.89 205.87 47.85 204.33 40.53 203.00
  Q 39.44 202.81 40.28 203.53
  Q 51.63 213.40 66.07 216.29
  C 77.79 218.63 93.70 218.36 101.48 207.58
  Q 101.76 207.19 101.31 207.02
  C 87.68 201.87 77.88 202.50 63.30 204.73
  Z"
/>
</g>
<path fill="#f6f1dd" d="
  M 321.91 180.98
  C 328.72 199.87 336.56 218.25 337.82 238.51
  C 339.70 268.92 328.57 298.08 307.84 320.36
  Q 307.79 320.41 307.60 320.55
  Q 307.12 320.90 307.55 321.90
  Q 298.34 326.99 292.75 329.01
  Q 240.00 348.09 187.23 367.12
  C 181.86 369.05 178.38 371.29 179.64 377.38
  Q 179.69 377.64 179.46 377.75
  Q 179.27 377.83 179.25 377.95
  L 155.72 386.48
  C 152.91 380.44 148.27 381.16 142.64 383.19
  Q 82.70 404.79 22.76 426.42
  C 18.84 427.83 15.05 427.67 14.99 422.50
  Q 14.78 402.95 30.02 390.50
  Q 113.51 322.26 197.01 254.01
  Q 215.00 239.32 225.88 231.17
  Q 269.81 198.26 321.91 180.98
  Z"
/>
<g fill="#854437">
<path d="
  M 127.76 97.37
  Q 138.57 102.80 146.62 111.01
  C 143.66 114.18 143.62 117.23 145.74 121.13
  C 148.99 127.10 151.75 131.28 152.40 138.33
  A 0.22 0.22 0.0 0 1 152.02 138.50
  Q 145.99 131.87 138.93 126.78
  C 132.34 122.01 122.49 118.36 116.16 114.61
  Q 108.17 109.87 101.26 100.43
  Q 100.93 99.98 101.48 99.88
  Q 107.92 98.71 114.07 100.38
  C 119.49 101.85 124.41 103.31 127.76 97.37
  Z"
/>
<path d="
  M 217.32 99.75
  C 237.49 105.72 254.21 135.29 247.27 155.62
  Q 246.95 156.56 246.67 155.61
  Q 242.27 140.63 234.19 131.33
  C 225.54 121.39 219.50 113.21 216.68 100.34
  Q 216.50 99.50 217.32 99.75
  Z"
/>
<path d="
  M 233.19 165.75
  C 223.67 164.81 216.06 157.92 211.40 150.08
  Q 200.76 132.16 203.59 111.55
  A 0.31 0.31 0.0 0 1 204.19 111.49
  C 207.01 119.90 210.95 127.08 216.75 134.01
  C 219.58 137.41 222.84 140.79 225.08 144.28
  Q 231.24 153.93 233.65 165.24
  Q 233.77 165.81 233.19 165.75
  Z"
/>
<path d="
  M 125.19 135.79
  C 132.07 139.65 138.68 145.65 143.34 151.84
  Q 144.43 153.27 142.67 153.68
  C 120.03 158.90 100.07 135.53 94.14 116.44
  A 0.36 0.36 0.0 0 1 94.75 116.09
  Q 101.39 123.27 109.85 128.34
  C 114.34 131.04 121.07 133.47 125.19 135.79
  Z"
/>
<path d="
  M 37.25 185.53
  C 52.06 171.57 88.13 173.64 100.54 190.33
  A 0.28 0.27 79.4 0 1 100.25 190.76
  C 90.73 188.12 81.91 187.25 71.72 188.48
  C 66.38 189.12 60.68 190.13 55.64 189.89
  Q 46.25 189.46 37.38 186.17
  Q 36.80 185.95 37.25 185.53
  Z"
/>
<path d="
  M 40.53 203.00
  C 47.85 204.33 55.89 205.87 63.30 204.73
  C 77.88 202.50 87.68 201.87 101.31 207.02
  Q 101.76 207.19 101.48 207.58
  C 93.70 218.36 77.79 218.63 66.07 216.29
  Q 51.63 213.40 40.28 203.53
  Q 39.44 202.81 40.53 203.00
  Z"
/>
<path d="
  M 232.45 207.07
  A 0.40 0.40 0.0 0 1 232.53 207.77
  C 229.42 209.93 226.72 212.34 222.86 213.03
  C 219.92 213.55 216.95 213.80 214.12 214.66
  C 200.50 218.80 191.02 221.15 177.39 218.39
  Q 176.84 218.27 177.19 217.83
  C 188.77 202.88 216.17 200.56 232.45 207.07
  Z"
/>
<path d="
  M 182.69 234.57
  L 196.31 234.62
  Q 196.97 234.62 196.46 235.04
  L 191.28 239.26
  Q 190.78 239.66 190.22 239.35
  L 182.56 235.05
  Q 181.71 234.57 182.69 234.57
  Z"
/>
<path d="
  M 99.38 254.03
  C 116.25 243.75 144.64 252.34 157.00 266.51
  Q 157.40 266.97 156.92 267.35
  L 154.45 269.35
  A 0.95 0.94 -52.2 0 1 153.48 269.48
  Q 143.12 265.01 135.18 264.33
  C 129.49 263.84 123.10 263.62 118.00 262.44
  Q 108.05 260.14 99.37 254.56
  Q 98.95 254.29 99.38 254.03
  Z"
/>
<path d="
  M 125.88 292.11
  C 115.82 288.59 104.50 281.38 98.53 271.97
  Q 98.10 271.30 98.82 271.63
  C 107.19 275.49 114.54 277.64 124.34 278.48
  Q 132.20 279.15 139.94 280.39
  A 0.43 0.42 -60.0 0 1 140.14 281.14
  L 126.86 291.93
  Q 126.42 292.29 125.88 292.11
  Z"
/>
<path d="
  M 51.17 326.17
  C 46.06 326.89 41.17 326.86 35.90 326.73
  Q 35.14 326.71 35.55 326.07
  Q 38.84 320.83 43.95 317.44
  C 59.29 307.29 81.86 303.39 98.02 314.30
  A 0.38 0.38 0.0 0 1 97.80 314.99
  Q 88.14 314.86 78.67 317.06
  C 69.13 319.27 60.86 324.81 51.17 326.17
  Z"
/>
<path d="
  M 42.65 342.53
  Q 42.47 342.44 42.65 342.34
  Q 43.48 341.89 44.49 341.86
  Q 60.80 341.36 75.11 333.85
  A 0.13 0.13 0.0 0 1 75.26 334.07
  L 59.02 347.45
  Q 58.67 347.73 58.23 347.66
  Q 50.05 346.25 42.65 342.53
  Z"
/>
</g>
<path fill="#e89d41" d="
  M 407.73 122.38
  L 425.51 109.97
  Q 425.64 110.00 425.78 110.00
  Q 426.03 110.01 426.21 110.18
  Q 431.32 115.09 437.36 110.87
  Q 451.46 101.03 465.58 91.19
  C 474.15 85.23 480.96 81.55 489.91 87.58
  C 499.99 94.37 498.62 109.99 488.22 115.74
  Q 421.44 152.70 354.60 189.56
  Q 354.03 189.88 353.81 189.26
  L 348.16 173.59
  A 0.53 0.53 0.0 0 1 348.36 172.97
  Q 376.42 153.43 404.50 133.76
  Q 411.16 129.09 407.73 122.38
  Z"
/>
<path fill="#d6c9ad" d="
  M 307.55 321.90
  Q 307.12 320.90 307.60 320.55
  Q 307.79 320.41 307.84 320.36
  C 328.57 298.08 339.70 268.92 337.82 238.51
  C 336.56 218.25 328.72 199.87 321.91 180.98
  L 331.16 177.52
  A 2.23 2.23 0.0 0 1 334.03 178.83
  C 339.00 192.18 345.37 208.60 348.49 219.67
  C 359.74 259.59 342.25 300.10 307.55 321.90
  Z"
/>
</svg>
