<?xml version="1.0" encoding="UTF-8" standalone="no"?>
<!DOCTYPE svg PUBLIC "-//W3C//DTD SVG 1.1//EN" "http://www.w3.org/Graphics/SVG/1.1/DTD/svg11.dtd">
<svg xmlns="http://www.w3.org/2000/svg" version="1.1" viewBox="0.00 0.00 512.00 512.00">
<g stroke-width="2.00" fill="none" stroke-linecap="butt">
<path stroke="#537478" vector-effect="non-scaling-stroke" d="
  M 167.51 48.26
  C 172.32 59.91 188.72 56.81 188.69 44.03
  C 188.68 41.07 187.00 38.20 185.53 35.63"
/>
<path stroke="#6a797b" vector-effect="non-scaling-stroke" d="
  M 185.53 35.63
  L 178.06 20.90
  A 0.27 0.27 0.0 0 0 177.58 20.90
  Q 172.25 30.97 167.30 41.31
  Q 166.01 43.99 167.51 48.26"
/>
<path stroke="#bdedf3" vector-effect="non-scaling-stroke" d="
  M 185.53 35.63
  Q 179.09 45.70 167.51 48.26"
/>
<path stroke="#537478" vector-effect="non-scaling-stroke" d="
  M 298.26 48.24
  C 304.79 63.88 327.97 52.04 316.15 35.57"
/>
<path stroke="#6a797b" vector-effect="non-scaling-stroke" d="
  M 316.15 35.57
  L 308.84 21.13
  Q 308.59 20.63 308.33 21.12
  C 302.98 31.04 295.93 41.56 298.26 48.24"
/>
<path stroke="#bdedf3" vector-effect="non-scaling-stroke" d="
  M 316.15 35.57
  Q 310.07 45.63 298.26 48.24"
/>
<path stroke="#537478" vector-effect="non-scaling-stroke" d="
  M 232.84 88.80
  C 236.23 96.31 244.69 98.72 250.71 93.15
  C 255.85 88.40 254.63 82.18 250.84 76.01"
/>
<path stroke="#6a797b" vector-effect="non-scaling-stroke" d="
  M 250.84 76.01
  L 243.49 61.68
  Q 243.27 61.25 243.04 61.67
  C 237.58 71.68 230.66 82.11 232.84 88.80"
/>
<path stroke="#bdedf3" vector-effect="non-scaling-stroke" d="
  M 250.84 76.01
  Q 244.90 86.29 232.84 88.80"
/>
<path stroke="#787778" vector-effect="non-scaling-stroke" d="
  M 233.32 134.72
  C 232.69 140.44 229.36 142.27 223.73 142.29
  Q 195.46 142.39 167.34 142.19
  A 0.59 0.59 0.0 0 0 166.75 142.78
  L 166.75 189.49
  A 0.51 0.51 0.0 0 0 167.25 190.00
  Q 184.84 190.01 202.42 189.99
  C 209.23 189.98 214.67 191.17 217.31 197.51
  Q 218.52 200.41 218.51 209.19
  Q 218.47 232.57 218.51 256.00
  Q 218.51 256.50 219.01 256.50
  L 267.48 256.50
  A 0.52 0.52 0.0 0 0 268.00 255.98
  Q 267.99 230.57 268.01 205.08
  C 268.02 192.50 274.21 189.97 286.07 190.00
  Q 302.54 190.04 319.08 189.98
  Q 319.52 189.98 319.52 189.54
  L 319.49 142.74
  Q 319.49 142.18 318.94 142.19
  Q 290.66 142.52 262.46 142.25
  C 257.05 142.20 253.57 140.38 253.22 134.74"
/>
<path stroke="#787778" vector-effect="non-scaling-stroke" d="
  M 79.00 268.49
  Q 86.43 269.51 86.46 278.26
  Q 86.52 300.62 86.50 322.98
  Q 86.49 323.50 87.02 323.50
  L 101.53 323.50
  Q 102.00 323.50 102.00 323.03
  L 102.01 215.22
  A 0.22 0.22 0.0 0 0 101.79 215.00
  L 87.01 215.00
  Q 86.51 215.00 86.51 215.50
  Q 86.48 227.79 86.50 239.99
  Q 86.52 247.69 78.85 248.51"
/>
<path stroke="#65372d" vector-effect="non-scaling-stroke" d="
  M 203.49 205.51
  A 0.51 0.51 0.0 0 0 202.98 205.00
  L 167.26 205.00
  A 0.51 0.51 0.0 0 0 166.75 205.51
  L 166.75 255.99
  A 0.51 0.51 0.0 0 0 167.26 256.50
  L 202.98 256.50
  A 0.51 0.51 0.0 0 0 203.49 255.99
  L 203.49 205.51"
/>
<path stroke="#65372d" vector-effect="non-scaling-stroke" d="
  M 319.6043 205.3419
  A 0.31 0.31 0.0 0 0 319.2948 205.0314
  L 283.3548 204.9687
  A 0.31 0.31 0.0 0 0 283.0443 205.2781
  L 282.9557 256.0181
  A 0.31 0.31 0.0 0 0 283.2652 256.3286
  L 319.2052 256.3913
  A 0.31 0.31 0.0 0 0 319.5157 256.0819
  L 319.6043 205.3419"
/>
<path stroke="#787778" vector-effect="non-scaling-stroke" d="
  M 400.00 215.43
  A 0.43 0.43 0.0 0 0 399.57 215.00
  L 384.69 215.00
  A 0.43 0.43 0.0 0 0 384.26 215.43
  L 384.26 323.07
  A 0.43 0.43 0.0 0 0 384.69 323.50
  L 399.57 323.50
  A 0.43 0.43 0.0 0 0 400.00 323.07
  L 400.00 215.43"
/>
<path stroke="#807a6f" vector-effect="non-scaling-stroke" d="
  M 190.53 461.86
  C 189.82 468.71 185.34 469.51 179.10 469.51
  Q 124.71 469.48 70.26 469.51
  Q 69.71 469.51 69.76 470.05
  Q 70.60 478.43 75.35 484.53"
/>
<path stroke="#807361" vector-effect="non-scaling-stroke" d="
  M 75.35 484.53
  Q 84.65 496.92 100.25 496.93
  Q 240.41 497.01 380.58 496.99
  Q 391.47 496.99 396.14 495.48
  C 407.30 491.90 415.42 481.87 416.65 470.02
  Q 416.70 469.52 416.20 469.52
  L 365.26 469.54"
/>
<path stroke="#807a6f" vector-effect="non-scaling-stroke" d="
  M 365.26 469.54
  Q 291.24 469.47 218.50 469.50
  Q 211.26 469.50 210.46 461.77"
/>
<path stroke="#807361" vector-effect="non-scaling-stroke" d="
  M 210.46 461.77
  C 211.41 455.58 215.31 454.50 221.19 454.50
  Q 261.14 454.50 300.92 454.50"
/>
<path stroke="#7f6952" vector-effect="non-scaling-stroke" d="
  M 300.92 454.50
  L 330.10 454.49
  A 0.83 0.83 0.0 0 0 330.90 453.88
  Q 349.48 387.86 368.13 321.66
  Q 369.18 317.92 369.21 314.07
  Q 369.36 293.02 369.21 271.99
  Q 369.20 271.48 368.69 271.48
  L 340.16 271.50"
/>
<path stroke="#807361" vector-effect="non-scaling-stroke" d="
  M 340.16 271.50
  L 117.65 271.50
  A 0.65 0.65 0.0 0 0 117.00 272.16
  Q 117.15 292.79 117.04 313.56
  Q 117.02 317.25 118.02 320.79
  Q 136.79 387.32 155.50 453.92
  Q 155.65 454.45 156.19 454.45
  Q 168.21 454.59 180.08 454.51
  C 185.87 454.47 189.69 455.81 190.53 461.86"
/>
<path stroke="#ffdcb3" vector-effect="non-scaling-stroke" d="
  M 340.16 271.50
  Q 340.16 291.36 340.24 311.15
  Q 340.25 314.75 339.27 318.23
  Q 320.07 386.28 300.92 454.50"
/>
<path stroke="#ffecd0" vector-effect="non-scaling-stroke" d="
  M 210.46 461.77
  L 190.53 461.86"
/>
<path stroke="#ffecd0" vector-effect="non-scaling-stroke" d="
  M 365.26 469.54
  Q 353.90 484.51 335.50 484.50
  Q 205.61 484.47 75.35 484.53"
/>
<path stroke="#805f43" vector-effect="non-scaling-stroke" d="
  M 415.96 320.32
  C 427.43 328.25 430.34 344.28 422.10 355.52
  Q 419.38 359.24 410.75 365.19
  Q 386.57 381.87 362.38 398.56
  Q 361.97 398.83 361.84 399.31
  L 355.57 421.75
  Q 355.38 422.43 355.97 422.03
  Q 387.07 400.68 418.05 379.16
  C 423.99 375.04 430.34 370.88 434.22 365.70
  C 450.71 343.65 441.74 312.34 415.69 302.77
  A 0.51 0.51 0.0 0 0 415.00 303.25
  L 415.00 318.49
  Q 415.00 319.65 415.96 320.32"
/>
<path stroke="#787778" vector-effect="non-scaling-stroke" d="
  M 194.3797 163.0159
  A 8.49 7.59 -0.5 0 0 185.8238 155.5003
  A 8.49 7.59 -0.5 0 0 177.4003 163.1641
  A 8.49 7.59 -0.5 0 0 185.9562 170.6797
  A 8.49 7.59 -0.5 0 0 194.3797 163.0159"
/>
<path stroke="#787778" vector-effect="non-scaling-stroke" d="
  M 223.03 163.10
  A 8.48 7.59 0.0 0 0 214.55 155.51
  A 8.48 7.59 0.0 0 0 206.07 163.10
  A 8.48 7.59 0.0 0 0 214.55 170.69
  A 8.48 7.59 0.0 0 0 223.03 163.10"
/>
<path stroke="#787778" vector-effect="non-scaling-stroke" d="
  M 251.6595 163.0013
  A 8.47 7.59 -0.6 0 0 243.1105 155.5004
  A 8.47 7.59 -0.6 0 0 234.7205 163.1787
  A 8.47 7.59 -0.6 0 0 243.2695 170.6796
  A 8.47 7.59 -0.6 0 0 251.6595 163.0013"
/>
<path stroke="#787778" vector-effect="non-scaling-stroke" d="
  M 280.3498 163.1493
  A 8.49 7.58 0.4 0 0 271.9129 155.5102
  A 8.49 7.58 0.4 0 0 263.3702 163.0307
  A 8.49 7.58 0.4 0 0 271.8071 170.6698
  A 8.49 7.58 0.4 0 0 280.3498 163.1493"
/>
<path stroke="#787778" vector-effect="non-scaling-stroke" d="
  M 309.0198 163.1493
  A 8.49 7.60 0.4 0 0 300.5831 155.4902
  A 8.49 7.60 0.4 0 0 292.0402 163.0307
  A 8.49 7.60 0.4 0 0 300.4769 170.6898
  A 8.49 7.60 0.4 0 0 309.0198 163.1493"
/>
</g>
<g fill="#ffe5c2">
<path d="
  M 340.16 271.50
  Q 340.16 291.36 340.24 311.15
  Q 340.25 314.75 339.27 318.23
  Q 320.07 386.28 300.92 454.50
  Q 261.14 454.50 221.19 454.50
  C 215.31 454.50 211.41 455.58 210.46 461.77
  L 190.53 461.86
  C 189.69 455.81 185.87 454.47 180.08 454.51
  Q 168.21 454.59 156.19 454.45
  Q 155.65 454.45 155.50 453.92
  Q 136.79 387.32 118.02 320.79
  Q 117.02 317.25 117.04 313.56
  Q 117.15 292.79 117.00 272.16
  A 0.65 0.65 0.0 0 1 117.65 271.50
  L 340.16 271.50
  Z"
/>
<path d="
  M 365.26 469.54
  L 416.20 469.52
  Q 416.70 469.52 416.65 470.02
  C 415.42 481.87 407.30 491.90 396.14 495.48
  Q 391.47 496.99 380.58 496.99
  Q 240.41 497.01 100.25 496.93
  Q 84.65 496.92 75.35 484.53
  Q 205.61 484.47 335.50 484.50
  Q 353.90 484.51 365.26 469.54
  Z"
/>
</g>
<g fill="#000000">
<path d="
  M 176.57 0.00
  L 179.04 0.00
  Q 184.76 1.08 186.69 4.81
  Q 193.84 18.58 200.76 32.46
  C 212.85 56.68 185.66 81.24 162.95 65.88
  C 154.74 60.33 150.11 49.10 152.38 39.16
  Q 153.12 35.95 156.28 29.61
  Q 162.00 18.14 167.96 6.79
  C 170.03 2.86 172.39 0.82 176.57 0.00
  Z
  M 167.51 48.26
  C 172.32 59.91 188.72 56.81 188.69 44.03
  C 188.68 41.07 187.00 38.20 185.53 35.63
  L 178.06 20.90
  A 0.27 0.27 0.0 0 0 177.58 20.90
  Q 172.25 30.97 167.30 41.31
  Q 166.01 43.99 167.51 48.26
  Z"
/>
<path d="
  M 307.31 0.00
  L 309.80 0.00
  C 313.84 0.75 316.27 2.64 318.28 6.46
  Q 326.86 22.75 331.59 32.43
  C 337.40 44.32 334.43 57.29 324.10 65.30
  C 305.78 79.53 278.90 62.98 282.94 40.25
  Q 283.54 36.87 286.38 31.03
  Q 296.10 11.08 300.07 4.32
  Q 302.01 1.00 307.31 0.00
  Z
  M 298.26 48.24
  C 304.79 63.88 327.97 52.04 316.15 35.57
  L 308.84 21.13
  Q 308.59 20.63 308.33 21.12
  C 302.98 31.04 295.93 41.56 298.26 48.24
  Z"
/>
<path d="
  M 237.43 42.44
  C 241.62 39.62 248.89 40.12 251.76 45.41
  Q 259.32 59.38 266.22 73.66
  C 279.92 102.05 241.95 125.47 222.76 101.02
  Q 212.65 88.13 221.14 71.34
  Q 227.06 59.64 233.09 47.97
  Q 235.16 43.96 237.43 42.44
  Z
  M 232.84 88.80
  C 236.23 96.31 244.69 98.72 250.71 93.15
  C 255.85 88.40 254.63 82.18 250.84 76.01
  L 243.49 61.68
  Q 243.27 61.25 243.04 61.67
  C 237.58 71.68 230.66 82.11 232.84 88.80
  Z"
/>
<path d="
  M 233.32 134.72
  C 232.69 140.44 229.36 142.27 223.73 142.29
  Q 195.46 142.39 167.34 142.19
  A 0.59 0.59 0.0 0 0 166.75 142.78
  L 166.75 189.49
  A 0.51 0.51 0.0 0 0 167.25 190.00
  Q 184.84 190.01 202.42 189.99
  C 209.23 189.98 214.67 191.17 217.31 197.51
  Q 218.52 200.41 218.51 209.19
  Q 218.47 232.57 218.51 256.00
  Q 218.51 256.50 219.01 256.50
  L 267.48 256.50
  A 0.52 0.52 0.0 0 0 268.00 255.98
  Q 267.99 230.57 268.01 205.08
  C 268.02 192.50 274.21 189.97 286.07 190.00
  Q 302.54 190.04 319.08 189.98
  Q 319.52 189.98 319.52 189.54
  L 319.49 142.74
  Q 319.49 142.18 318.94 142.19
  Q 290.66 142.52 262.46 142.25
  C 257.05 142.20 253.57 140.38 253.22 134.74
  C 253.98 128.21 258.34 127.28 264.37 127.27
  Q 291.93 127.23 319.50 127.18
  Q 334.58 127.16 334.62 142.25
  Q 334.73 190.27 334.76 238.29
  Q 334.76 238.85 335.16 238.46
  Q 353.36 220.25 371.60 202.14
  C 375.20 198.56 391.14 200.00 396.44 199.99
  Q 404.86 199.99 407.86 201.35
  C 413.89 204.10 414.99 209.41 415.00 216.03
  Q 415.00 251.34 415.00 286.37
  A 0.85 0.83 -83.5 0 0 415.64 287.19
  C 456.50 297.19 471.03 347.49 443.19 378.29
  Q 439.05 382.87 429.37 389.59
  Q 389.67 417.11 349.68 444.62
  A 2.37 2.33 -9.7 0 0 348.76 445.90
  L 346.48 453.98
  Q 346.33 454.49 346.87 454.49
  Q 381.19 454.52 415.46 454.49
  C 421.89 454.49 426.76 455.17 429.97 460.61
  C 432.86 465.52 431.88 474.93 429.97 480.18
  Q 419.42 509.29 388.46 512.00
  L 97.69 512.00
  C 74.81 509.62 58.94 495.89 55.13 473.59
  C 53.01 461.17 57.72 454.50 70.32 454.50
  Q 104.94 454.50 139.57 454.50
  A 0.39 0.39 0.0 0 0 139.95 454.00
  L 107.57 338.91
  Q 107.42 338.37 106.86 338.38
  Q 90.25 338.65 84.51 338.49
  C 75.19 338.23 71.52 332.09 71.51 323.54
  Q 71.48 300.77 71.51 278.01
  C 71.51 272.45 73.20 268.95 79.00 268.49
  Q 86.43 269.51 86.46 278.26
  Q 86.52 300.62 86.50 322.98
  Q 86.49 323.50 87.02 323.50
  L 101.53 323.50
  Q 102.00 323.50 102.00 323.03
  L 102.01 215.22
  A 0.22 0.22 0.0 0 0 101.79 215.00
  L 87.01 215.00
  Q 86.51 215.00 86.51 215.50
  Q 86.48 227.79 86.50 239.99
  Q 86.52 247.69 78.85 248.51
  C 72.79 247.85 71.50 244.14 71.50 238.42
  Q 71.49 226.75 71.51 215.07
  C 71.52 206.66 75.20 199.98 84.50 199.99
  Q 96.75 200.00 109.00 200.00
  C 111.74 200.00 113.44 200.82 115.47 202.84
  Q 133.32 220.70 151.09 238.46
  A 0.40 0.40 0.0 0 0 151.77 238.18
  Q 151.74 191.96 151.74 145.62
  C 151.74 132.14 155.12 127.28 168.64 127.26
  Q 196.19 127.23 223.76 127.27
  Q 232.04 127.28 233.32 134.72
  Z
  M 203.49 205.51
  A 0.51 0.51 0.0 0 0 202.98 205.00
  L 167.26 205.00
  A 0.51 0.51 0.0 0 0 166.75 205.51
  L 166.75 255.99
  A 0.51 0.51 0.0 0 0 167.26 256.50
  L 202.98 256.50
  A 0.51 0.51 0.0 0 0 203.49 255.99
  L 203.49 205.51
  Z
  M 319.6043 205.3419
  A 0.31 0.31 0.0 0 0 319.2948 205.0314
  L 283.3548 204.9687
  A 0.31 0.31 0.0 0 0 283.0443 205.2781
  L 282.9557 256.0181
  A 0.31 0.31 0.0 0 0 283.2652 256.3286
  L 319.2052 256.3913
  A 0.31 0.31 0.0 0 0 319.5157 256.0819
  L 319.6043 205.3419
  Z
  M 400.00 215.43
  A 0.43 0.43 0.0 0 0 399.57 215.00
  L 384.69 215.00
  A 0.43 0.43 0.0 0 0 384.26 215.43
  L 384.26 323.07
  A 0.43 0.43 0.0 0 0 384.69 323.50
  L 399.57 323.50
  A 0.43 0.43 0.0 0 0 400.00 323.07
  L 400.00 215.43
  Z
  M 146.96 256.54
  A 0.44 0.44 0.0 0 0 147.28 255.79
  L 117.68 226.19
  A 0.44 0.44 0.0 0 0 116.93 226.51
  L 117.09 255.94
  A 0.44 0.44 0.0 0 0 117.53 256.38
  L 146.96 256.54
  Z
  M 339.00 255.88
  A 0.35 0.35 0.0 0 0 339.24 256.48
  L 368.89 256.51
  A 0.35 0.35 0.0 0 0 369.24 256.16
  L 369.28 226.44
  A 0.35 0.35 0.0 0 0 368.68 226.19
  L 339.00 255.88
  Z
  M 190.53 461.86
  C 189.82 468.71 185.34 469.51 179.10 469.51
  Q 124.71 469.48 70.26 469.51
  Q 69.71 469.51 69.76 470.05
  Q 70.60 478.43 75.35 484.53
  Q 84.65 496.92 100.25 496.93
  Q 240.41 497.01 380.58 496.99
  Q 391.47 496.99 396.14 495.48
  C 407.30 491.90 415.42 481.87 416.65 470.02
  Q 416.70 469.52 416.20 469.52
  L 365.26 469.54
  Q 291.24 469.47 218.50 469.50
  Q 211.26 469.50 210.46 461.77
  C 211.41 455.58 215.31 454.50 221.19 454.50
  Q 261.14 454.50 300.92 454.50
  L 330.10 454.49
  A 0.83 0.83 0.0 0 0 330.90 453.88
  Q 349.48 387.86 368.13 321.66
  Q 369.18 317.92 369.21 314.07
  Q 369.36 293.02 369.21 271.99
  Q 369.20 271.48 368.69 271.48
  L 340.16 271.50
  L 117.65 271.50
  A 0.65 0.65 0.0 0 0 117.00 272.16
  Q 117.15 292.79 117.04 313.56
  Q 117.02 317.25 118.02 320.79
  Q 136.79 387.32 155.50 453.92
  Q 155.65 454.45 156.19 454.45
  Q 168.21 454.59 180.08 454.51
  C 185.87 454.47 189.69 455.81 190.53 461.86
  Z
  M 415.96 320.32
  C 427.43 328.25 430.34 344.28 422.10 355.52
  Q 419.38 359.24 410.75 365.19
  Q 386.57 381.87 362.38 398.56
  Q 361.97 398.83 361.84 399.31
  L 355.57 421.75
  Q 355.38 422.43 355.97 422.03
  Q 387.07 400.68 418.05 379.16
  C 423.99 375.04 430.34 370.88 434.22 365.70
  C 450.71 343.65 441.74 312.34 415.69 302.77
  A 0.51 0.51 0.0 0 0 415.00 303.25
  L 415.00 318.49
  Q 415.00 319.65 415.96 320.32
  Z
  M 379.62 338.39
  A 0.80 0.79 7.9 0 0 378.84 338.97
  L 368.55 375.48
  A 0.29 0.28 -9.6 0 0 368.99 375.79
  Q 386.86 363.47 404.74 351.09
  C 410.54 347.08 413.67 343.30 410.81 336.34
  A 0.68 0.67 61.5 0 0 409.80 336.04
  C 403.59 340.32 387.64 338.51 379.62 338.39
  Z"
/>
<ellipse cx="0.00" cy="0.00" transform="translate(185.89,163.09) rotate(-0.5)" rx="8.49" ry="7.59"/>
<ellipse cx="214.55" cy="163.10" rx="8.48" ry="7.59"/>
<ellipse cx="0.00" cy="0.00" transform="translate(243.19,163.09) rotate(-0.6)" rx="8.47" ry="7.59"/>
<ellipse cx="0.00" cy="0.00" transform="translate(271.86,163.09) rotate(0.4)" rx="8.49" ry="7.58"/>
<ellipse cx="0.00" cy="0.00" transform="translate(300.53,163.09) rotate(0.4)" rx="8.49" ry="7.60"/>
</g>
<g fill="#c96e59">
<rect x="166.75" y="205.00" width="36.74" height="51.50" rx="0.51"/>
<rect x="-18.28" y="-25.68" transform="translate(301.28,230.68) rotate(0.1)" width="36.56" height="51.36" rx="0.31"/>
</g>
<g fill="#efedef">
<path d="
  M 233.32 134.72
  L 253.22 134.74
  C 253.57 140.38 257.05 142.20 262.46 142.25
  Q 290.66 142.52 318.94 142.19
  Q 319.49 142.18 319.49 142.74
  L 319.52 189.54
  Q 319.52 189.98 319.08 189.98
  Q 302.54 190.04 286.07 190.00
  C 274.21 189.97 268.02 192.50 268.01 205.08
  Q 267.99 230.57 268.00 255.98
  A 0.52 0.52 0.0 0 1 267.48 256.50
  L 219.01 256.50
  Q 218.51 256.50 218.51 256.00
  Q 218.47 232.57 218.51 209.19
  Q 218.52 200.41 217.31 197.51
  C 214.67 191.17 209.23 189.98 202.42 189.99
  Q 184.84 190.01 167.25 190.00
  A 0.51 0.51 0.0 0 1 166.75 189.49
  L 166.75 142.78
  A 0.59 0.59 0.0 0 1 167.34 142.19
  Q 195.46 142.39 223.73 142.29
  C 229.36 142.27 232.69 140.44 233.32 134.72
  Z
  M 194.3797 163.0159
  A 8.49 7.59 -0.5 0 0 185.8238 155.5003
  A 8.49 7.59 -0.5 0 0 177.4003 163.1641
  A 8.49 7.59 -0.5 0 0 185.9562 170.6797
  A 8.49 7.59 -0.5 0 0 194.3797 163.0159
  Z
  M 223.03 163.10
  A 8.48 7.59 0.0 0 0 214.55 155.51
  A 8.48 7.59 0.0 0 0 206.07 163.10
  A 8.48 7.59 0.0 0 0 214.55 170.69
  A 8.48 7.59 0.0 0 0 223.03 163.10
  Z
  M 251.6595 163.0013
  A 8.47 7.59 -0.6 0 0 243.1105 155.5004
  A 8.47 7.59 -0.6 0 0 234.7205 163.1787
  A 8.47 7.59 -0.6 0 0 243.2695 170.6796
  A 8.47 7.59 -0.6 0 0 251.6595 163.0013
  Z
  M 280.3498 163.1493
  A 8.49 7.58 0.4 0 0 271.9129 155.5102
  A 8.49 7.58 0.4 0 0 263.3702 163.0307
  A 8.49 7.58 0.4 0 0 271.8071 170.6698
  A 8.49 7.58 0.4 0 0 280.3498 163.1493
  Z
  M 309.0198 163.1493
  A 8.49 7.60 0.4 0 0 300.5831 155.4902
  A 8.49 7.60 0.4 0 0 292.0402 163.0307
  A 8.49 7.60 0.4 0 0 300.4769 170.6898
  A 8.49 7.60 0.4 0 0 309.0198 163.1493
  Z"
/>
<path d="
  M 79.00 268.49
  L 78.85 248.51
  Q 86.52 247.69 86.50 239.99
  Q 86.48 227.79 86.51 215.50
  Q 86.51 215.00 87.01 215.00
  L 101.79 215.00
  A 0.22 0.22 0.0 0 1 102.01 215.22
  L 102.00 323.03
  Q 102.00 323.50 101.53 323.50
  L 87.02 323.50
  Q 86.49 323.50 86.50 322.98
  Q 86.52 300.62 86.46 278.26
  Q 86.43 269.51 79.00 268.49
  Z"
/>
<rect x="384.26" y="215.00" width="15.74" height="108.50" rx="0.43"/>
</g>
<path fill="#fed2a4" d="
  M 300.92 454.50
  Q 320.07 386.28 339.27 318.23
  Q 340.25 314.75 340.24 311.15
  Q 340.16 291.36 340.16 271.50
  L 368.69 271.48
  Q 369.20 271.48 369.21 271.99
  Q 369.36 293.02 369.21 314.07
  Q 369.18 317.92 368.13 321.66
  Q 349.48 387.86 330.90 453.88
  A 0.83 0.83 0.0 0 1 330.10 454.49
  L 300.92 454.50
  Z"
/>
<g fill="#d4f2f6">
<path d="
  M 185.53 35.63
  Q 179.09 45.70 167.51 48.26
  Q 166.01 43.99 167.30 41.31
  Q 172.25 30.97 177.58 20.90
  A 0.27 0.27 0.0 0 1 178.06 20.90
  L 185.53 35.63
  Z"
/>
<path d="
  M 316.15 35.57
  Q 310.07 45.63 298.26 48.24
  C 295.93 41.56 302.98 31.04 308.33 21.12
  Q 308.59 20.63 308.84 21.13
  L 316.15 35.57
  Z"
/>
<path d="
  M 250.84 76.01
  Q 244.90 86.29 232.84 88.80
  C 230.66 82.11 237.58 71.68 243.04 61.67
  Q 243.27 61.25 243.49 61.68
  L 250.84 76.01
  Z"
/>
</g>
<path fill="#fff3de" d="
  M 190.53 461.86
  L 210.46 461.77
  Q 211.26 469.50 218.50 469.50
  Q 291.24 469.47 365.26 469.54
  Q 353.90 484.51 335.50 484.50
  Q 205.61 484.47 75.35 484.53
  Q 70.60 478.43 69.76 470.05
  Q 69.71 469.51 70.26 469.51
  Q 124.71 469.48 179.10 469.51
  C 185.34 469.51 189.82 468.71 190.53 461.86
  Z"
/>
<path fill="#ffbd86" d="
  M 415.96 320.32
  Q 415.00 319.65 415.00 318.49
  L 415.00 303.25
  A 0.51 0.51 0.0 0 1 415.69 302.77
  C 441.74 312.34 450.71 343.65 434.22 365.70
  C 430.34 370.88 423.99 375.04 418.05 379.16
  Q 387.07 400.68 355.97 422.03
  Q 355.38 422.43 355.57 421.75
  L 361.84 399.31
  Q 361.97 398.83 362.38 398.56
  Q 386.57 381.87 410.75 365.19
  Q 419.38 359.24 422.10 355.52
  C 430.34 344.28 427.43 328.25 415.96 320.32
  Z"
/>
<g fill="#a6e7f0">
<path d="
  M 185.53 35.63
  C 187.00 38.20 188.68 41.07 188.69 44.03
  C 188.72 56.81 172.32 59.91 167.51 48.26
  Q 179.09 45.70 185.53 35.63
  Z"
/>
<path d="
  M 316.15 35.57
  C 327.97 52.04 304.79 63.88 298.26 48.24
  Q 310.07 45.63 316.15 35.57
  Z"
/>
<path d="
  M 250.84 76.01
  C 254.63 82.18 255.85 88.40 250.71 93.15
  C 244.69 98.72 236.23 96.31 232.84 88.80
  Q 244.90 86.29 250.84 76.01
  Z"
/>
</g>
</svg>
