<?xml version="1.0" encoding="UTF-8" standalone="no"?>
<!DOCTYPE svg PUBLIC "-//W3C//DTD SVG 1.1//EN" "http://www.w3.org/Graphics/SVG/1.1/DTD/svg11.dtd">
<svg xmlns="http://www.w3.org/2000/svg" version="1.1" viewBox="0.00 0.00 512.00 512.00">
<g stroke-width="2.00" fill="none" stroke-linecap="butt">
<path stroke="#3d373d" vector-effect="non-scaling-stroke" d="
  M 175.58 7.52
  C 174.78 13.45 171.14 15.00 165.39 15.01
  Q 157.19 15.01 148.99 14.99
  C 139.02 14.96 131.34 16.55 127.61 26.03
  Q 126.23 29.54 126.24 36.68
  Q 126.26 48.47 126.26 60.23"
/>
<path stroke="#342f34" vector-effect="non-scaling-stroke" d="
  M 126.26 60.23
  L 126.26 80.01
  A 2.74 2.74 0.0 0 0 129.00 82.75
  L 382.43 82.75
  Q 385.75 82.75 385.75 79.44
  Q 385.76 57.81 385.75 36.32
  C 385.74 11.17 366.57 15.03 348.49 15.00"
/>
<path stroke="#3d373d" vector-effect="non-scaling-stroke" d="
  M 348.49 15.00
  Q 277.07 15.00 205.64 15.00
  C 199.90 15.00 196.15 13.49 195.39 7.52"
/>
<path stroke="#5e2f26" vector-effect="non-scaling-stroke" d="
  M 314.94 97.77
  L 164.22 97.76
  Q 163.72 97.76 163.34 98.09
  Q 143.53 115.71 123.78 133.39
  C 115.58 140.71 111.24 143.73 111.25 154.00
  Q 111.25 182.74 111.25 211.24
  A 0.51 0.51 0.0 0 0 111.76 211.75
  L 170.24 211.75
  Q 170.80 211.75 171.13 211.31
  C 211.97 157.11 288.27 153.27 334.27 203.22
  Q 336.22 205.34 340.89 211.34
  A 1.07 1.04 70.6 0 0 341.72 211.75
  L 363.40 211.74"
/>
<path stroke="#52281f" vector-effect="non-scaling-stroke" d="
  M 363.40 211.74
  L 400.18 211.74
  A 0.56 0.56 0.0 0 0 400.74 211.18
  Q 400.77 183.52 400.73 155.80
  C 400.72 149.65 399.83 143.69 395.59 139.91
  Q 372.15 119.03 348.73 98.11
  Q 348.36 97.78 347.86 97.78
  L 314.94 97.77"
/>
<path stroke="#b05645" vector-effect="non-scaling-stroke" d="
  M 363.40 211.74
  Q 363.57 184.57 363.50 157.46
  C 363.46 140.77 359.20 137.41 346.23 125.84
  Q 330.71 111.99 314.94 97.77"
/>
<path stroke="#807361" vector-effect="non-scaling-stroke" d="
  M 159.52 259.52
  Q 152.03 257.41 153.76 249.49
  Q 156.01 239.23 161.60 227.30
  Q 161.86 226.75 161.25 226.75
  L 111.75 226.75
  Q 111.25 226.75 111.25 227.25
  L 111.25 409.99
  A 0.52 0.51 90.0 0 0 111.76 410.51
  Q 206.30 410.49 300.67 410.49
  C 306.29 410.49 310.15 412.14 310.50 418.10"
/>
<path stroke="#5e2f26" vector-effect="non-scaling-stroke" d="
  M 310.50 418.10
  C 309.52 426.22 302.14 425.50 296.17 425.50
  Q 204.00 425.49 111.82 425.50
  Q 111.32 425.50 111.31 426.00
  C 111.09 434.46 110.51 441.35 115.48 447.22
  Q 115.75 447.54 123.39 454.44
  Q 132.28 462.46 140.44 469.18"
/>
<path stroke="#52281f" vector-effect="non-scaling-stroke" d="
  M 140.44 469.18
  Q 151.26 479.16 161.26 487.86
  C 167.20 493.03 171.20 496.98 177.56 496.99
  Q 253.89 497.02 330.23 496.99
  C 336.94 496.98 341.35 496.21 346.06 492.07
  Q 368.52 472.32 390.84 452.43
  C 400.98 443.39 400.86 439.74 400.74 426.04
  Q 400.74 425.51 400.21 425.51
  L 363.46 425.50"
/>
<path stroke="#5e2f26" vector-effect="non-scaling-stroke" d="
  M 363.46 425.50
  Q 345.05 425.57 338.81 425.44
  Q 331.48 425.29 330.44 418.03"
/>
<path stroke="#807361" vector-effect="non-scaling-stroke" d="
  M 330.44 418.03
  C 330.91 412.35 334.28 410.58 339.78 410.54
  Q 351.89 410.46 363.49 410.50"
/>
<path stroke="#7f6952" vector-effect="non-scaling-stroke" d="
  M 363.49 410.50
  L 400.24 410.50
  A 0.52 0.51 90.0 0 0 400.75 409.98
  L 400.75 227.26
  Q 400.75 226.77 400.27 226.77
  L 363.58 226.77"
/>
<path stroke="#807361" vector-effect="non-scaling-stroke" d="
  M 363.58 226.77
  L 350.73 226.79
  Q 350.15 226.79 350.39 227.31
  C 382.51 294.78 336.77 372.71 262.57 377.60
  C 208.62 381.16 160.28 341.96 152.33 288.94
  Q 151.22 281.52 158.79 279.68"
/>
<path stroke="#808080" vector-effect="non-scaling-stroke" d="
  M 158.79 279.68
  C 163.85 279.55 166.10 282.21 167.05 287.11
  Q 175.35 330.05 211.91 351.15
  C 267.42 383.17 337.60 346.53 345.18 283.66
  C 351.12 234.34 315.60 189.20 265.90 183.66
  C 219.74 178.51 179.19 208.57 168.11 253.42
  Q 166.52 259.85 159.52 259.52"
/>
<path stroke="#fff2e1" vector-effect="non-scaling-stroke" d="
  M 158.79 279.68
  Q 158.00 269.56 159.52 259.52"
/>
<path stroke="#ffdcb3" vector-effect="non-scaling-stroke" d="
  M 363.58 226.77
  L 363.49 410.50"
/>
<path stroke="#dda187" vector-effect="non-scaling-stroke" d="
  M 330.44 418.03
  L 310.50 418.10"
/>
<path stroke="#b05645" vector-effect="non-scaling-stroke" d="
  M 363.46 425.50
  C 363.32 432.30 362.82 436.38 357.55 441.05
  Q 344.08 452.96 330.65 464.92
  Q 326.14 468.93 320.75 468.97
  Q 256.01 469.49 140.44 469.18"
/>
<path stroke="#716671" vector-effect="non-scaling-stroke" d="
  M 348.49 15.00
  Q 348.52 31.84 348.48 48.58
  C 348.46 56.91 344.22 59.99 335.97 60.06
  C 266.10 60.62 196.17 60.26 126.26 60.23"
/>
<path stroke="#808080" vector-effect="non-scaling-stroke" d="
  M 255.9900 334.4400
  A 61.51 51.96 90.0 0 0 307.9500 272.9300
  A 61.51 51.96 90.0 0 0 255.9900 211.4200
  A 61.51 51.96 90.0 0 0 204.0300 272.9300
  A 61.51 51.96 90.0 0 0 255.9900 334.4400"
/>
<path stroke="#52281f" vector-effect="non-scaling-stroke" d="
  M 224.75 248.01
  C 213.60 270.86 218.61 306.00 244.67 317.25
  A 0.38 0.37 4.0 0 0 245.18 316.81
  C 243.33 309.96 240.39 301.93 240.02 295.57
  Q 239.13 280.26 250.20 269.57
  C 257.28 262.73 258.56 258.02 255.96 247.91
  Q 253.33 237.66 250.44 227.42
  Q 250.30 226.92 249.79 227.04
  C 238.72 229.56 229.60 238.06 224.75 248.01"
/>
<path stroke="#442017" vector-effect="non-scaling-stroke" d="
  M 255.94 287.69
  C 253.16 296.14 258.67 309.45 261.16 317.70
  Q 261.68 319.40 263.35 318.81
  C 301.61 305.20 302.72 246.87 268.02 228.73
  Q 266.20 227.78 266.73 229.76
  C 270.88 245.34 276.77 259.45 266.26 274.36
  C 262.81 279.26 257.91 281.70 255.94 287.69"
/>
</g>
<g fill="#bb5d4c">
<path d="
  M 314.94 97.77
  Q 330.71 111.99 346.23 125.84
  C 359.20 137.41 363.46 140.77 363.50 157.46
  Q 363.57 184.57 363.40 211.74
  L 341.72 211.75
  A 1.07 1.04 70.6 0 1 340.89 211.34
  Q 336.22 205.34 334.27 203.22
  C 288.27 153.27 211.97 157.11 171.13 211.31
  Q 170.80 211.75 170.24 211.75
  L 111.76 211.75
  A 0.51 0.51 0.0 0 1 111.25 211.24
  Q 111.25 182.74 111.25 154.00
  C 111.24 143.73 115.58 140.71 123.78 133.39
  Q 143.53 115.71 163.34 98.09
  Q 163.72 97.76 164.22 97.76
  L 314.94 97.77
  Z"
/>
<path d="
  M 330.44 418.03
  Q 331.48 425.29 338.81 425.44
  Q 345.05 425.57 363.46 425.50
  C 363.32 432.30 362.82 436.38 357.55 441.05
  Q 344.08 452.96 330.65 464.92
  Q 326.14 468.93 320.75 468.97
  Q 256.01 469.49 140.44 469.18
  Q 132.28 462.46 123.39 454.44
  Q 115.75 447.54 115.48 447.22
  C 110.51 441.35 111.09 434.46 111.31 426.00
  Q 111.32 425.50 111.82 425.50
  Q 204.00 425.49 296.17 425.50
  C 302.14 425.50 309.52 426.22 310.50 418.10
  L 330.44 418.03
  Z"
/>
</g>
<g fill="#000000">
<path d="
  M 141.58 0.00
  L 169.06 0.00
  Q 174.85 1.45 175.58 7.52
  C 174.78 13.45 171.14 15.00 165.39 15.01
  Q 157.19 15.01 148.99 14.99
  C 139.02 14.96 131.34 16.55 127.61 26.03
  Q 126.23 29.54 126.24 36.68
  Q 126.26 48.47 126.26 60.23
  L 126.26 80.01
  A 2.74 2.74 0.0 0 0 129.00 82.75
  L 382.43 82.75
  Q 385.75 82.75 385.75 79.44
  Q 385.76 57.81 385.75 36.32
  C 385.74 11.17 366.57 15.03 348.49 15.00
  Q 277.07 15.00 205.64 15.00
  C 199.90 15.00 196.15 13.49 195.39 7.52
  Q 196.10 1.35 202.06 0.00
  L 370.05 0.00
  C 387.15 1.50 400.73 15.06 400.74 32.00
  Q 400.77 54.40 400.74 76.79
  C 400.71 96.44 388.29 98.69 371.56 97.55
  A 0.36 0.35 -22.3 0 0 371.30 98.17
  Q 383.62 109.11 395.88 120.09
  C 408.53 131.43 415.75 137.71 415.75 153.75
  Q 415.76 291.44 415.74 429.13
  C 415.74 443.67 413.92 452.04 403.39 461.38
  Q 366.07 494.52 354.91 504.16
  Q 346.88 511.10 335.43 512.00
  L 176.20 512.00
  Q 164.74 510.91 155.35 502.64
  Q 131.49 481.63 107.72 460.53
  C 97.75 451.68 96.26 442.82 96.26 428.84
  Q 96.24 291.04 96.32 153.25
  Q 96.33 138.04 107.47 127.97
  Q 123.89 113.13 140.63 98.25
  A 0.41 0.41 0.0 0 0 140.33 97.53
  C 123.69 98.78 111.27 96.29 111.26 76.85
  Q 111.24 54.67 111.25 32.50
  C 111.26 15.31 124.30 1.80 141.58 0.00
  Z
  M 314.94 97.77
  L 164.22 97.76
  Q 163.72 97.76 163.34 98.09
  Q 143.53 115.71 123.78 133.39
  C 115.58 140.71 111.24 143.73 111.25 154.00
  Q 111.25 182.74 111.25 211.24
  A 0.51 0.51 0.0 0 0 111.76 211.75
  L 170.24 211.75
  Q 170.80 211.75 171.13 211.31
  C 211.97 157.11 288.27 153.27 334.27 203.22
  Q 336.22 205.34 340.89 211.34
  A 1.07 1.04 70.6 0 0 341.72 211.75
  L 363.40 211.74
  L 400.18 211.74
  A 0.56 0.56 0.0 0 0 400.74 211.18
  Q 400.77 183.52 400.73 155.80
  C 400.72 149.65 399.83 143.69 395.59 139.91
  Q 372.15 119.03 348.73 98.11
  Q 348.36 97.78 347.86 97.78
  L 314.94 97.77
  Z
  M 159.52 259.52
  Q 152.03 257.41 153.76 249.49
  Q 156.01 239.23 161.60 227.30
  Q 161.86 226.75 161.25 226.75
  L 111.75 226.75
  Q 111.25 226.75 111.25 227.25
  L 111.25 409.99
  A 0.52 0.51 90.0 0 0 111.76 410.51
  Q 206.30 410.49 300.67 410.49
  C 306.29 410.49 310.15 412.14 310.50 418.10
  C 309.52 426.22 302.14 425.50 296.17 425.50
  Q 204.00 425.49 111.82 425.50
  Q 111.32 425.50 111.31 426.00
  C 111.09 434.46 110.51 441.35 115.48 447.22
  Q 115.75 447.54 123.39 454.44
  Q 132.28 462.46 140.44 469.18
  Q 151.26 479.16 161.26 487.86
  C 167.20 493.03 171.20 496.98 177.56 496.99
  Q 253.89 497.02 330.23 496.99
  C 336.94 496.98 341.35 496.21 346.06 492.07
  Q 368.52 472.32 390.84 452.43
  C 400.98 443.39 400.86 439.74 400.74 426.04
  Q 400.74 425.51 400.21 425.51
  L 363.46 425.50
  Q 345.05 425.57 338.81 425.44
  Q 331.48 425.29 330.44 418.03
  C 330.91 412.35 334.28 410.58 339.78 410.54
  Q 351.89 410.46 363.49 410.50
  L 400.24 410.50
  A 0.52 0.51 90.0 0 0 400.75 409.98
  L 400.75 227.26
  Q 400.75 226.77 400.27 226.77
  L 363.58 226.77
  L 350.73 226.79
  Q 350.15 226.79 350.39 227.31
  C 382.51 294.78 336.77 372.71 262.57 377.60
  C 208.62 381.16 160.28 341.96 152.33 288.94
  Q 151.22 281.52 158.79 279.68
  C 163.85 279.55 166.10 282.21 167.05 287.11
  Q 175.35 330.05 211.91 351.15
  C 267.42 383.17 337.60 346.53 345.18 283.66
  C 351.12 234.34 315.60 189.20 265.90 183.66
  C 219.74 178.51 179.19 208.57 168.11 253.42
  Q 166.52 259.85 159.52 259.52
  Z"
/>
<path d="
  M 255.9900 334.4400
  A 61.51 51.96 90.0 0 1 204.0300 272.9300
  A 61.51 51.96 90.0 0 1 255.9900 211.4200
  A 61.51 51.96 90.0 0 1 307.9500 272.9300
  A 61.51 51.96 90.0 0 1 255.9900 334.4400
  Z
  M 224.75 248.01
  C 213.60 270.86 218.61 306.00 244.67 317.25
  A 0.38 0.37 4.0 0 0 245.18 316.81
  C 243.33 309.96 240.39 301.93 240.02 295.57
  Q 239.13 280.26 250.20 269.57
  C 257.28 262.73 258.56 258.02 255.96 247.91
  Q 253.33 237.66 250.44 227.42
  Q 250.30 226.92 249.79 227.04
  C 238.72 229.56 229.60 238.06 224.75 248.01
  Z
  M 255.94 287.69
  C 253.16 296.14 258.67 309.45 261.16 317.70
  Q 261.68 319.40 263.35 318.81
  C 301.61 305.20 302.72 246.87 268.02 228.73
  Q 266.20 227.78 266.73 229.76
  C 270.88 245.34 276.77 259.45 266.26 274.36
  C 262.81 279.26 257.91 281.70 255.94 287.69
  Z"
/>
</g>
<path fill="#ffe5c2" d="
  M 159.52 259.52
  Q 158.00 269.56 158.79 279.68
  Q 151.22 281.52 152.33 288.94
  C 160.28 341.96 208.62 381.16 262.57 377.60
  C 336.77 372.71 382.51 294.78 350.39 227.31
  Q 350.15 226.79 350.73 226.79
  L 363.58 226.77
  L 363.49 410.50
  Q 351.89 410.46 339.78 410.54
  C 334.28 410.58 330.91 412.35 330.44 418.03
  L 310.50 418.10
  C 310.15 412.14 306.29 410.49 300.67 410.49
  Q 206.30 410.49 111.76 410.51
  A 0.52 0.51 -90.0 0 1 111.25 409.99
  L 111.25 227.25
  Q 111.25 226.75 111.75 226.75
  L 161.25 226.75
  Q 161.86 226.75 161.60 227.30
  Q 156.01 239.23 153.76 249.49
  Q 152.03 257.41 159.52 259.52
  Z"
/>
<path fill="#7a6d79" d="
  M 175.58 7.52
  L 195.39 7.52
  C 196.15 13.49 199.90 15.00 205.64 15.00
  Q 277.07 15.00 348.49 15.00
  Q 348.52 31.84 348.48 48.58
  C 348.46 56.91 344.22 59.99 335.97 60.06
  C 266.10 60.62 196.17 60.26 126.26 60.23
  Q 126.26 48.47 126.24 36.68
  Q 126.23 29.54 127.61 26.03
  C 131.34 16.55 139.02 14.96 148.99 14.99
  Q 157.19 15.01 165.39 15.01
  C 171.14 15.00 174.78 13.45 175.58 7.52
  Z"
/>
<path fill="#ffffff" d="
  M 158.79 279.68
  Q 158.00 269.56 159.52 259.52
  Q 166.52 259.85 168.11 253.42
  C 179.19 208.57 219.74 178.51 265.90 183.66
  C 315.60 189.20 351.12 234.34 345.18 283.66
  C 337.60 346.53 267.42 383.17 211.91 351.15
  Q 175.35 330.05 167.05 287.11
  C 166.10 282.21 163.85 279.55 158.79 279.68
  Z
  M 255.9900 334.4400
  A 61.51 51.96 90.0 0 0 307.9500 272.9300
  A 61.51 51.96 90.0 0 0 255.9900 211.4200
  A 61.51 51.96 90.0 0 0 204.0300 272.9300
  A 61.51 51.96 90.0 0 0 255.9900 334.4400
  Z"
/>
<g fill="#a44f3e">
<path d="
  M 363.40 211.74
  Q 363.57 184.57 363.50 157.46
  C 363.46 140.77 359.20 137.41 346.23 125.84
  Q 330.71 111.99 314.94 97.77
  L 347.86 97.78
  Q 348.36 97.78 348.73 98.11
  Q 372.15 119.03 395.59 139.91
  C 399.83 143.69 400.72 149.65 400.73 155.80
  Q 400.77 183.52 400.74 211.18
  A 0.56 0.56 0.0 0 1 400.18 211.74
  L 363.40 211.74
  Z"
/>
<path d="
  M 244.67 317.25
  C 218.61 306.00 213.60 270.86 224.75 248.01
  C 229.60 238.06 238.72 229.56 249.79 227.04
  Q 250.30 226.92 250.44 227.42
  Q 253.33 237.66 255.96 247.91
  C 258.56 258.02 257.28 262.73 250.20 269.57
  Q 239.13 280.26 240.02 295.57
  C 240.39 301.93 243.33 309.96 245.18 316.81
  A 0.38 0.37 4.0 0 1 244.67 317.25
  Z"
/>
<path d="
  M 363.46 425.50
  L 400.21 425.51
  Q 400.74 425.51 400.74 426.04
  C 400.86 439.74 400.98 443.39 390.84 452.43
  Q 368.52 472.32 346.06 492.07
  C 341.35 496.21 336.94 496.98 330.23 496.99
  Q 253.89 497.02 177.56 496.99
  C 171.20 496.98 167.20 493.03 161.26 487.86
  Q 151.26 479.16 140.44 469.18
  Q 256.01 469.49 320.75 468.97
  Q 326.14 468.93 330.65 464.92
  Q 344.08 452.96 357.55 441.05
  C 362.82 436.38 363.32 432.30 363.46 425.50
  Z"
/>
</g>
<path fill="#fed2a4" d="
  M 363.58 226.77
  L 400.27 226.77
  Q 400.75 226.77 400.75 227.26
  L 400.75 409.98
  A 0.52 0.51 90.0 0 1 400.24 410.50
  L 363.49 410.50
  L 363.58 226.77
  Z"
/>
<path fill="#685e68" d="
  M 348.49 15.00
  C 366.57 15.03 385.74 11.17 385.75 36.32
  Q 385.76 57.81 385.75 79.44
  Q 385.75 82.75 382.43 82.75
  L 129.00 82.75
  A 2.74 2.74 0.0 0 1 126.26 80.01
  L 126.26 60.23
  C 196.17 60.26 266.10 60.62 335.97 60.06
  C 344.22 59.99 348.46 56.91 348.48 48.58
  Q 348.52 31.84 348.49 15.00
  Z"
/>
<path fill="#883f2e" d="
  M 255.94 287.69
  C 257.91 281.70 262.81 279.26 266.26 274.36
  C 276.77 259.45 270.88 245.34 266.73 229.76
  Q 266.20 227.78 268.02 228.73
  C 302.72 246.87 301.61 305.20 263.35 318.81
  Q 261.68 319.40 261.16 317.70
  C 258.67 309.45 253.16 296.14 255.94 287.69
  Z"
/>
</svg>
