<?xml version="1.0" encoding="UTF-8" standalone="no"?>
<!DOCTYPE svg PUBLIC "-//W3C//DTD SVG 1.1//EN" "http://www.w3.org/Graphics/SVG/1.1/DTD/svg11.dtd">
<svg xmlns="http://www.w3.org/2000/svg" version="1.1" viewBox="0.00 0.00 512.00 512.00">
<g stroke-width="2.00" fill="none" stroke-linecap="butt">
<path stroke="#80713f" vector-effect="non-scaling-stroke" d="
  M 425.41 74.38
  C 420.69 78.67 416.82 76.47 412.41 72.74
  C 311.38 -12.55 162.52 -2.14 74.87 97.19"
/>
<path stroke="#806932" vector-effect="non-scaling-stroke" d="
  M 74.87 97.19
  C 13.91 167.10 -1.37 263.41 33.83 349.19
  Q 35.99 354.46 43.26 369.51
  C 45.47 374.08 45.18 377.95 40.83 380.71"
/>
<path stroke="#80713f" vector-effect="non-scaling-stroke" d="
  M 437.58 86.47
  Q 432.84 92.17 437.93 98.06
  C 525.25 198.96 513.94 348.77 415.08 436.91"
/>
<path stroke="#ffd971" vector-effect="non-scaling-stroke" d="
  M 415.08 436.91
  Q 413.79 437.48 412.71 437.32
  Q 412.21 437.25 411.78 437.49
  C 352.54 470.03 282.52 477.10 217.92 457.14
  C 216.99 456.85 216.15 457.02 215.23 457.20"
/>
<path stroke="#80713f" vector-effect="non-scaling-stroke" d="
  M 215.23 457.20
  Q 215.14 450.84 212.28 444.85
  Q 212.06 444.39 212.48 444.08
  Q 226.76 433.70 221.96 416.21
  Q 221.83 415.75 222.31 415.75
  Q 252.61 415.76 282.90 415.73
  Q 291.92 415.72 295.81 414.39
  C 316.36 407.30 316.55 377.40 295.86 370.27
  Q 291.41 368.74 280.46 368.74
  Q 214.89 368.76 149.32 368.75
  Q 141.00 368.75 137.49 367.35
  C 129.47 364.16 127.20 357.40 127.24 348.91
  Q 127.34 327.30 127.34 305.69
  C 127.33 272.56 79.58 272.05 79.92 307.27
  Q 80.12 327.26 79.84 347.22"
/>
<path stroke="#ffd971" vector-effect="non-scaling-stroke" d="
  M 79.84 347.22
  Q 78.83 347.77 78.14 346.58
  C 37.46 276.33 31.89 191.21 66.20 117.09
  Q 70.60 107.60 75.23 98.20
  Q 75.46 97.74 74.87 97.19"
/>
<path stroke="#80713f" vector-effect="non-scaling-stroke" d="
  M 196.31 121.94
  C 170.25 101.91 133.87 97.60 103.74 111.49
  C 100.24 113.11 97.87 113.92 96.73 117.14
  C 94.21 124.26 101.15 128.63 107.51 126.00
  Q 115.99 122.48 119.07 121.56
  C 142.20 114.61 166.79 119.35 186.44 133.06
  C 195.64 139.47 203.91 127.78 196.31 121.94"
/>
<path stroke="#80713f" vector-effect="non-scaling-stroke" d="
  M 391.3621 126.1577
  A 7.37 7.37 0.0 0 0 382.6909 120.3747
  L 302.6139 136.3757
  A 7.37 7.37 0.0 0 0 296.8309 145.0469
  L 296.8779 145.2823
  A 7.37 7.37 0.0 0 0 305.5491 151.0653
  L 385.6261 135.0643
  A 7.37 7.37 0.0 0 0 391.4091 126.3931
  L 391.3621 126.1577"
/>
<path stroke="#cea562" vector-effect="non-scaling-stroke" d="
  M 179.63 172.70
  Q 178.66 160.98 168.08 155.28"
/>
<path stroke="#80713f" vector-effect="non-scaling-stroke" d="
  M 168.08 155.28
  C 168.40 148.59 163.94 146.51 157.92 146.75
  C 144.76 147.27 133.99 156.80 131.73 169.77
  C 131.06 173.65 130.41 181.17 129.98 186.75
  Q 129.18 197.21 134.29 205.05
  C 144.68 220.97 168.45 221.91 179.62 205.99
  C 184.69 198.75 185.05 190.31 185.70 181.75
  Q 186.23 174.63 179.63 172.70"
/>
<path stroke="#4e3423" vector-effect="non-scaling-stroke" d="
  M 168.08 155.28
  C 167.06 161.45 161.58 161.58 156.58 161.88"
/>
<path stroke="#3f2823" vector-effect="non-scaling-stroke" d="
  M 156.58 161.88
  C 145.26 165.04 145.91 175.26 145.05 186.32
  Q 144.63 191.65 145.78 194.53
  C 149.35 203.49 161.47 205.43 167.12 197.37"
/>
<path stroke="#4e3423" vector-effect="non-scaling-stroke" d="
  M 167.12 197.37
  C 172.87 189.95 166.40 172.30 179.63 172.70"
/>
<path stroke="#8d5c46" vector-effect="non-scaling-stroke" d="
  M 167.12 197.37
  Q 157.75 186.99 156.42 173.35
  C 156.07 169.84 156.49 165.76 156.58 161.88"
/>
<path stroke="#cea562" vector-effect="non-scaling-stroke" d="
  M 347.37 189.24
  Q 345.78 177.88 335.37 173.21"
/>
<path stroke="#80713f" vector-effect="non-scaling-stroke" d="
  M 335.37 173.21
  C 338.30 158.61 318.49 163.34 312.34 167.09
  C 298.89 175.29 298.48 189.41 297.53 202.76
  Q 296.34 219.41 308.36 228.40
  C 322.14 238.73 341.49 234.20 349.16 219.19
  C 352.27 213.11 352.70 205.47 353.24 198.24
  Q 353.76 191.33 347.37 189.24"
/>
<path stroke="#4e3423" vector-effect="non-scaling-stroke" d="
  M 335.37 173.21
  C 333.11 177.85 329.61 178.27 324.72 178.37"
/>
<path stroke="#3f2823" vector-effect="non-scaling-stroke" d="
  M 324.72 178.37
  Q 315.06 180.43 313.82 190.51
  C 312.84 198.51 309.83 211.45 317.62 216.68
  Q 326.73 222.79 334.30 214.39"
/>
<path stroke="#4e3423" vector-effect="non-scaling-stroke" d="
  M 334.30 214.39
  C 340.52 207.34 333.78 188.59 347.37 189.24"
/>
<path stroke="#8d5c46" vector-effect="non-scaling-stroke" d="
  M 334.30 214.39
  Q 325.13 203.73 324.30 189.86
  C 324.10 186.42 324.60 182.26 324.72 178.37"
/>
<path stroke="#80713f" vector-effect="non-scaling-stroke" d="
  M 256.42 320.61
  Q 270.04 325.10 292.73 334.80
  C 299.55 337.71 306.30 330.63 302.23 324.20
  Q 300.98 322.21 296.92 320.34
  C 260.47 303.51 218.42 291.88 178.08 290.76
  Q 173.68 290.64 171.60 291.76
  C 167.30 294.08 166.99 301.16 171.04 303.99
  Q 172.85 305.27 176.79 305.49
  Q 217.58 307.80 256.42 320.61"
/>
<path stroke="#806932" vector-effect="non-scaling-stroke" d="
  M 52.26 398.58
  C 56.88 386.50 62.34 379.73 71.44 368.19
  Q 78.34 359.44 79.84 347.22"
/>
<path stroke="#806932" vector-effect="non-scaling-stroke" d="
  M 215.23 457.20
  Q 214.38 469.35 204.60 475.97
  A 0.95 0.94 -31.1 0 0 204.29 477.20
  Q 207.85 483.85 207.09 491.44
  Q 207.05 491.86 207.46 491.94
  C 282.39 506.76 357.76 487.03 415.08 436.91"
/>
<path stroke="#806932" vector-effect="non-scaling-stroke" d="
  M 181.33 479.46
  C 175.89 477.05 174.49 469.72 179.56 466.36
  C 183.43 463.79 189.14 465.69 193.63 464.55
  C 200.98 462.68 202.65 453.31 196.11 449.21
  C 193.32 447.47 189.93 448.25 187.31 446.15
  C 182.34 442.18 184.29 433.84 190.81 433.09
  C 194.53 432.66 200.52 433.39 203.83 431.67
  C 211.25 427.82 208.65 417.47 200.96 415.92
  Q 196.71 415.06 196.08 414.72
  C 191.23 412.10 191.50 404.02 196.29 401.75
  Q 198.34 400.77 203.48 400.77
  Q 244.09 400.73 284.70 400.75
  Q 289.68 400.76 291.98 399.59
  C 299.73 395.65 296.45 383.74 288.00 383.74
  Q 218.01 383.77 148.03 383.73
  C 141.39 383.73 135.83 383.28 130.54 380.72
  Q 114.73 373.10 112.34 354.98"
/>
<path stroke="#806228" vector-effect="non-scaling-stroke" d="
  M 112.34 354.98
  Q 112.15 331.09 112.29 307.14
  C 112.30 305.29 111.97 301.92 111.36 300.67
  C 108.81 295.49 102.35 294.09 97.93 297.87
  C 95.07 300.31 95.20 304.44 95.18 307.75
  Q 95.06 326.72 94.94 345.69
  C 94.84 362.63 85.32 374.81 75.25 387.76
  Q 63.24 403.21 63.06 423.74
  Q 62.83 449.33 63.05 456.44
  C 63.78 479.96 81.80 496.91 105.00 496.96
  Q 142.72 497.04 180.43 496.98
  Q 185.33 496.97 187.33 496.13
  C 193.08 493.71 193.77 485.24 188.69 481.68
  C 186.63 480.24 183.86 479.86 181.33 479.46"
/>
<path stroke="#ffca5a" vector-effect="non-scaling-stroke" d="
  M 112.34 354.98
  Q 111.79 355.13 111.11 355.86
  Q 110.79 356.21 110.69 356.67
  C 107.43 371.93 99.32 384.81 90.31 395.56
  Q 79.74 408.18 79.74 423.98
  Q 79.73 439.62 79.60 455.25
  C 79.51 466.37 86.42 476.47 97.12 479.46
  Q 100.61 480.44 110.09 480.47
  Q 145.17 480.58 180.25 480.42
  Q 180.73 480.41 180.98 480.01
  L 181.33 479.46"
/>
</g>
<path fill="#ffe17d" d="
  M 425.41 74.38
  L 437.58 86.47
  Q 432.84 92.17 437.93 98.06
  C 525.25 198.96 513.94 348.77 415.08 436.91
  Q 413.79 437.48 412.71 437.32
  Q 412.21 437.25 411.78 437.49
  C 352.54 470.03 282.52 477.10 217.92 457.14
  C 216.99 456.85 216.15 457.02 215.23 457.20
  Q 215.14 450.84 212.28 444.85
  Q 212.06 444.39 212.48 444.08
  Q 226.76 433.70 221.96 416.21
  Q 221.83 415.75 222.31 415.75
  Q 252.61 415.76 282.90 415.73
  Q 291.92 415.72 295.81 414.39
  C 316.36 407.30 316.55 377.40 295.86 370.27
  Q 291.41 368.74 280.46 368.74
  Q 214.89 368.76 149.32 368.75
  Q 141.00 368.75 137.49 367.35
  C 129.47 364.16 127.20 357.40 127.24 348.91
  Q 127.34 327.30 127.34 305.69
  C 127.33 272.56 79.58 272.05 79.92 307.27
  Q 80.12 327.26 79.84 347.22
  Q 78.83 347.77 78.14 346.58
  C 37.46 276.33 31.89 191.21 66.20 117.09
  Q 70.60 107.60 75.23 98.20
  Q 75.46 97.74 74.87 97.19
  C 162.52 -2.14 311.38 -12.55 412.41 72.74
  C 416.82 76.47 420.69 78.67 425.41 74.38
  Z
  M 196.31 121.94
  C 170.25 101.91 133.87 97.60 103.74 111.49
  C 100.24 113.11 97.87 113.92 96.73 117.14
  C 94.21 124.26 101.15 128.63 107.51 126.00
  Q 115.99 122.48 119.07 121.56
  C 142.20 114.61 166.79 119.35 186.44 133.06
  C 195.64 139.47 203.91 127.78 196.31 121.94
  Z
  M 391.3621 126.1577
  A 7.37 7.37 0.0 0 0 382.6909 120.3747
  L 302.6139 136.3757
  A 7.37 7.37 0.0 0 0 296.8309 145.0469
  L 296.8779 145.2823
  A 7.37 7.37 0.0 0 0 305.5491 151.0653
  L 385.6261 135.0643
  A 7.37 7.37 0.0 0 0 391.4091 126.3931
  L 391.3621 126.1577
  Z
  M 179.63 172.70
  Q 178.66 160.98 168.08 155.28
  C 168.40 148.59 163.94 146.51 157.92 146.75
  C 144.76 147.27 133.99 156.80 131.73 169.77
  C 131.06 173.65 130.41 181.17 129.98 186.75
  Q 129.18 197.21 134.29 205.05
  C 144.68 220.97 168.45 221.91 179.62 205.99
  C 184.69 198.75 185.05 190.31 185.70 181.75
  Q 186.23 174.63 179.63 172.70
  Z
  M 347.37 189.24
  Q 345.78 177.88 335.37 173.21
  C 338.30 158.61 318.49 163.34 312.34 167.09
  C 298.89 175.29 298.48 189.41 297.53 202.76
  Q 296.34 219.41 308.36 228.40
  C 322.14 238.73 341.49 234.20 349.16 219.19
  C 352.27 213.11 352.70 205.47 353.24 198.24
  Q 353.76 191.33 347.37 189.24
  Z
  M 256.42 320.61
  Q 270.04 325.10 292.73 334.80
  C 299.55 337.71 306.30 330.63 302.23 324.20
  Q 300.98 322.21 296.92 320.34
  C 260.47 303.51 218.42 291.88 178.08 290.76
  Q 173.68 290.64 171.60 291.76
  C 167.30 294.08 166.99 301.16 171.04 303.99
  Q 172.85 305.27 176.79 305.49
  Q 217.58 307.80 256.42 320.61
  Z"
/>
<g fill="#000000">
<path d="
  M 251.58 0.00
  L 261.80 0.00
  Q 355.38 3.24 424.44 63.31
  Q 430.00 68.15 425.41 74.38
  C 420.69 78.67 416.82 76.47 412.41 72.74
  C 311.38 -12.55 162.52 -2.14 74.87 97.19
  C 13.91 167.10 -1.37 263.41 33.83 349.19
  Q 35.99 354.46 43.26 369.51
  C 45.47 374.08 45.18 377.95 40.83 380.71
  Q 33.81 383.30 30.82 377.68
  C -33.01 257.41 6.07 109.04 122.33 37.57
  Q 180.71 1.68 251.58 0.00
  Z"
/>
<path d="
  M 512.00 251.06
  L 512.00 261.53
  C 509.92 333.14 479.02 401.32 424.84 448.34
  Q 353.67 510.10 257.94 512.00
  L 253.19 512.00
  Q 226.49 511.40 200.34 505.85
  A 1.14 1.14 0.0 0 0 199.39 506.08
  Q 192.93 511.31 184.69 512.00
  L 101.70 512.00
  C 76.48 510.54 55.77 493.93 49.67 469.43
  Q 48.21 463.54 48.09 453.93
  C 47.86 435.67 46.28 416.14 52.26 398.58
  C 56.88 386.50 62.34 379.73 71.44 368.19
  Q 78.34 359.44 79.84 347.22
  Q 80.12 327.26 79.92 307.27
  C 79.58 272.05 127.33 272.56 127.34 305.69
  Q 127.34 327.30 127.24 348.91
  C 127.20 357.40 129.47 364.16 137.49 367.35
  Q 141.00 368.75 149.32 368.75
  Q 214.89 368.76 280.46 368.74
  Q 291.41 368.74 295.86 370.27
  C 316.55 377.40 316.36 407.30 295.81 414.39
  Q 291.92 415.72 282.90 415.73
  Q 252.61 415.76 222.31 415.75
  Q 221.83 415.75 221.96 416.21
  Q 226.76 433.70 212.48 444.08
  Q 212.06 444.39 212.28 444.85
  Q 215.14 450.84 215.23 457.20
  Q 214.38 469.35 204.60 475.97
  A 0.95 0.94 -31.1 0 0 204.29 477.20
  Q 207.85 483.85 207.09 491.44
  Q 207.05 491.86 207.46 491.94
  C 282.39 506.76 357.76 487.03 415.08 436.91
  C 513.94 348.77 525.25 198.96 437.93 98.06
  Q 432.84 92.17 437.58 86.47
  Q 444.01 82.14 448.81 87.69
  Q 509.06 157.32 512.00 251.06
  Z
  M 181.33 479.46
  C 175.89 477.05 174.49 469.72 179.56 466.36
  C 183.43 463.79 189.14 465.69 193.63 464.55
  C 200.98 462.68 202.65 453.31 196.11 449.21
  C 193.32 447.47 189.93 448.25 187.31 446.15
  C 182.34 442.18 184.29 433.84 190.81 433.09
  C 194.53 432.66 200.52 433.39 203.83 431.67
  C 211.25 427.82 208.65 417.47 200.96 415.92
  Q 196.71 415.06 196.08 414.72
  C 191.23 412.10 191.50 404.02 196.29 401.75
  Q 198.34 400.77 203.48 400.77
  Q 244.09 400.73 284.70 400.75
  Q 289.68 400.76 291.98 399.59
  C 299.73 395.65 296.45 383.74 288.00 383.74
  Q 218.01 383.77 148.03 383.73
  C 141.39 383.73 135.83 383.28 130.54 380.72
  Q 114.73 373.10 112.34 354.98
  Q 112.15 331.09 112.29 307.14
  C 112.30 305.29 111.97 301.92 111.36 300.67
  C 108.81 295.49 102.35 294.09 97.93 297.87
  C 95.07 300.31 95.20 304.44 95.18 307.75
  Q 95.06 326.72 94.94 345.69
  C 94.84 362.63 85.32 374.81 75.25 387.76
  Q 63.24 403.21 63.06 423.74
  Q 62.83 449.33 63.05 456.44
  C 63.78 479.96 81.80 496.91 105.00 496.96
  Q 142.72 497.04 180.43 496.98
  Q 185.33 496.97 187.33 496.13
  C 193.08 493.71 193.77 485.24 188.69 481.68
  C 186.63 480.24 183.86 479.86 181.33 479.46
  Z"
/>
<path d="
  M 196.31 121.94
  C 203.91 127.78 195.64 139.47 186.44 133.06
  C 166.79 119.35 142.20 114.61 119.07 121.56
  Q 115.99 122.48 107.51 126.00
  C 101.15 128.63 94.21 124.26 96.73 117.14
  C 97.87 113.92 100.24 113.11 103.74 111.49
  C 133.87 97.60 170.25 101.91 196.31 121.94
  Z"
/>
<rect x="-48.20" y="-7.49" transform="translate(344.12,135.72) rotate(-11.3)" width="96.40" height="14.98" rx="7.37"/>
<path d="
  M 168.08 155.28
  C 167.06 161.45 161.58 161.58 156.58 161.88
  C 145.26 165.04 145.91 175.26 145.05 186.32
  Q 144.63 191.65 145.78 194.53
  C 149.35 203.49 161.47 205.43 167.12 197.37
  C 172.87 189.95 166.40 172.30 179.63 172.70
  Q 186.23 174.63 185.70 181.75
  C 185.05 190.31 184.69 198.75 179.62 205.99
  C 168.45 221.91 144.68 220.97 134.29 205.05
  Q 129.18 197.21 129.98 186.75
  C 130.41 181.17 131.06 173.65 131.73 169.77
  C 133.99 156.80 144.76 147.27 157.92 146.75
  C 163.94 146.51 168.40 148.59 168.08 155.28
  Z"
/>
<path d="
  M 335.37 173.21
  C 333.11 177.85 329.61 178.27 324.72 178.37
  Q 315.06 180.43 313.82 190.51
  C 312.84 198.51 309.83 211.45 317.62 216.68
  Q 326.73 222.79 334.30 214.39
  C 340.52 207.34 333.78 188.59 347.37 189.24
  Q 353.76 191.33 353.24 198.24
  C 352.70 205.47 352.27 213.11 349.16 219.19
  C 341.49 234.20 322.14 238.73 308.36 228.40
  Q 296.34 219.41 297.53 202.76
  C 298.48 189.41 298.89 175.29 312.34 167.09
  C 318.49 163.34 338.30 158.61 335.37 173.21
  Z"
/>
<path d="
  M 256.42 320.61
  Q 217.58 307.80 176.79 305.49
  Q 172.85 305.27 171.04 303.99
  C 166.99 301.16 167.30 294.08 171.60 291.76
  Q 173.68 290.64 178.08 290.76
  C 218.42 291.88 260.47 303.51 296.92 320.34
  Q 300.98 322.21 302.23 324.20
  C 306.30 330.63 299.55 337.71 292.73 334.80
  Q 270.04 325.10 256.42 320.61
  Z"
/>
</g>
<g fill="#9c6846">
<path d="
  M 168.08 155.28
  Q 178.66 160.98 179.63 172.70
  C 166.40 172.30 172.87 189.95 167.12 197.37
  Q 157.75 186.99 156.42 173.35
  C 156.07 169.84 156.49 165.76 156.58 161.88
  C 161.58 161.58 167.06 161.45 168.08 155.28
  Z"
/>
<path d="
  M 335.37 173.21
  Q 345.78 177.88 347.37 189.24
  C 333.78 188.59 340.52 207.34 334.30 214.39
  Q 325.13 203.73 324.30 189.86
  C 324.10 186.42 324.60 182.26 324.72 178.37
  C 329.61 178.27 333.11 177.85 335.37 173.21
  Z"
/>
</g>
<g fill="#ffd164">
<path d="
  M 74.87 97.19
  Q 75.46 97.74 75.23 98.20
  Q 70.60 107.60 66.20 117.09
  C 31.89 191.21 37.46 276.33 78.14 346.58
  Q 78.83 347.77 79.84 347.22
  Q 78.34 359.44 71.44 368.19
  C 62.34 379.73 56.88 386.50 52.26 398.58
  L 40.83 380.71
  C 45.18 377.95 45.47 374.08 43.26 369.51
  Q 35.99 354.46 33.83 349.19
  C -1.37 263.41 13.91 167.10 74.87 97.19
  Z"
/>
<path d="
  M 112.34 354.98
  Q 114.73 373.10 130.54 380.72
  C 135.83 383.28 141.39 383.73 148.03 383.73
  Q 218.01 383.77 288.00 383.74
  C 296.45 383.74 299.73 395.65 291.98 399.59
  Q 289.68 400.76 284.70 400.75
  Q 244.09 400.73 203.48 400.77
  Q 198.34 400.77 196.29 401.75
  C 191.50 404.02 191.23 412.10 196.08 414.72
  Q 196.71 415.06 200.96 415.92
  C 208.65 417.47 211.25 427.82 203.83 431.67
  C 200.52 433.39 194.53 432.66 190.81 433.09
  C 184.29 433.84 182.34 442.18 187.31 446.15
  C 189.93 448.25 193.32 447.47 196.11 449.21
  C 202.65 453.31 200.98 462.68 193.63 464.55
  C 189.14 465.69 183.43 463.79 179.56 466.36
  C 174.49 469.72 175.89 477.05 181.33 479.46
  L 180.98 480.01
  Q 180.73 480.41 180.25 480.42
  Q 145.17 480.58 110.09 480.47
  Q 100.61 480.44 97.12 479.46
  C 86.42 476.47 79.51 466.37 79.60 455.25
  Q 79.73 439.62 79.74 423.98
  Q 79.74 408.18 90.31 395.56
  C 99.32 384.81 107.43 371.93 110.69 356.67
  Q 110.79 356.21 111.11 355.86
  Q 111.79 355.13 112.34 354.98
  Z"
/>
<path d="
  M 415.08 436.91
  C 357.76 487.03 282.39 506.76 207.46 491.94
  Q 207.05 491.86 207.09 491.44
  Q 207.85 483.85 204.29 477.20
  A 0.95 0.94 -31.1 0 1 204.60 475.97
  Q 214.38 469.35 215.23 457.20
  C 216.15 457.02 216.99 456.85 217.92 457.14
  C 282.52 477.10 352.54 470.03 411.78 437.49
  Q 412.21 437.25 412.71 437.32
  Q 413.79 437.48 415.08 436.91
  Z"
/>
</g>
<g fill="#7d5046">
<path d="
  M 156.58 161.88
  C 156.49 165.76 156.07 169.84 156.42 173.35
  Q 157.75 186.99 167.12 197.37
  C 161.47 205.43 149.35 203.49 145.78 194.53
  Q 144.63 191.65 145.05 186.32
  C 145.91 175.26 145.26 165.04 156.58 161.88
  Z"
/>
<path d="
  M 324.72 178.37
  C 324.60 182.26 324.10 186.42 324.30 189.86
  Q 325.13 203.73 334.30 214.39
  Q 326.73 222.79 317.62 216.68
  C 309.83 211.45 312.84 198.51 313.82 190.51
  Q 315.06 180.43 324.72 178.37
  Z"
/>
</g>
<path fill="#ffc350" d="
  M 112.34 354.98
  Q 111.79 355.13 111.11 355.86
  Q 110.79 356.21 110.69 356.67
  C 107.43 371.93 99.32 384.81 90.31 395.56
  Q 79.74 408.18 79.74 423.98
  Q 79.73 439.62 79.60 455.25
  C 79.51 466.37 86.42 476.47 97.12 479.46
  Q 100.61 480.44 110.09 480.47
  Q 145.17 480.58 180.25 480.42
  Q 180.73 480.41 180.98 480.01
  L 181.33 479.46
  C 183.86 479.86 186.63 480.24 188.69 481.68
  C 193.77 485.24 193.08 493.71 187.33 496.13
  Q 185.33 496.97 180.43 496.98
  Q 142.72 497.04 105.00 496.96
  C 81.80 496.91 63.78 479.96 63.05 456.44
  Q 62.83 449.33 63.06 423.74
  Q 63.24 403.21 75.25 387.76
  C 85.32 374.81 94.84 362.63 94.94 345.69
  Q 95.06 326.72 95.18 307.75
  C 95.20 304.44 95.07 300.31 97.93 297.87
  C 102.35 294.09 108.81 295.49 111.36 300.67
  C 111.97 301.92 112.30 305.29 112.29 307.14
  Q 112.15 331.09 112.34 354.98
  Z"
/>
</svg>
