<?xml version="1.0" encoding="UTF-8" standalone="no"?>
<!DOCTYPE svg PUBLIC "-//W3C//DTD SVG 1.1//EN" "http://www.w3.org/Graphics/SVG/1.1/DTD/svg11.dtd">
<svg xmlns="http://www.w3.org/2000/svg" version="1.1" viewBox="0.00 0.00 512.00 512.00">
<g stroke-width="2.00" fill="none" stroke-linecap="butt">
<path stroke="#80713f" vector-effect="non-scaling-stroke" d="
  M 425.51 74.41
  C 420.65 78.61 416.87 76.52 412.39 72.71
  C 362.51 30.33 298.59 10.20 233.44 16.12
  C 173.10 21.61 114.49 50.87 74.87 97.24"
/>
<path stroke="#806932" vector-effect="non-scaling-stroke" d="
  M 74.87 97.24
  C -4.32 187.63 -4.56 321.17 72.70 412.35
  C 76.52 416.85 78.71 420.81 74.23 425.58"
/>
<path stroke="#80713f" vector-effect="non-scaling-stroke" d="
  M 437.62 86.47
  C 433.33 91.43 435.50 95.03 439.32 99.61
  C 524.93 201.86 513.81 348.18 414.91 437.24"
/>
<path stroke="#ffd971" vector-effect="non-scaling-stroke" d="
  M 414.91 437.24
  C 414.00 437.04 412.99 436.83 412.14 437.30
  C 351.71 470.57 280.01 477.41 214.50 456.02
  C 77.03 411.15 6.67 256.93 63.41 122.89
  Q 63.89 121.77 69.49 110.25
  Q 72.54 103.97 74.87 97.24"
/>
<path stroke="#80713f" vector-effect="non-scaling-stroke" d="
  M 209.81 207.44
  C 186.80 187.05 153.83 187.33 132.04 209.08
  Q 129.58 211.53 128.87 213.22
  C 126.81 218.12 131.17 223.64 136.29 223.22
  C 139.57 222.94 142.14 220.23 144.56 218.07
  C 158.51 205.63 176.70 204.42 192.85 213.32
  C 198.39 216.38 205.70 227.28 212.45 221.71
  C 218.33 216.85 214.13 211.26 209.81 207.44"
/>
<path stroke="#80713f" vector-effect="non-scaling-stroke" d="
  M 298.69 210.94
  C 293.35 216.85 299.71 225.71 307.01 222.53
  C 309.33 221.52 311.87 218.85 314.00 217.01
  C 327.60 205.28 346.41 204.93 361.52 213.47
  C 365.72 215.84 371.15 222.89 375.79 223.20
  C 382.28 223.64 386.25 215.85 381.93 211.06
  C 359.73 186.46 321.05 186.16 298.69 210.94"
/>
<path stroke="#80713f" vector-effect="non-scaling-stroke" d="
  M 157.02 343.81
  Q 201.49 375.75 256.00 375.75
  Q 310.63 375.75 354.78 343.98"
/>
<path stroke="#fdd57c" vector-effect="non-scaling-stroke" d="
  M 354.78 343.98
  Q 379.53 357.61 403.90 348.45
  C 440.02 334.88 452.04 289.48 427.07 259.94
  C 402.65 231.06 357.20 234.26 336.98 266.17
  Q 322.58 288.91 331.94 316.44"
/>
<path stroke="#80713f" vector-effect="non-scaling-stroke" d="
  M 331.94 316.44
  Q 255.91 329.49 179.75 316.40"
/>
<path stroke="#fdd57c" vector-effect="non-scaling-stroke" d="
  M 179.75 316.40
  C 187.05 300.43 183.92 280.67 175.42 266.80
  C 161.23 243.67 132.84 234.14 107.42 243.86
  C 59.59 262.17 60.55 330.73 107.80 348.50
  Q 132.89 357.93 157.02 343.81"
/>
<path stroke="#7d653d" vector-effect="non-scaling-stroke" d="
  M 179.75 316.40
  Q 171.41 314.55 163.05 312.67
  Q 156.11 311.10 153.21 311.42
  C 142.41 312.60 137.31 326.83 145.66 334.12
  Q 151.01 338.80 157.02 343.81"
/>
<path stroke="#7d653d" vector-effect="non-scaling-stroke" d="
  M 354.78 343.98
  Q 360.56 339.20 365.38 335.13
  C 374.10 327.76 371.08 313.29 359.51 311.51
  Q 356.30 311.02 349.13 312.64
  Q 340.57 314.58 331.94 316.44"
/>
<path stroke="#806932" vector-effect="non-scaling-stroke" d="
  M 86.41 437.75
  Q 92.01 432.82 98.03 437.97
  C 188.31 515.25 317.78 516.75 409.78 441.26
  Q 412.32 439.17 414.91 437.24"
/>
<path stroke="#4e3423" vector-effect="non-scaling-stroke" d="
  M 162.21 328.58
  C 215.09 371.14 296.79 371.55 349.66 328.72
  Q 351.00 327.64 349.33 328.02
  C 303.80 338.56 255.31 340.27 208.93 335.62
  Q 185.69 333.29 162.97 327.94
  Q 162.26 327.78 162.21 327.82
  Q 161.75 328.21 162.21 328.58"
/>
</g>
<path fill="#ffe17d" d="
  M 425.51 74.41
  L 437.62 86.47
  C 433.33 91.43 435.50 95.03 439.32 99.61
  C 524.93 201.86 513.81 348.18 414.91 437.24
  C 414.00 437.04 412.99 436.83 412.14 437.30
  C 351.71 470.57 280.01 477.41 214.50 456.02
  C 77.03 411.15 6.67 256.93 63.41 122.89
  Q 63.89 121.77 69.49 110.25
  Q 72.54 103.97 74.87 97.24
  C 114.49 50.87 173.10 21.61 233.44 16.12
  C 298.59 10.20 362.51 30.33 412.39 72.71
  C 416.87 76.52 420.65 78.61 425.51 74.41
  Z
  M 209.81 207.44
  C 186.80 187.05 153.83 187.33 132.04 209.08
  Q 129.58 211.53 128.87 213.22
  C 126.81 218.12 131.17 223.64 136.29 223.22
  C 139.57 222.94 142.14 220.23 144.56 218.07
  C 158.51 205.63 176.70 204.42 192.85 213.32
  C 198.39 216.38 205.70 227.28 212.45 221.71
  C 218.33 216.85 214.13 211.26 209.81 207.44
  Z
  M 298.69 210.94
  C 293.35 216.85 299.71 225.71 307.01 222.53
  C 309.33 221.52 311.87 218.85 314.00 217.01
  C 327.60 205.28 346.41 204.93 361.52 213.47
  C 365.72 215.84 371.15 222.89 375.79 223.20
  C 382.28 223.64 386.25 215.85 381.93 211.06
  C 359.73 186.46 321.05 186.16 298.69 210.94
  Z
  M 157.02 343.81
  Q 201.49 375.75 256.00 375.75
  Q 310.63 375.75 354.78 343.98
  Q 379.53 357.61 403.90 348.45
  C 440.02 334.88 452.04 289.48 427.07 259.94
  C 402.65 231.06 357.20 234.26 336.98 266.17
  Q 322.58 288.91 331.94 316.44
  Q 255.91 329.49 179.75 316.40
  C 187.05 300.43 183.92 280.67 175.42 266.80
  C 161.23 243.67 132.84 234.14 107.42 243.86
  C 59.59 262.17 60.55 330.73 107.80 348.50
  Q 132.89 357.93 157.02 343.81
  Z"
/>
<g fill="#000000">
<path d="
  M 251.83 0.00
  L 261.80 0.00
  Q 355.08 3.22 424.31 63.19
  Q 429.88 68.01 425.51 74.41
  C 420.65 78.61 416.87 76.52 412.39 72.71
  C 362.51 30.33 298.59 10.20 233.44 16.12
  C 173.10 21.61 114.49 50.87 74.87 97.24
  C -4.32 187.63 -4.56 321.17 72.70 412.35
  C 76.52 416.85 78.71 420.81 74.23 425.58
  Q 68.08 429.91 63.31 424.44
  Q 3.45 355.63 0.00 262.41
  L 0.00 250.22
  C 4.47 112.30 112.97 3.05 251.83 0.00
  Z"
/>
<path d="
  M 512.00 250.07
  L 512.00 260.56
  C 507.95 398.89 400.07 508.51 260.91 512.00
  L 252.18 512.00
  Q 157.65 509.52 87.56 448.69
  Q 82.20 444.04 86.41 437.75
  Q 92.01 432.82 98.03 437.97
  C 188.31 515.25 317.78 516.75 409.78 441.26
  Q 412.32 439.17 414.91 437.24
  C 513.81 348.18 524.93 201.86 439.32 99.61
  C 435.50 95.03 433.33 91.43 437.62 86.47
  Q 443.99 82.16 448.69 87.56
  Q 508.73 156.71 512.00 250.07
  Z"
/>
<path d="
  M 209.81 207.44
  C 214.13 211.26 218.33 216.85 212.45 221.71
  C 205.70 227.28 198.39 216.38 192.85 213.32
  C 176.70 204.42 158.51 205.63 144.56 218.07
  C 142.14 220.23 139.57 222.94 136.29 223.22
  C 131.17 223.64 126.81 218.12 128.87 213.22
  Q 129.58 211.53 132.04 209.08
  C 153.83 187.33 186.80 187.05 209.81 207.44
  Z"
/>
<path d="
  M 298.69 210.94
  C 321.05 186.16 359.73 186.46 381.93 211.06
  C 386.25 215.85 382.28 223.64 375.79 223.20
  C 371.15 222.89 365.72 215.84 361.52 213.47
  C 346.41 204.93 327.60 205.28 314.00 217.01
  C 311.87 218.85 309.33 221.52 307.01 222.53
  C 299.71 225.71 293.35 216.85 298.69 210.94
  Z"
/>
<path d="
  M 179.75 316.40
  Q 255.91 329.49 331.94 316.44
  Q 340.57 314.58 349.13 312.64
  Q 356.30 311.02 359.51 311.51
  C 371.08 313.29 374.10 327.76 365.38 335.13
  Q 360.56 339.20 354.78 343.98
  Q 310.63 375.75 256.00 375.75
  Q 201.49 375.75 157.02 343.81
  Q 151.01 338.80 145.66 334.12
  C 137.31 326.83 142.41 312.60 153.21 311.42
  Q 156.11 311.10 163.05 312.67
  Q 171.41 314.55 179.75 316.40
  Z
  M 162.21 328.58
  C 215.09 371.14 296.79 371.55 349.66 328.72
  Q 351.00 327.64 349.33 328.02
  C 303.80 338.56 255.31 340.27 208.93 335.62
  Q 185.69 333.29 162.97 327.94
  Q 162.26 327.78 162.21 327.82
  Q 161.75 328.21 162.21 328.58
  Z"
/>
</g>
<path fill="#9c6846" d="
  M 162.21 328.58
  Q 161.75 328.21 162.21 327.82
  Q 162.26 327.78 162.97 327.94
  Q 185.69 333.29 208.93 335.62
  C 255.31 340.27 303.80 338.56 349.33 328.02
  Q 351.00 327.64 349.66 328.72
  C 296.79 371.55 215.09 371.14 162.21 328.58
  Z"
/>
<g fill="#fac97a">
<path d="
  M 179.75 316.40
  Q 171.41 314.55 163.05 312.67
  Q 156.11 311.10 153.21 311.42
  C 142.41 312.60 137.31 326.83 145.66 334.12
  Q 151.01 338.80 157.02 343.81
  Q 132.89 357.93 107.80 348.50
  C 60.55 330.73 59.59 262.17 107.42 243.86
  C 132.84 234.14 161.23 243.67 175.42 266.80
  C 183.92 280.67 187.05 300.43 179.75 316.40
  Z"
/>
<path d="
  M 354.78 343.98
  Q 360.56 339.20 365.38 335.13
  C 374.10 327.76 371.08 313.29 359.51 311.51
  Q 356.30 311.02 349.13 312.64
  Q 340.57 314.58 331.94 316.44
  Q 322.58 288.91 336.98 266.17
  C 357.20 234.26 402.65 231.06 427.07 259.94
  C 452.04 289.48 440.02 334.88 403.90 348.45
  Q 379.53 357.61 354.78 343.98
  Z"
/>
</g>
<path fill="#ffd164" d="
  M 74.87 97.24
  Q 72.54 103.97 69.49 110.25
  Q 63.89 121.77 63.41 122.89
  C 6.67 256.93 77.03 411.15 214.50 456.02
  C 280.01 477.41 351.71 470.57 412.14 437.30
  C 412.99 436.83 414.00 437.04 414.91 437.24
  Q 412.32 439.17 409.78 441.26
  C 317.78 516.75 188.31 515.25 98.03 437.97
  Q 92.01 432.82 86.41 437.75
  L 74.23 425.58
  C 78.71 420.81 76.52 416.85 72.70 412.35
  C -4.56 321.17 -4.32 187.63 74.87 97.24
  Z"
/>
</svg>
