<?xml version="1.0" encoding="UTF-8" standalone="no"?>
<!DOCTYPE svg PUBLIC "-//W3C//DTD SVG 1.1//EN" "http://www.w3.org/Graphics/SVG/1.1/DTD/svg11.dtd">
<svg xmlns="http://www.w3.org/2000/svg" version="1.1" viewBox="0.00 0.00 512.00 512.00">
<g stroke-width="2.00" fill="none" stroke-linecap="butt">
<path stroke="#80713f" vector-effect="non-scaling-stroke" d="
  M 425.51 74.41
  C 420.64 78.62 416.87 76.51 412.38 72.70
  C 312.78 -11.90 161.15 -2.61 74.87 97.24"
/>
<path stroke="#806932" vector-effect="non-scaling-stroke" d="
  M 74.87 97.24
  C -4.36 187.51 -4.51 321.20 72.70 412.34
  C 76.51 416.85 78.71 420.81 74.23 425.58"
/>
<path stroke="#80713f" vector-effect="non-scaling-stroke" d="
  M 437.62 86.48
  C 433.33 91.42 435.50 95.04 439.32 99.60
  C 524.93 201.86 513.81 348.17 414.91 437.24"
/>
<path stroke="#ffd971" vector-effect="non-scaling-stroke" d="
  M 414.91 437.24
  C 414.00 437.04 412.99 436.83 412.14 437.30
  C 351.71 470.57 280.02 477.41 214.50 456.02
  C 77.03 411.15 6.67 256.93 63.41 122.89
  Q 63.88 121.79 69.49 110.25
  Q 72.54 103.97 74.87 97.24"
/>
<path stroke="#80713f" vector-effect="non-scaling-stroke" d="
  M 206.8209 173.5217
  A 7.38 7.38 0.0 0 0 197.6228 168.5897
  L 117.6675 192.7296
  A 7.38 7.38 0.0 0 0 112.7355 201.9277
  L 112.7991 202.1383
  A 7.38 7.38 0.0 0 0 121.9972 207.0703
  L 201.9525 182.9304
  A 7.38 7.38 0.0 0 0 206.8845 173.7323
  L 206.8209 173.5217"
/>
<path stroke="#80713f" vector-effect="non-scaling-stroke" d="
  M 399.3340 201.9306
  A 7.38 7.38 0.0 0 0 394.4021 192.7325
  L 314.4276 168.5868
  A 7.38 7.38 0.0 0 0 305.2295 173.5188
  L 305.1660 173.7294
  A 7.38 7.38 0.0 0 0 310.0979 182.9275
  L 390.0724 207.0732
  A 7.38 7.38 0.0 0 0 399.2705 202.1412
  L 399.3340 201.9306"
/>
<path stroke="#80713f" vector-effect="non-scaling-stroke" d="
  M 204.31 234.19
  C 197.50 228.63 192.35 237.97 187.45 241.48
  Q 168.76 254.84 149.17 242.23
  C 144.92 239.49 141.62 233.43 136.72 232.66
  C 133.19 232.11 129.75 234.42 128.83 237.89
  Q 127.70 242.12 131.24 246.01
  C 151.33 268.14 183.15 269.74 203.49 247.09
  C 207.24 242.91 209.40 238.34 204.31 234.19"
/>
<path stroke="#80713f" vector-effect="non-scaling-stroke" d="
  M 306.09 243.81
  C 324.08 269.28 361.00 269.39 380.72 246.16
  C 383.55 242.82 385.04 239.22 382.18 235.57
  C 375.29 226.78 367.79 239.01 362.60 242.39
  Q 344.50 254.16 326.20 242.63
  C 321.82 239.87 317.77 233.19 312.74 232.59
  C 307.15 231.93 302.51 238.73 306.09 243.81"
/>
<path stroke="#80713f" vector-effect="non-scaling-stroke" d="
  M 325.74 352.67
  C 330.35 343.20 324.29 335.33 314.00 336.98
  Q 258.25 345.95 201.00 337.41
  Q 195.18 336.54 192.86 337.04
  C 186.68 338.40 182.94 344.80 185.65 350.83
  C 209.74 404.33 300.07 405.50 325.74 352.67"
/>
<path stroke="#806932" vector-effect="non-scaling-stroke" d="
  M 86.41 437.75
  Q 92.01 432.82 98.03 437.97
  C 188.31 515.25 317.78 516.75 409.78 441.26
  Q 412.32 439.17 414.91 437.24"
/>
<path stroke="#4e3423" vector-effect="non-scaling-stroke" d="
  M 209.35 359.15
  C 235.51 383.75 284.29 382.67 307.37 354.19
  Q 308.36 352.96 306.80 353.16
  Q 256.07 359.71 205.36 353.12
  Q 204.13 352.96 204.83 353.98
  Q 206.55 356.52 209.35 359.15"
/>
</g>
<path fill="#ffe17d" d="
  M 425.51 74.41
  L 437.62 86.48
  C 433.33 91.42 435.50 95.04 439.32 99.60
  C 524.93 201.86 513.81 348.17 414.91 437.24
  C 414.00 437.04 412.99 436.83 412.14 437.30
  C 351.71 470.57 280.02 477.41 214.50 456.02
  C 77.03 411.15 6.67 256.93 63.41 122.89
  Q 63.88 121.79 69.49 110.25
  Q 72.54 103.97 74.87 97.24
  C 161.15 -2.61 312.78 -11.90 412.38 72.70
  C 416.87 76.51 420.64 78.62 425.51 74.41
  Z
  M 206.8209 173.5217
  A 7.38 7.38 0.0 0 0 197.6228 168.5897
  L 117.6675 192.7296
  A 7.38 7.38 0.0 0 0 112.7355 201.9277
  L 112.7991 202.1383
  A 7.38 7.38 0.0 0 0 121.9972 207.0703
  L 201.9525 182.9304
  A 7.38 7.38 0.0 0 0 206.8845 173.7323
  L 206.8209 173.5217
  Z
  M 399.3340 201.9306
  A 7.38 7.38 0.0 0 0 394.4021 192.7325
  L 314.4276 168.5868
  A 7.38 7.38 0.0 0 0 305.2295 173.5188
  L 305.1660 173.7294
  A 7.38 7.38 0.0 0 0 310.0979 182.9275
  L 390.0724 207.0732
  A 7.38 7.38 0.0 0 0 399.2705 202.1412
  L 399.3340 201.9306
  Z
  M 204.31 234.19
  C 197.50 228.63 192.35 237.97 187.45 241.48
  Q 168.76 254.84 149.17 242.23
  C 144.92 239.49 141.62 233.43 136.72 232.66
  C 133.19 232.11 129.75 234.42 128.83 237.89
  Q 127.70 242.12 131.24 246.01
  C 151.33 268.14 183.15 269.74 203.49 247.09
  C 207.24 242.91 209.40 238.34 204.31 234.19
  Z
  M 306.09 243.81
  C 324.08 269.28 361.00 269.39 380.72 246.16
  C 383.55 242.82 385.04 239.22 382.18 235.57
  C 375.29 226.78 367.79 239.01 362.60 242.39
  Q 344.50 254.16 326.20 242.63
  C 321.82 239.87 317.77 233.19 312.74 232.59
  C 307.15 231.93 302.51 238.73 306.09 243.81
  Z
  M 325.74 352.67
  C 330.35 343.20 324.29 335.33 314.00 336.98
  Q 258.25 345.95 201.00 337.41
  Q 195.18 336.54 192.86 337.04
  C 186.68 338.40 182.94 344.80 185.65 350.83
  C 209.74 404.33 300.07 405.50 325.74 352.67
  Z"
/>
<g fill="#000000">
<path d="
  M 251.83 0.00
  L 261.80 0.00
  Q 355.08 3.22 424.31 63.19
  Q 429.88 68.01 425.51 74.41
  C 420.64 78.62 416.87 76.51 412.38 72.70
  C 312.78 -11.90 161.15 -2.61 74.87 97.24
  C -4.36 187.51 -4.51 321.20 72.70 412.34
  C 76.51 416.85 78.71 420.81 74.23 425.58
  Q 68.08 429.91 63.31 424.44
  Q 3.44 355.64 0.00 262.41
  L 0.00 250.22
  C 4.48 112.30 112.97 3.05 251.83 0.00
  Z"
/>
<path d="
  M 512.00 250.08
  L 512.00 260.55
  C 508.04 399.26 400.10 508.06 260.93 512.00
  L 252.18 512.00
  Q 157.65 509.52 87.56 448.69
  Q 82.20 444.04 86.41 437.75
  Q 92.01 432.82 98.03 437.97
  C 188.31 515.25 317.78 516.75 409.78 441.26
  Q 412.32 439.17 414.91 437.24
  C 513.81 348.17 524.93 201.86 439.32 99.60
  C 435.50 95.04 433.33 91.42 437.62 86.48
  Q 443.92 82.15 448.44 87.31
  Q 508.72 156.23 512.00 250.08
  Z"
/>
<rect x="-49.14" y="-7.49" transform="translate(159.81,187.83) rotate(-16.8)" width="98.28" height="14.98" rx="7.38"/>
<rect x="-49.15" y="-7.49" transform="translate(352.25,187.83) rotate(16.8)" width="98.30" height="14.98" rx="7.38"/>
<path d="
  M 204.31 234.19
  C 209.40 238.34 207.24 242.91 203.49 247.09
  C 183.15 269.74 151.33 268.14 131.24 246.01
  Q 127.70 242.12 128.83 237.89
  C 129.75 234.42 133.19 232.11 136.72 232.66
  C 141.62 233.43 144.92 239.49 149.17 242.23
  Q 168.76 254.84 187.45 241.48
  C 192.35 237.97 197.50 228.63 204.31 234.19
  Z"
/>
<path d="
  M 380.72 246.16
  C 361.00 269.39 324.08 269.28 306.09 243.81
  C 302.51 238.73 307.15 231.93 312.74 232.59
  C 317.77 233.19 321.82 239.87 326.20 242.63
  Q 344.50 254.16 362.60 242.39
  C 367.79 239.01 375.29 226.78 382.18 235.57
  C 385.04 239.22 383.55 242.82 380.72 246.16
  Z"
/>
<path d="
  M 314.00 336.98
  C 324.29 335.33 330.35 343.20 325.74 352.67
  C 300.07 405.50 209.74 404.33 185.65 350.83
  C 182.94 344.80 186.68 338.40 192.86 337.04
  Q 195.18 336.54 201.00 337.41
  Q 258.25 345.95 314.00 336.98
  Z
  M 209.35 359.15
  C 235.51 383.75 284.29 382.67 307.37 354.19
  Q 308.36 352.96 306.80 353.16
  Q 256.07 359.71 205.36 353.12
  Q 204.13 352.96 204.83 353.98
  Q 206.55 356.52 209.35 359.15
  Z"
/>
</g>
<path fill="#9c6846" d="
  M 209.35 359.15
  Q 206.55 356.52 204.83 353.98
  Q 204.13 352.96 205.36 353.12
  Q 256.07 359.71 306.80 353.16
  Q 308.36 352.96 307.37 354.19
  C 284.29 382.67 235.51 383.75 209.35 359.15
  Z"
/>
<path fill="#ffd164" d="
  M 74.87 97.24
  Q 72.54 103.97 69.49 110.25
  Q 63.88 121.79 63.41 122.89
  C 6.67 256.93 77.03 411.15 214.50 456.02
  C 280.02 477.41 351.71 470.57 412.14 437.30
  C 412.99 436.83 414.00 437.04 414.91 437.24
  Q 412.32 439.17 409.78 441.26
  C 317.78 516.75 188.31 515.25 98.03 437.97
  Q 92.01 432.82 86.41 437.75
  L 74.23 425.58
  C 78.71 420.81 76.51 416.85 72.70 412.34
  C -4.51 321.20 -4.36 187.51 74.87 97.24
  Z"
/>
</svg>
