<?xml version="1.0" encoding="UTF-8" standalone="no"?>
<!DOCTYPE svg PUBLIC "-//W3C//DTD SVG 1.1//EN" "http://www.w3.org/Graphics/SVG/1.1/DTD/svg11.dtd">
<svg xmlns="http://www.w3.org/2000/svg" version="1.1" viewBox="0.00 0.00 512.00 512.00">
<g stroke-width="2.00" fill="none" stroke-linecap="butt">
<path stroke="#80713f" vector-effect="non-scaling-stroke" d="
  M 425.51 74.41
  C 420.64 78.62 416.87 76.51 412.38 72.70
  C 312.82 -11.88 161.12 -2.63 74.87 97.24"
/>
<path stroke="#806932" vector-effect="non-scaling-stroke" d="
  M 74.87 97.24
  C -4.37 187.50 -4.51 321.20 72.70 412.34
  C 76.51 416.85 78.71 420.81 74.23 425.58"
/>
<path stroke="#80713f" vector-effect="non-scaling-stroke" d="
  M 437.61 86.48
  C 433.33 91.42 435.50 95.04 439.32 99.60
  C 524.93 201.86 513.81 348.17 414.91 437.25"
/>
<path stroke="#ffd971" vector-effect="non-scaling-stroke" d="
  M 414.91 437.25
  C 413.97 437.01 413.03 436.84 412.13 437.34
  C 331.04 481.73 233.04 478.15 155.91 427.71
  C 55.92 362.32 16.69 234.39 63.12 123.62
  Q 63.68 122.28 69.33 110.58
  Q 72.44 104.13 74.87 97.24"
/>
<path stroke="#80713f" vector-effect="non-scaling-stroke" d="
  M 141.14 147.65
  C 105.03 136.02 71.60 171.79 86.94 206.97
  C 98.49 233.47 132.76 249.32 158.76 257.23
  C 172.39 261.37 181.17 262.19 190.06 250.54
  Q 207.19 228.08 216.51 206.01
  C 227.05 181.06 227.44 148.79 200.38 133.80
  C 180.93 123.02 156.17 128.84 143.28 146.94
  A 1.91 1.91 0.0 0 1 141.14 147.65"
/>
<path stroke="#80713f" vector-effect="non-scaling-stroke" d="
  M 324.20 253.30
  C 331.64 262.35 341.86 260.62 352.25 257.50
  C 379.42 249.34 416.96 232.38 426.60 202.91
  C 438.22 167.38 404.72 137.11 370.27 147.79
  A 0.90 0.90 0.0 0 1 369.26 147.45
  C 356.84 130.08 333.75 123.11 313.94 132.68
  C 284.40 146.93 284.76 180.73 295.87 206.70
  Q 306.71 232.02 324.20 253.30"
/>
<path stroke="#80713f" vector-effect="non-scaling-stroke" d="
  M 399.65 309.68
  C 398.74 298.99 389.05 295.54 379.71 297.47
  Q 256.39 322.99 133.08 297.66
  Q 126.56 296.33 123.37 296.98
  C 114.97 298.72 110.53 307.77 113.00 315.75
  C 129.51 368.95 173.85 411.18 228.74 421.26
  C 303.55 434.99 373.48 390.63 397.69 319.60
  Q 399.93 313.01 399.65 309.68"
/>
<path stroke="#806932" vector-effect="non-scaling-stroke" d="
  M 86.41 437.75
  Q 92.01 432.82 98.03 437.97
  C 188.32 515.25 317.78 516.75 409.78 441.26
  Q 412.32 439.17 414.91 437.25"
/>
<path stroke="#6e232b" vector-effect="non-scaling-stroke" d="
  M 111.57 165.00
  C 97.51 174.26 94.03 192.41 103.44 206.31
  C 116.83 226.07 145.22 237.95 167.56 244.12
  C 171.31 245.15 173.93 246.17 176.51 243.50
  Q 180.15 239.73 186.07 230.49"
/>
<path stroke="#733237" vector-effect="non-scaling-stroke" d="
  M 186.07 230.49
  Q 198.34 213.32 205.22 193.25
  C 211.04 176.31 209.87 154.57 191.37 146.09
  Q 176.52 139.28 162.27 148.90
  C 157.13 152.36 154.33 158.29 148.93 161.04
  C 142.68 164.23 135.57 161.33 130.45 160.62
  Q 120.48 159.23 111.57 165.00"
/>
<path stroke="#e15562" vector-effect="non-scaling-stroke" d="
  M 186.07 230.49
  C 156.21 221.31 111.55 203.22 111.57 165.00"
/>
<path stroke="#6e232b" vector-effect="non-scaling-stroke" d="
  M 331.92 143.40
  C 316.75 144.54 306.43 154.16 304.22 169.09
  C 300.75 192.67 318.75 221.93 332.72 239.99
  C 335.10 243.06 336.86 245.66 340.24 245.30
  Q 343.65 244.94 354.48 240.88"
/>
<path stroke="#733237" vector-effect="non-scaling-stroke" d="
  M 354.48 240.88
  Q 374.36 234.64 392.18 222.60
  C 404.19 214.49 415.41 201.36 413.74 185.76
  C 412.19 171.28 399.66 160.88 385.36 160.47
  C 376.00 160.20 369.34 165.68 360.77 159.60
  C 356.90 156.86 354.22 152.34 350.63 149.56
  Q 342.42 143.19 331.92 143.40"
/>
<path stroke="#e15562" vector-effect="non-scaling-stroke" d="
  M 354.48 240.88
  Q 340.55 222.94 331.17 202.79
  C 322.27 183.70 318.69 161.60 331.92 143.40"
/>
<path stroke="#4e3423" vector-effect="non-scaling-stroke" d="
  M 141.41 342.65
  C 195.07 430.94 316.97 430.33 370.53 342.66"
/>
<path stroke="#3f2823" vector-effect="non-scaling-stroke" d="
  M 370.53 342.66
  Q 379.17 328.58 384.21 312.42
  Q 384.41 311.80 383.77 311.92
  C 369.92 314.62 355.46 317.44 342.18 319.28
  Q 254.06 331.48 166.01 318.72
  C 154.43 317.04 140.74 314.28 128.11 311.96
  Q 127.49 311.85 127.69 312.44
  Q 133.05 329.01 141.41 342.65"
/>
<path stroke="#8d5c46" vector-effect="non-scaling-stroke" d="
  M 370.53 342.66
  C 294.31 354.66 218.29 355.17 141.41 342.65"
/>
</g>
<path fill="#ffe17d" d="
  M 425.51 74.41
  L 437.61 86.48
  C 433.33 91.42 435.50 95.04 439.32 99.60
  C 524.93 201.86 513.81 348.17 414.91 437.25
  C 413.97 437.01 413.03 436.84 412.13 437.34
  C 331.04 481.73 233.04 478.15 155.91 427.71
  C 55.92 362.32 16.69 234.39 63.12 123.62
  Q 63.68 122.28 69.33 110.58
  Q 72.44 104.13 74.87 97.24
  C 161.12 -2.63 312.82 -11.88 412.38 72.70
  C 416.87 76.51 420.64 78.62 425.51 74.41
  Z
  M 141.14 147.65
  C 105.03 136.02 71.60 171.79 86.94 206.97
  C 98.49 233.47 132.76 249.32 158.76 257.23
  C 172.39 261.37 181.17 262.19 190.06 250.54
  Q 207.19 228.08 216.51 206.01
  C 227.05 181.06 227.44 148.79 200.38 133.80
  C 180.93 123.02 156.17 128.84 143.28 146.94
  A 1.91 1.91 0.0 0 1 141.14 147.65
  Z
  M 324.20 253.30
  C 331.64 262.35 341.86 260.62 352.25 257.50
  C 379.42 249.34 416.96 232.38 426.60 202.91
  C 438.22 167.38 404.72 137.11 370.27 147.79
  A 0.90 0.90 0.0 0 1 369.26 147.45
  C 356.84 130.08 333.75 123.11 313.94 132.68
  C 284.40 146.93 284.76 180.73 295.87 206.70
  Q 306.71 232.02 324.20 253.30
  Z
  M 399.65 309.68
  C 398.74 298.99 389.05 295.54 379.71 297.47
  Q 256.39 322.99 133.08 297.66
  Q 126.56 296.33 123.37 296.98
  C 114.97 298.72 110.53 307.77 113.00 315.75
  C 129.51 368.95 173.85 411.18 228.74 421.26
  C 303.55 434.99 373.48 390.63 397.69 319.60
  Q 399.93 313.01 399.65 309.68
  Z"
/>
<g fill="#000000">
<path d="
  M 251.83 0.00
  L 261.80 0.00
  Q 355.08 3.22 424.31 63.19
  Q 429.88 68.01 425.51 74.41
  C 420.64 78.62 416.87 76.51 412.38 72.70
  C 312.82 -11.88 161.12 -2.63 74.87 97.24
  C -4.37 187.50 -4.51 321.20 72.70 412.34
  C 76.51 416.85 78.71 420.81 74.23 425.58
  Q 68.08 429.91 63.31 424.44
  Q 3.44 355.64 0.00 262.41
  L 0.00 250.22
  C 4.48 112.30 112.97 3.05 251.83 0.00
  Z"
/>
<path d="
  M 512.00 250.08
  L 512.00 260.55
  C 508.04 399.26 400.10 508.06 260.93 512.00
  L 252.18 512.00
  Q 157.65 509.52 87.56 448.69
  Q 82.20 444.04 86.41 437.75
  Q 92.01 432.82 98.03 437.97
  C 188.32 515.25 317.78 516.75 409.78 441.26
  Q 412.32 439.17 414.91 437.25
  C 513.81 348.17 524.93 201.86 439.32 99.60
  C 435.50 95.04 433.33 91.42 437.61 86.48
  Q 443.92 82.15 448.44 87.31
  Q 508.72 156.22 512.00 250.08
  Z"
/>
<path d="
  M 141.14 147.65
  A 1.91 1.91 0.0 0 0 143.28 146.94
  C 156.17 128.84 180.93 123.02 200.38 133.80
  C 227.44 148.79 227.05 181.06 216.51 206.01
  Q 207.19 228.08 190.06 250.54
  C 181.17 262.19 172.39 261.37 158.76 257.23
  C 132.76 249.32 98.49 233.47 86.94 206.97
  C 71.60 171.79 105.03 136.02 141.14 147.65
  Z
  M 111.57 165.00
  C 97.51 174.26 94.03 192.41 103.44 206.31
  C 116.83 226.07 145.22 237.95 167.56 244.12
  C 171.31 245.15 173.93 246.17 176.51 243.50
  Q 180.15 239.73 186.07 230.49
  Q 198.34 213.32 205.22 193.25
  C 211.04 176.31 209.87 154.57 191.37 146.09
  Q 176.52 139.28 162.27 148.90
  C 157.13 152.36 154.33 158.29 148.93 161.04
  C 142.68 164.23 135.57 161.33 130.45 160.62
  Q 120.48 159.23 111.57 165.00
  Z"
/>
<path d="
  M 352.25 257.50
  C 341.86 260.62 331.64 262.35 324.20 253.30
  Q 306.71 232.02 295.87 206.70
  C 284.76 180.73 284.40 146.93 313.94 132.68
  C 333.75 123.11 356.84 130.08 369.26 147.45
  A 0.90 0.90 0.0 0 0 370.27 147.79
  C 404.72 137.11 438.22 167.38 426.60 202.91
  C 416.96 232.38 379.42 249.34 352.25 257.50
  Z
  M 331.92 143.40
  C 316.75 144.54 306.43 154.16 304.22 169.09
  C 300.75 192.67 318.75 221.93 332.72 239.99
  C 335.10 243.06 336.86 245.66 340.24 245.30
  Q 343.65 244.94 354.48 240.88
  Q 374.36 234.64 392.18 222.60
  C 404.19 214.49 415.41 201.36 413.74 185.76
  C 412.19 171.28 399.66 160.88 385.36 160.47
  C 376.00 160.20 369.34 165.68 360.77 159.60
  C 356.90 156.86 354.22 152.34 350.63 149.56
  Q 342.42 143.19 331.92 143.40
  Z"
/>
<path d="
  M 379.71 297.47
  C 389.05 295.54 398.74 298.99 399.65 309.68
  Q 399.93 313.01 397.69 319.60
  C 373.48 390.63 303.55 434.99 228.74 421.26
  C 173.85 411.18 129.51 368.95 113.00 315.75
  C 110.53 307.77 114.97 298.72 123.37 296.98
  Q 126.56 296.33 133.08 297.66
  Q 256.39 322.99 379.71 297.47
  Z
  M 141.41 342.65
  C 195.07 430.94 316.97 430.33 370.53 342.66
  Q 379.17 328.58 384.21 312.42
  Q 384.41 311.80 383.77 311.92
  C 369.92 314.62 355.46 317.44 342.18 319.28
  Q 254.06 331.48 166.01 318.72
  C 154.43 317.04 140.74 314.28 128.11 311.96
  Q 127.49 311.85 127.69 312.44
  Q 133.05 329.01 141.41 342.65
  Z"
/>
</g>
<path fill="#9c6846" d="
  M 370.53 342.66
  C 316.97 430.33 195.07 430.94 141.41 342.65
  C 218.29 355.17 294.31 354.66 370.53 342.66
  Z"
/>
<g fill="#e6646e">
<path d="
  M 186.07 230.49
  C 156.21 221.31 111.55 203.22 111.57 165.00
  Q 120.48 159.23 130.45 160.62
  C 135.57 161.33 142.68 164.23 148.93 161.04
  C 154.33 158.29 157.13 152.36 162.27 148.90
  Q 176.52 139.28 191.37 146.09
  C 209.87 154.57 211.04 176.31 205.22 193.25
  Q 198.34 213.32 186.07 230.49
  Z"
/>
<path d="
  M 354.48 240.88
  Q 340.55 222.94 331.17 202.79
  C 322.27 183.70 318.69 161.60 331.92 143.40
  Q 342.42 143.19 350.63 149.56
  C 354.22 152.34 356.90 156.86 360.77 159.60
  C 369.34 165.68 376.00 160.20 385.36 160.47
  C 399.66 160.88 412.19 171.28 413.74 185.76
  C 415.41 201.36 404.19 214.49 392.18 222.60
  Q 374.36 234.64 354.48 240.88
  Z"
/>
</g>
<path fill="#7d5046" d="
  M 370.53 342.66
  C 294.31 354.66 218.29 355.17 141.41 342.65
  Q 133.05 329.01 127.69 312.44
  Q 127.49 311.85 128.11 311.96
  C 140.74 314.28 154.43 317.04 166.01 318.72
  Q 254.06 331.48 342.18 319.28
  C 355.46 317.44 369.92 314.62 383.77 311.92
  Q 384.41 311.80 384.21 312.42
  Q 379.17 328.58 370.53 342.66
  Z"
/>
<path fill="#ffd164" d="
  M 74.87 97.24
  Q 72.44 104.13 69.33 110.58
  Q 63.68 122.28 63.12 123.62
  C 16.69 234.39 55.92 362.32 155.91 427.71
  C 233.04 478.15 331.04 481.73 412.13 437.34
  C 413.03 436.84 413.97 437.01 414.91 437.25
  Q 412.32 439.17 409.78 441.26
  C 317.78 516.75 188.32 515.25 98.03 437.97
  Q 92.01 432.82 86.41 437.75
  L 74.23 425.58
  C 78.71 420.81 76.51 416.85 72.70 412.34
  C -4.51 321.20 -4.37 187.50 74.87 97.24
  Z"
/>
<g fill="#dc4655">
<path d="
  M 331.92 143.40
  C 318.69 161.60 322.27 183.70 331.17 202.79
  Q 340.55 222.94 354.48 240.88
  Q 343.65 244.94 340.24 245.30
  C 336.86 245.66 335.10 243.06 332.72 239.99
  C 318.75 221.93 300.75 192.67 304.22 169.09
  C 306.43 154.16 316.75 144.54 331.92 143.40
  Z"
/>
<path d="
  M 111.57 165.00
  C 111.55 203.22 156.21 221.31 186.07 230.49
  Q 180.15 239.73 176.51 243.50
  C 173.93 246.17 171.31 245.15 167.56 244.12
  C 145.22 237.95 116.83 226.07 103.44 206.31
  C 94.03 192.41 97.51 174.26 111.57 165.00
  Z"
/>
</g>
</svg>
