<?xml version="1.0" encoding="UTF-8" standalone="no"?>
<!DOCTYPE svg PUBLIC "-//W3C//DTD SVG 1.1//EN" "http://www.w3.org/Graphics/SVG/1.1/DTD/svg11.dtd">
<svg xmlns="http://www.w3.org/2000/svg" version="1.1" viewBox="0.00 0.00 512.00 512.00">
<g stroke-width="2.00" fill="none" stroke-linecap="butt">
<path stroke="#3d373d" vector-effect="non-scaling-stroke" d="
  M 239.51 138.51
  Q 238.55 146.02 230.99 146.01
  Q 218.97 145.98 206.95 146.02
  C 199.22 146.05 197.33 155.23 195.20 162.27
  Q 195.06 162.74 195.55 162.74
  L 321.44 162.73"
/>
<path stroke="#342f34" vector-effect="non-scaling-stroke" d="
  M 321.44 162.73
  L 350.32 162.70
  Q 350.91 162.70 350.73 162.14
  C 349.18 157.25 346.43 146.04 340.25 146.02
  Q 327.86 145.98 315.52 146.00"
/>
<path stroke="#3d373d" vector-effect="non-scaling-stroke" d="
  M 315.52 146.00
  Q 291.86 146.00 268.25 146.01
  Q 260.56 146.01 259.41 138.49"
/>
<path stroke="#807a6f" vector-effect="non-scaling-stroke" d="
  M 55.74 348.99
  Q 55.72 349.14 55.75 349.27
  Q 55.79 349.42 55.94 349.44
  Q 63.09 350.63 63.16 358.01
  Q 63.24 367.51 63.27 376.98"
/>
<path stroke="#807361" vector-effect="non-scaling-stroke" d="
  M 63.27 376.98
  L 63.27 397.26
  Q 63.28 397.75 63.76 397.75
  L 242.50 397.75
  Q 243.00 397.75 243.00 397.25
  L 243.00 309.26
  Q 243.00 308.77 242.51 308.77
  L 213.07 308.76"
/>
<path stroke="#807a6f" vector-effect="non-scaling-stroke" d="
  M 213.07 308.76
  L 63.78 308.76
  Q 63.25 308.76 63.25 309.29
  C 63.25 316.07 65.78 328.10 55.97 329.53
  Q 55.78 329.56 55.75 329.75
  Q 55.73 329.88 55.73 330.02"
/>
<path stroke="#52281f" vector-effect="non-scaling-stroke" d="
  M 325.52 268.86
  C 324.94 274.52 321.52 276.25 316.02 276.25
  Q 227.96 276.25 139.84 276.25
  Q 139.21 276.25 139.05 276.86
  L 134.96 293.17
  Q 134.82 293.74 135.41 293.74
  Q 190.08 293.76 244.75 293.75
  C 255.83 293.74 258.29 302.03 257.98 311.38
  Q 257.96 311.95 258.54 311.96
  C 266.88 312.12 276.89 311.29 284.10 312.69
  C 322.72 320.23 324.63 374.44 286.88 384.32
  C 278.70 386.47 267.66 385.45 258.50 385.52
  A 0.50 0.50 0.0 0 0 258.00 386.02
  L 258.00 397.24
  A 0.50 0.50 0.0 0 0 258.50 397.74
  L 402.18 397.74"
/>
<path stroke="#442017" vector-effect="non-scaling-stroke" d="
  M 402.18 397.74
  L 431.23 397.73
  Q 431.72 397.73 431.77 397.24
  Q 437.87 336.09 421.75 276.91
  Q 421.60 276.36 421.03 276.36
  L 392.33 276.45"
/>
<path stroke="#52281f" vector-effect="non-scaling-stroke" d="
  M 392.33 276.45
  Q 373.69 276.24 354.77 276.20
  C 349.31 276.18 345.92 274.40 345.47 268.76"
/>
<path stroke="#6a797b" vector-effect="non-scaling-stroke" d="
  M 345.47 268.76
  Q 346.54 261.26 355.75 261.25
  Q 371.90 261.24 387.55 261.27"
/>
<path stroke="#537478" vector-effect="non-scaling-stroke" d="
  M 387.55 261.27
  L 416.11 261.24
  Q 416.62 261.24 416.46 260.76
  Q 401.25 214.31 368.47 178.18
  Q 368.11 177.79 367.58 177.79
  L 341.24 177.77"
/>
<path stroke="#6a797b" vector-effect="non-scaling-stroke" d="
  M 341.24 177.77
  L 123.26 177.76
  Q 122.75 177.76 122.75 178.26
  L 122.75 191.76
  Q 122.75 192.29 123.22 192.52
  Q 135.21 198.37 147.16 204.34
  C 157.02 209.27 162.50 217.89 157.30 228.96
  Q 150.07 244.34 144.22 260.46
  Q 143.93 261.25 144.78 261.25
  Q 230.88 261.24 317.44 261.26
  Q 324.73 261.26 325.52 268.86"
/>
<path stroke="#bdedf3" vector-effect="non-scaling-stroke" d="
  M 341.24 177.77
  Q 372.47 214.94 387.55 261.27"
/>
<path stroke="#bca19a" vector-effect="non-scaling-stroke" d="
  M 345.47 268.76
  L 325.52 268.86"
/>
<path stroke="#964736" vector-effect="non-scaling-stroke" d="
  M 392.33 276.45
  Q 408.07 336.17 402.18 397.74"
/>
<path stroke="#342f34" vector-effect="non-scaling-stroke" d="
  M 469.11 198.75
  Q 476.99 202.26 477.00 211.25
  Q 477.01 262.16 476.99 313.07
  C 476.98 320.90 475.79 325.42 468.96 328.97"
/>
<path stroke="#3d373d" vector-effect="non-scaling-stroke" d="
  M 468.96 328.97
  L 447.51 329.41
  A 0.60 0.59 -2.8 0 0 446.93 330.04
  L 448.25 349.01
  Q 448.28 349.49 448.76 349.49
  L 469.11 349.50"
/>
<path stroke="#342f34" vector-effect="non-scaling-stroke" d="
  M 469.11 349.50
  C 480.98 349.66 492.00 341.88 495.50 330.81
  Q 497.01 326.04 497.01 311.53
  Q 497.01 261.72 496.98 211.91
  Q 496.98 200.92 495.45 196.38
  C 491.72 185.29 481.15 177.95 469.31 177.78"
/>
<path stroke="#3d373d" vector-effect="non-scaling-stroke" d="
  M 469.31 177.78
  L 388.77 177.78
  Q 388.28 177.78 388.57 178.17
  L 402.69 197.34
  Q 402.98 197.73 403.45 197.73
  Q 433.74 197.77 464.00 197.81
  Q 466.17 197.81 469.11 198.75"
/>
<path stroke="#716671" vector-effect="non-scaling-stroke" d="
  M 469.31 177.78
  Q 469.92 188.11 469.11 198.75"
/>
<path stroke="#716671" vector-effect="non-scaling-stroke" d="
  M 469.11 349.50
  Q 470.14 338.92 468.96 328.97"
/>
<path stroke="#52281f" vector-effect="non-scaling-stroke" d="
  M 258.04 327.65
  L 257.96 369.85
  A 0.69 0.69 0.0 0 0 258.65 370.55
  L 277.28 370.58
  A 21.96 21.68 0.1 0 0 299.28 348.94
  L 299.28 348.72
  A 21.96 21.68 0.1 0 0 277.36 327.00
  L 258.73 326.97
  A 0.69 0.69 0.0 0 0 258.04 327.65"
/>
<path stroke="#7f6952" vector-effect="non-scaling-stroke" d="
  M 14.97 413.54
  C 15.19 422.34 21.44 428.98 30.25 428.98
  Q 151.07 429.00 271.88 429.00
  Q 279.07 429.00 282.41 427.58
  Q 290.82 424.00 291.30 413.31
  Q 291.33 412.75 290.77 412.75
  L 15.74 412.75
  A 0.77 0.77 0.0 0 0 14.97 413.54"
/>
<path stroke="#342f34" vector-effect="non-scaling-stroke" d="
  M 397.93 428.98
  L 425.13 428.98
  A 2.37 2.37 0.0 0 0 427.47 427.01
  L 429.84 413.34
  Q 429.94 412.77 429.36 412.77
  L 400.35 412.76"
/>
<path stroke="#3d373d" vector-effect="non-scaling-stroke" d="
  M 400.35 412.76
  L 306.73 412.76
  Q 306.22 412.76 306.23 413.28
  Q 306.42 421.34 302.57 428.35
  A 0.43 0.43 0.0 0 0 302.95 428.98
  L 397.93 428.98"
/>
<path stroke="#716671" vector-effect="non-scaling-stroke" d="
  M 400.35 412.76
  L 397.93 428.98"
/>
<path stroke="#716671" vector-effect="non-scaling-stroke" d="
  M 315.52 146.00
  L 321.44 162.73"
/>
<path stroke="#ffecd0" vector-effect="non-scaling-stroke" d="
  M 213.07 308.76
  Q 212.94 333.39 213.01 357.94
  C 213.08 377.69 201.46 376.95 185.56 376.86
  Q 134.34 376.57 63.27 376.98"
/>
</g>
<g fill="#000000">
<path d="
  M 75.00 213.04
  C 88.11 213.07 99.76 221.57 103.32 234.16
  C 104.70 239.05 106.04 262.71 103.18 267.44
  C 100.61 271.67 94.69 272.20 91.31 268.30
  C 88.27 264.80 89.49 252.34 89.50 247.53
  C 89.53 233.69 85.52 228.02 71.39 228.01
  Q 62.57 227.99 53.75 227.98
  C 9.35 227.91 -11.85 174.25 21.05 144.30
  Q 34.44 132.12 53.75 132.07
  Q 85.00 131.99 116.25 132.01
  Q 125.77 132.01 130.09 130.56
  C 152.00 123.21 151.65 91.75 129.69 84.38
  Q 125.63 83.02 118.03 83.01
  Q 94.74 82.98 71.45 83.01
  Q 67.12 83.01 64.97 81.70
  C 58.07 77.45 62.09 67.98 69.96 68.00
  Q 90.36 68.04 110.74 67.97
  Q 125.15 67.92 130.67 69.12
  C 170.52 77.76 171.99 135.40 131.53 145.65
  Q 126.07 147.03 115.38 147.02
  Q 88.32 146.99 61.27 146.99
  Q 48.48 146.99 43.37 148.55
  C 11.54 158.23 12.77 203.83 45.29 212.02
  C 53.84 214.18 65.87 213.02 75.00 213.04
  Z"
/>
<path d="
  M 239.51 138.51
  Q 238.55 146.02 230.99 146.01
  Q 218.97 145.98 206.95 146.02
  C 199.22 146.05 197.33 155.23 195.20 162.27
  Q 195.06 162.74 195.55 162.74
  L 321.44 162.73
  L 350.32 162.70
  Q 350.91 162.70 350.73 162.14
  C 349.18 157.25 346.43 146.04 340.25 146.02
  Q 327.86 145.98 315.52 146.00
  Q 291.86 146.00 268.25 146.01
  Q 260.56 146.01 259.41 138.49
  C 260.02 132.57 263.64 131.00 269.32 131.00
  Q 301.75 131.01 334.17 130.99
  C 343.57 130.99 349.92 131.69 355.96 138.15
  C 361.09 143.64 364.18 154.65 366.90 162.24
  Q 367.08 162.74 367.61 162.74
  Q 417.84 162.78 467.99 162.71
  C 491.93 162.67 510.60 179.87 512.00 203.82
  L 512.00 324.33
  Q 509.15 350.89 485.76 361.25
  C 474.60 366.20 460.64 364.47 449.02 364.51
  A 0.53 0.53 0.0 0 0 448.49 365.04
  Q 448.32 395.04 443.16 424.58
  C 440.58 439.35 435.17 444.00 419.90 444.00
  Q 227.68 443.99 35.48 444.01
  Q 26.43 444.01 21.67 442.64
  Q 3.00 437.27 0.00 415.96
  L 0.00 409.19
  C 1.52 400.09 7.35 397.77 16.05 397.76
  Q 31.88 397.74 47.50 397.76
  A 0.75 0.75 0.0 0 0 48.25 397.01
  Q 48.24 377.97 48.26 358.77
  C 48.27 353.76 49.73 350.42 54.85 349.64
  Q 55.19 349.58 55.43 349.33
  L 55.74 348.99
  Q 55.72 349.14 55.75 349.27
  Q 55.79 349.42 55.94 349.44
  Q 63.09 350.63 63.16 358.01
  Q 63.24 367.51 63.27 376.98
  L 63.27 397.26
  Q 63.28 397.75 63.76 397.75
  L 242.50 397.75
  Q 243.00 397.75 243.00 397.25
  L 243.00 309.26
  Q 243.00 308.77 242.51 308.77
  L 213.07 308.76
  L 63.78 308.76
  Q 63.25 308.76 63.25 309.29
  C 63.25 316.07 65.78 328.10 55.97 329.53
  Q 55.78 329.56 55.75 329.75
  Q 55.73 329.88 55.73 330.02
  L 55.51 329.73
  Q 55.24 329.36 54.80 329.30
  C 49.70 328.54 48.30 325.18 48.27 320.23
  C 48.19 304.96 45.80 293.72 65.40 293.74
  Q 92.22 293.77 119.03 293.74
  A 0.70 0.70 0.0 0 0 119.71 293.19
  Q 127.39 256.17 144.03 222.24
  A 2.49 2.48 -63.9 0 0 142.90 218.91
  Q 129.79 212.49 116.31 205.76
  C 110.65 202.93 107.80 199.68 107.77 193.38
  C 107.75 186.98 106.44 175.04 109.13 169.61
  C 112.29 163.23 117.82 162.74 124.93 162.74
  Q 151.59 162.76 178.34 162.75
  Q 178.76 162.75 178.91 162.35
  C 183.18 151.03 185.94 137.14 198.60 132.48
  Q 202.52 131.03 210.72 131.01
  Q 221.11 130.99 231.51 130.99
  Q 238.73 130.99 239.51 138.51
  Z
  M 325.52 268.86
  C 324.94 274.52 321.52 276.25 316.02 276.25
  Q 227.96 276.25 139.84 276.25
  Q 139.21 276.25 139.05 276.86
  L 134.96 293.17
  Q 134.82 293.74 135.41 293.74
  Q 190.08 293.76 244.75 293.75
  C 255.83 293.74 258.29 302.03 257.98 311.38
  Q 257.96 311.95 258.54 311.96
  C 266.88 312.12 276.89 311.29 284.10 312.69
  C 322.72 320.23 324.63 374.44 286.88 384.32
  C 278.70 386.47 267.66 385.45 258.50 385.52
  A 0.50 0.50 0.0 0 0 258.00 386.02
  L 258.00 397.24
  A 0.50 0.50 0.0 0 0 258.50 397.74
  L 402.18 397.74
  L 431.23 397.73
  Q 431.72 397.73 431.77 397.24
  Q 437.87 336.09 421.75 276.91
  Q 421.60 276.36 421.03 276.36
  L 392.33 276.45
  Q 373.69 276.24 354.77 276.20
  C 349.31 276.18 345.92 274.40 345.47 268.76
  Q 346.54 261.26 355.75 261.25
  Q 371.90 261.24 387.55 261.27
  L 416.11 261.24
  Q 416.62 261.24 416.46 260.76
  Q 401.25 214.31 368.47 178.18
  Q 368.11 177.79 367.58 177.79
  L 341.24 177.77
  L 123.26 177.76
  Q 122.75 177.76 122.75 178.26
  L 122.75 191.76
  Q 122.75 192.29 123.22 192.52
  Q 135.21 198.37 147.16 204.34
  C 157.02 209.27 162.50 217.89 157.30 228.96
  Q 150.07 244.34 144.22 260.46
  Q 143.93 261.25 144.78 261.25
  Q 230.88 261.24 317.44 261.26
  Q 324.73 261.26 325.52 268.86
  Z
  M 469.11 198.75
  Q 476.99 202.26 477.00 211.25
  Q 477.01 262.16 476.99 313.07
  C 476.98 320.90 475.79 325.42 468.96 328.97
  L 447.51 329.41
  A 0.60 0.59 -2.8 0 0 446.93 330.04
  L 448.25 349.01
  Q 448.28 349.49 448.76 349.49
  L 469.11 349.50
  C 480.98 349.66 492.00 341.88 495.50 330.81
  Q 497.01 326.04 497.01 311.53
  Q 497.01 261.72 496.98 211.91
  Q 496.98 200.92 495.45 196.38
  C 491.72 185.29 481.15 177.95 469.31 177.78
  L 388.77 177.78
  Q 388.28 177.78 388.57 178.17
  L 402.69 197.34
  Q 402.98 197.73 403.45 197.73
  Q 433.74 197.77 464.00 197.81
  Q 466.17 197.81 469.11 198.75
  Z
  M 461.45 314.53
  A 0.55 0.55 0.0 0 0 462.00 313.98
  L 462.00 213.25
  A 0.50 0.50 0.0 0 0 461.50 212.75
  L 412.74 212.75
  A 0.52 0.52 0.0 0 0 412.28 213.51
  Q 437.35 260.68 444.69 313.68
  A 0.98 0.97 85.9 0 0 445.65 314.52
  L 461.45 314.53
  Z
  M 258.04 327.65
  L 257.96 369.85
  A 0.69 0.69 0.0 0 0 258.65 370.55
  L 277.28 370.58
  A 21.96 21.68 0.1 0 0 299.28 348.94
  L 299.28 348.72
  A 21.96 21.68 0.1 0 0 277.36 327.00
  L 258.73 326.97
  A 0.69 0.69 0.0 0 0 258.04 327.65
  Z
  M 14.97 413.54
  C 15.19 422.34 21.44 428.98 30.25 428.98
  Q 151.07 429.00 271.88 429.00
  Q 279.07 429.00 282.41 427.58
  Q 290.82 424.00 291.30 413.31
  Q 291.33 412.75 290.77 412.75
  L 15.74 412.75
  A 0.77 0.77 0.0 0 0 14.97 413.54
  Z
  M 397.93 428.98
  L 425.13 428.98
  A 2.37 2.37 0.0 0 0 427.47 427.01
  L 429.84 413.34
  Q 429.94 412.77 429.36 412.77
  L 400.35 412.76
  L 306.73 412.76
  Q 306.22 412.76 306.23 413.28
  Q 306.42 421.34 302.57 428.35
  A 0.43 0.43 0.0 0 0 302.95 428.98
  L 397.93 428.98
  Z"
/>
</g>
<path fill="#d4f2f6" d="
  M 341.24 177.77
  Q 372.47 214.94 387.55 261.27
  Q 371.90 261.24 355.75 261.25
  Q 346.54 261.26 345.47 268.76
  L 325.52 268.86
  Q 324.73 261.26 317.44 261.26
  Q 230.88 261.24 144.78 261.25
  Q 143.93 261.25 144.22 260.46
  Q 150.07 244.34 157.30 228.96
  C 162.50 217.89 157.02 209.27 147.16 204.34
  Q 135.21 198.37 123.22 192.52
  Q 122.75 192.29 122.75 191.76
  L 122.75 178.26
  Q 122.75 177.76 123.26 177.76
  L 341.24 177.77
  Z"
/>
<g fill="#a44f3e">
<path d="
  M 345.47 268.76
  C 345.92 274.40 349.31 276.18 354.77 276.20
  Q 373.69 276.24 392.33 276.45
  Q 408.07 336.17 402.18 397.74
  L 258.50 397.74
  A 0.50 0.50 0.0 0 1 258.00 397.24
  L 258.00 386.02
  A 0.50 0.50 0.0 0 1 258.50 385.52
  C 267.66 385.45 278.70 386.47 286.88 384.32
  C 324.63 374.44 322.72 320.23 284.10 312.69
  C 276.89 311.29 266.88 312.12 258.54 311.96
  Q 257.96 311.95 257.98 311.38
  C 258.29 302.03 255.83 293.74 244.75 293.75
  Q 190.08 293.76 135.41 293.74
  Q 134.82 293.74 134.96 293.17
  L 139.05 276.86
  Q 139.21 276.25 139.84 276.25
  Q 227.96 276.25 316.02 276.25
  C 321.52 276.25 324.94 274.52 325.52 268.86
  L 345.47 268.76
  Z"
/>
<path d="
  M 258.04 327.65
  A 0.69 0.69 0.0 0 1 258.73 326.97
  L 277.36 327.00
  A 21.96 21.68 0.1 0 1 299.28 348.72
  L 299.28 348.94
  A 21.96 21.68 0.1 0 1 277.28 370.58
  L 258.65 370.55
  A 0.69 0.69 0.0 0 1 257.96 369.85
  L 258.04 327.65
  Z"
/>
</g>
<path fill="#fff3de" d="
  M 213.07 308.76
  Q 212.94 333.39 213.01 357.94
  C 213.08 377.69 201.46 376.95 185.56 376.86
  Q 134.34 376.57 63.27 376.98
  Q 63.24 367.51 63.16 358.01
  Q 63.09 350.63 55.94 349.44
  Q 55.79 349.42 55.75 349.27
  Q 55.72 349.14 55.74 348.99
  L 55.73 330.02
  Q 55.73 329.88 55.75 329.75
  Q 55.78 329.56 55.97 329.53
  C 65.78 328.10 63.25 316.07 63.25 309.29
  Q 63.25 308.76 63.78 308.76
  L 213.07 308.76
  Z"
/>
<g fill="#7a6d79">
<path d="
  M 239.51 138.51
  L 259.41 138.49
  Q 260.56 146.01 268.25 146.01
  Q 291.86 146.00 315.52 146.00
  L 321.44 162.73
  L 195.55 162.74
  Q 195.06 162.74 195.20 162.27
  C 197.33 155.23 199.22 146.05 206.95 146.02
  Q 218.97 145.98 230.99 146.01
  Q 238.55 146.02 239.51 138.51
  Z"
/>
<path d="
  M 469.31 177.78
  Q 469.92 188.11 469.11 198.75
  Q 466.17 197.81 464.00 197.81
  Q 433.74 197.77 403.45 197.73
  Q 402.98 197.73 402.69 197.34
  L 388.57 178.17
  Q 388.28 177.78 388.77 177.78
  L 469.31 177.78
  Z"
/>
<path d="
  M 468.96 328.97
  Q 470.14 338.92 469.11 349.50
  L 448.76 349.49
  Q 448.28 349.49 448.25 349.01
  L 446.93 330.04
  A 0.60 0.59 -2.8 0 1 447.51 329.41
  L 468.96 328.97
  Z"
/>
<path d="
  M 400.35 412.76
  L 397.93 428.98
  L 302.95 428.98
  A 0.43 0.43 0.0 0 1 302.57 428.35
  Q 306.42 421.34 306.23 413.28
  Q 306.22 412.76 306.73 412.76
  L 400.35 412.76
  Z"
/>
</g>
<path fill="#ffe5c2" d="
  M 213.07 308.76
  L 242.51 308.77
  Q 243.00 308.77 243.00 309.26
  L 243.00 397.25
  Q 243.00 397.75 242.50 397.75
  L 63.76 397.75
  Q 63.28 397.75 63.27 397.26
  L 63.27 376.98
  Q 134.34 376.57 185.56 376.86
  C 201.46 376.95 213.08 377.69 213.01 357.94
  Q 212.94 333.39 213.07 308.76
  Z"
/>
<path fill="#883f2e" d="
  M 402.18 397.74
  Q 408.07 336.17 392.33 276.45
  L 421.03 276.36
  Q 421.60 276.36 421.75 276.91
  Q 437.87 336.09 431.77 397.24
  Q 431.72 397.73 431.23 397.73
  L 402.18 397.74
  Z"
/>
<path fill="#fed2a4" d="
  M 30.25 428.98
  C 21.44 428.98 15.19 422.34 14.97 413.54
  A 0.77 0.77 0.0 0 1 15.74 412.75
  L 290.77 412.75
  Q 291.33 412.75 291.30 413.31
  Q 290.82 424.00 282.41 427.58
  Q 279.07 429.00 271.88 429.00
  Q 151.07 429.00 30.25 428.98
  Z"
/>
<path fill="#a6e7f0" d="
  M 341.24 177.77
  L 367.58 177.79
  Q 368.11 177.79 368.47 178.18
  Q 401.25 214.31 416.46 260.76
  Q 416.62 261.24 416.11 261.24
  L 387.55 261.27
  Q 372.47 214.94 341.24 177.77
  Z"
/>
<g fill="#685e68">
<path d="
  M 315.52 146.00
  Q 327.86 145.98 340.25 146.02
  C 346.43 146.04 349.18 157.25 350.73 162.14
  Q 350.91 162.70 350.32 162.70
  L 321.44 162.73
  L 315.52 146.00
  Z"
/>
<path d="
  M 469.31 177.78
  C 481.15 177.95 491.72 185.29 495.45 196.38
  Q 496.98 200.92 496.98 211.91
  Q 497.01 261.72 497.01 311.53
  Q 497.01 326.04 495.50 330.81
  C 492.00 341.88 480.98 349.66 469.11 349.50
  Q 470.14 338.92 468.96 328.97
  C 475.79 325.42 476.98 320.90 476.99 313.07
  Q 477.01 262.16 477.00 211.25
  Q 476.99 202.26 469.11 198.75
  Q 469.92 188.11 469.31 177.78
  Z"
/>
<path d="
  M 400.35 412.76
  L 429.36 412.77
  Q 429.94 412.77 429.84 413.34
  L 427.47 427.01
  A 2.37 2.37 0.0 0 1 425.13 428.98
  L 397.93 428.98
  L 400.35 412.76
  Z"
/>
</g>
</svg>
