<?xml version="1.0" encoding="UTF-8" standalone="no"?>
<!DOCTYPE svg PUBLIC "-//W3C//DTD SVG 1.1//EN" "http://www.w3.org/Graphics/SVG/1.1/DTD/svg11.dtd">
<svg xmlns="http://www.w3.org/2000/svg" version="1.1" viewBox="0.00 0.00 512.00 512.00">
<g stroke-width="2.00" fill="none" stroke-linecap="butt">
<path stroke="#6a797b" vector-effect="non-scaling-stroke" d="
  M 285.54 219.46
  Q 284.57 227.01 277.74 227.01
  Q 186.72 226.98 95.66 227.01
  Q 95.11 227.01 95.25 227.54
  L 101.26 249.22
  Q 101.41 249.74 101.96 249.74
  L 375.34 249.74"
/>
<path stroke="#537478" vector-effect="non-scaling-stroke" d="
  M 375.34 249.74
  L 404.43 249.73
  Q 404.91 249.73 405.05 249.26
  L 411.10 227.59
  Q 411.25 227.05 410.69 227.05
  L 381.34 227.02"
/>
<path stroke="#6a797b" vector-effect="non-scaling-stroke" d="
  M 381.34 227.02
  Q 348.09 226.99 315.63 227.00
  C 310.03 227.00 306.30 225.57 305.52 219.74
  Q 305.48 219.43 304.98 219.48"
/>
<path stroke="#6a797b" vector-effect="non-scaling-stroke" d="
  M 429.44 362.03
  C 430.25 351.90 441.31 354.87 447.98 353.86
  C 473.75 349.96 490.76 325.04 485.05 299.71
  C 480.25 278.45 461.73 264.84 440.24 264.79
  Q 423.19 264.75 416.91 264.74
  Q 416.39 264.74 416.25 265.24
  L 411.66 281.61
  Q 411.48 282.27 412.16 282.27
  Q 425.50 282.21 438.91 282.27
  Q 446.32 282.30 450.28 283.69
  C 475.59 292.59 474.51 328.24 448.82 335.79
  Q 444.37 337.10 435.53 337.04
  Q 416.22 336.90 396.82 337.04
  A 0.72 0.72 0.0 0 0 396.14 337.56
  L 391.62 353.84
  Q 391.45 354.47 392.09 354.48
  C 398.34 354.58 408.94 352.28 409.47 362.02"
/>
<path stroke="#6a797b" vector-effect="non-scaling-stroke" d="
  M 84.25 440.95
  Q 83.55 440.93 83.50 441.26
  C 82.83 446.49 79.48 448.25 74.33 448.24
  Q 50.63 448.22 26.70 448.27
  Q 26.11 448.27 26.24 448.84
  Q 29.81 464.56 40.35 475.05"
/>
<path stroke="#537478" vector-effect="non-scaling-stroke" d="
  M 40.35 475.05
  Q 61.76 497.01 91.00 497.01
  Q 249.50 496.99 408.00 497.01
  Q 421.47 497.01 427.92 495.85
  C 451.40 491.64 475.28 473.66 479.97 448.81
  Q 480.07 448.27 479.53 448.27
  L 432.42 448.28"
/>
<path stroke="#6a797b" vector-effect="non-scaling-stroke" d="
  M 432.42 448.28
  Q 272.20 448.23 113.01 448.25
  C 107.48 448.25 103.98 446.50 103.45 440.78"
/>
<path stroke="#754e2c" vector-effect="non-scaling-stroke" d="
  M 390.66 300.25
  A 0.32 0.32 0.0 0 0 390.97 300.02
  L 400.67 265.16
  A 0.32 0.32 0.0 0 0 400.36 264.75
  L 105.98 264.75
  A 0.32 0.32 0.0 0 0 105.67 265.16
  L 115.35 300.02
  A 0.32 0.32 0.0 0 0 115.66 300.25
  L 390.66 300.25"
/>
<path stroke="#442017" vector-effect="non-scaling-stroke" d="
  M 146.20 411.02
  L 152.24 432.84
  Q 152.35 433.25 152.78 433.25
  L 353.53 433.25
  A 0.62 0.61 -81.8 0 0 354.12 432.80
  L 386.60 315.81
  Q 386.75 315.28 386.19 315.28
  L 356.90 315.27"
/>
<path stroke="#52281f" vector-effect="non-scaling-stroke" d="
  M 356.90 315.27
  L 120.29 315.28
  Q 119.69 315.28 119.85 315.85
  L 146.20 411.02"
/>
<path stroke="#964736" vector-effect="non-scaling-stroke" d="
  M 356.90 315.27
  Q 345.39 357.31 333.67 398.98
  Q 330.28 411.00 318.50 411.00
  Q 232.46 410.99 146.20 411.02"
/>
<path stroke="#bdedf3" vector-effect="non-scaling-stroke" d="
  M 381.34 227.02
  L 375.34 249.74"
/>
<path stroke="#bdedf3" vector-effect="non-scaling-stroke" d="
  M 432.42 448.28
  Q 413.16 469.73 385.22 473.90
  C 379.05 474.82 371.87 474.70 365.25 474.71
  Q 227.09 474.80 88.94 474.70
  Q 56.50 474.68 40.35 475.05"
/>
</g>
<g fill="#000000">
<path d="
  M 221.06 0.00
  L 302.83 0.00
  C 338.12 3.31 353.29 44.23 327.18 68.71
  C 318.20 77.14 307.85 78.74 294.61 78.74
  Q 189.05 78.76 83.50 78.75
  C 57.60 78.74 51.06 115.02 75.51 123.29
  Q 79.86 124.76 89.65 124.76
  Q 137.07 124.74 184.50 124.79
  C 202.29 124.81 218.51 136.62 222.89 154.01
  C 225.21 163.22 224.29 176.76 224.23 187.57
  Q 224.20 191.00 223.32 192.63
  C 220.64 197.58 213.60 197.95 210.62 193.34
  Q 209.27 191.26 209.26 186.74
  C 209.22 169.98 213.27 147.89 192.40 141.07
  Q 188.27 139.73 180.45 139.73
  Q 132.22 139.76 84.00 139.49
  Q 62.68 139.37 51.30 122.44
  C 37.38 101.74 48.23 71.96 72.69 65.22
  Q 77.96 63.77 91.08 63.76
  Q 194.23 63.73 297.38 63.76
  Q 304.48 63.76 308.45 62.44
  C 330.87 54.95 330.72 23.01 308.07 16.10
  Q 304.57 15.03 297.18 15.02
  Q 259.12 14.98 221.06 15.00
  C 218.75 15.00 215.73 12.18 215.07 9.77
  Q 213.11 2.53 221.06 0.00
  Z"
/>
<path d="
  M 393.19 67.44
  C 394.27 64.68 398.02 63.78 401.05 63.77
  Q 424.91 63.72 448.75 63.75
  C 473.33 63.79 491.80 85.55 486.55 110.01
  C 483.67 123.40 472.89 134.73 459.60 138.32
  Q 454.45 139.71 441.64 139.73
  Q 384.98 139.79 328.31 139.73
  Q 320.80 139.72 316.83 141.07
  C 305.39 144.95 301.22 154.31 301.25 165.74
  Q 301.28 176.20 301.22 186.66
  Q 301.20 190.78 300.40 192.57
  C 298.22 197.43 290.34 197.86 287.64 193.56
  Q 286.28 191.39 286.27 186.52
  C 286.24 175.95 285.27 162.46 287.40 153.59
  C 290.63 140.11 301.68 129.03 315.37 125.77
  Q 319.58 124.78 328.33 124.77
  Q 386.73 124.73 445.12 124.76
  Q 452.58 124.76 456.59 123.43
  C 477.64 116.45 477.68 86.92 456.65 80.10
  Q 452.36 78.70 443.71 78.72
  Q 423.05 78.77 402.39 78.76
  C 395.19 78.75 389.96 75.63 393.19 67.44
  Z"
/>
<path d="
  M 285.54 219.46
  Q 284.57 227.01 277.74 227.01
  Q 186.72 226.98 95.66 227.01
  Q 95.11 227.01 95.25 227.54
  L 101.26 249.22
  Q 101.41 249.74 101.96 249.74
  L 375.34 249.74
  L 404.43 249.73
  Q 404.91 249.73 405.05 249.26
  L 411.10 227.59
  Q 411.25 227.05 410.69 227.05
  L 381.34 227.02
  Q 348.09 226.99 315.63 227.00
  C 310.03 227.00 306.30 225.57 305.52 219.74
  Q 305.48 219.43 304.98 219.48
  L 305.22 219.28
  Q 305.51 219.05 305.57 218.69
  C 306.43 213.35 309.97 212.01 315.16 212.01
  Q 363.18 212.00 411.19 212.00
  Q 417.16 212.00 420.06 213.38
  C 426.52 216.48 427.93 222.82 426.09 229.51
  Q 423.39 239.34 420.66 249.15
  Q 420.50 249.74 421.11 249.74
  C 431.39 249.76 443.23 249.11 452.23 250.78
  C 498.96 259.48 517.54 316.84 484.27 351.09
  Q 466.53 369.34 438.74 369.41
  Q 430.56 369.43 429.44 362.03
  C 430.25 351.90 441.31 354.87 447.98 353.86
  C 473.75 349.96 490.76 325.04 485.05 299.71
  C 480.25 278.45 461.73 264.84 440.24 264.79
  Q 423.19 264.75 416.91 264.74
  Q 416.39 264.74 416.25 265.24
  L 411.66 281.61
  Q 411.48 282.27 412.16 282.27
  Q 425.50 282.21 438.91 282.27
  Q 446.32 282.30 450.28 283.69
  C 475.59 292.59 474.51 328.24 448.82 335.79
  Q 444.37 337.10 435.53 337.04
  Q 416.22 336.90 396.82 337.04
  A 0.72 0.72 0.0 0 0 396.14 337.56
  L 391.62 353.84
  Q 391.45 354.47 392.09 354.48
  C 398.34 354.58 408.94 352.28 409.47 362.02
  C 408.61 371.88 394.72 369.77 388.00 369.37
  Q 387.30 369.33 387.12 370.01
  L 369.76 432.53
  Q 369.55 433.27 370.32 433.27
  Q 425.13 433.22 480.24 433.27
  C 507.43 433.30 491.16 467.34 483.71 477.44
  Q 460.41 509.01 419.95 512.00
  L 86.20 512.00
  C 51.13 509.04 16.78 485.51 11.09 449.06
  C 10.08 442.54 12.51 436.76 18.65 434.35
  Q 21.37 433.28 28.10 433.27
  Q 63.42 433.19 75.00 433.26
  Q 82.22 433.31 83.51 440.32
  Q 83.58 440.66 83.91 440.73
  Q 84.20 440.79 84.25 440.95
  Q 83.55 440.93 83.50 441.26
  C 82.83 446.49 79.48 448.25 74.33 448.24
  Q 50.63 448.22 26.70 448.27
  Q 26.11 448.27 26.24 448.84
  Q 29.81 464.56 40.35 475.05
  Q 61.76 497.01 91.00 497.01
  Q 249.50 496.99 408.00 497.01
  Q 421.47 497.01 427.92 495.85
  C 451.40 491.64 475.28 473.66 479.97 448.81
  Q 480.07 448.27 479.53 448.27
  L 432.42 448.28
  Q 272.20 448.23 113.01 448.25
  C 107.48 448.25 103.98 446.50 103.45 440.78
  Q 104.48 433.22 111.99 433.24
  Q 123.63 433.26 135.91 433.28
  Q 136.79 433.28 136.56 432.43
  Q 108.73 332.27 80.78 231.60
  Q 79.10 225.53 79.64 222.23
  C 80.91 214.47 87.05 212.00 94.47 212.00
  Q 185.48 212.00 276.50 212.00
  Q 284.56 212.00 285.54 219.46
  Z
  M 390.66 300.25
  A 0.32 0.32 0.0 0 0 390.97 300.02
  L 400.67 265.16
  A 0.32 0.32 0.0 0 0 400.36 264.75
  L 105.98 264.75
  A 0.32 0.32 0.0 0 0 105.67 265.16
  L 115.35 300.02
  A 0.32 0.32 0.0 0 0 115.66 300.25
  L 390.66 300.25
  Z
  M 448.31 299.45
  Q 445.31 297.26 442.49 297.26
  Q 425.19 297.23 407.83 297.26
  Q 407.32 297.26 407.18 297.76
  L 400.59 321.51
  A 0.38 0.38 0.0 0 0 400.96 321.99
  Q 419.66 322.02 438.40 321.98
  Q 444.07 321.97 446.79 320.73
  C 455.51 316.72 456.05 305.11 448.31 299.45
  Z
  M 146.20 411.02
  L 152.24 432.84
  Q 152.35 433.25 152.78 433.25
  L 353.53 433.25
  A 0.62 0.61 -81.8 0 0 354.12 432.80
  L 386.60 315.81
  Q 386.75 315.28 386.19 315.28
  L 356.90 315.27
  L 120.29 315.28
  Q 119.69 315.28 119.85 315.85
  L 146.20 411.02
  Z"
/>
</g>
<g fill="#d4f2f6">
<path d="
  M 304.98 219.48
  Q 305.48 219.43 305.52 219.74
  C 306.30 225.57 310.03 227.00 315.63 227.00
  Q 348.09 226.99 381.34 227.02
  L 375.34 249.74
  L 101.96 249.74
  Q 101.41 249.74 101.26 249.22
  L 95.25 227.54
  Q 95.11 227.01 95.66 227.01
  Q 186.72 226.98 277.74 227.01
  Q 284.57 227.01 285.54 219.46
  L 304.98 219.48
  Z"
/>
<path d="
  M 429.44 362.03
  L 409.47 362.02
  C 408.94 352.28 398.34 354.58 392.09 354.48
  Q 391.45 354.47 391.62 353.84
  L 396.14 337.56
  A 0.72 0.72 0.0 0 1 396.82 337.04
  Q 416.22 336.90 435.53 337.04
  Q 444.37 337.10 448.82 335.79
  C 474.51 328.24 475.59 292.59 450.28 283.69
  Q 446.32 282.30 438.91 282.27
  Q 425.50 282.21 412.16 282.27
  Q 411.48 282.27 411.66 281.61
  L 416.25 265.24
  Q 416.39 264.74 416.91 264.74
  Q 423.19 264.75 440.24 264.79
  C 461.73 264.84 480.25 278.45 485.05 299.71
  C 490.76 325.04 473.75 349.96 447.98 353.86
  C 441.31 354.87 430.25 351.90 429.44 362.03
  Z"
/>
<path d="
  M 103.45 440.78
  C 103.98 446.50 107.48 448.25 113.01 448.25
  Q 272.20 448.23 432.42 448.28
  Q 413.16 469.73 385.22 473.90
  C 379.05 474.82 371.87 474.70 365.25 474.71
  Q 227.09 474.80 88.94 474.70
  Q 56.50 474.68 40.35 475.05
  Q 29.81 464.56 26.24 448.84
  Q 26.11 448.27 26.70 448.27
  Q 50.63 448.22 74.33 448.24
  C 79.48 448.25 82.83 446.49 83.50 441.26
  Q 83.55 440.93 84.25 440.95
  L 103.45 440.78
  Z"
/>
</g>
<path fill="#a44f3e" d="
  M 356.90 315.27
  Q 345.39 357.31 333.67 398.98
  Q 330.28 411.00 318.50 411.00
  Q 232.46 410.99 146.20 411.02
  L 119.85 315.85
  Q 119.69 315.28 120.29 315.28
  L 356.90 315.27
  Z"
/>
<path fill="#ea9b58" d="
  M 390.66 300.25
  L 115.66 300.25
  A 0.32 0.32 0.0 0 1 115.35 300.02
  L 105.67 265.16
  A 0.32 0.32 0.0 0 1 105.98 264.75
  L 400.36 264.75
  A 0.32 0.32 0.0 0 1 400.67 265.16
  L 390.97 300.02
  A 0.32 0.32 0.0 0 1 390.66 300.25
  Z"
/>
<g fill="#a6e7f0">
<path d="
  M 381.34 227.02
  L 410.69 227.05
  Q 411.25 227.05 411.10 227.59
  L 405.05 249.26
  Q 404.91 249.73 404.43 249.73
  L 375.34 249.74
  L 381.34 227.02
  Z"
/>
<path d="
  M 432.42 448.28
  L 479.53 448.27
  Q 480.07 448.27 479.97 448.81
  C 475.28 473.66 451.40 491.64 427.92 495.85
  Q 421.47 497.01 408.00 497.01
  Q 249.50 496.99 91.00 497.01
  Q 61.76 497.01 40.35 475.05
  Q 56.50 474.68 88.94 474.70
  Q 227.09 474.80 365.25 474.71
  C 371.87 474.70 379.05 474.82 385.22 473.90
  Q 413.16 469.73 432.42 448.28
  Z"
/>
</g>
<path fill="#883f2e" d="
  M 356.90 315.27
  L 386.19 315.28
  Q 386.75 315.28 386.60 315.81
  L 354.12 432.80
  A 0.62 0.61 -81.8 0 1 353.53 433.25
  L 152.78 433.25
  Q 152.35 433.25 152.24 432.84
  L 146.20 411.02
  Q 232.46 410.99 318.50 411.00
  Q 330.28 411.00 333.67 398.98
  Q 345.39 357.31 356.90 315.27
  Z"
/>
</svg>
