<?xml version="1.0" encoding="UTF-8" standalone="no"?>
<!DOCTYPE svg PUBLIC "-//W3C//DTD SVG 1.1//EN" "http://www.w3.org/Graphics/SVG/1.1/DTD/svg11.dtd">
<svg xmlns="http://www.w3.org/2000/svg" version="1.1" viewBox="0.00 0.00 512.00 512.00">
<g stroke-width="2.00" fill="none" stroke-linecap="butt">
<path stroke="#807a6f" vector-effect="non-scaling-stroke" d="
  M 249.06 201.42
  C 248.65 207.12 245.02 209.12 239.50 209.14
  Q 173.02 209.36 107.07 209.22
  A 2.31 2.31 0.0 0 0 104.75 211.53
  Q 104.75 296.62 104.74 382.44
  Q 104.74 389.77 97.00 390.56"
/>
<path stroke="#807a6f" vector-effect="non-scaling-stroke" d="
  M 97.01 410.49
  Q 104.82 411.22 104.76 418.76
  C 104.59 437.99 104.43 452.24 113.87 468.27"
/>
<path stroke="#807361" vector-effect="non-scaling-stroke" d="
  M 113.87 468.27
  C 119.01 476.99 124.79 482.63 132.38 490.04
  C 136.74 494.29 140.52 496.99 146.25 497.00
  Q 224.96 497.01 303.67 496.99
  C 310.46 496.99 314.91 495.94 319.46 491.45
  C 333.98 477.14 344.63 465.01 347.70 444.21
  Q 348.49 438.85 348.49 424.24
  Q 348.51 317.91 348.49 211.74
  A 2.48 2.47 90.0 0 0 346.02 209.26
  L 311.26 209.26"
/>
<path stroke="#807a6f" vector-effect="non-scaling-stroke" d="
  M 311.26 209.26
  Q 294.50 209.29 277.76 208.98
  C 272.73 208.89 269.67 207.15 269.00 202.06
  A 0.68 0.68 0.0 0 0 268.56 201.52
  Q 268.41 201.47 268.24 201.47"
/>
<path stroke="#7f6952" vector-effect="non-scaling-stroke" d="
  M 426.24 349.46
  Q 433.89 350.42 433.79 357.73
  C 433.69 364.66 434.38 372.94 432.86 379.02
  Q 429.15 393.81 414.83 398.03
  Q 410.35 399.34 401.56 399.29
  Q 382.79 399.17 363.99 399.28
  Q 363.50 399.28 363.50 399.77
  L 363.50 420.73
  Q 363.50 421.23 364.00 421.23
  Q 381.34 421.30 398.68 421.24
  Q 412.95 421.19 418.58 419.88
  C 435.80 415.90 449.65 402.12 454.09 385.09
  Q 455.53 379.58 455.62 369.26
  Q 455.95 330.10 455.76 290.94
  C 455.65 268.66 441.12 248.93 419.63 243.51
  Q 413.77 242.03 401.23 241.97
  Q 382.69 241.87 364.09 241.69
  Q 363.50 241.68 363.50 242.27
  L 363.50 263.22
  Q 363.50 263.70 363.98 263.71
  Q 384.62 263.78 405.25 263.92
  C 417.96 264.01 428.59 269.70 432.34 281.93
  C 435.22 291.34 433.73 307.08 433.76 318.15
  C 433.78 324.34 432.95 328.69 426.24 329.56"
/>
<path stroke="#ffecd0" vector-effect="non-scaling-stroke" d="
  M 311.26 209.26
  Q 311.25 322.94 311.24 436.54
  C 311.24 449.87 306.89 462.31 293.59 466.71
  Q 288.91 468.26 277.24 468.25
  Q 195.75 468.24 113.87 468.27"
/>
<path stroke="#807a6f" vector-effect="non-scaling-stroke" d="
  M 226.5700 380.9400
  A 49.40 45.14 90.0 0 0 271.7100 331.5400
  A 49.40 45.14 90.0 0 0 226.5700 282.1400
  A 49.40 45.14 90.0 0 0 181.4300 331.5400
  A 49.40 45.14 90.0 0 0 226.5700 380.9400"
/>
<path stroke="#807a6f" vector-effect="non-scaling-stroke" d="
  M 299.65 400.44
  C 300.76 395.27 295.29 390.25 290.13 391.96
  Q 288.43 392.52 285.43 395.34
  C 252.01 426.71 201.08 426.46 167.69 395.35
  Q 164.47 392.35 162.42 391.81
  C 157.31 390.44 151.98 396.06 153.61 401.01
  Q 154.38 403.35 157.70 406.45
  C 197.39 443.47 256.92 442.56 296.14 405.77
  Q 299.10 402.99 299.65 400.44"
/>
<path stroke="#52281f" vector-effect="non-scaling-stroke" d="
  M 198.46 343.66
  C 200.94 351.68 207.10 359.89 215.21 363.44
  Q 215.94 363.76 215.72 363.00
  C 212.49 351.68 210.13 343.07 216.54 333.06
  C 220.88 326.27 227.85 324.08 225.44 314.77
  Q 223.34 306.64 221.11 298.13
  A 0.55 0.54 75.1 0 0 220.45 297.74
  C 200.52 303.26 192.61 324.75 198.46 343.66"
/>
<path stroke="#442017" vector-effect="non-scaling-stroke" d="
  M 232.71 365.27
  C 262.44 357.20 265.00 311.74 237.70 299.52
  Q 236.98 299.19 237.18 299.96
  C 240.37 312.35 243.73 321.53 236.41 332.93
  C 232.97 338.26 226.09 341.11 227.55 349.26
  Q 228.34 353.74 232.05 364.92
  Q 232.21 365.41 232.71 365.27"
/>
</g>
<path fill="#fff3de" d="
  M 249.06 201.42
  L 268.24 201.47
  Q 268.41 201.47 268.56 201.52
  A 0.68 0.68 0.0 0 1 269.00 202.06
  C 269.67 207.15 272.73 208.89 277.76 208.98
  Q 294.50 209.29 311.26 209.26
  Q 311.25 322.94 311.24 436.54
  C 311.24 449.87 306.89 462.31 293.59 466.71
  Q 288.91 468.26 277.24 468.25
  Q 195.75 468.24 113.87 468.27
  C 104.43 452.24 104.59 437.99 104.76 418.76
  Q 104.82 411.22 97.01 410.49
  L 97.00 390.56
  Q 104.74 389.77 104.74 382.44
  Q 104.75 296.62 104.75 211.53
  A 2.31 2.31 0.0 0 1 107.07 209.22
  Q 173.02 209.36 239.50 209.14
  C 245.02 209.12 248.65 207.12 249.06 201.42
  Z
  M 226.5700 380.9400
  A 49.40 45.14 90.0 0 0 271.7100 331.5400
  A 49.40 45.14 90.0 0 0 226.5700 282.1400
  A 49.40 45.14 90.0 0 0 181.4300 331.5400
  A 49.40 45.14 90.0 0 0 226.5700 380.9400
  Z
  M 299.65 400.44
  C 300.76 395.27 295.29 390.25 290.13 391.96
  Q 288.43 392.52 285.43 395.34
  C 252.01 426.71 201.08 426.46 167.69 395.35
  Q 164.47 392.35 162.42 391.81
  C 157.31 390.44 151.98 396.06 153.61 401.01
  Q 154.38 403.35 157.70 406.45
  C 197.39 443.47 256.92 442.56 296.14 405.77
  Q 299.10 402.99 299.65 400.44
  Z"
/>
<g fill="#000000">
<path d="
  M 195.32 0.00
  L 266.81 0.00
  C 312.77 4.47 309.68 70.48 263.00 70.49
  Q 171.19 70.51 79.39 70.50
  Q 71.72 70.50 68.28 71.82
  C 51.40 78.30 53.05 102.82 70.24 107.68
  Q 73.07 108.48 79.48 108.48
  Q 117.08 108.52 154.68 108.49
  Q 168.65 108.49 173.68 109.90
  C 184.89 113.06 194.21 122.34 197.54 133.59
  C 199.95 141.74 199.04 153.74 198.99 163.26
  Q 198.97 167.64 197.83 169.50
  C 194.68 174.61 186.90 173.76 184.72 168.33
  Q 184.04 166.63 184.02 162.44
  C 183.97 148.85 187.39 130.92 170.83 124.83
  Q 167.15 123.48 159.98 123.49
  Q 118.24 123.52 76.51 123.35
  C 35.90 123.19 27.98 67.53 66.64 56.76
  Q 71.26 55.48 79.01 55.48
  Q 168.03 55.51 257.06 55.50
  Q 267.99 55.50 272.25 53.94
  C 289.34 47.67 289.08 22.13 271.20 16.11
  Q 267.89 15.00 260.67 15.00
  Q 229.41 15.01 198.16 14.99
  C 186.89 14.98 185.22 2.15 195.32 0.00
  Z"
/>
<path d="
  M 265.44 168.25
  C 262.63 176.06 251.10 173.58 251.03 164.76
  Q 250.95 154.01 250.95 143.25
  C 250.96 128.19 260.48 114.26 275.11 109.95
  Q 279.91 108.53 289.67 108.52
  Q 337.83 108.47 385.99 108.51
  Q 397.16 108.52 401.31 106.94
  C 416.64 101.11 417.00 76.97 400.24 71.51
  Q 397.13 70.50 389.63 70.50
  Q 371.49 70.50 353.35 70.50
  Q 349.46 70.50 347.75 69.83
  C 339.52 66.57 342.53 55.53 351.55 55.52
  Q 369.27 55.49 386.98 55.49
  Q 398.82 55.49 403.87 57.01
  C 437.19 67.00 435.10 115.13 401.18 122.59
  Q 397.21 123.47 387.64 123.48
  Q 338.08 123.53 288.52 123.49
  C 262.21 123.46 265.99 144.16 265.99 162.71
  Q 265.99 166.70 265.44 168.25
  Z"
/>
<path d="
  M 249.06 201.42
  C 248.65 207.12 245.02 209.12 239.50 209.14
  Q 173.02 209.36 107.07 209.22
  A 2.31 2.31 0.0 0 0 104.75 211.53
  Q 104.75 296.62 104.74 382.44
  Q 104.74 389.77 97.00 390.56
  C 91.46 389.83 89.75 386.49 89.75 381.05
  Q 89.75 297.89 89.75 214.76
  C 89.75 205.97 92.01 199.18 100.21 195.73
  Q 103.61 194.31 110.51 194.25
  Q 175.17 193.72 239.83 194.34
  C 245.24 194.39 248.27 195.93 249.06 201.42
  Z"
/>
<path d="
  M 308.18 512.00
  L 144.70 512.00
  Q 132.61 510.98 124.00 502.76
  C 106.04 485.61 93.90 470.44 90.46 445.48
  C 89.41 437.84 89.71 428.63 89.75 420.25
  C 89.77 414.70 91.18 411.12 97.01 410.49
  Q 104.82 411.22 104.76 418.76
  C 104.59 437.99 104.43 452.24 113.87 468.27
  C 119.01 476.99 124.79 482.63 132.38 490.04
  C 136.74 494.29 140.52 496.99 146.25 497.00
  Q 224.96 497.01 303.67 496.99
  C 310.46 496.99 314.91 495.94 319.46 491.45
  C 333.98 477.14 344.63 465.01 347.70 444.21
  Q 348.49 438.85 348.49 424.24
  Q 348.51 317.91 348.49 211.74
  A 2.48 2.47 90.0 0 0 346.02 209.26
  L 311.26 209.26
  Q 294.50 209.29 277.76 208.98
  C 272.73 208.89 269.67 207.15 269.00 202.06
  A 0.68 0.68 0.0 0 0 268.56 201.52
  Q 268.41 201.47 268.24 201.47
  L 268.71 201.13
  Q 269.11 200.85 269.21 200.36
  C 270.09 195.96 273.10 194.27 277.59 194.27
  Q 310.43 194.24 343.28 194.24
  Q 349.25 194.24 352.51 195.56
  C 365.73 200.93 363.51 214.40 363.50 226.13
  A 0.75 0.74 89.6 0 0 364.25 226.88
  Q 383.89 226.60 402.25 226.83
  Q 415.44 227.00 422.12 228.57
  C 446.39 234.28 465.28 254.48 469.64 278.88
  Q 470.71 284.87 470.73 298.82
  Q 470.79 335.53 470.68 372.25
  C 470.59 402.62 450.15 428.60 420.34 434.85
  Q 413.84 436.21 400.44 436.24
  Q 382.13 436.28 363.92 436.24
  A 0.54 0.53 1.1 0 0 363.38 436.75
  C 362.31 464.95 348.72 486.17 327.42 504.42
  Q 319.61 511.11 308.18 512.00
  Z
  M 426.24 329.56
  C 419.96 328.82 418.72 325.02 418.74 319.09
  Q 418.77 306.72 418.74 294.34
  C 418.72 285.70 416.47 278.77 406.75 278.76
  Q 385.27 278.74 364.00 278.75
  A 0.51 0.51 0.0 0 0 363.50 279.26
  L 363.50 383.74
  A 0.51 0.50 90.0 0 0 364.00 384.25
  Q 384.33 384.26 404.69 384.24
  C 431.94 384.21 407.94 351.24 426.24 349.46
  Q 433.89 350.42 433.79 357.73
  C 433.69 364.66 434.38 372.94 432.86 379.02
  Q 429.15 393.81 414.83 398.03
  Q 410.35 399.34 401.56 399.29
  Q 382.79 399.17 363.99 399.28
  Q 363.50 399.28 363.50 399.77
  L 363.50 420.73
  Q 363.50 421.23 364.00 421.23
  Q 381.34 421.30 398.68 421.24
  Q 412.95 421.19 418.58 419.88
  C 435.80 415.90 449.65 402.12 454.09 385.09
  Q 455.53 379.58 455.62 369.26
  Q 455.95 330.10 455.76 290.94
  C 455.65 268.66 441.12 248.93 419.63 243.51
  Q 413.77 242.03 401.23 241.97
  Q 382.69 241.87 364.09 241.69
  Q 363.50 241.68 363.50 242.27
  L 363.50 263.22
  Q 363.50 263.70 363.98 263.71
  Q 384.62 263.78 405.25 263.92
  C 417.96 264.01 428.59 269.70 432.34 281.93
  C 435.22 291.34 433.73 307.08 433.76 318.15
  C 433.78 324.34 432.95 328.69 426.24 329.56
  Z"
/>
<path d="
  M 226.5700 380.9400
  A 49.40 45.14 90.0 0 1 181.4300 331.5400
  A 49.40 45.14 90.0 0 1 226.5700 282.1400
  A 49.40 45.14 90.0 0 1 271.7100 331.5400
  A 49.40 45.14 90.0 0 1 226.5700 380.9400
  Z
  M 198.46 343.66
  C 200.94 351.68 207.10 359.89 215.21 363.44
  Q 215.94 363.76 215.72 363.00
  C 212.49 351.68 210.13 343.07 216.54 333.06
  C 220.88 326.27 227.85 324.08 225.44 314.77
  Q 223.34 306.64 221.11 298.13
  A 0.55 0.54 75.1 0 0 220.45 297.74
  C 200.52 303.26 192.61 324.75 198.46 343.66
  Z
  M 232.71 365.27
  C 262.44 357.20 265.00 311.74 237.70 299.52
  Q 236.98 299.19 237.18 299.96
  C 240.37 312.35 243.73 321.53 236.41 332.93
  C 232.97 338.26 226.09 341.11 227.55 349.26
  Q 228.34 353.74 232.05 364.92
  Q 232.21 365.41 232.71 365.27
  Z"
/>
<path d="
  M 290.13 391.96
  C 295.29 390.25 300.76 395.27 299.65 400.44
  Q 299.10 402.99 296.14 405.77
  C 256.92 442.56 197.39 443.47 157.70 406.45
  Q 154.38 403.35 153.61 401.01
  C 151.98 396.06 157.31 390.44 162.42 391.81
  Q 164.47 392.35 167.69 395.35
  C 201.08 426.46 252.01 426.71 285.43 395.34
  Q 288.43 392.52 290.13 391.96
  Z"
/>
</g>
<path fill="#a44f3e" d="
  M 215.21 363.44
  C 207.10 359.89 200.94 351.68 198.46 343.66
  C 192.61 324.75 200.52 303.26 220.45 297.74
  A 0.55 0.54 75.1 0 1 221.11 298.13
  Q 223.34 306.64 225.44 314.77
  C 227.85 324.08 220.88 326.27 216.54 333.06
  C 210.13 343.07 212.49 351.68 215.72 363.00
  Q 215.94 363.76 215.21 363.44
  Z"
/>
<path fill="#ffe5c2" d="
  M 311.26 209.26
  L 346.02 209.26
  A 2.48 2.47 90.0 0 1 348.49 211.74
  Q 348.51 317.91 348.49 424.24
  Q 348.49 438.85 347.70 444.21
  C 344.63 465.01 333.98 477.14 319.46 491.45
  C 314.91 495.94 310.46 496.99 303.67 496.99
  Q 224.96 497.01 146.25 497.00
  C 140.52 496.99 136.74 494.29 132.38 490.04
  C 124.79 482.63 119.01 476.99 113.87 468.27
  Q 195.75 468.24 277.24 468.25
  Q 288.91 468.26 293.59 466.71
  C 306.89 462.31 311.24 449.87 311.24 436.54
  Q 311.25 322.94 311.26 209.26
  Z"
/>
<path fill="#fed2a4" d="
  M 426.24 349.46
  L 426.24 329.56
  C 432.95 328.69 433.78 324.34 433.76 318.15
  C 433.73 307.08 435.22 291.34 432.34 281.93
  C 428.59 269.70 417.96 264.01 405.25 263.92
  Q 384.62 263.78 363.98 263.71
  Q 363.50 263.70 363.50 263.22
  L 363.50 242.27
  Q 363.50 241.68 364.09 241.69
  Q 382.69 241.87 401.23 241.97
  Q 413.77 242.03 419.63 243.51
  C 441.12 248.93 455.65 268.66 455.76 290.94
  Q 455.95 330.10 455.62 369.26
  Q 455.53 379.58 454.09 385.09
  C 449.65 402.12 435.80 415.90 418.58 419.88
  Q 412.95 421.19 398.68 421.24
  Q 381.34 421.30 364.00 421.23
  Q 363.50 421.23 363.50 420.73
  L 363.50 399.77
  Q 363.50 399.28 363.99 399.28
  Q 382.79 399.17 401.56 399.29
  Q 410.35 399.34 414.83 398.03
  Q 429.15 393.81 432.86 379.02
  C 434.38 372.94 433.69 364.66 433.79 357.73
  Q 433.89 350.42 426.24 349.46
  Z"
/>
<path fill="#883f2e" d="
  M 237.70 299.52
  C 265.00 311.74 262.44 357.20 232.71 365.27
  Q 232.21 365.41 232.05 364.92
  Q 228.34 353.74 227.55 349.26
  C 226.09 341.11 232.97 338.26 236.41 332.93
  C 243.73 321.53 240.37 312.35 237.18 299.96
  Q 236.98 299.19 237.70 299.52
  Z"
/>
</svg>
