<?xml version="1.0" encoding="UTF-8" standalone="no"?>
<!DOCTYPE svg PUBLIC "-//W3C//DTD SVG 1.1//EN" "http://www.w3.org/Graphics/SVG/1.1/DTD/svg11.dtd">
<svg xmlns="http://www.w3.org/2000/svg" version="1.1" viewBox="0.00 0.00 512.00 512.00">
<g stroke-width="2.00" fill="none" stroke-linecap="butt">
<path stroke="#3c2a2a" vector-effect="non-scaling-stroke" d="
  M 176.12 63.00
  L 95.76 63.01
  A 0.51 0.50 -0.0 0 0 95.25 63.51
  L 95.25 79.73
  A 0.59 0.59 0.0 0 0 95.85 80.32
  L 176.01 80.03"
/>
<path stroke="#4b352e" vector-effect="non-scaling-stroke" d="
  M 176.01 80.03
  L 416.19 80.01
  Q 416.75 80.01 416.75 79.45
  L 416.75 63.74
  A 0.75 0.75 0.0 0 0 416.00 62.99
  Q 396.55 63.02 377.11 62.98
  C 365.69 62.95 366.31 48.00 377.28 47.99
  Q 390.88 47.96 395.29 48.03
  Q 396.04 48.04 395.70 47.38
  L 387.64 31.47"
/>
<path stroke="#5b4030" vector-effect="non-scaling-stroke" d="
  M 387.64 31.47
  C 384.80 25.08 381.81 15.01 373.75 15.01
  Q 274.76 14.99 175.73 15.00"
/>
<path stroke="#4b352e" vector-effect="non-scaling-stroke" d="
  M 175.73 15.00
  Q 157.14 15.00 138.50 15.05
  C 131.70 15.07 130.56 18.72 127.49 24.81
  Q 121.76 36.17 116.14 47.50
  A 0.35 0.35 0.0 0 0 116.45 48.00
  Q 228.23 47.99 340.15 48.01
  Q 345.14 48.01 347.13 48.82
  C 354.16 51.71 352.19 63.02 344.75 63.01
  Q 260.59 62.99 176.12 63.00"
/>
<path stroke="#a6755d" vector-effect="non-scaling-stroke" d="
  M 175.73 15.00
  C 176.71 26.96 184.08 31.51 194.98 31.51
  Q 291.10 31.52 387.64 31.47"
/>
<path stroke="#875f57" vector-effect="non-scaling-stroke" d="
  M 176.01 80.03
  Q 175.34 71.42 176.12 63.00"
/>
<path stroke="#7a6e5a" vector-effect="non-scaling-stroke" d="
  M 199.87 176.20
  L 396.52 176.17
  Q 397.09 176.17 397.12 175.59
  L 399.77 111.72"
/>
<path stroke="#756450" vector-effect="non-scaling-stroke" d="
  M 399.77 111.72
  L 400.44 95.64
  Q 400.46 95.08 399.90 95.08
  L 112.07 95.05
  Q 111.50 95.05 111.53 95.62
  L 114.87 175.75
  Q 114.89 176.23 115.36 176.23
  L 199.87 176.20"
/>
<path stroke="#efd2a9" vector-effect="non-scaling-stroke" d="
  M 399.77 111.72
  Q 309.17 111.76 218.73 111.76
  C 206.02 111.76 199.88 117.92 199.96 130.64
  Q 200.12 153.44 199.87 176.20"
/>
<path stroke="#756450" vector-effect="non-scaling-stroke" d="
  M 143.29 376.31
  C 142.17 386.15 130.68 383.75 124.05 383.75
  Q 123.53 383.75 123.55 384.28
  Q 124.96 418.24 126.40 452.22
  C 126.70 459.36 127.84 464.97 136.00 464.98
  Q 167.79 465.02 199.87 464.99"
/>
<path stroke="#7a6e5a" vector-effect="non-scaling-stroke" d="
  M 199.87 464.99
  Q 286.25 465.02 372.92 464.99
  C 380.46 464.98 385.14 463.46 385.48 455.24
  Q 386.61 427.77 387.75 400.23"
/>
<path stroke="#756450" vector-effect="non-scaling-stroke" d="
  M 387.75 400.23
  L 388.42 384.26
  Q 388.44 383.75 387.94 383.75
  Q 279.15 383.75 170.38 383.75
  C 164.82 383.74 160.94 382.30 160.38 376.40"
/>
<path stroke="#4b352e" vector-effect="non-scaling-stroke" d="
  M 160.38 376.40
  C 160.60 370.52 164.65 368.76 170.15 368.76
  Q 287.31 368.75 404.52 368.75
  Q 405.08 368.75 405.10 368.19
  L 405.80 352.25"
/>
<path stroke="#5b4030" vector-effect="non-scaling-stroke" d="
  M 405.80 352.25
  L 412.46 192.12
  Q 412.50 191.26 411.63 191.26
  L 200.34 191.25"
/>
<path stroke="#4b352e" vector-effect="non-scaling-stroke" d="
  M 200.34 191.25
  L 100.46 191.26
  A 0.95 0.95 0.0 0 0 99.51 192.25
  L 106.84 367.99
  A 0.80 0.80 0.0 0 0 107.64 368.76
  Q 120.43 368.73 133.36 368.76
  C 139.07 368.78 142.69 370.33 143.29 376.31"
/>
<path stroke="#a6755d" vector-effect="non-scaling-stroke" d="
  M 200.34 191.25
  Q 199.49 200.45 200.09 209.67"
/>
<path stroke="#4b352e" vector-effect="non-scaling-stroke" d="
  M 200.09 209.67
  C 161.11 218.62 150.39 260.89 169.22 292.80
  Q 180.36 311.67 200.22 321.46"
/>
<path stroke="#a6755d" vector-effect="non-scaling-stroke" d="
  M 200.22 321.46
  C 198.92 334.37 203.04 346.27 215.86 350.68
  Q 220.47 352.26 232.82 352.26
  Q 319.20 352.24 405.80 352.25"
/>
<path stroke="#c0997d" vector-effect="non-scaling-stroke" d="
  M 160.38 376.40
  L 143.29 376.31"
/>
<path stroke="#efd2a9" vector-effect="non-scaling-stroke" d="
  M 387.75 400.23
  Q 304.85 400.26 222.05 400.25
  Q 213.58 400.25 210.22 401.50
  C 202.56 404.35 199.90 410.82 199.96 418.86
  Q 200.13 441.89 199.87 464.99"
/>
<path stroke="#5b4030" vector-effect="non-scaling-stroke" d="
  M 200.22 321.46
  C 217.61 329.65 237.49 330.45 254.49 321.00
  Q 254.92 320.76 255.11 321.21
  Q 265.98 347.01 292.67 348.91
  C 322.37 351.02 349.47 325.79 351.54 296.52
  C 353.50 268.65 330.80 247.36 303.33 250.61
  Q 297.87 251.25 296.65 257.03"
/>
<path stroke="#976959" vector-effect="non-scaling-stroke" d="
  M 296.65 257.03
  Q 287.13 259.84 278.38 265.54"
/>
<path stroke="#5b4030" vector-effect="non-scaling-stroke" d="
  M 278.38 265.54
  C 272.60 229.45 235.86 203.11 200.09 209.67"
/>
<path stroke="#3c2a2a" vector-effect="non-scaling-stroke" d="
  M 278.38 265.54
  Q 282.76 289.67 268.24 309.35
  A 1.00 0.99 -31.5 0 0 268.06 310.08
  L 268.59 313.44
  Q 268.71 314.17 269.26 313.69
  Q 283.31 301.32 302.97 290.72
  Q 315.12 284.16 327.17 272.33
  Q 327.54 271.96 327.13 271.64
  Q 317.83 264.52 306.36 265.36
  C 300.66 265.77 296.51 263.35 296.65 257.03"
/>
<path stroke="#7d7564" vector-effect="non-scaling-stroke" d="
  M 199.66 496.99
  L 368.23 496.99
  A 0.52 0.51 0.0 0 0 368.75 496.48
  L 368.75 480.52
  Q 368.75 480.01 368.24 480.01
  L 199.99 480.01"
/>
<path stroke="#7a6e5a" vector-effect="non-scaling-stroke" d="
  M 199.99 480.01
  L 143.75 480.01
  Q 143.25 480.01 143.25 480.51
  L 143.25 496.49
  A 0.50 0.50 0.0 0 0 143.75 496.99
  L 199.66 496.99"
/>
<path stroke="#f7e3bd" vector-effect="non-scaling-stroke" d="
  M 199.99 480.01
  L 199.66 496.99"
/>
<path stroke="#3c2a2a" vector-effect="non-scaling-stroke" d="
  M 263.40 285.67
  C 271.25 250.80 233.50 214.07 198.85 225.61
  Q 198.26 225.81 198.69 226.27
  C 212.70 241.02 220.63 254.40 229.79 270.48
  Q 239.69 287.83 253.86 301.94
  Q 254.21 302.29 254.55 301.93
  Q 261.35 294.74 263.40 285.67"
/>
<path stroke="#3c2a2a" vector-effect="non-scaling-stroke" d="
  M 194.19 299.56
  C 206.67 310.24 224.76 316.57 240.68 310.73
  Q 241.29 310.50 240.84 310.03
  C 226.40 295.03 218.24 280.44 208.42 263.76
  Q 198.96 247.66 185.66 234.34
  Q 185.28 233.97 184.93 234.37
  C 167.10 254.50 175.44 283.52 194.19 299.56"
/>
<path stroke="#3c2a2a" vector-effect="non-scaling-stroke" d="
  M 277.67 328.13
  C 305.32 347.96 342.01 316.16 335.81 285.86
  A 0.44 0.44 0.0 0 0 335.09 285.62
  C 324.42 295.36 313.42 301.85 300.72 309.31
  C 291.89 314.49 284.60 319.96 277.57 326.76
  A 0.90 0.89 -49.4 0 0 277.67 328.13"
/>
</g>
<g fill="#966a5b">
<path d="
  M 175.73 15.00
  C 176.71 26.96 184.08 31.51 194.98 31.51
  Q 291.10 31.52 387.64 31.47
  L 395.70 47.38
  Q 396.04 48.04 395.29 48.03
  Q 390.88 47.96 377.28 47.99
  C 366.31 48.00 365.69 62.95 377.11 62.98
  Q 396.55 63.02 416.00 62.99
  A 0.75 0.75 0.0 0 1 416.75 63.74
  L 416.75 79.45
  Q 416.75 80.01 416.19 80.01
  L 176.01 80.03
  Q 175.34 71.42 176.12 63.00
  Q 260.59 62.99 344.75 63.01
  C 352.19 63.02 354.16 51.71 347.13 48.82
  Q 345.14 48.01 340.15 48.01
  Q 228.23 47.99 116.45 48.00
  A 0.35 0.35 0.0 0 1 116.14 47.50
  Q 121.76 36.17 127.49 24.81
  C 130.56 18.72 131.70 15.07 138.50 15.05
  Q 157.14 15.00 175.73 15.00
  Z"
/>
<path d="
  M 200.34 191.25
  Q 199.49 200.45 200.09 209.67
  C 161.11 218.62 150.39 260.89 169.22 292.80
  Q 180.36 311.67 200.22 321.46
  C 198.92 334.37 203.04 346.27 215.86 350.68
  Q 220.47 352.26 232.82 352.26
  Q 319.20 352.24 405.80 352.25
  L 405.10 368.19
  Q 405.08 368.75 404.52 368.75
  Q 287.31 368.75 170.15 368.76
  C 164.65 368.76 160.60 370.52 160.38 376.40
  L 143.29 376.31
  C 142.69 370.33 139.07 368.78 133.36 368.76
  Q 120.43 368.73 107.64 368.76
  A 0.80 0.80 0.0 0 1 106.84 367.99
  L 99.51 192.25
  A 0.95 0.95 0.0 0 1 100.46 191.26
  L 200.34 191.25
  Z"
/>
</g>
<g fill="#000000">
<path d="
  M 136.31 0.00
  L 375.81 0.00
  C 386.19 1.05 391.84 6.20 396.54 15.47
  Q 404.66 31.47 412.66 47.59
  A 0.80 0.79 75.5 0 0 413.40 48.03
  C 424.66 47.56 431.84 54.14 431.76 65.15
  C 431.72 71.24 432.79 80.19 430.54 85.51
  Q 426.78 94.41 415.95 95.27
  Q 415.50 95.31 415.48 95.76
  L 412.14 175.58
  A 0.80 0.80 0.0 0 0 412.84 176.41
  Q 423.18 177.69 426.32 186.27
  Q 427.62 189.80 427.30 197.37
  Q 423.83 279.60 420.45 361.82
  Q 420.04 371.67 418.32 375.27
  Q 414.52 383.15 403.96 383.86
  Q 403.48 383.89 403.46 384.37
  Q 402.00 419.27 400.51 454.17
  C 400.01 466.01 395.83 474.27 384.30 478.76
  A 0.86 0.85 79.6 0 0 383.76 479.56
  C 383.70 492.67 387.01 509.03 369.44 512.00
  L 142.20 512.00
  C 124.77 508.62 128.38 492.14 128.22 479.47
  Q 128.22 478.95 127.73 478.76
  Q 117.24 474.71 113.49 465.44
  Q 111.74 461.11 111.25 449.21
  Q 109.93 416.79 108.54 384.37
  Q 108.52 383.89 108.04 383.85
  Q 97.50 383.12 93.72 375.33
  Q 91.96 371.71 91.53 361.26
  Q 88.17 279.85 84.73 198.44
  Q 84.37 189.84 85.72 186.18
  Q 88.89 177.61 99.56 176.33
  Q 99.88 176.29 99.86 175.97
  L 96.52 95.76
  A 0.52 0.52 0.0 0 0 96.03 95.26
  Q 85.25 94.42 81.45 85.55
  C 79.20 80.31 80.29 71.46 80.22 65.50
  C 80.10 54.33 87.06 47.55 98.60 48.04
  A 0.80 0.79 14.5 0 0 99.34 47.61
  Q 107.34 31.46 115.48 15.44
  C 120.18 6.18 125.92 1.02 136.31 0.00
  Z
  M 176.12 63.00
  L 95.76 63.01
  A 0.51 0.50 -0.0 0 0 95.25 63.51
  L 95.25 79.73
  A 0.59 0.59 0.0 0 0 95.85 80.32
  L 176.01 80.03
  L 416.19 80.01
  Q 416.75 80.01 416.75 79.45
  L 416.75 63.74
  A 0.75 0.75 0.0 0 0 416.00 62.99
  Q 396.55 63.02 377.11 62.98
  C 365.69 62.95 366.31 48.00 377.28 47.99
  Q 390.88 47.96 395.29 48.03
  Q 396.04 48.04 395.70 47.38
  L 387.64 31.47
  C 384.80 25.08 381.81 15.01 373.75 15.01
  Q 274.76 14.99 175.73 15.00
  Q 157.14 15.00 138.50 15.05
  C 131.70 15.07 130.56 18.72 127.49 24.81
  Q 121.76 36.17 116.14 47.50
  A 0.35 0.35 0.0 0 0 116.45 48.00
  Q 228.23 47.99 340.15 48.01
  Q 345.14 48.01 347.13 48.82
  C 354.16 51.71 352.19 63.02 344.75 63.01
  Q 260.59 62.99 176.12 63.00
  Z
  M 199.87 176.20
  L 396.52 176.17
  Q 397.09 176.17 397.12 175.59
  L 399.77 111.72
  L 400.44 95.64
  Q 400.46 95.08 399.90 95.08
  L 112.07 95.05
  Q 111.50 95.05 111.53 95.62
  L 114.87 175.75
  Q 114.89 176.23 115.36 176.23
  L 199.87 176.20
  Z
  M 143.29 376.31
  C 142.17 386.15 130.68 383.75 124.05 383.75
  Q 123.53 383.75 123.55 384.28
  Q 124.96 418.24 126.40 452.22
  C 126.70 459.36 127.84 464.97 136.00 464.98
  Q 167.79 465.02 199.87 464.99
  Q 286.25 465.02 372.92 464.99
  C 380.46 464.98 385.14 463.46 385.48 455.24
  Q 386.61 427.77 387.75 400.23
  L 388.42 384.26
  Q 388.44 383.75 387.94 383.75
  Q 279.15 383.75 170.38 383.75
  C 164.82 383.74 160.94 382.30 160.38 376.40
  C 160.60 370.52 164.65 368.76 170.15 368.76
  Q 287.31 368.75 404.52 368.75
  Q 405.08 368.75 405.10 368.19
  L 405.80 352.25
  L 412.46 192.12
  Q 412.50 191.26 411.63 191.26
  L 200.34 191.25
  L 100.46 191.26
  A 0.95 0.95 0.0 0 0 99.51 192.25
  L 106.84 367.99
  A 0.80 0.80 0.0 0 0 107.64 368.76
  Q 120.43 368.73 133.36 368.76
  C 139.07 368.78 142.69 370.33 143.29 376.31
  Z
  M 199.66 496.99
  L 368.23 496.99
  A 0.52 0.51 0.0 0 0 368.75 496.48
  L 368.75 480.52
  Q 368.75 480.01 368.24 480.01
  L 199.99 480.01
  L 143.75 480.01
  Q 143.25 480.01 143.25 480.51
  L 143.25 496.49
  A 0.50 0.50 0.0 0 0 143.75 496.99
  L 199.66 496.99
  Z"
/>
<path d="
  M 278.38 265.54
  Q 282.76 289.67 268.24 309.35
  A 1.00 0.99 -31.5 0 0 268.06 310.08
  L 268.59 313.44
  Q 268.71 314.17 269.26 313.69
  Q 283.31 301.32 302.97 290.72
  Q 315.12 284.16 327.17 272.33
  Q 327.54 271.96 327.13 271.64
  Q 317.83 264.52 306.36 265.36
  C 300.66 265.77 296.51 263.35 296.65 257.03
  Q 297.87 251.25 303.33 250.61
  C 330.80 247.36 353.50 268.65 351.54 296.52
  C 349.47 325.79 322.37 351.02 292.67 348.91
  Q 265.98 347.01 255.11 321.21
  Q 254.92 320.76 254.49 321.00
  C 237.49 330.45 217.61 329.65 200.22 321.46
  Q 180.36 311.67 169.22 292.80
  C 150.39 260.89 161.11 218.62 200.09 209.67
  C 235.86 203.11 272.60 229.45 278.38 265.54
  Z
  M 263.40 285.67
  C 271.25 250.80 233.50 214.07 198.85 225.61
  Q 198.26 225.81 198.69 226.27
  C 212.70 241.02 220.63 254.40 229.79 270.48
  Q 239.69 287.83 253.86 301.94
  Q 254.21 302.29 254.55 301.93
  Q 261.35 294.74 263.40 285.67
  Z
  M 194.19 299.56
  C 206.67 310.24 224.76 316.57 240.68 310.73
  Q 241.29 310.50 240.84 310.03
  C 226.40 295.03 218.24 280.44 208.42 263.76
  Q 198.96 247.66 185.66 234.34
  Q 185.28 233.97 184.93 234.37
  C 167.10 254.50 175.44 283.52 194.19 299.56
  Z
  M 277.67 328.13
  C 305.32 347.96 342.01 316.16 335.81 285.86
  A 0.44 0.44 0.0 0 0 335.09 285.62
  C 324.42 295.36 313.42 301.85 300.72 309.31
  C 291.89 314.49 284.60 319.96 277.57 326.76
  A 0.90 0.89 -49.4 0 0 277.67 328.13
  Z"
/>
</g>
<g fill="#f4dbb3">
<path d="
  M 399.77 111.72
  L 397.12 175.59
  Q 397.09 176.17 396.52 176.17
  L 199.87 176.20
  Q 200.12 153.44 199.96 130.64
  C 199.88 117.92 206.02 111.76 218.73 111.76
  Q 309.17 111.76 399.77 111.72
  Z"
/>
<path d="
  M 387.75 400.23
  Q 386.61 427.77 385.48 455.24
  C 385.14 463.46 380.46 464.98 372.92 464.99
  Q 286.25 465.02 199.87 464.99
  Q 200.13 441.89 199.96 418.86
  C 199.90 410.82 202.56 404.35 210.22 401.50
  Q 213.58 400.25 222.05 400.25
  Q 304.85 400.26 387.75 400.23
  Z"
/>
<path d="
  M 199.99 480.01
  L 199.66 496.99
  L 143.75 496.99
  A 0.50 0.50 0.0 0 1 143.25 496.49
  L 143.25 480.51
  Q 143.25 480.01 143.75 480.01
  L 199.99 480.01
  Z"
/>
</g>
<g fill="#b57f5f">
<path d="
  M 175.73 15.00
  Q 274.76 14.99 373.75 15.01
  C 381.81 15.01 384.80 25.08 387.64 31.47
  Q 291.10 31.52 194.98 31.51
  C 184.08 31.51 176.71 26.96 175.73 15.00
  Z"
/>
<path d="
  M 200.34 191.25
  L 411.63 191.26
  Q 412.50 191.26 412.46 192.12
  L 405.80 352.25
  Q 319.20 352.24 232.82 352.26
  Q 220.47 352.26 215.86 350.68
  C 203.04 346.27 198.92 334.37 200.22 321.46
  C 217.61 329.65 237.49 330.45 254.49 321.00
  Q 254.92 320.76 255.11 321.21
  Q 265.98 347.01 292.67 348.91
  C 322.37 351.02 349.47 325.79 351.54 296.52
  C 353.50 268.65 330.80 247.36 303.33 250.61
  Q 297.87 251.25 296.65 257.03
  Q 287.13 259.84 278.38 265.54
  C 272.60 229.45 235.86 203.11 200.09 209.67
  Q 199.49 200.45 200.34 191.25
  Z"
/>
</g>
<g fill="#785353">
<path d="
  M 176.12 63.00
  Q 175.34 71.42 176.01 80.03
  L 95.85 80.32
  A 0.59 0.59 0.0 0 1 95.25 79.73
  L 95.25 63.51
  A 0.51 0.50 -0.0 0 1 95.76 63.01
  L 176.12 63.00
  Z"
/>
<path d="
  M 198.85 225.61
  C 233.50 214.07 271.25 250.80 263.40 285.67
  Q 261.35 294.74 254.55 301.93
  Q 254.21 302.29 253.86 301.94
  Q 239.69 287.83 229.79 270.48
  C 220.63 254.40 212.70 241.02 198.69 226.27
  Q 198.26 225.81 198.85 225.61
  Z"
/>
<path d="
  M 194.19 299.56
  C 175.44 283.52 167.10 254.50 184.93 234.37
  Q 185.28 233.97 185.66 234.34
  Q 198.96 247.66 208.42 263.76
  C 218.24 280.44 226.40 295.03 240.84 310.03
  Q 241.29 310.50 240.68 310.73
  C 224.76 316.57 206.67 310.24 194.19 299.56
  Z"
/>
<path d="
  M 296.65 257.03
  C 296.51 263.35 300.66 265.77 306.36 265.36
  Q 317.83 264.52 327.13 271.64
  Q 327.54 271.96 327.17 272.33
  Q 315.12 284.16 302.97 290.72
  Q 283.31 301.32 269.26 313.69
  Q 268.71 314.17 268.59 313.44
  L 268.06 310.08
  A 1.00 0.99 -31.5 0 1 268.24 309.35
  Q 282.76 289.67 278.38 265.54
  Q 287.13 259.84 296.65 257.03
  Z"
/>
<path d="
  M 277.67 328.13
  A 0.90 0.89 -49.4 0 1 277.57 326.76
  C 284.60 319.96 291.89 314.49 300.72 309.31
  C 313.42 301.85 324.42 295.36 335.09 285.62
  A 0.44 0.44 0.0 0 1 335.81 285.86
  C 342.01 316.16 305.32 347.96 277.67 328.13
  Z"
/>
</g>
<g fill="#eac89f">
<path d="
  M 399.77 111.72
  Q 309.17 111.76 218.73 111.76
  C 206.02 111.76 199.88 117.92 199.96 130.64
  Q 200.12 153.44 199.87 176.20
  L 115.36 176.23
  Q 114.89 176.23 114.87 175.75
  L 111.53 95.62
  Q 111.50 95.05 112.07 95.05
  L 399.90 95.08
  Q 400.46 95.08 400.44 95.64
  L 399.77 111.72
  Z"
/>
<path d="
  M 143.29 376.31
  L 160.38 376.40
  C 160.94 382.30 164.82 383.74 170.38 383.75
  Q 279.15 383.75 387.94 383.75
  Q 388.44 383.75 388.42 384.26
  L 387.75 400.23
  Q 304.85 400.26 222.05 400.25
  Q 213.58 400.25 210.22 401.50
  C 202.56 404.35 199.90 410.82 199.96 418.86
  Q 200.13 441.89 199.87 464.99
  Q 167.79 465.02 136.00 464.98
  C 127.84 464.97 126.70 459.36 126.40 452.22
  Q 124.96 418.24 123.55 384.28
  Q 123.53 383.75 124.05 383.75
  C 130.68 383.75 142.17 386.15 143.29 376.31
  Z"
/>
</g>
<path fill="#f9eac7" d="
  M 199.99 480.01
  L 368.24 480.01
  Q 368.75 480.01 368.75 480.52
  L 368.75 496.48
  A 0.52 0.51 0.0 0 1 368.23 496.99
  L 199.66 496.99
  L 199.99 480.01
  Z"
/>
</svg>
