<?xml version="1.0" encoding="UTF-8"?>
<svg id="a" data-name="圖層 1" xmlns="http://www.w3.org/2000/svg" viewBox="0 0 300 215">
  <defs>
    <style>
      .b {
        fill: #fff;
      }

      .c {
        fill: #1c262c;
      }

      .d {
        fill: #1e506c;
      }
    </style>
  </defs>
  <g>
    <path class="c" d="m65.54,194.44c-.14,0-.27,0-.41,0-1.35.01-2.67-.17-3.98-.5-1.85-.47-3.55-1.26-5.11-2.36-.25-.17-.51-.34-.74-.53-.18-.14-.32-.32-.49-.47-.39-.34-.75-.71-1.1-1.1-.47-.52-.88-1.09-1.27-1.67-.29-.44-.55-.91-.79-1.38-.41-.8-.77-1.62-1.03-2.48-.17-.58-.3-1.18-.42-1.77-.27-1.36-.34-2.74-.25-4.13.06-.96.23-1.9.44-2.83.39-1.71,1.09-3.29,2.03-4.76.66-1.04,1.48-1.97,2.41-2.79,1-.88,2.1-1.61,3.3-2.19,1.15-.56,2.35-.99,3.61-1.25,1.39-.29,2.8-.42,4.22-.39.98.02,1.95.11,2.91.29,1.02.19,2.02.46,2.98.85.87.36,1.73.75,2.51,1.3.27.19.56.36.83.55.88.61,1.64,1.35,2.34,2.16.69.8,1.27,1.66,1.77,2.6.47.9.88,1.83,1.17,2.81.2.67.34,1.36.45,2.04.22,1.28.26,2.57.18,3.86-.1,1.48-.34,2.92-.88,4.32-.24.62-.49,1.24-.8,1.83-.56,1.07-1.22,2.09-2.02,3.01-.41.47-.86.9-1.32,1.32-.51.46-1.07.84-1.65,1.21-.56.36-1.15.67-1.75.97-1.23.6-2.52.99-3.85,1.24-1.08.2-2.17.29-3.27.26Zm8.44-15.17c.01-1.09-.05-1.78-.2-2.59-.24-1.31-.65-2.56-1.37-3.69-.11-.17-.22-.33-.34-.48-.41-.49-.84-.97-1.37-1.33-.2-.14-.42-.24-.61-.39-.65-.48-1.4-.71-2.17-.92-.77-.21-1.56-.27-2.35-.28-.73,0-1.46.06-2.18.21-.75.16-1.47.4-2.14.78-.67.38-1.3.82-1.83,1.41-.73.8-1.28,1.69-1.63,2.71-.46,1.33-.71,2.7-.74,4.11-.04,1.72.18,3.4.83,5,.52,1.31,1.28,2.45,2.42,3.3.63.46,1.3.85,2.05,1.09.65.21,1.32.35,2.01.42,1.49.15,2.95.07,4.37-.44,1.59-.57,2.86-1.54,3.73-2.99.18-.3.33-.61.49-.92.24-.46.41-.94.55-1.44.34-1.21.5-2.44.48-3.55Z"/>
    <path class="c" d="m48.29,189.66c-.54.8-1.22,1.41-1.9,2.01-.17.15-.36.28-.55.4-1.58,1.08-3.32,1.8-5.2,2.11-1.14.19-2.3.29-3.46.26-.17,0-.34,0-.5,0-1.37,0-2.7-.23-4.01-.6-1.25-.36-2.42-.89-3.52-1.6-1.05-.69-2.01-1.48-2.83-2.43-.29-.34-.57-.69-.83-1.07-.4-.59-.78-1.2-1.11-1.83-.03-.07-.07-.13-.1-.2-.4-.91-.77-1.82-1.03-2.78-.14-.53-.24-1.07-.34-1.61-.28-1.6-.32-3.2-.19-4.82.13-1.56.48-3.06,1.06-4.51.46-1.14,1.07-2.21,1.79-3.22.28-.4.63-.73.94-1.1.47-.56,1.02-1.04,1.59-1.5,1.55-1.26,3.3-2.11,5.21-2.67.79-.23,1.6-.36,2.41-.49,1.29-.2,2.58-.22,3.87-.15.67.04,1.33.14,1.99.27.71.15,1.42.33,2.11.57.9.32,1.76.73,2.59,1.22.83.49,1.58,1.09,2.25,1.78.03.03.05.08.08.12-.52.7-1.03,1.39-1.55,2.09-.25.34-.51.68-.77,1.02-.1.13-.21.26-.34.37-.5.44-1.15.53-1.74.23-.47-.25-.94-.51-1.39-.79-.96-.6-2.01-.93-3.12-1.08-.68-.09-1.37-.11-2.05-.07-1.22.06-2.38.35-3.45.94-.4.22-.75.51-1.13.77-.46.31-.8.74-1.17,1.13-.38.4-.65.88-.91,1.36-.58,1.07-.91,2.22-1.09,3.41-.17,1.12-.17,2.24-.07,3.37.11,1.15.39,2.24.83,3.3.52,1.26,1.28,2.34,2.34,3.21.76.62,1.62,1.07,2.58,1.33.89.24,1.79.34,2.71.28.52-.03,1.04-.05,1.55-.13.99-.17,1.91-.51,2.72-1.11.39-.29.79-.56,1.2-.83.11-.07.24-.13.37-.17.45-.15.87-.1,1.24.21.14.12.28.24.4.38.38.42.8.79,1.14,1.24.23.3.54.53.81.8.18.18.36.37.55.58Z"/>
    <path class="c" d="m84.47,164.19c.52-.07,14.26-.1,18.98-.05.1,0,.21.01.3.02.03.05.05.08.05.1,0,1.69,0,3.38,0,5.06,0,.04-.02.08-.04.16-.28.03-.57,0-.86.01-.29,0-.58,0-.87,0-.29,0-.58,0-.87,0-.3,0-.61,0-.91,0-.29,0-.58,0-.87,0s-.58,0-.87,0c-.29,0-.58,0-.87,0-.29,0-.58,0-.87,0-.29,0-.58,0-.87,0s-.58,0-.87,0c-.3,0-.61,0-.91,0-.29,0-.58,0-.87,0-.29,0-.58,0-.87,0-.29,0-.57-.02-.86.01-.02.07-.04.11-.04.15,0,2.42,0,4.84,0,7.26,0,.04.02.08.04.16.48,0,.97,0,1.45,0,.49,0,.98,0,1.46,0,.49,0,.98,0,1.46,0,.47,0,.95,0,1.42,0,.49,0,.98,0,1.46,0,.49,0,.98,0,1.46,0,.49,0,.97,0,1.48,0,.06.31.02.6.03.88,0,.3,0,.61,0,.91,0,.29,0,.58,0,.87s0,.58,0,.87c0,.3,0,.61,0,.91,0,.29,0,.58,0,.87-.17.1-.34.05-.5.05-2.71,0-5.43,0-8.14,0-.43,0-.85,0-1.28,0-.1,0-.21.01-.33.02-.07.5-.02.98-.03,1.46,0,.49,0,.97,0,1.46,0,.47,0,.94,0,1.41,0,.49,0,.97,0,1.46,0,.49,0,.97,0,1.46v1.46c0,.47,0,.94,0,1.41v1.44s-.05.03-.07.04c-.01,0-.03.02-.04.02-2.26,0-4.51,0-6.77,0-.03,0-.05-.02-.09-.04-.01-.03-.04-.08-.04-.12,0-9.92,0-19.83,0-29.77Z"/>
    <path class="c" d="m107.46,193.97c0-.15-.02-.3-.02-.45,0-9.6,0-19.2,0-28.8,0-.14.01-.27.02-.41.01,0,.03-.01.03-.02,0-.02-.01-.05-.02-.07.04-.02.07-.06.11-.06.14,0,.27,0,.41,0,6.05,0,12.1,0,18.16,0,.18,0,.36,0,.57,0,.02.1.04.17.04.24,0,1.63,0,3.26,0,4.88,0,.06-.01.12-.02.19-.16.09-.33.05-.49.05-3.75,0-7.5,0-11.25,0-.17,0-.33,0-.52,0-.02.11-.04.2-.04.28,0,2.36,0,4.72,0,7.07,0,.06.01.12.01.15.03.03.04.05.05.06.01,0,.03.01.04.01.05,0,.09.01.14.01,3.31,0,6.62,0,9.92.01.01,0,.03,0,.07.02.01.06.04.13.04.2,0,1.66,0,3.32,0,4.97,0,.04-.02.09-.03.16-.68.04-1.37.01-2.05.02-.67,0-1.34,0-2.01,0-.69,0-1.37,0-2.06,0-.67,0-1.34,0-2.01,0-.69,0-1.37,0-2.04,0-.12.17-.07.35-.07.51,0,2.46,0,4.93,0,7.39,0,1.08,0,2.16,0,3.24,0,.15,0,.3,0,.46-.17.1-.34.07-.5.07-1.78,0-3.57,0-5.35,0-.32,0-.64,0-.96,0-.05,0-.1-.04-.15-.07,0,0,.03-.02.03-.03,0-.02-.03-.04-.04-.06Z"/>
    <path class="c" d="m215.95,177.96c.04.05.05.08.08.1.76.51,1.34,1.18,1.83,1.95,1.12,1.74,2.26,3.47,3.39,5.2,1.63,2.49,3.25,4.99,4.88,7.48.2.31.4.61.6.92.04.06.08.13.12.2.2.42-.03.89-.5.98-.12.02-.24.01-.36.01-2.06,0-4.12,0-6.17,0-.48,0-.94-.05-1.4-.2-.5-.16-.93-.44-1.27-.84-.2-.25-.4-.5-.57-.77-1.46-2.23-2.91-4.45-4.37-6.68-.67-1.03-1.35-2.06-2.02-3.09-.08-.13-.17-.25-.25-.38-.28-.45-.7-.68-1.21-.73-.52-.05-1.03-.05-1.55-.07-.04,0-.09.02-.16.04,0,.11-.02.23-.02.35,0,3.73,0,7.45,0,11.18,0,.18,0,.37-.01.55-.04.4-.29.63-.69.65-.08,0-.15,0-.23,0-2.15,0-4.3,0-6.45,0-.18,0-.37,0-.5,0-.4-.25-.47-.58-.47-.97,0-4,0-8,0-12,0-5.73,0-11.47,0-17.2,0-.15,0-.3,0-.46.03-.42.28-.67.7-.69.11,0,.21,0,.32,0,2.12,0,4.24,0,6.36,0,.12,0,.24,0,.37,0,.34.04.55.25.59.59.01.12.01.24.01.36,0,3.54,0,7.09,0,10.63,0,.16,0,.33.01.51.63.07,1.21-.01,1.73-.34.13-.08.23-.2.33-.32.1-.12.18-.25.27-.37,2.01-2.92,4.03-5.83,6.04-8.75.2-.29.4-.57.6-.85.27-.37.62-.67,1.01-.92.27-.18.56-.3.88-.37.48-.11.96-.19,1.45-.19,2.03,0,4.05,0,6.08,0,.16,0,.29.03.43.1.29.16.42.47.31.77-.04.11-.11.22-.18.31-.74,1.01-1.48,2.01-2.22,3.01-.67.9-1.33,1.81-2,2.72-1.38,1.87-2.76,3.75-4.13,5.62-.05.07-.11.15-.16.22-.23.3-.44.62-.69.91-.25.29-.53.54-.8.83Zm8.87,15.27c-.29-.46-.58-.92-.87-1.38-.86-1.32-1.73-2.65-2.59-3.97-.95-1.46-1.91-2.93-2.86-4.39-.7-1.07-1.4-2.14-2.1-3.2-.34-.52-.8-.91-1.35-1.2-.24-.13-.48-.25-.73-.37-.55-.28-.61-.83-.14-1.21.11-.09.22-.16.34-.24.56-.37,1.06-.81,1.46-1.37.54-.75,1.1-1.49,1.65-2.24,1.14-1.54,2.27-3.09,3.41-4.63.63-.86,1.26-1.71,1.89-2.57.34-.46.67-.93,1.01-1.4.04-.05.07-.11.11-.16-.04-.02-.09-.03-.13-.05-.09,0-.18-.02-.27-.02-1.37,0-2.74,0-4.12,0-.33,0-.67.05-1,.09-.56.07-1.01.33-1.36.76-.21.26-.41.53-.6.81-1.71,2.46-3.41,4.93-5.11,7.4-.42.61-.86,1.22-1.27,1.84-.45.66-1.11.99-1.86,1.14-.64.13-1.3.12-1.96.1-.41-.01-.68-.27-.73-.68-.02-.15-.01-.3-.01-.46,0-3.47,0-6.94,0-10.4,0-.17-.01-.33-.02-.5.01-.06-.01-.09-.08-.08-.05,0-.09-.02-.14-.02-1.69,0-3.38,0-5.07,0-.08,0-.17.03-.26.04,0,.12-.01.21-.01.29,0,9.37,0,18.75.01,28.12,0,.01,0,.03.01.04,0,.01.02.02.05.06.08,0,.19.02.29.02,1.63,0,3.26,0,4.89,0,.08,0,.15-.01.23-.02.07.01.09-.01.08-.08,0-.18.02-.36.02-.55,0-3.65,0-7.3,0-10.95,0-.11,0-.21,0-.32.01-.53.27-.83.81-.84.82-.02,1.65-.04,2.47.06.73.09,1.38.38,1.87.95.18.21.35.42.5.65,1.02,1.58,2.04,3.17,3.07,4.74.55.84,1.11,1.67,1.66,2.5.58.88,1.14,1.76,1.72,2.63.1.15.2.31.31.45.28.37.64.6,1.1.67.27.04.54.08.82.08,1.57,0,3.14,0,4.71,0,.06,0,.12-.01.18-.02.12-.04.12-.06,0-.17Z"/>
    <path class="c" d="m236.62,175.79c.18,0,.36.02.55.02,2.58,0,5.15,0,7.73,0,.12,0,.24,0,.37,0,.39.03.64.29.67.68,0,.08,0,.15,0,.23,0,1.55,0,3.1,0,4.65,0,.11,0,.21-.01.32-.05.35-.28.57-.64.6-.18.02-.37.01-.55.01-2.56,0-5.12,0-7.68,0-.17,0-.33,0-.52.01-.02.09-.04.16-.04.23,0,1.75,0,3.5,0,5.25,0,.07.02.15.03.24.1.02.18.04.27.05.09,0,.18,0,.27,0,3.64,0,7.29,0,10.93,0,.06,0,.12,0,.18,0,.35.02.59.25.63.61,0,.09,0,.18,0,.27,0,1.61,0,3.22,0,4.84,0,.11,0,.21,0,.32-.04.41-.3.65-.72.67-.09,0-.18,0-.27,0-6.25,0-12.5,0-18.75,0-.09,0-.18,0-.27,0-.37-.03-.62-.26-.66-.63-.02-.17-.01-.33-.01-.5,0-3.77,0-7.55,0-11.32,0-5.92,0-11.83,0-17.75,0-.15,0-.3,0-.46,0-.34.32-.68.68-.67.09,0,.18,0,.27,0,6.25,0,12.5,0,18.75,0,.14,0,.28,0,.41,0,.31.03.53.24.57.56.02.1.01.21.01.32,0,1.61,0,3.22,0,4.84,0,.12,0,.24-.01.36-.04.35-.29.58-.63.61-.14.01-.27,0-.41,0-3.57,0-7.13,0-10.7,0-.16,0-.33,0-.51.01-.02.09-.04.17-.04.24,0,1.7,0,3.41,0,5.11,0,.06.02.12.03.18,0,.08.03.09.1.08Zm10.7,17.61c.07.01.09-.01.08-.08,0-.15.02-.3.02-.45,0-.87,0-1.75,0-2.62,0-.23-.01-.45-.02-.68.01-.07,0-.1-.08-.09-.17,0-.33-.02-.5-.02-3.55,0-7.1,0-10.65,0-.15,0-.31,0-.45-.02-.34-.06-.54-.27-.58-.61-.03-.26-.03-.52-.03-.77,0-2.02,0-4.04,0-6.07,0-.12,0-.24,0-.36.04-.38.26-.61.64-.67.15-.02.3-.02.46-.02,2.61,0,5.21,0,7.82,0,.16,0,.33.03.5-.04.01-.04.04-.08.04-.13,0-1.16,0-2.31-.01-3.47,0-.03-.03-.05-.05-.1-.12,0-.25-.02-.38-.02-2.64,0-5.27,0-7.91,0-.17,0-.33-.01-.5-.01-.1,0-.17-.04-.24-.1-.2-.14-.31-.33-.32-.58,0-.21-.02-.43-.02-.64,0-2.02,0-4.04,0-6.07,0-.09,0-.18,0-.27.04-.42.28-.66.7-.71.15-.02.3,0,.46,0,3.5,0,7.01,0,10.51,0,.18,0,.36-.01.55-.02.07,0,.1-.03.08-.09,0-.12.02-.24.02-.36,0-1.01,0-2.02,0-3.02,0-.12-.01-.24-.02-.36.01-.07-.02-.09-.08-.08-.14,0-.27-.02-.41-.02-3.89,0-7.77,0-11.66,0-1.78,0-3.57,0-5.35,0-.13,0-.26.02-.42.03v.66c0,9.08,0,18.16,0,27.24,0,.12,0,.24,0,.36,0,.09.02.17.04.28.2,0,.38,0,.57,0,5.59,0,11.19,0,16.78,0,.15,0,.3-.01.46-.02Z"/>
    <path class="c" d="m160.49,170.17c-.06.42-.06,5.15,0,5.6.15.07.32.04.48.04,1.78,0,3.57,0,5.35,0,.87,0,1.74,0,2.61,0,.11,0,.21,0,.32,0,.33.03.57.24.63.56.02.12.03.24.03.36,0,1.55,0,3.1,0,4.65,0,.12,0,.24-.03.36-.06.31-.28.51-.59.54-.18.02-.37.02-.55.02-2.58,0-5.15,0-7.73,0-.16,0-.33,0-.52.01-.02.09-.04.17-.04.24,0,1.75,0,3.5,0,5.25,0,.07.01.15.02.24.1.02.18.04.27.04.2,0,.4,0,.59,0,3.55,0,7.1,0,10.65,0,.06,0,.12,0,.18,0,.3.03.54.25.59.55.02.12.01.24.01.36,0,1.61,0,3.22,0,4.84,0,.09,0,.18,0,.27-.04.42-.29.66-.71.68-.08,0-.15,0-.23,0-6.28,0-12.56,0-18.84,0-.09,0-.18,0-.27,0-.33-.02-.58-.24-.62-.56-.03-.18-.02-.36-.02-.55,0-1.96,0-3.92,0-5.89,0-7.76,0-15.51,0-23.27,0-.15,0-.31.01-.46.04-.34.29-.58.64-.6.11,0,.21,0,.32,0,6.25,0,12.5,0,18.75,0,.12,0,.24,0,.37,0,.35.03.59.26.62.61,0,.09,0,.18,0,.27,0,1.61,0,3.22,0,4.84,0,.12,0,.24-.01.36-.05.34-.3.58-.64.6-.14.01-.27,0-.41,0-3.57,0-7.13,0-10.7,0-.17,0-.33,0-.52,0Zm-6.93-5.31c-.07-.01-.1,0-.09.08,0,.15-.02.3-.02.45,0,9.14,0,18.29,0,27.43,0,.17.02.33.02.5,0,.07.02.09.09.08.2,0,.39.02.59.02,5.57,0,11.13,0,16.7,0,.15,0,.3-.01.45-.02.07.01.09-.01.08-.08,0-.15.02-.3.02-.45,0-.84,0-1.68,0-2.53,0-.26-.01-.51-.02-.77.01-.07,0-.1-.08-.09-.18,0-.36-.02-.55-.02-3.54,0-7.07,0-10.61,0-.12,0-.24,0-.37,0-.42-.04-.66-.28-.71-.7-.01-.12-.01-.24-.01-.36,0-2.16,0-4.32,0-6.48,0-.09,0-.18,0-.27.03-.36.26-.62.62-.68.13-.02.27-.02.41-.02,1.28,0,2.56,0,3.84,0,1.39,0,2.77,0,4.16,0,.13,0,.28.05.39-.07.05-.88.03-3.29-.04-3.67-.13,0-.26-.02-.39-.02-2.61,0-5.21,0-7.82,0-.14,0-.27,0-.41,0-.44-.02-.7-.26-.75-.7-.02-.14,0-.27,0-.41,0-2.1,0-4.2,0-6.3,0-.08,0-.15,0-.23.02-.41.27-.68.67-.73.15-.02.3-.01.46-.01,3.54,0,7.07,0,10.61,0,.17,0,.33-.01.5-.02.07,0,.1-.03.08-.1,0-1.23,0-2.46,0-3.69,0-.04-.03-.08-.06-.14-.15,0-.3,0-.45,0-5.58,0-11.16,0-16.73,0-.2,0-.4.01-.59.02Z"/>
    <path class="c" d="m183.77,170.19v5.58c.17.08.34.05.5.05,2.15,0,4.3,0,6.45,0,.52,0,1.04,0,1.55,0,.09,0,.18,0,.27,0,.38.04.61.28.63.65,0,.06,0,.12,0,.18,0,1.55,0,3.1,0,4.65,0,.14,0,.27-.02.41-.04.32-.28.55-.6.58-.18.02-.37.01-.55.01-2.58,0-5.15,0-7.73,0-.16,0-.33-.03-.49.03-.07.38-.07,5.3,0,5.72.07,0,.14.03.21.03.2,0,.4,0,.59,0,3.57,0,7.13,0,10.7,0,.2,0,.39.02.55.18.12.13.2.27.22.44,0,.09,0,.18,0,.27,0,1.63,0,3.26,0,4.88,0,.12,0,.25-.02.36-.07.35-.31.55-.67.57-.12,0-.24,0-.37,0-6.25,0-12.5,0-18.75,0-.24,0-.49.02-.68-.18-.08-.09-.18-.16-.19-.3,0-.12-.04-.24-.05-.36,0-.12,0-.24,0-.36,0-9.66,0-19.32,0-28.98,0-.17,0-.34.01-.5.05-.39.3-.63.7-.65.09,0,.18,0,.27,0,6.19,0,12.38,0,18.57,0,.17,0,.34,0,.5,0,.38.02.62.25.67.62.01.09,0,.18,0,.27,0,1.63,0,3.26,0,4.88,0,.11,0,.21-.01.32-.05.35-.36.61-.65.6-.14,0-.27,0-.41,0-3.57,0-7.13,0-10.7,0-.17,0-.33,0-.54.01Zm10.89-5.32c-.15,0-.29-.02-.44-.02-4.44,0-8.87,0-13.31,0-1.27,0-2.53,0-3.8,0-.12,0-.23.02-.38.03,0,.22,0,.42,0,.61,0,7.62,0,15.24,0,22.86,0,1.52,0,3.04,0,4.56,0,.16-.05.33.07.49.09,0,.18.02.27.02,5.84,0,11.68,0,17.51-.01.01,0,.03,0,.04-.01.01,0,.02-.02.06-.07,0-.28,0-.59,0-.91,0-.32,0-.64,0-.96,0-.33,0-.67,0-1,0-.32.03-.63-.03-.97-.17,0-.32-.01-.47-.01-3.58,0-7.16,0-10.75,0-.14,0-.28,0-.41,0-.39-.04-.64-.3-.67-.69-.01-.12,0-.24,0-.36,0-2.08,0-4.17,0-6.25,0-.15,0-.3,0-.46.03-.55.3-.7.73-.76.06,0,.12,0,.18,0,.11,0,.21,0,.32,0,2.56,0,5.12,0,7.68,0,.16,0,.33.03.47-.03.02-.06.03-.09.03-.11,0-1.14,0-2.28,0-3.42,0-.06-.03-.11-.05-.19-.16,0-.31,0-.46,0-2.62,0-5.24,0-7.87,0-.12,0-.24,0-.37,0-.37-.03-.62-.27-.67-.63-.01-.1-.01-.21-.01-.32,0-2.14,0-4.29,0-6.43,0-.11,0-.21,0-.32.07-.43.22-.56.55-.63.15-.03.3-.04.45-.04.87,0,1.74,0,2.61,0,2.73,0,5.46,0,8.19,0,.16,0,.33.03.48-.03.02-.04.05-.07.05-.09,0-1.22,0-2.43,0-3.65,0-.04-.02-.09-.04-.16Z"/>
    <path class="c" d="m139.64,163.12c2.2.02,4.1.38,5.95,1.08,1.04.39,2.01.92,2.87,1.62.25.2.52.37.76.58.38.32.43.61.19,1.04-.45.84-.9,1.69-1.35,2.52-.19.34-.39.69-.61,1.01-.26.39-.62.66-1.07.81-.59.19-1.18.16-1.74-.09-.46-.2-.9-.44-1.35-.68-.61-.32-1.23-.61-1.89-.81-.74-.22-1.49-.29-2.26-.2-.29.03-.58.07-.86.14-1.01.25-1.62.98-1.71,2.01-.04.53.11.99.51,1.35.32.29.66.51,1.04.7.82.4,1.7.67,2.57.95,1.5.47,2.98.97,4.4,1.65.96.45,1.83,1.04,2.57,1.78,1.12,1.12,1.85,2.47,2.13,4.04.45,2.61.04,5.09-1.28,7.39-.57,1-1.31,1.85-2.21,2.59-1.38,1.14-2.96,1.83-4.68,2.23-1.28.3-2.6.37-3.91.29-3-.17-5.75-1.11-8.28-2.73-.6-.39-1.13-.86-1.64-1.36-.31-.31-.35-.62-.11-.99.69-1.09,1.35-2.2,2.08-3.27.43-.63,1.08-.96,1.85-1.03.67-.06,1.26.17,1.82.5.63.37,1.26.75,1.9,1.09.43.23.88.41,1.33.6.43.18.89.22,1.34.27.53.05,1.07.05,1.6,0,.55-.06,1.06-.26,1.53-.57.26-.17.46-.41.59-.68.29-.61.37-1.25.26-1.91-.06-.39-.26-.71-.53-.98-.21-.22-.45-.41-.73-.55-.31-.15-.62-.31-.95-.43-.63-.22-1.27-.42-1.9-.62-1.03-.33-2.07-.64-3.08-1-1.07-.38-2.07-.89-2.97-1.58-.76-.58-1.37-1.3-1.87-2.11-.88-1.42-1.25-2.99-1.28-4.65-.02-.84.06-1.67.26-2.49.33-1.33.9-2.55,1.75-3.62.75-.94,1.66-1.7,2.68-2.31,1.09-.65,2.29-1.06,3.54-1.31.97-.19,1.96-.29,2.72-.28Zm8.33,4.08s-.05-.07-.07-.09c-.05-.04-.1-.08-.14-.11-1.2-.92-2.56-1.53-4-1.95-1.01-.29-2.05-.43-3.1-.51-1.26-.09-2.5-.01-3.72.26-1.15.25-2.22.73-3.22,1.36-.91.58-1.65,1.34-2.28,2.2-.63.88-1,1.87-1.21,2.93-.21,1.04-.19,2.09-.04,3.13.08.57.22,1.13.45,1.67.69,1.59,1.79,2.77,3.37,3.51.8.37,1.61.72,2.46.98,1.06.32,2.13.65,3.19.97.93.28,1.78.7,2.54,1.3.63.49,1.03,1.11,1.17,1.89.08.42.08.85.05,1.27-.05.71-.27,1.37-.66,1.96-.45.68-1.1,1.09-1.85,1.34-1.12.38-2.28.37-3.44.23-.84-.1-1.62-.39-2.39-.75-.76-.36-1.46-.81-2.18-1.24-.12-.07-.23-.15-.35-.21-.15-.07-.31-.14-.47-.17-.46-.09-.85.03-1.14.4-.22.29-.41.6-.6.91-.4.63-.8,1.25-1.18,1.86.03.25.24.29.38.4,1.07.84,2.27,1.46,3.54,1.95.81.31,1.64.57,2.49.75.6.13,1.2.22,1.8.28.76.08,1.52.06,2.28.02,1.28-.06,2.5-.36,3.66-.88.82-.36,1.62-.76,2.26-1.42,1.02-.77,1.73-1.8,2.23-2.94.75-1.71.99-3.51.72-5.36-.23-1.63-1-2.98-2.3-4.02-.66-.52-1.4-.92-2.15-1.27-1.06-.5-2.18-.85-3.3-1.21-.8-.26-1.59-.53-2.38-.8-.68-.23-1.3-.58-1.87-1-.54-.4-.93-.9-1.17-1.54-.36-1,0-2.72.87-3.49.46-.41.96-.73,1.56-.91.43-.13.86-.18,1.3-.23.97-.11,1.91,0,2.84.28.69.2,1.34.5,1.98.83.34.18.67.37,1.01.53.2.1.42.18.64.23.27.06.52-.02.69-.24.14-.18.28-.36.39-.56.31-.56.61-1.12.92-1.68.15-.28.29-.56.43-.83Z"/>
    <path class="c" d="m269.4,181.67c.08.09.14.18.22.24.47.35.84.79,1.15,1.28,1.58,2.58,3.17,5.16,4.75,7.73.55.89,1.09,1.78,1.63,2.67.05.08.09.16.13.24.18.46-.11.91-.6.95-.09,0-.18,0-.27,0-2.12,0-4.24,0-6.36,0-.63,0-1.19-.23-1.74-.49-.32-.3-.68-.57-.91-.95-.13-.21-.26-.41-.38-.62-1.5-2.61-2.99-5.23-4.49-7.84-.11-.2-.24-.39-.36-.58-.24-.38-.59-.57-1.03-.58-.44-.01-.88,0-1.35,0-.01.13-.03.24-.03.36,0,1.23,0,2.46,0,3.7,0,1.99,0,3.99,0,5.98,0,.12,0,.24,0,.36-.04.42-.3.65-.72.67-.11,0-.21,0-.32,0-2.12,0-4.24,0-6.36,0-.11,0-.21,0-.32,0-.24,0-.56-.25-.59-.54-.02-.18-.03-.36-.03-.55,0-.46,0-.91,0-1.37,0-9.29,0-18.59,0-27.88,0-.14,0-.27.02-.41.05-.33.29-.54.62-.57.11-.01.21,0,.32,0,3.34,0,6.68,0,10.02,0,1.85,0,3.68.24,5.46.75,1.53.44,2.91,1.16,4.11,2.21.72.63,1.3,1.37,1.71,2.23.55,1.15.87,2.36.94,3.64.05.95.03,1.89-.17,2.82-.23,1.11-.65,2.14-1.27,3.1-.64.99-1.4,1.87-2.35,2.57-.34.25-.71.46-1.07.69-.1.06-.21.12-.33.19Zm-16.5-16.81c-.06-.01-.1,0-.1.08,0,.18-.03.36-.03.54,0,9.07,0,18.13,0,27.2,0,.15,0,.3,0,.46,0,.09.02.17.04.28,1.78,0,3.53,0,5.28,0,.07,0,.15-.02.22-.02.07-.18.04-.34.04-.51,0-3.1,0-6.21,0-9.31,0-.17,0-.33,0-.5,0-.45.35-.75.76-.74.34,0,.67,0,1.01,0,.38,0,.76,0,1.14.02.94.06,1.64.52,2.13,1.31.1.16.19.31.28.47.73,1.28,1.46,2.56,2.19,3.84.54.94,1.07,1.88,1.61,2.81.3.53.61,1.05.91,1.58.2.35.47.64.84.82.34.17.69.22,1.06.22,1.6,0,3.2,0,4.8,0,.09,0,.17,0,.29-.02-.06-.19-.16-.33-.24-.47-.6-.98-1.2-1.96-1.81-2.95-.94-1.53-1.87-3.06-2.81-4.59-.23-.37-.49-.73-.7-1.12-.39-.73-.97-1.27-1.63-1.75-.16-.11-.34-.21-.5-.32-.09-.06-.18-.11-.26-.18-.31-.29-.27-.78.07-1.02.14-.09.29-.16.44-.23.35-.17.7-.34,1.05-.52,1.02-.54,1.88-1.28,2.59-2.19.82-1.05,1.32-2.25,1.53-3.56.17-1.03.14-2.06-.02-3.09-.11-.71-.31-1.4-.63-2.04-.56-1.14-1.42-2.01-2.48-2.68-.77-.49-1.61-.86-2.49-1.13-1.68-.5-3.4-.72-5.14-.73-3-.01-6.01,0-9.01,0-.15,0-.3.01-.46.02Z"/>
    <path class="c" d="m236.62,175.79c-.07.01-.11,0-.1-.08.03.03.07.05.1.08Z"/>
    <path class="d" d="m107.46,193.97s.03.04.04.06c0,0-.02.02-.03.03,0-.02-.02-.04-.02-.06,0,0,0-.02,0-.03Z"/>
    <path class="d" d="m107.48,164.21s.01.05.02.07c0,0-.02.01-.03.02,0-.03.01-.06.02-.09Z"/>
    <path class="c" d="m224.82,193.41c0-.06,0-.11,0-.17.12.11.12.13,0,.17Z"/>
    <path class="c" d="m223.92,165.07c0-.07-.01-.14-.02-.21.04.02.09.03.13.05-.04.05-.07.11-.11.16Z"/>
    <path class="c" d="m205.59,164.94s-.05-.05-.08-.08c.06-.01.09.01.08.08Z"/>
    <path class="c" d="m205.52,193.41s.05-.05.08-.08c.01.07-.01.09-.08.08Z"/>
    <path class="c" d="m247.32,168.78s.06-.06.08-.09c.01.07,0,.1-.08.09Z"/>
    <path class="c" d="m247.4,164.94s-.05-.05-.08-.08c.06-.01.09.01.08.08Z"/>
    <path class="c" d="m247.4,189.59s-.06-.06-.08-.09c.07-.01.1.03.08.09Z"/>
    <path class="c" d="m247.32,193.41s.05-.05.08-.08c.01.07-.02.09-.08.08Z"/>
    <path class="c" d="m171.31,168.78s.05-.06.08-.1c.01.07,0,.1-.08.1Z"/>
    <path class="c" d="m153.56,164.86s-.06.05-.09.08c0-.07.02-.09.09-.08Z"/>
    <path class="c" d="m153.47,193.33s.06.05.09.08c-.06.01-.1,0-.09-.08Z"/>
    <path class="c" d="m171.31,193.41s.05-.05.08-.08c.01.06-.01.09-.08.08Z"/>
    <path class="c" d="m171.39,189.59s-.05-.06-.08-.09c.07,0,.09.03.08.09Z"/>
    <path class="c" d="m252.9,164.86s-.06.05-.1.08c0-.07.03-.09.1-.08Z"/>
    <path class="c" d="m258.37,173.78c0-1.34,0-2.67,0-4.01,0-.14,0-.27,0-.41.03-.41.29-.69.7-.69,1.19,0,2.38-.01,3.56.02.78.03,1.54.18,2.27.46.88.34,1.63.87,2.16,1.67.3.45.49.95.6,1.47.25,1.19.2,2.36-.26,3.49-.56,1.38-1.57,2.28-2.97,2.77-.59.21-1.21.32-1.83.34-1.17.03-2.35,0-3.52.03-.39,0-.75-.36-.73-.72,0-.15,0-.3,0-.46,0-1.32,0-2.64,0-3.97Zm1.4-3.64s-.02.09-.02.13c0,2.34,0,4.68,0,7.03,0,.07.02.14.03.2.06.02.09.03.11.03.87,0,1.74.02,2.61-.01.77-.03,1.5-.23,2.18-.6.65-.36,1.15-.85,1.42-1.55.36-.92.44-1.86.22-2.82-.09-.38-.22-.75-.47-1.08-.39-.5-.89-.82-1.47-1.05-.6-.24-1.24-.32-1.88-.35-.88-.04-1.77,0-2.65,0-.06-.01-.09,0-.08.08Z"/>
    <path class="c" d="m259.85,170.07s-.06.05-.08.08c-.01-.07.02-.09.08-.08Z"/>
  </g>
  <g>
    <circle class="c" cx="150" cy="84.54" r="66.05"/>
    <g>
      <polygon class="b" points="180.06 108.75 180.04 108.8 180.06 108.83 180.07 108.82 180.12 108.77 180.14 108.76 180.06 108.75"/>
      <g>
        <path class="b" d="m150.99,63.91c-1.09,3.89-2.72,6.94-4.85,9.07-1.47,1.47-3.14,2.47-4.96,2.99,1.83,1.11,4.01,1.7,6.33,1.7,4.16,0,8.4-1.85,11.64-5.09,5.98-5.98,6.81-14.9,1.86-19.94-2.22.3-7.41,2.02-10.01,11.26Z"/>
        <path class="b" d="m149.09,63.03c2.42-8.62,7-11.26,9.8-12.05-1.83-1.11-4.01-1.7-6.33-1.7-4.16,0-8.4,1.85-11.64,5.09-5.98,5.98-6.8,14.9-1.86,19.94,2.22-.3,7.43-2.02,10.02-11.27Z"/>
      </g>
      <path class="b" d="m187.32,100.16l.05.05s0,0,0-.01h0s.05-.09.05-.09l-.03-.06-.09.11Z"/>
      <polygon class="b" points="187.39 100.19 187.39 100.19 187.38 100.2 187.39 100.19"/>
      <path class="b" d="m187.38,100.21h0s0,0,0,0h0Z"/>
      <path class="b" d="m195.48,80.25c-.26,2.34-.7,4.67-1.31,6.95.69,0,2.77.13,4.24,1.52.99.93,1.48,2.23,1.48,3.86,0,5.24-6.89,8.21-11.97,8.4-1.66,2.47-3.57,4.83-5.76,7.01l-.75.75c10.79-.49,25.29-6.74,25.29-17.7,0-3.29-.98-5.89-2.92-7.73-2.72-2.58-6.65-3-8.31-3.06Z"/>
      <path class="b" d="m187.38,100.21l-.05-.05.09-.11.03.06c4.88-7.43,7.35-15.98,7.44-24.54h-6.26s0,.08,0,.12c0,10.52-4.09,20.4-11.53,27.84l-27.2,27.2c-.17.17-.39.26-.63.26s-.46-.09-.63-.26l-27.2-27.2c-7.44-7.44-11.53-17.32-11.53-27.84s4.09-20.4,11.53-27.84c7.44-7.44,17.32-11.53,27.84-11.53,6.83,0,13.39,1.73,19.19,4.98l4.94-4.94c-7.36-4.59-15.74-6.9-24.13-6.9-11.68,0-23.36,4.46-32.27,13.37-17.82,17.82-17.82,46.72,0,64.54l32.27,32.27,30.81-30.81h0s-.02-.02-.02-.02l.02-.05h.07s-.02.02-.02.02h0l1.41-1.41c2.22-2.22,4.17-4.62,5.84-7.15Z"/>
      <path class="b" d="m173.82,100.53l-24.56,24.56-24.56-24.56c-4.3-4.3-7.23-9.46-8.8-14.93,1.39.52,4.61,1.59,9.1,2.2,1.93.26,4.23.46,6.83.46,4.94,0,10.95-.7,17.46-2.96,9.91-3.44,18.63-3.26,24.2-2.5,4.73.64,8.05,1.8,9.28,2.28-1.53,5.66-4.51,11.01-8.95,15.45Z"/>
    </g>
  </g>
</svg>